<svg width="1920" height="1417" viewBox="0 0 1920 1417" fill="none" xmlns="http://www.w3.org/2000/svg">
<path opacity="0.9" d="M1223.5 768C997 750.946 940.988 796.5 691.5 796.5C442.012 796.5 346 662.5 0.287185 737.001L-0.463718 1417.5L1921.05 1417.5L1921.05 815.5C1624.84 936.499 1450 785.054 1223.5 768Z" fill="url(#paint0_linear)" fill-opacity="0.9"/>
<path opacity="0.9" d="M1921.71 724.501C1567 948 1104.51 678.001 791.005 678.001C477.505 678.001 304.005 874.501 -0.464131 717L-0.462446 1417L1921.05 1417L1921.71 724.501Z" fill="url(#paint1_linear)" fill-opacity="0.8"/>
<path d="M-0.490584 733.104L-0.49055 1417.5L1925.72 1417.5L1919.51 790.604C1244.8 866.104 1356.51 575.104 643.509 804.604C232.902 936.77 -0.490584 733.104 -0.490584 733.104Z" fill="url(#paint2_linear)"/>
<g opacity="0.7" clip-path="url(#clip0)">
<mask id="mask0" mask-type="alpha" maskUnits="userSpaceOnUse" x="-1" y="713" width="1923" height="705">
<path opacity="0.9" d="M1156 716.5C962 696.5 670 796 670 796C670 796 614 796 555.5 783C394 749.5 263.5 677.5 0.28674 737.001L-0.46434 1417.5L1921.05 1417.5L1920 725.5C1817.5 790.5 1711 803.5 1711 803.5C1454.5 806.5 1350 736.5 1156 716.5Z" fill="#EB5757"/>
</mask>
<g mask="url(#mask0)">
<path d="M1926.6 1834.5C1634.96 1820.59 1489.05 1525.28 1303.5 1359C1175 1261 1195 1265.5 1011.5 1249.5C828 1233.5 757.631 1208.93 626.604 1187C394.839 1148.18 169.104 1197 -63.8956 1247C-63.0177 1153.12 -57.1735 1049.08 -52.1255 955.203C-48.175 882.602 -51.028 808.027 -43.7853 735.866C-31.0558 608.869 157.253 679.277 177.226 553.377C470.444 554.693 762.565 586.497 1055.78 593.077C1221.21 596.776 1343.69 686.88 1462.09 788.5C1606.55 912.5 1722 1042.5 1935 1060.92C1937 1152 1911.5 1156.5 1872 1192C1831.5 1224 1829.63 1260 1849 1295C1932 1445 1922.87 1655.52 1926.6 1834.5Z" stroke="#56CCF2" stroke-miterlimit="10"/>
<path d="M1949.64 1085.26C1853.94 1083.07 1772.3 1063.33 1695.26 1004.54C1626.13 951.904 1563.58 892.025 1495.54 838.068C1369.56 738.269 1253.68 623.994 1082.93 620.704C945.538 618.072 807.708 618.95 670.536 611.273C510.319 602.28 352.736 578.592 191.642 577.056" stroke="#56CCF2" stroke-miterlimit="10"/>
<path d="M1945.25 1103.47C1850.43 1103.9 1772.74 1096.23 1698.12 1032.84C1632.27 976.908 1569.72 916.152 1499.05 866.582C1367.59 774.021 1263.34 645.271 1089.95 641.761C949.927 638.91 809.244 645.051 669.439 639.568C599.865 636.936 536.656 624.653 467.961 613.467C376.22 598.552 278.334 595.042 185.496 593.507" stroke="#56CCF2" stroke-miterlimit="10"/>
<path d="M1939.54 1117.94C1845.38 1121.01 1771.64 1124.3 1698.78 1056.09C1636.23 997.526 1572.8 935.453 1500.15 889.612C1364.08 804.07 1269.48 661.72 1093.9 658.211C1017.96 656.676 940.929 652.289 864.991 654.044C798.49 655.579 732.867 663.914 666.146 662.378C593.72 660.404 534.023 645.489 463.352 631.013C372.27 612.15 270.214 607.763 177.376 605.57" stroke="#56CCF2" stroke-miterlimit="10"/>
<path d="M1931.2 1132.42C1837.92 1138.34 1768.35 1154.57 1697.46 1080.22C1638.86 1019.02 1573.67 954.755 1499.27 913.739C1425.75 873.162 1376.15 807.36 1307.67 759.325C1239.85 711.949 1181.03 676.416 1096.1 674.442C1018.62 672.687 939.612 666.984 862.357 670.494C794.32 673.565 728.258 686.286 660.221 685.409C626.421 684.97 593.5 688.48 560.14 680.803C524.585 672.687 491.006 657.114 455.89 647.683C366.124 623.994 258.362 618.95 166.183 616.318" stroke="#56CCF2" stroke-miterlimit="10"/>
<path d="M1921.32 1145.58C1831.56 1154.13 1764.4 1184.4 1696.36 1105.66C1637.98 1038.1 1570.6 972.302 1489.84 933.26C1414.78 897.069 1366.93 826.223 1300.21 776.872C1234.81 728.399 1179.06 690.454 1095 689.138C1017.09 687.822 936.759 680.145 859.284 684.97C791.247 689.357 725.404 708.878 656.928 707.343C618.52 706.465 582.965 712.387 545.216 701.64C509.661 691.55 477.178 672.687 441.623 662.159C401.679 650.096 359.54 650.315 318.279 644.173C262.532 635.839 207.444 627.723 151.039 625.53" stroke="#56CCF2" stroke-miterlimit="10"/>
<path d="M1911 1157.5C1871.49 1162.54 1833.31 1181.33 1793.81 1183.74C1749.47 1186.38 1717.65 1160.49 1691.97 1127.15C1637.32 1056.75 1568.19 988.972 1485.45 954.755C1407.31 922.513 1361.22 846.403 1294.94 795.078C1229.98 744.85 1178.62 703.614 1093.03 701.86C1014.01 700.324 931.053 691.551 852.481 697.692C783.127 703.176 717.065 727.741 647.052 726.864C607.766 726.206 572.211 734.102 534.023 721.6C498.029 709.756 465.985 687.822 430.211 675.32C390.267 661.502 347.03 661.721 305.33 654.702C248.705 645.051 193.178 635.181 135.676 632.768" stroke="#56CCF2" stroke-miterlimit="10"/>
<path d="M118.556 638.69C177.156 641.541 233.122 652.947 290.405 663.914C332.544 671.81 376.439 671.152 416.603 687.164C452.817 701.421 484.201 726.206 520.634 740.024C559.262 754.719 594.817 744.63 634.981 745.069C706.749 745.946 772.811 716.116 843.482 709.317C923.371 701.64 1008.53 711.73 1088.85 713.484C1175.77 715.239 1223.17 759.984 1287.7 811.967C1353.76 865.266 1398.31 946.42 1479.52 974.715C1564.46 1004.33 1635.35 1074.07 1686.48 1147.33C1710.41 1181.77 1741.57 1209.84 1786.13 1203.26C1824.86 1197.58 1860.79 1175.13 1899.65 1168.56" stroke="#56CCF2" stroke-miterlimit="10"/>
<path d="M1889 1177.5C1848.84 1185.18 1817.29 1211.6 1778.66 1220.37C1734.11 1230.46 1703.17 1200.19 1681 1165.1C1652.91 1120.79 1613.18 1088.99 1578.06 1050.17C1548 1016.83 1516.17 1004.98 1473.16 992.262C1389.76 967.915 1345.86 881.497 1280.02 826.662C1215.93 773.144 1172.04 725.328 1083.81 723.354C1002.38 721.6 915.031 710.194 834.264 719.187C762.276 727.083 696.434 761.519 623.13 761.08C582.088 760.861 546.752 772.705 507.466 756.474C470.594 741.121 439.649 713.703 403.216 697.472C363.271 679.706 318.498 680.584 275.701 671.81C217.759 659.746 161.354 646.805 101.877 643.515" stroke="#56CCF2" stroke-miterlimit="10"/>
<path d="M83.441 648.121C143.138 651.85 199.104 665.888 257.046 679.267C304.013 690.234 354.054 688.48 396.632 712.607C431.309 732.566 461.816 761.519 499.126 776.653C534.462 790.91 565.847 777.75 602.499 777.969C681.51 778.188 749.328 738.489 826.583 729.496C906.691 720.064 996.237 731.47 1077.44 733.882C1168.09 736.515 1203.64 785.427 1268.17 840.48C1303.28 870.529 1333.79 901.456 1363.2 937.427C1377.46 954.536 1390.41 979.54 1408.41 993.139C1425.97 1006.52 1452.52 1008.05 1472.94 1012.88C1516.39 1023.19 1546.9 1035.47 1576.53 1070.35C1607.25 1106.54 1644.57 1134.39 1669.59 1174.53C1690.44 1208.09 1715.02 1250.42 1761.55 1242.96C1802.23 1236.41 1835.64 1196.91 1877.59 1187.1" stroke="#56CCF2" stroke-miterlimit="10"/>
<path d="M64.7851 652.728C125.36 656.895 181.765 672.468 240.365 687.164C287.772 699.008 338.69 697.034 381.049 723.574C415.945 745.508 445.793 777.311 483.763 793.981C519.318 809.773 550.703 794.858 588.013 794.858C669.219 794.639 736.378 750.114 815.17 739.585C857.528 733.883 897.692 741.34 939.612 742.218C983.068 743.314 1026.74 742.656 1070.42 743.972C1163.04 747.043 1194.64 799.245 1258.95 856.054C1294.72 887.419 1325.45 919.442 1354.86 956.949C1368.69 974.496 1381.41 1000.82 1399.63 1014.42C1417.19 1027.58 1445.28 1027.58 1465.91 1031.3C1510.69 1039.64 1541.41 1049.95 1571.26 1086.14C1601.99 1123.21 1640.4 1151.28 1664.1 1193.17C1683.19 1226.95 1706.9 1273.23 1754.08 1262.27C1795.19 1252.87 1822.78 1208.65 1865.95 1197.04" stroke="#56CCF2" stroke-miterlimit="10"/>
<path d="M46.7884 657.773C107.802 662.379 163.549 679.048 222.149 694.841C268.458 707.343 322.668 705.807 363.271 732.786C398.607 756.255 427.358 789.156 464.888 809.554C503.735 830.61 538.632 813.283 580.771 811.747C661.976 808.677 727.599 760.203 806.83 749.236C848.969 743.314 890.011 750.991 932.15 752.526C975.606 754.062 1019.28 752.965 1062.96 754.062C1154.92 756.474 1185.42 810.87 1247.32 868.994C1286.6 906.062 1320.18 941.376 1352.88 985.024C1364.08 1000.16 1374.61 1019.46 1389.1 1031.52C1407.31 1046.88 1428.6 1046.22 1452.09 1049.07C1505.42 1055.43 1537.02 1064.2 1570.6 1106.54C1601.11 1144.7 1639.3 1171.68 1661.03 1215.55C1678.36 1250.42 1702.95 1296.26 1749.04 1281.13C1790.29 1267.82 1811.14 1220.89 1856.05 1207" stroke="#56CCF2" stroke-miterlimit="10"/>
<path d="M1848.46 1217.08C1801.05 1232.87 1785.69 1284.42 1743.55 1301.09C1697.02 1319.51 1672.88 1270.6 1656.86 1235.07C1636.23 1189.45 1597.16 1162.47 1566.43 1122.99C1532.41 1079.34 1500.37 1072.32 1445.5 1068.59C1421.58 1066.84 1399.41 1069.03 1380.76 1053.24C1366.05 1040.95 1355.74 1020.78 1344.54 1005.42C1311.62 960.238 1277.6 923.609 1237.66 885.006C1175.77 825.127 1148.99 767.222 1054.84 764.809C1010.72 763.712 966.388 765.028 922.274 763.274C879.257 761.738 837.776 753.403 794.759 759.984C713.992 772.486 649.467 825.785 566.286 829.513C523.488 831.487 488.591 850.789 449.525 827.978C411.556 805.825 383.463 770.512 348.128 744.63C308.183 715.458 252.876 717.432 206.127 703.833C147.089 686.725 90.9031 668.52 29.2307 663.694" stroke="#56CCF2" stroke-miterlimit="10"/>
<path d="M1842.75 1227.17C1792.71 1245.6 1783.27 1296.92 1740.26 1319.73C1694.61 1344.08 1668.93 1287.49 1654.66 1253.27C1634.91 1205.9 1595.18 1179.14 1564.02 1138.56C1529.56 1093.38 1497.08 1088.33 1440.67 1086.8C1416.09 1086.14 1393.49 1089.43 1374.39 1073.64C1359.47 1061.35 1349.15 1040.3 1338.18 1024.72C1305.04 978.005 1270.36 940.279 1230.2 900.359C1168.3 838.945 1144.6 777.969 1048.47 775.337C1003.92 774.021 959.145 775.556 914.372 773.802C870.697 772.047 828.777 763.274 785.102 770.512C702.799 784.33 639.59 842.016 554.653 846.622C511.417 848.815 476.301 869.871 437.234 845.525C398.826 821.837 371.392 784.111 336.056 756.474C296.551 725.548 240.365 727.522 193.178 713.045C133.7 694.84 77.5148 675.319 14.9645 670.275" stroke="#56CCF2" stroke-miterlimit="10"/>
<path d="M1838.58 1239.02C1786.78 1259.85 1782.18 1312.49 1739.82 1340.35C1695.48 1369.3 1668.71 1313.15 1655.32 1278.5C1635.79 1227.83 1593.65 1191.2 1558.09 1149.31C1526.49 1112.02 1492.25 1107.41 1444.62 1107.85C1419.38 1108.07 1396.34 1112.9 1374.61 1100.83C1353.76 1088.99 1342.13 1060.91 1328.52 1041.61C1295.16 994.016 1259.17 955.852 1218.78 914.836C1157.11 852.105 1139.77 791.349 1042.11 787.839C997.334 786.304 952.561 787.181 907.788 786.523C858.626 785.865 814.073 774.46 764.691 785.427C681.729 804.07 622.471 861.098 534.901 866.801C497.59 869.213 465.766 890.27 430.869 871.407C387.413 847.938 358.223 799.464 320.474 768.538C282.724 737.611 223.466 738.927 177.596 724.231C118.337 705.149 62.8102 684.531 0.259906 679.267" stroke="#56CCF2" stroke-miterlimit="10"/>
<path d="M1837.04 1252.4C1783.49 1276.08 1783.05 1331.8 1740.26 1363.16C1695.7 1395.84 1668.93 1336.62 1656.42 1301.09C1637.98 1248.67 1594.96 1211.6 1558.75 1168.61C1526.49 1130.22 1490.93 1127.59 1442.43 1130.01C1416.75 1131.32 1392.61 1137.68 1370.22 1125.62C1348.93 1113.99 1337.3 1084.6 1323.91 1064.86C1290.11 1015.51 1253.24 976.47 1212.42 933.918C1185.2 905.624 1167.21 870.53 1141.31 841.577C1111.9 808.896 1079.2 803.413 1036.18 801.877C990.969 800.342 945.757 801.219 900.546 800.561C850.505 799.903 805.732 787.84 755.692 799.903C671.414 820.521 613.911 881.935 524.366 888.515C486.616 891.367 454.792 914.178 420.115 894.218C376.22 868.994 347.908 817.45 310.378 784.769C273.286 752.307 212.931 753.623 167.061 737.831C107.583 717.432 51.8362 695.718 -11.3726 690.015" stroke="#56CCF2" stroke-miterlimit="10"/>
<path d="M1838.58 1267.31C1784.37 1292.97 1786.57 1350.22 1744.87 1386.41C1693.07 1431.16 1668.27 1348.68 1657.51 1312.93C1643.47 1265.99 1595.84 1232.66 1565.33 1194.71C1527.15 1147.11 1493.13 1150.18 1434.31 1155.23C1411.7 1157.2 1379.88 1166.42 1360.13 1150.18C1347.18 1139.66 1337.08 1114.21 1327.86 1100.39C1294.72 1050.61 1259.83 1006.52 1217.03 965.064C1184.11 933.041 1166.55 891.586 1136.26 858.027C1106.85 825.346 1073.71 819.205 1030.91 818.108C986.141 817.011 941.149 818.547 896.376 817.231C846.335 815.915 801.343 803.851 751.522 816.792C669.658 838.068 610.839 910.23 523.268 913.739C482.007 915.274 443.16 941.156 407.166 917.248C363.93 888.296 337.812 836.313 299.624 801.438C266.044 770.95 215.565 773.363 173.425 759.764C107.364 738.269 49.4223 710.852 -20.5902 704.272" stroke="#56CCF2" stroke-miterlimit="10"/>
<path d="M1844.07 1283.98C1788.54 1312.49 1793.59 1373.03 1751.89 1412.51C1699.87 1461.64 1675.07 1375.01 1664.98 1338.6C1651.81 1290.56 1602.65 1256.56 1571.7 1217.74C1532.63 1168.83 1497.08 1174.09 1437.16 1181.33C1414.34 1184.18 1380.98 1195.15 1360.56 1178.7C1347.62 1168.17 1337.3 1141.63 1328.08 1127.81C1294.28 1076.49 1258.73 1031.08 1215.05 988.094C1181.25 954.974 1164.57 912.423 1134.51 877.11C1105.32 842.893 1072.17 836.752 1028.5 835.655C983.288 834.558 938.295 836.313 893.084 835.216C842.385 833.9 797.173 821.179 746.913 835.216C664.171 858.247 607.327 935.673 517.782 939.84C476.301 941.814 437.454 969.451 401.679 944.446C358.223 913.739 332.984 859.124 295.234 822.275C262.313 790.252 211.395 793.103 169.036 778.627C102.755 756.035 45.0328 727.083 -25.6381 720.283" stroke="#56CCF2" stroke-miterlimit="10"/>
<path d="M1852.19 1300.87C1795.56 1331.8 1802.81 1395.62 1761.11 1437.96C1708.87 1491.03 1683.85 1400.67 1674.41 1363.82C1661.68 1314.69 1611.2 1280.03 1579.6 1240.55C1539.44 1190.54 1502.35 1197.78 1441.55 1206.99C1418.51 1210.5 1383.61 1223.22 1362.54 1206.55C1349.37 1196.03 1339.06 1168.61 1329.84 1154.57C1295.6 1101.71 1259.17 1055.21 1214.61 1011.12C1179.94 976.908 1163.92 933.699 1134.07 896.85C1105.1 861.317 1071.74 855.176 1027.18 854.079C981.751 852.983 936.32 854.957 891.108 854.079C839.751 852.983 794.539 839.603 743.621 854.737C660.001 879.522 605.351 961.335 514.269 966.38C472.569 968.573 433.503 997.964 398.387 972.083C354.711 940.059 330.35 882.812 293.039 844.209C260.995 810.87 209.419 813.94 167.06 799.026C100.559 775.776 43.2764 745.288 -28.0529 738.269" stroke="#56CCF2" stroke-miterlimit="10"/>
<path d="M1862.94 1321.49C1807.2 1350.88 1810.49 1410.98 1769.23 1452.43C1719.19 1502.66 1690.44 1425.89 1679.46 1386.41C1665.42 1335.52 1608.57 1295.39 1574.99 1254.15C1539.22 1210.06 1487.64 1222.13 1436.5 1229.37C1420.92 1231.56 1388 1240.77 1373.29 1232.44C1356.83 1223.22 1339.71 1185.06 1328.96 1169.49C1294.28 1118.6 1258.29 1077.36 1215.27 1034.37C1182.79 1001.91 1163.7 961.993 1134.29 927.776C1105.53 894.437 1070.64 890.489 1028.06 888.954C983.507 887.418 938.953 887.857 894.4 886.98C845.238 886.102 800.245 872.065 750.644 883.69C662.854 904.307 608.424 983.049 513.831 985.462C466.424 986.778 442.94 1017.7 402.118 984.804C359.979 950.807 335.837 897.946 296.551 860.878C264.068 829.952 210.517 832.365 168.816 818.108C101.657 795.297 43.2766 767.222 -28.4917 761.08" stroke="#56CCF2" stroke-miterlimit="10"/>
<path d="M1872.82 1345.18C1817.73 1372.81 1817.29 1430.28 1775.15 1469.32C1725.11 1515.6 1695.26 1444.97 1682.53 1405.27C1666.73 1355.92 1610.77 1317.1 1576.97 1277.4C1540.97 1234.85 1490.93 1244.5 1439.8 1250.42C1423.99 1252.18 1392.39 1260.07 1377.68 1251.74C1361 1242.53 1343.88 1206.55 1332.69 1190.76C1297.58 1141.85 1262.02 1102.37 1219 1061.35C1186.74 1030.65 1166.33 991.823 1135.82 960.239C1105.53 928.873 1070.42 926.241 1028.5 924.925C984.604 923.39 940.709 922.513 896.814 920.977C848.749 919.222 804.854 905.185 756.131 914.836C670.536 931.944 614.131 1003.67 522.829 1003.89C475.862 1004.11 452.158 1031.96 411.556 1000.16C369.416 967.257 344.177 916.371 304.232 881.058C270.214 851.009 216.662 853.202 174.303 839.384C105.608 817.231 45.0325 791.13 -28.0526 785.865" stroke="#56CCF2" stroke-miterlimit="10"/>
<path d="M1882.26 1371.5C1828.49 1397.16 1823.66 1450.46 1781.74 1487.31C1734.55 1528.98 1701.41 1471.95 1686.27 1429.84C1667.83 1377.86 1616.47 1348.68 1581.58 1306.79C1545.58 1263.8 1503.88 1267.09 1450.55 1271.48C1425.75 1273.45 1400.29 1281.13 1379.44 1267.09C1360.13 1253.93 1344.98 1225.2 1331.59 1207.65C1296.7 1161.15 1260.26 1124.3 1217.91 1085.48C1187.18 1057.19 1166.33 1019.24 1135.6 991.384C1103.56 962.432 1068.22 961.555 1026.96 960.458C979.995 959.142 932.589 957.168 885.84 953.658C839.531 950.368 798.05 937.208 751.083 947.517C673.828 964.406 618.959 1021.21 536.875 1022.31C495.834 1022.97 460.937 1043.81 425.382 1019.9C383.023 991.384 355.808 943.349 318.278 909.572C279.212 874.478 224.562 875.794 175.62 860.659C106.046 839.384 43.9347 815.915 -29.5894 811.966" stroke="#56CCF2" stroke-miterlimit="10"/>
<path d="M1891.25 1400.23C1838.8 1423.92 1830.02 1473.05 1788.1 1507.7C1742.45 1545.21 1707.12 1498.49 1690.22 1456.16C1669.37 1404.4 1622.84 1379.17 1587.28 1337.5C1551.73 1295.82 1513.98 1292.53 1461.08 1294.95C1434.09 1296.04 1400.07 1304.6 1377.03 1285.73C1363.42 1274.55 1352.44 1253.93 1341.69 1240.11C1307.89 1196.46 1273.65 1157.42 1230.86 1122.55C1197.71 1095.35 1174.67 1058.72 1142.85 1030.43C1108.61 999.719 1072.39 997.964 1027.84 996.429C981.971 994.894 935.223 993.578 889.352 988.314C844.799 983.269 804.416 971.644 758.765 979.321C678.876 992.481 621.374 1043.15 537.534 1042.49C494.298 1042.05 467.741 1061.57 429.552 1034.59C388.511 1005.64 361.076 960.458 321.571 929.531C281.407 897.947 225.221 898.166 176.717 884.348C106.266 864.169 42.8378 843.332 -31.1252 840.48" stroke="#56CCF2" stroke-miterlimit="10"/>
<path d="M1899.38 1431.16C1847.8 1452.21 1834.41 1498.71 1791.39 1528.98C1744.43 1562.1 1708.87 1517.57 1689.56 1476.12C1666.51 1425.89 1620.42 1400.23 1584.21 1359.21C1548.22 1318.42 1510.69 1312.93 1457.79 1312.49C1430.36 1312.27 1397.66 1318.64 1374.39 1299.77C1360.56 1288.59 1349.37 1268.63 1338.18 1254.81C1303.94 1212.26 1269.26 1174.31 1226.47 1140.31C1193.11 1113.77 1168.52 1078.24 1135.6 1051.26C1099.83 1022.09 1063.18 1020.12 1018.4 1018.58C973.411 1017.05 927.761 1015.51 882.988 1010.25C839.751 1005.2 800.246 994.017 756.131 1000.38C678.876 1011.34 620.715 1056.97 540.168 1055.21C498.029 1054.33 471.253 1071.66 433.503 1046.22C392.901 1019.02 364.588 976.47 324.863 947.956C283.602 918.345 227.417 919.003 178.693 906.72C107.144 888.515 41.7408 870.31 -32.8806 869.214" stroke="#56CCF2" stroke-miterlimit="10"/>
<path d="M1906.18 1460.33C1855.04 1478.53 1836.83 1521.52 1792.71 1548.5C1745.3 1577.67 1707.55 1539.51 1685.83 1498.27C1659.05 1447.39 1610.55 1412.95 1569.29 1372.81C1531.1 1335.52 1490.93 1331.8 1438.92 1328.73C1373.29 1325 1362.1 1312.49 1320.4 1263.58C1285.07 1222.35 1249.51 1187.47 1207.37 1153.69C1172.47 1125.84 1143.94 1088.33 1106.63 1063.99C1071.3 1040.95 1034.43 1040.52 993.603 1039.42C951.025 1038.32 907.788 1034.37 865.429 1030.43C824.168 1026.7 786.857 1013.98 744.499 1019.02C673.169 1027.36 614.789 1072.76 540.826 1068.15C503.515 1065.96 470.594 1080.65 437.015 1062.01C392.681 1037.45 363.271 990.946 320.912 963.309C279.651 936.55 223.685 938.085 176.278 927.119C105.168 910.668 39.765 895.534 -33.9785 896.192" stroke="#56CCF2" stroke-miterlimit="10"/>
<path d="M1913.2 1493.89C1862.28 1509.68 1837.7 1549.82 1791.61 1572.41C1742.01 1596.75 1703.16 1561 1678.14 1520.43C1647.64 1470.86 1598.48 1436.2 1555.9 1396.5C1516.61 1359.87 1475.79 1353.29 1423.12 1347.59C1400.51 1345.18 1371.32 1346.71 1351.13 1333.55C1331.81 1321.05 1316.89 1296.92 1301.53 1280.03C1264.87 1239.89 1228.22 1205.68 1185.2 1173C1148.99 1145.58 1117.83 1109.17 1078.54 1086.14C1041.45 1064.2 1003.48 1063.77 961.56 1062.45C920.957 1061.35 879.037 1058.5 838.873 1053.46C800.026 1048.63 764.032 1037.66 724.307 1041.39C656.489 1047.97 600.523 1083.73 530.95 1082.63C496.492 1081.97 462.693 1092.28 431.528 1075.39C388.95 1052.36 359.54 1009.15 317.84 984.146C276.579 959.361 221.71 961.335 174.962 951.904C103.632 937.647 37.7899 925.145 -35.5147 927.338" stroke="#56CCF2" stroke-miterlimit="10"/>
<path d="M1919.57 1528.54C1869.97 1541.7 1838.36 1578.11 1792.49 1596.54C1733.67 1620 1697.68 1575.7 1665.63 1533.37C1634.03 1491.69 1587.94 1459.89 1549.09 1424.36C1504.98 1384 1461.3 1374.13 1403.14 1365.35C1385.8 1362.72 1361.44 1362.28 1345.86 1354.17C1323.69 1342.54 1299.33 1308.98 1282.87 1291.66C1245.78 1252.61 1208.03 1220.81 1164.79 1189.45C1130.77 1164.88 1100.71 1133.3 1064.27 1112.02C1023.67 1088.33 983.507 1085.48 937.417 1083.94C862.796 1081.53 785.321 1058.5 711.577 1062.89C644.418 1067.06 587.355 1097.54 518.879 1095.35C484.202 1094.25 456.767 1103.47 424.943 1085.92C388.072 1065.52 360.198 1030.87 324.424 1008.93C279.651 981.514 223.026 984.804 172.108 976.031C101.437 963.748 34.717 954.536 -37.2708 958.703" stroke="#56CCF2" stroke-miterlimit="10"/>
<path d="M1925.49 1563.64C1876.55 1574.6 1840.56 1606.19 1794.25 1621.1C1735.21 1640.18 1697.46 1596.32 1663.88 1555.3C1630.52 1514.28 1585.09 1482.48 1545.58 1446.73C1501.69 1406.81 1457.79 1393.87 1400.73 1381.8C1383.39 1378.08 1360.13 1376.32 1344.32 1367.55C1321.72 1355.26 1297.79 1323.46 1280.46 1305.48C1243.15 1267.53 1205.18 1235.95 1161.94 1205.24C1127.48 1180.89 1096.32 1150.4 1059.01 1130.01C1017.53 1107.19 976.923 1103.9 930.394 1102.37C857.309 1099.96 782.907 1078.9 710.48 1081.75C645.735 1084.38 588.452 1110.27 522.61 1107.41C488.811 1105.88 461.157 1113.56 429.772 1097.54C393.339 1078.9 364.369 1047.53 328.375 1028.01C282.285 1003.23 225.441 1007.18 174.303 1000.38C102.316 990.727 33.6202 984.366 -39.2455 990.288" stroke="#56CCF2" stroke-miterlimit="10"/>
<path d="M1930.76 1598.95C1880.94 1608.16 1836.83 1641.5 1787 1646.98C1733.67 1652.91 1700.09 1617.15 1668.49 1579.65C1631.18 1535.56 1583.33 1501.12 1540.75 1461.42C1503.66 1426.77 1461.52 1412.29 1413.46 1398.91C1359.91 1384 1333.79 1364.48 1294.94 1325C1255 1284.42 1214.39 1249.98 1168.09 1217.08C1090.39 1161.59 1036.4 1120.79 937.417 1118.38C866.088 1116.63 794.759 1097.1 723.868 1098.2C661.098 1099.3 603.377 1123.43 539.948 1118.38C502.857 1115.53 472.57 1122.77 437.892 1106.32C401.679 1089.21 371.172 1061.13 334.3 1045.12C290.405 1026.04 241.024 1030.43 194.275 1026.04C114.825 1018.36 38.8873 1013.76 -40.7821 1022.31" stroke="#56CCF2" stroke-miterlimit="10"/>
<path d="M1935.15 1630.53C1886.43 1637.99 1839.46 1666.28 1790.52 1667.6C1737.62 1668.92 1704.48 1635.14 1672 1598.07C1603.96 1520.21 1520.12 1445.85 1421.58 1411.63C1324.79 1377.86 1263.78 1287.27 1181.25 1227.83C1105.32 1173.21 1048.69 1132.42 951.902 1130.01C880.793 1128.25 809.902 1111.14 739.451 1111.36C676.9 1111.58 617.862 1131.54 554.872 1126.28C517.781 1123.21 486.396 1129.13 451.061 1114.65C414.189 1099.3 381.707 1074.73 343.957 1060.91C298.306 1044.03 247.608 1049.29 199.762 1046.44C117.898 1041.39 39.1065 1040.08 -42.5382 1050.39" stroke="#56CCF2" stroke-miterlimit="10"/>
<path d="M1939.32 1665.19C1891.91 1670.45 1843.85 1691.95 1796.22 1690.19C1739.82 1688 1704.7 1649.4 1670.02 1609.48C1636.44 1570.65 1592.99 1540.17 1556.56 1503.76C1521.88 1469.1 1484.57 1447.61 1439.58 1427.87C1343.23 1385.53 1280.9 1298.68 1196.4 1236.6C1123.97 1183.3 1065.81 1145.14 973.411 1142.07C899.887 1139.66 826.144 1125.18 753.059 1125.18C690.508 1125.18 631.25 1139.22 568.48 1134.17C531.169 1131.1 499.784 1135.49 463.791 1122.33C426.26 1108.51 391.803 1088.11 352.956 1077.36C305.33 1064.2 253.095 1070.13 204.152 1069.03C120.313 1067.06 38.668 1069.47 -44.513 1081.97" stroke="#56CCF2" stroke-miterlimit="10"/>
<path d="M1943.05 1698.97C1896.74 1702.48 1848.24 1717.61 1801.71 1712.13C1747.72 1705.77 1711.72 1670.45 1677.49 1631.63C1611.86 1557.27 1533.07 1485.11 1445.5 1437.95C1359.47 1391.67 1303.06 1311.18 1224.49 1253.49C1151.19 1199.54 1089.51 1156.11 995.358 1153.91C922.493 1152.16 850.505 1140.09 777.859 1138.56C716.186 1137.24 655.831 1147.33 593.939 1142.51C557.506 1139.66 523.049 1142.51 487.494 1132.42C445.574 1120.57 405.849 1101.49 362.832 1093.16C313.23 1083.51 259.679 1089.87 209.419 1090.52C123.385 1091.62 39.3259 1097.54 -45.6109 1112.02" stroke="#56CCF2" stroke-miterlimit="10"/>
<path d="M1945.9 1731.43C1899.59 1733.18 1850.65 1742.4 1804.78 1732.96C1752.55 1722.22 1716.11 1688 1681.44 1650.05C1614.72 1576.58 1540.31 1503.98 1456.69 1450.46C1309.43 1356.14 1211.1 1170.8 1016.65 1166.2C943.563 1164.44 871.794 1155.01 799.148 1151.94C737.037 1149.31 675.364 1155.23 613.253 1149.97C576.601 1146.89 540.826 1148.43 504.613 1140.1C461.376 1130.22 419.237 1115.09 375.123 1109.17C323.107 1102.37 268.897 1108.95 216.662 1111.36C127.774 1115.31 40.4235 1124.74 -47.147 1140.97" stroke="#56CCF2" stroke-miterlimit="10"/>
<path d="M1948.32 1762.14C1840.12 1762.57 1764.4 1752.48 1686.48 1670.45C1615.59 1595.88 1542.95 1520.64 1459.99 1459.23C1323.03 1357.68 1222.52 1186.38 1033.99 1180.67C898.351 1176.5 760.74 1170.14 625.544 1157.64C544.338 1150.18 464.23 1131.1 383.024 1125.18C242.34 1115.31 88.7081 1142.07 -48.4637 1169.49" stroke="#56CCF2" stroke-miterlimit="10"/>
<path d="M1949.85 1788.24C1842.97 1786.04 1763.74 1763.23 1686.7 1686.03C1613.84 1613.21 1543.61 1537.31 1464.6 1471.07C1336.2 1363.16 1227.34 1201.73 1043.2 1196.03C908.007 1191.86 772.591 1180.23 638.053 1165.76C556.628 1156.98 473.447 1142.29 391.583 1139.66C245.632 1135.27 92.6583 1163.78 -49.1225 1193.83" stroke="#56CCF2" stroke-miterlimit="10"/>
<path d="M1950.95 1814.78C1846.48 1810.39 1763.08 1776.17 1686.05 1704.89C1610.99 1635.58 1542.95 1559.47 1468.77 1489.28C1346.08 1373.25 1226.25 1222.79 1043.64 1215.99C908.227 1210.94 776.323 1191.64 641.785 1174.75C564.968 1165.1 486.177 1155.67 408.702 1155.23C255.289 1154.57 99.2427 1185.5 -49.7808 1218.62" stroke="#56CCF2" stroke-miterlimit="10"/>
<path d="M101.657 1212.48C93.9751 1130.01 76.1977 1047.75 74.8809 964.625C74.4419 930.847 77.734 897.069 76.1977 863.072C74.6614 829.733 66.5408 795.735 66.9797 762.615C67.8576 706.026 104.51 684.093 152.575 665.888C212.931 643.077 264.507 634.523 275.481 561.045" stroke="#56CCF2" stroke-miterlimit="10"/>
<path d="M229.831 1190.54C217.759 1116.85 178.473 1047.75 176.718 972.302C176.059 941.595 180.668 912.204 176.498 881.496C172.987 854.957 162.671 827.32 160.257 800.78C154.77 741.998 199.543 710.194 245.852 686.506C305.988 655.798 344.616 637.374 350.322 563.677" stroke="#56CCF2" stroke-miterlimit="10"/>
<path d="M336.715 1178.04C324.424 1112.24 273.286 1058.94 268.458 991.603C266.263 962.212 273.945 934.137 270.214 904.527C266.922 876.671 254.411 850.35 251.997 822.495C246.73 760.641 285.138 727.96 332.984 697.911C390.047 662.159 417.262 637.155 418.14 566.747" stroke="#56CCF2" stroke-miterlimit="10"/>
<path d="M431.308 1172.78C414.189 1115.75 347.688 1082.85 336.056 1024.94C330.789 998.842 343.738 973.398 338.909 947.078C333.861 919.661 314.986 894.876 310.158 867.897C299.404 809.115 351.2 759.325 392.461 727.522C451.719 682.119 482.226 649.657 483.982 570.696" stroke="#56CCF2" stroke-miterlimit="10"/>
<path d="M511.167 1174.55C499 1120 412.185 1123.89 398.358 1073C392.871 1052.82 408.453 1035.05 404.064 1014.22C399.016 990.749 375.313 970.57 371.143 947.759C359.511 882.615 415.038 817.253 455.64 774.263C514.679 712.19 544.308 665.472 545.186 576.421" stroke="#56CCF2" stroke-miterlimit="10"/>
<path d="M583 1180.5C570.051 1129.39 467.741 1150.62 455.231 1103.9C450.622 1086.36 468.839 1073.64 465.327 1055.21C460.938 1032.4 433.942 1014.41 429.553 992.481C415.945 925.144 478.496 848.376 517.562 801C576.162 730.373 605.571 675.319 606.449 580.566" stroke="#56CCF2" stroke-miterlimit="10"/>
<path d="M646 1190C645.342 1127.49 527.877 1152.82 517.342 1101.05C513.172 1080.87 539.07 1067.28 537.314 1045.78C535.12 1019.46 509.88 996.429 504.174 970.986C490.347 908.036 550.702 835.436 587.574 791.788C643.54 725.328 668.56 674.223 665.927 584.733" stroke="#56CCF2" stroke-miterlimit="10"/>
<path d="M707 1202C723.68 1135.98 586.257 1151.5 586.477 1095.13C586.477 1071 613.911 1058.72 614.131 1032.4C614.35 1004.54 594.158 977.128 591.525 948.833C585.16 881.497 628.397 826.882 668.56 777.969C718.82 716.555 734.842 668.74 727.599 588.681" stroke="#56CCF2" stroke-miterlimit="10"/>
<path d="M763.374 1213.57C767.324 1161.15 729.794 1152.82 688.752 1130.01C667.244 1117.94 635.201 1104.56 642.882 1074.07C650.344 1044.68 681.51 1038.76 681.51 1002.13C681.51 969.451 661.098 936.769 659.123 904.307C655.612 845.964 695.556 799.464 732.428 760.203C782.468 706.685 798.929 668.081 789.052 592.41" stroke="#56CCF2" stroke-miterlimit="10"/>
<path d="M823 1225C832.437 1167.53 800.246 1155.89 755.253 1127.59C734.622 1114.65 697.092 1096.67 702.799 1066.18C708.724 1035.25 751.522 1020.34 757.228 987.655C763.813 949.71 738.793 902.553 738.793 863.511C738.793 809.992 766.227 776.872 803.538 742.217C852.261 696.814 868.502 665.011 855.334 595.261" stroke="#56CCF2" stroke-miterlimit="10"/>
<path d="M885 1235C901.241 1177.75 874.647 1164.88 828.118 1135.71C811.438 1125.18 769.299 1104.34 773.03 1077.15C779.395 1028.89 843.043 1024.28 841.726 967.257C840.848 929.312 830.533 891.367 830.972 853.421C831.63 801.658 857.528 771.17 891.766 736.295C934.125 693.086 940.051 658.211 923.59 598.113" stroke="#56CCF2" stroke-miterlimit="10"/>
<path d="M955 1244C977.167 1189.17 956.292 1173.87 908.666 1146.02C879.256 1128.69 848.53 1117.06 858.187 1081.75C869.161 1042.49 926.663 1037.01 936.978 993.358C946.416 954.536 931.272 902.772 932.369 862.414C933.906 808.676 953.658 779.066 985.482 738.05C1021.48 691.77 1017.53 654.263 998.212 599.648" stroke="#56CCF2" stroke-miterlimit="10"/>
<path d="M1033.5 1251.5C1059.4 1199.08 1042.33 1177.6 993.383 1150.84C963.535 1134.39 921.395 1122.11 942.026 1082.41C958.706 1050.39 1014.89 1043.81 1030.04 1008.49C1046.28 970.547 1029.82 901.018 1031.57 860.001C1033.55 815.037 1046.28 784.33 1071.08 748.14C1106.63 696.157 1101.36 658.869 1077.22 600.745" stroke="#56CCF2" stroke-miterlimit="10"/>
<path d="M1111 1259C1135.8 1209.87 1122.43 1190.98 1077.66 1163.13C1049.35 1145.58 1011.38 1131.32 1031.13 1092.94C1046.94 1062.23 1098.73 1054.33 1112.34 1020.34C1126.82 984.585 1112.56 918.564 1113 879.961C1113.66 833.681 1123.31 801.438 1147.24 762.835C1181.25 707.781 1179.28 669.617 1155.79 608.422" stroke="#56CCF2" stroke-miterlimit="10"/>
<path d="M1229.98 631.233C1246.22 695.498 1242.49 738.708 1206.71 793.761C1175.77 841.358 1154.92 879.303 1155.79 937.866C1156.45 974.276 1171.6 1020.12 1164.79 1055.65C1157.11 1095.57 1105.32 1101.05 1096.54 1136.8C1088.42 1169.49 1118.04 1180.89 1145.04 1196.9C1186.21 1221.17 1206.66 1233.66 1189.41 1278.5" stroke="#56CCF2" stroke-miterlimit="10"/>
<path d="M1258.5 1324.5C1272.5 1263.5 1156.23 1261.83 1170.5 1195.37C1177.3 1163.34 1223.39 1158.08 1228.88 1122.33C1233.93 1090.31 1218.35 1049.73 1216.59 1017.27C1213.08 953 1235.9 906.281 1266.63 851.886C1302.62 788.278 1311.4 737.611 1297.58 664.572" stroke="#56CCF2" stroke-miterlimit="10"/>
<path d="M1328 1382C1363.34 1308.74 1238.98 1321.93 1251.92 1261.17C1258.29 1231.78 1299.11 1226.51 1303.72 1193.83C1307.67 1165.1 1293.63 1128.69 1290.77 1099.52C1284.19 1030.87 1304.38 977.128 1332.91 916.371C1366.27 844.867 1376.81 787.182 1363.42 708.001" stroke="#56CCF2" stroke-miterlimit="10"/>
<path d="M1394.14 1442.12C1439.14 1402.86 1318.86 1378.51 1326.77 1338.81C1331.81 1313.81 1364.95 1306.35 1371.32 1279.59C1376.59 1257.88 1360.35 1220.59 1357.05 1198C1346.52 1124.3 1365.39 1059.38 1393.05 991.823C1425.53 911.765 1437.38 843.112 1425.09 756.474" stroke="#56CCF2" stroke-miterlimit="10"/>
<path d="M1460.86 1510.12C1509.81 1458.35 1394.8 1420.41 1415.43 1364.92C1423.99 1341.89 1450.99 1328.51 1457.35 1303.72C1463.72 1278.72 1450.99 1236.38 1446.6 1211.16C1436.06 1149.09 1438.7 1097.32 1459.11 1038.32C1487.34 957.625 1502.91 896.769 1487.12 810.318" stroke="#56CCF2" stroke-miterlimit="10"/>
<path d="M1525.17 1577.67C1561.38 1505.95 1485.01 1463.18 1504.1 1394.09C1514.2 1357.24 1544.92 1337.06 1547.78 1296.92C1549.75 1268.41 1546.68 1235.95 1541.63 1207.87C1531.1 1151.28 1521.22 1111.14 1537.68 1054.33C1557.7 985.189 1565.64 935.228 1547.38 863.638" stroke="#56CCF2" stroke-miterlimit="10"/>
<path d="M1591.89 1645.67C1625.25 1576.36 1562.48 1526.13 1577.41 1457.26C1585.09 1421.5 1610.77 1398.04 1611.86 1359.87C1612.74 1332.45 1609.23 1302.62 1603.3 1276.08C1590.35 1217.52 1578.94 1175.85 1594.96 1116.19C1614.5 1044.03 1625.47 990.726 1608.13 915.494" stroke="#56CCF2" stroke-miterlimit="10"/>
<path d="M1657.73 1706.86C1689.56 1641.72 1640.18 1586.23 1652.25 1519.77C1658.39 1485.77 1677.27 1460.11 1679.02 1424.79C1680.12 1399.79 1675.29 1371.93 1669.15 1347.81C1653.56 1286.17 1639.96 1241.65 1654.88 1178.04C1672.51 1102.15 1686.22 1041.11 1670.63 962.7" stroke="#56CCF2" stroke-miterlimit="10"/>
<path d="M1727.75 1761.7C1756.72 1710.59 1707.77 1643.69 1709.53 1589.74C1710.41 1559.25 1722.04 1534.24 1718.53 1503.32C1715.89 1480.73 1707.12 1459.45 1700.09 1438.17C1677.93 1372.37 1676.83 1314.47 1696.36 1248.23C1721.38 1164 1745.22 1092.43 1736 1002.5" stroke="#56CCF2" stroke-miterlimit="10"/>
<path d="M1798.86 1803.81C1822.78 1741.74 1785.47 1668.04 1783.93 1604.65C1782.4 1543.68 1783.05 1498.49 1761.11 1440.37C1737.84 1378.95 1734.99 1325.65 1756.28 1263.58C1783.05 1185.06 1808.42 1117.03 1802.27 1031.71" stroke="#56CCF2" stroke-miterlimit="10"/>
<path d="M1875.67 1832.1C1882.48 1742.18 1861.19 1654 1850.65 1564.95C1842.09 1491.47 1832.44 1425.89 1803.68 1357.46C1783.05 1308.33 1779.1 1271.26 1808.29 1224.98C1844.07 1167.95 1876.06 1124.88 1877.37 1053.38" stroke="#56CCF2" stroke-miterlimit="10"/>
<path d="M156.085 1117.5C163.264 1117.5 169.085 1111.68 169.085 1104.5C169.085 1097.32 163.264 1091.5 156.085 1091.5C148.905 1091.5 143.085 1097.32 143.085 1104.5C143.085 1111.68 148.905 1117.5 156.085 1117.5Z" stroke="white" stroke-miterlimit="10"/>
<path d="M1140 1308.5C1145.52 1308.5 1150 1304.02 1150 1298.5C1150 1292.98 1145.52 1288.5 1140 1288.5C1134.48 1288.5 1130 1292.98 1130 1298.5C1130 1304.02 1134.48 1308.5 1140 1308.5Z" stroke="white" stroke-miterlimit="10"/>
<path d="M468 1280H672" stroke="white" stroke-miterlimit="10"/>
<path d="M1245.61 1223.5H1417" stroke="white" stroke-miterlimit="10"/>
<path d="M1590 925.5H1675.69H1761.39" stroke="white" stroke-miterlimit="10"/>
<path d="M1446 1120.5C1489.08 1120.5 1524 1085.58 1524 1042.5C1524 999.422 1489.08 964.5 1446 964.5C1402.92 964.5 1368 999.422 1368 1042.5C1368 1085.58 1402.92 1120.5 1446 1120.5Z" stroke="white" stroke-miterlimit="10"/>
<path d="M322 1422.5C371.706 1422.5 412 1382.21 412 1332.5C412 1282.79 371.706 1242.5 322 1242.5C272.294 1242.5 232 1282.79 232 1332.5C232 1382.21 272.294 1422.5 322 1422.5Z" stroke="white" stroke-miterlimit="10"/>
<path d="M815.5 863C815.5 872.665 807.665 880.5 798 880.5C788.335 880.5 780.5 872.665 780.5 863C780.5 853.335 788.335 845.5 798 845.5C807.665 845.5 815.5 853.335 815.5 863Z" stroke="white"/>
<path d="M1782.5 1346.5C1782.5 1356.16 1774.66 1364 1765 1364C1755.34 1364 1747.5 1356.16 1747.5 1346.5C1747.5 1336.84 1755.34 1329 1765 1329C1774.66 1329 1782.5 1336.84 1782.5 1346.5Z" stroke="white"/>
</g>
</g>
<defs>
<linearGradient id="paint0_linear" x1="-37.4999" y1="1400" x2="1977.7" y2="1277.48" gradientUnits="userSpaceOnUse">
<stop stop-color="#86F5FC" stop-opacity="0.55"/>
<stop offset="1" stop-color="#005B8E"/>
</linearGradient>
<linearGradient id="paint1_linear" x1="1938.52" y1="1325" x2="880.819" y2="234.456" gradientUnits="userSpaceOnUse">
<stop stop-color="#005B8E"/>
<stop offset="1" stop-color="#86F5FC" stop-opacity="0.4"/>
</linearGradient>
<linearGradient id="paint2_linear" x1="1914" y1="1103" x2="27.3786" y2="895.242" gradientUnits="userSpaceOnUse">
<stop stop-color="#005B8E" stop-opacity="0.1"/>
<stop offset="1" stop-color="#005B8E"/>
</linearGradient>
<clipPath id="clip0">
<rect width="2006" height="1284" fill="white" transform="translate(1956 1840) rotate(-180)"/>
</clipPath>
</defs>
</svg>
