<svg width="1920" height="1235" viewBox="0 0 1920 1235" fill="none" xmlns="http://www.w3.org/2000/svg">
<path opacity="0.8" d="M715.104 608.026C1024.53 685.055 1230.6 482.299 1351.1 441.527C1471.6 400.755 1550 608.022 1920 569.005L1920.01 -0.931941L-1.49941 -0.930978L-1.49927 368.5C330.5 229 405.675 530.998 715.104 608.026Z" fill="url(#paint0_linear)"/>
<path opacity="0.9" d="M601.105 634.026C797.105 659.154 806.577 469.524 1087.08 435.025C1367.58 400.525 1615.58 683.02 1920.01 451.021L1920.01 -0.932362L-1.49891 -0.931698L-1.50001 435.026C375.605 343.526 405.105 608.898 601.105 634.026Z" fill="url(#paint1_linear)"/>
<path opacity="0.9" d="M675.605 675.026C910.59 611.969 911.091 458.022 1176.56 442.516C1442.04 427.009 1570.55 725.013 1920.01 572.026L1920.01 -5.47343L-1.49979 -5.47343L-1.50015 502C362.5 339.5 440.621 738.083 675.605 675.026Z" fill="url(#paint2_linear)"/>
<mask id="mask0" mask-type="alpha" maskUnits="userSpaceOnUse" x="-2" y="-6" width="1922" height="689">
<path opacity="0.9" d="M-1.60577 -5.49589L-1.60548 502.5C335.931 352.331 417.183 680.41 615 681.5C646 685 692 672.481 734 656C744.857 651.74 771.044 641.32 801.5 623C829.5 609 906 549 927 531.5C960.429 507.928 992.5 484.5 1038.5 469C1091.69 448.96 1136.5 445.5 1186.5 442.5C1210.61 441.054 1244.29 444.338 1274 450.5C1293.5 455.5 1333.53 466.872 1349 472C1411.5 490.5 1450.7 507.726 1538.5 528.5C1650.5 555 1786 555.5 1919.91 450.5L1919.91 -5.49541L-1.60577 -5.49589Z" fill="#EB5757"/>
</mask>
<g mask="url(#mask0)">
<path d="M-23.7823 -531.147C373.129 -510.326 492.66 103.059 889.136 120.769C1021.29 126.752 1144.31 155.949 1274.29 179.881C1504.21 222.241 1733.47 178.206 1958.16 121.487C1957.29 223.917 1952.28 326.347 1947.28 428.777C1943.36 507.993 1946.19 589.362 1939 668.1C1926.37 806.668 1739.57 729.845 1719.75 867.216C1428.87 865.78 1139.08 831.079 848.204 823.899C488.088 815.044 336.116 330.894 -24 313.423C-17.5 209.489 11.5 210.039 52 164.952C87 130.312 87.3129 100.552 67.5 53.8844C-14.5 -114.917 -20.081 -335.859 -23.7823 -531.147Z" stroke="#56CCF2" stroke-miterlimit="10"/>
<path d="M-30.6859 286.869C64.2419 289.262 145.235 310.801 221.657 374.94C290.24 432.377 352.291 497.712 419.786 556.586C544.759 665.477 659.718 790.165 829.107 793.754C965.403 796.626 1102.13 795.669 1238.21 804.045C1397.15 813.858 1553.48 839.704 1713.29 841.38" stroke="#56CCF2" stroke-miterlimit="10"/>
<path d="M-26.3315 267.005C67.7254 266.526 144.8 274.903 218.826 344.067C284.143 405.094 346.195 471.387 416.302 525.474C546.719 626.468 650.138 766.95 822.14 770.779C961.048 773.891 1100.61 767.19 1239.3 773.173C1308.32 776.045 1371.02 789.447 1439.17 801.652C1530.18 817.926 1627.28 821.755 1719.38 823.43" stroke="#56CCF2" stroke-miterlimit="10"/>
<path d="M-20.6707 251.21C72.7331 247.859 145.888 244.269 218.173 318.699C280.224 382.598 343.147 450.326 415.213 500.345C550.202 593.681 644.042 749.001 818.221 752.83C893.554 754.506 969.975 759.292 1045.31 757.377C1111.28 755.702 1176.38 746.608 1242.57 748.283C1314.41 750.437 1373.64 766.711 1443.74 782.506C1534.1 803.088 1635.34 807.875 1727.44 810.268" stroke="#56CCF2" stroke-miterlimit="10"/>
<path d="M-12.3972 235.414C80.1356 228.953 149.154 211.243 219.479 292.373C277.612 359.144 342.276 429.266 416.084 474.019C489.022 518.294 538.227 590.091 606.157 642.502C673.434 694.196 731.784 732.966 816.044 735.12C892.9 737.035 971.281 743.257 1047.92 739.428C1115.41 736.078 1180.95 722.197 1248.44 723.154C1281.97 723.633 1314.63 719.804 1347.73 728.18C1383 737.035 1416.31 754.027 1451.15 764.318C1540.19 790.165 1647.1 795.669 1738.54 798.541" stroke="#56CCF2" stroke-miterlimit="10"/>
<path d="M-2.59961 221.055C86.4496 211.722 153.073 178.695 220.568 264.612C278.482 338.323 345.324 410.12 425.446 452.72C499.908 492.208 547.372 569.509 613.56 623.357C678.442 676.247 733.744 717.65 817.132 719.086C894.425 720.522 974.112 728.898 1050.97 723.633C1118.46 718.846 1183.78 697.547 1251.71 699.222C1289.81 700.179 1325.08 693.718 1362.53 705.444C1397.8 716.453 1430.03 737.035 1465.3 748.522C1504.92 761.685 1546.73 761.446 1587.66 768.147C1642.96 777.241 1697.61 786.096 1753.56 788.489" stroke="#56CCF2" stroke-miterlimit="10"/>
<path d="M8.5 207.84C47.6904 202.336 84.7079 182.045 123.898 179.413C167.879 176.541 199.449 204.781 224.922 241.158C279.136 317.981 347.719 391.931 429.801 429.266C507.311 464.446 553.033 547.491 618.786 603.493C683.232 658.298 734.179 703.29 819.092 705.205C897.473 706.88 979.772 716.453 1057.72 709.752C1126.52 703.769 1192.05 676.965 1261.51 677.922C1300.48 678.64 1335.75 670.025 1373.64 683.666C1409.34 696.589 1441.13 720.522 1476.62 734.163C1516.25 749.24 1559.14 749.001 1600.5 756.659C1656.68 767.19 1711.76 777.959 1768.81 780.592" stroke="#56CCF2" stroke-miterlimit="10"/>
<path d="M20 196.293C59.4081 189.353 92.9814 164.335 131.519 158.113C175.717 150.933 206.634 181.567 230.365 219.14C281.095 299.074 351.42 375.179 435.68 407.487C516.238 438.36 560.436 526.91 625.971 585.065C689.982 641.784 737.01 690.606 823.229 692.521C902.916 694.435 987.393 705.444 1066.64 697.068C1136.75 689.649 1202.29 657.101 1273.48 658.058C1313.33 658.537 1348.6 647.528 1386.92 663.563C1423.06 678.64 1454.19 705.684 1490.12 721.24C1529.96 738.71 1573.51 737.992 1615.31 746.608C1672.14 758.574 1727.66 771.019 1785.79 774.13" stroke="#56CCF2" stroke-miterlimit="10"/>
<path d="M30.5 186.396C70.3435 178.02 100.602 149.019 138.921 139.446C183.119 128.437 213.818 161.464 235.809 199.755C263.677 248.098 303.085 282.8 337.921 325.16C367.749 361.537 399.319 374.461 441.993 388.342C524.729 414.906 568.273 509.2 633.591 569.03C697.166 627.425 740.711 679.597 828.236 681.751C909.012 683.666 995.666 696.111 1075.79 686.298C1147.2 677.683 1212.52 640.109 1285.24 640.588C1325.95 640.827 1361.01 627.904 1399.98 645.614C1436.56 662.366 1467.26 692.282 1503.4 709.991C1543.03 729.377 1587.44 728.419 1629.9 737.992C1687.38 751.155 1743.33 765.275 1802.33 768.865" stroke="#56CCF2" stroke-miterlimit="10"/>
<path d="M42 175.399C83.8031 164.869 115.407 121.975 155.904 114.796C202.061 106.659 226.446 152.848 247.13 189.464C271.951 233.26 308.964 263.654 339.445 303.143C368.838 341.195 399.102 354.597 442.211 365.845C462.46 371.11 488.804 372.786 506.222 387.384C524.075 402.222 536.921 429.505 551.073 448.172C580.248 487.421 610.512 521.166 645.348 553.953C709.359 614.023 744.63 667.392 834.55 670.264C915.108 672.896 1003.94 685.341 1083.41 675.05C1160.05 665.238 1227.32 621.921 1305.71 622.16C1342.07 622.399 1373.2 608.04 1408.25 623.596C1445.27 640.109 1475.53 671.7 1509.93 693.478C1552.17 719.804 1601.81 717.889 1648.4 729.855C1705.88 744.454 1761.4 759.771 1820.62 763.839" stroke="#56CCF2" stroke-miterlimit="10"/>
<path d="M51.8315 165.053C94.9409 152.609 122.374 104.026 163.306 93.7352C210.117 81.7691 233.631 132.266 252.573 169.122C276.088 214.833 314.189 245.466 344.671 285.912C374.281 325.4 404.763 336.648 449.178 345.742C469.644 349.811 497.513 349.811 514.931 364.17C533.002 379.008 545.63 407.727 559.347 426.873C588.522 467.797 619.003 502.738 654.492 536.961C718.286 598.946 749.638 655.905 841.518 659.255C884.845 660.691 928.172 659.973 971.281 661.17C1012.87 662.127 1052.71 670.264 1094.73 664.042C1172.89 652.554 1239.52 603.971 1320.08 603.732C1357.09 603.732 1388.22 587.458 1423.49 604.689C1461.16 622.878 1490.77 657.58 1525.39 681.512C1567.41 710.47 1617.92 708.316 1664.95 721.24C1723.08 737.274 1779.04 754.266 1839.13 758.813" stroke="#56CCF2" stroke-miterlimit="10"/>
<path d="M62 153.955C107.069 139.117 127.164 87.7522 168.314 73.1535C214.036 56.6403 238.421 106.659 255.621 144.711C277.176 192.576 315.06 222.012 345.324 263.654C378.636 309.844 409.988 319.417 462.895 326.357C486.191 329.468 507.311 328.75 525.382 345.503C539.752 358.666 550.202 379.726 561.306 396.239C593.747 443.864 627.059 482.396 666.032 522.841C727.43 586.262 757.694 645.614 848.92 648.246C892.247 649.443 935.574 648.246 978.684 649.921C1020.49 651.597 1061.2 659.973 1103 653.511C1181.6 641.545 1246.7 588.655 1327.26 585.304C1369.06 583.629 1403.68 564.722 1442.22 587.697C1479.45 609.954 1507.97 645.853 1543.03 671.46C1583.3 700.897 1637.08 699.222 1683.02 712.863C1741.15 730.094 1796.46 748.283 1856.98 753.309" stroke="#56CCF2" stroke-miterlimit="10"/>
<path d="M70 142.959C117.028 125.728 131.954 69.5637 173.757 51.3752C219.915 31.2721 243.864 84.641 259.758 123.411C280.224 173.19 318.979 202.627 349.461 245.705C383.208 293.33 414.996 300.989 469.427 305.057C493.159 306.972 515.149 304.579 533.655 321.81C548.243 335.212 558.476 357.23 569.58 373.982C602.238 423.283 635.986 463.25 675.612 505.37C737.01 570.706 763.572 633.887 856.976 636.519C900.738 637.716 944.719 636.28 988.481 638.195C1031.16 639.87 1072.31 648.964 1114.98 641.784C1195.1 628.143 1259.11 569.988 1341.63 565.919C1384.09 563.765 1418.7 542.705 1457.46 567.594C1495.13 591.766 1522.99 630.297 1558.05 658.537C1597.67 690.367 1652.54 688.213 1698.92 703.051C1757.48 721.718 1813.22 741.582 1874.4 746.847" stroke="#56CCF2" stroke-miterlimit="10"/>
<path d="M75.5 131.962C125.141 111.859 134.349 55.9224 177.023 31.0329C222.31 4.46803 247.783 66.2133 261.935 103.548C281.531 155.241 320.939 184.439 351.856 228.713C386.038 278.014 418.261 283.518 474.217 285.194C498.602 285.912 521.027 282.322 539.969 299.553C554.775 312.955 565.008 335.93 575.894 352.922C608.77 403.898 643.171 445.061 683.014 488.618C744.412 555.628 767.927 622.16 863.29 625.032C907.488 626.468 951.904 624.793 996.32 626.707C1039.65 628.622 1081.23 638.195 1124.56 630.297C1206.21 615.22 1268.91 552.278 1353.17 547.252C1396.06 544.859 1430.9 521.884 1469.65 548.449C1507.75 574.296 1534.97 615.459 1570.02 645.614C1609.21 679.358 1664.95 677.204 1711.76 693C1770.76 712.863 1826.5 734.163 1888.55 739.668" stroke="#56CCF2" stroke-miterlimit="10"/>
<path d="M79.4824 119.103C130.865 96.3668 135.438 38.9294 177.458 8.53541C221.439 -23.0552 248.001 38.2114 261.282 76.0244C280.66 131.308 322.463 171.275 357.734 216.985C389.086 257.67 423.051 262.696 470.297 262.217C495.336 261.978 518.197 256.713 539.752 269.876C560.435 282.799 571.975 313.433 585.474 334.493C618.568 386.426 654.274 428.068 694.336 472.821C755.516 541.268 772.717 607.56 869.604 611.389C914.02 613.065 958.435 612.107 1002.85 612.825C1051.62 613.543 1095.82 625.988 1144.81 614.022C1227.11 593.679 1285.89 531.456 1372.76 525.233C1409.78 522.601 1441.35 499.626 1475.97 520.207C1519.08 545.815 1548.03 598.705 1585.48 632.45C1622.93 666.194 1681.72 664.758 1727.22 680.793C1786.01 701.614 1841.09 724.11 1903.14 729.854" stroke="#56CCF2" stroke-miterlimit="10"/>
<path d="M81.0066 104.505C134.131 78.6581 134.567 17.8701 177.023 -16.353C221.221 -52.0121 247.783 12.605 260.194 51.3753C278.483 108.573 321.157 149.019 357.081 195.926C389.086 237.808 424.358 240.68 472.475 238.047C497.949 236.611 521.898 229.671 544.106 242.834C565.225 255.518 576.765 287.587 590.046 309.126C623.576 362.974 660.153 405.573 700.65 452.002C727.648 482.874 745.501 521.166 771.193 552.757C800.368 588.416 832.809 594.399 875.483 596.074C920.334 597.749 965.185 596.792 1010.04 597.51C1059.68 598.228 1104.09 611.391 1153.73 598.228C1237.34 575.732 1294.38 508.721 1383.22 501.541C1420.66 498.43 1452.23 473.541 1486.63 495.319C1530.18 522.841 1558.27 579.082 1595.5 614.741C1632.29 650.161 1692.17 648.725 1737.67 665.956C1796.67 688.213 1851.98 711.906 1914.68 718.129" stroke="#56CCF2" stroke-miterlimit="10"/>
<path d="M79 88.5245C132.778 60.5237 131.083 -2.2329 172.451 -41.7212C223.834 -90.543 248.437 -0.557643 259.105 38.452C273.039 89.6671 320.286 126.044 350.549 167.447C388.433 219.38 422.181 216.03 480.531 210.525C502.956 208.371 534.526 198.32 554.121 216.03C566.967 227.517 576.982 255.279 586.127 270.356C619.003 324.682 653.621 372.786 696.078 418.018C728.736 452.959 746.154 498.191 776.2 534.808C805.375 570.467 838.252 577.168 880.708 578.364C925.124 579.561 969.757 577.886 1014.17 579.322C1063.81 580.757 1108.45 593.92 1157.87 579.8C1239.08 556.586 1297.43 477.849 1384.3 474.02C1425.24 472.344 1463.77 444.104 1499.48 470.19C1542.37 501.781 1568.28 558.5 1606.17 596.553C1639.48 629.819 1689.55 627.186 1731.36 642.024C1796.89 665.478 1854.37 695.393 1923.82 702.573" stroke="#56CCF2" stroke-miterlimit="10"/>
<path d="M74.0394 70.0425C129.124 38.9305 124.116 -27.1226 165.484 -70.2007C217.084 -123.809 241.687 -29.2765 251.702 10.4511C264.766 62.8628 313.536 99.9578 344.235 142.318C382.99 195.687 418.261 189.943 477.7 182.045C500.344 178.934 533.438 166.968 553.686 184.917C566.532 196.405 576.765 225.363 585.909 240.44C619.439 296.442 654.71 345.982 698.037 392.889C731.567 429.027 748.114 475.455 777.942 513.986C806.899 551.321 839.776 558.022 883.103 559.218C927.954 560.415 972.587 558.5 1017.44 559.697C1067.73 561.133 1112.58 575.014 1162.44 559.697C1244.53 534.568 1300.92 450.087 1389.75 445.54C1430.9 443.386 1469.43 413.231 1504.92 440.514C1548.03 474.019 1573.07 533.611 1610.52 573.817C1643.18 608.758 1693.69 605.647 1735.71 621.442C1801.46 646.092 1858.73 677.683 1928.83 685.102" stroke="#56CCF2" stroke-miterlimit="10"/>
<path d="M65.9836 51.6147C122.157 17.8702 114.972 -51.7728 156.339 -97.9621C208.158 -155.878 232.978 -57.2772 242.34 -17.071C254.968 36.5373 305.045 74.3503 336.397 117.428C376.241 171.994 413.036 164.096 473.346 154.045C496.207 150.216 530.825 136.335 551.727 154.523C564.79 166.011 575.023 195.926 584.167 211.243C618.132 268.92 654.275 319.656 698.473 367.76C732.873 405.094 748.767 452.241 778.378 492.447C807.117 531.218 840.211 537.919 884.409 539.115C929.478 540.312 974.547 538.158 1019.4 539.115C1070.35 540.312 1115.2 554.911 1165.71 538.397C1248.66 511.354 1302.88 422.086 1393.23 416.582C1434.6 414.189 1473.35 382.12 1508.19 410.36C1551.52 445.301 1575.68 507.764 1612.7 549.885C1644.48 586.262 1695.65 582.911 1737.67 599.185C1803.64 624.554 1860.47 657.819 1931.23 665.478" stroke="#56CCF2" stroke-miterlimit="10"/>
<path d="M56 28.5917C111.302 -3.47751 107.351 -68.5255 148.283 -113.758C197.925 -168.562 226.446 -84.7994 237.333 -41.7213C251.267 13.8016 307.658 57.5976 340.969 102.59C376.459 150.694 427.624 137.531 478.353 129.634C493.812 127.241 526.471 117.189 541.058 126.283C557.387 136.335 574.37 177.977 585.038 194.969C619.439 250.492 655.146 295.484 697.82 342.392C730.043 377.811 748.985 421.368 778.16 458.703C806.682 495.08 841.3 499.388 883.538 501.063C927.736 502.738 971.935 502.259 1016.13 503.217C1064.9 504.174 1109.54 519.491 1158.74 506.807C1245.83 484.31 1299.83 398.393 1393.67 395.761C1440.69 394.325 1463.99 360.58 1504.49 396.479C1546.29 433.574 1570.24 491.251 1609.21 531.696C1641.44 565.441 1694.56 562.808 1735.93 578.364C1802.55 603.254 1860.47 633.887 1931.66 640.588" stroke="#56CCF2" stroke-miterlimit="10"/>
<path d="M45.5175 3.27125C100.166 -26.8834 100.602 -89.586 142.405 -132.185C192.046 -182.683 221.656 -105.621 234.284 -62.3032C249.961 -8.45558 305.48 33.9045 339.01 77.2219C374.717 123.651 424.358 113.12 475.087 106.659C490.764 104.744 522.116 96.1285 536.703 105.223C553.251 115.274 570.233 154.523 581.337 171.754C616.173 225.123 651.444 268.201 694.118 312.955C726.124 346.46 746.372 388.82 776.636 423.283C806.682 457.506 841.518 460.378 883.103 461.814C926.648 463.489 970.193 464.446 1013.74 466.121C1061.42 468.036 1104.96 483.353 1153.3 472.822C1238.21 454.155 1294.17 375.897 1384.74 375.657C1431.33 375.418 1454.85 345.024 1495.13 379.726C1536.93 415.624 1561.97 471.147 1601.59 509.678C1635.34 542.465 1688.46 540.072 1730.49 555.149C1798.63 579.321 1858.73 607.8 1931.23 613.544" stroke="#56CCF2" stroke-miterlimit="10"/>
<path d="M36.1554 -25.4474C89.4979 -53.4481 94.2878 -111.604 135.873 -151.81C182.684 -197.281 215.56 -135.057 230.583 -89.1072C248.872 -32.3877 299.82 -0.557794 334.438 45.1529C370.145 92.0601 411.512 88.4703 464.419 83.6838C489.022 81.5299 514.278 73.1536 534.962 88.4703C554.122 102.83 569.145 134.181 582.426 153.327C617.044 204.063 653.186 244.269 695.207 286.63C725.688 317.502 746.372 358.905 776.854 389.299C808.641 420.89 843.695 421.847 884.627 423.044C931.22 424.48 978.249 426.633 1024.62 430.463C1070.56 434.052 1111.71 448.412 1158.31 437.164C1234.95 418.736 1289.38 356.751 1370.81 355.555C1411.52 354.837 1446.14 332.101 1481.41 358.187C1523.43 389.299 1550.43 441.711 1587.66 478.566C1626.41 516.858 1680.63 515.422 1729.18 531.935C1798.2 555.15 1859.81 580.757 1932.75 585.065" stroke="#56CCF2" stroke-miterlimit="10"/>
<path d="M27.2288 -56.7987C79.2649 -82.6455 87.9738 -136.254 129.559 -174.067C174.846 -214.991 209.899 -164.015 226.664 -117.826C247.348 -61.3458 293.506 -33.8237 328.777 11.6477C364.048 57.119 401.497 60.7088 453.968 58.0763C480.748 56.8797 514.496 47.5461 537.357 68.1278C550.856 80.3333 561.742 102.83 572.41 117.907C605.94 165.532 639.905 208.132 682.361 246.184C715.237 275.86 738.099 315.827 769.669 346.7C803.634 380.205 839.558 382.119 883.756 383.795C929.26 385.47 975.636 386.906 1021.14 392.649C1065.34 398.154 1105.4 410.838 1150.69 402.462C1229.94 388.102 1286.98 332.819 1370.15 333.537C1413.04 334.015 1439.39 312.716 1477.27 342.152C1517.99 373.743 1545.2 423.044 1584.39 456.788C1624.24 491.25 1679.97 491.011 1728.09 506.089C1797.98 528.106 1860.9 550.842 1934.28 553.953" stroke="#56CCF2" stroke-miterlimit="10"/>
<path d="M19.1729 -90.5432C70.3381 -113.518 83.6192 -164.255 126.293 -197.281C172.886 -233.419 208.158 -184.836 227.317 -139.604C250.178 -84.7995 295.9 -56.7987 331.825 -12.0454C367.532 32.4686 404.763 38.4517 457.234 38.9304C484.45 39.1697 516.891 32.2293 539.969 52.8111C553.686 65.0165 564.79 86.7949 575.894 101.872C609.859 148.301 644.259 189.704 686.715 226.799C719.81 255.757 744.195 294.527 776.853 323.964C812.342 355.794 848.702 357.948 893.118 359.623C937.752 361.298 983.038 362.973 1027.45 368.717C1070.35 374.221 1109.54 386.427 1153.3 379.487C1229.94 367.52 1287.63 317.741 1367.54 319.656C1409.34 320.613 1435.9 301.707 1473.35 329.468C1513.63 359.144 1541.72 405.573 1581.13 436.685C1622.06 468.993 1677.8 468.275 1726.13 481.677C1797.11 501.541 1861.99 521.405 1936.02 522.602" stroke="#56CCF2" stroke-miterlimit="10"/>
<path d="M12.4235 -122.373C63.1532 -142.237 81.2243 -189.144 124.987 -218.581C172.015 -250.411 209.464 -208.769 231.019 -163.776C257.581 -108.253 305.698 -70.6794 346.63 -26.8833C384.514 13.8015 424.358 17.87 475.958 21.2206C541.058 25.2891 552.162 38.9304 593.53 92.2994C628.583 137.292 663.854 175.344 705.658 212.2C740.276 242.594 768.58 283.518 805.593 310.083C840.647 335.212 877.224 335.691 917.721 336.887C959.959 338.084 1002.85 342.392 1044.87 346.7C1085.8 350.768 1122.82 364.649 1164.84 359.144C1235.6 350.05 1293.51 300.51 1366.89 305.536C1403.9 307.929 1436.56 291.895 1469.87 312.237C1513.85 339.041 1543.03 389.778 1585.05 419.932C1625.98 449.13 1681.5 447.454 1728.53 459.421C1799.07 477.37 1863.95 493.883 1937.11 493.165" stroke="#56CCF2" stroke-miterlimit="10"/>
<path d="M5.4563 -158.99C55.9683 -176.221 80.3535 -220.017 126.076 -244.667C175.281 -271.232 213.818 -232.222 238.639 -187.948C268.903 -133.861 317.673 -96.0476 359.911 -52.7302C398.884 -12.7633 439.381 -5.58364 491.635 0.63875C514.06 3.2713 543.018 1.59603 563.048 15.9554C582.208 29.5968 597.013 55.9223 612.254 74.3502C648.614 118.146 684.974 155.481 727.648 191.14C763.572 221.055 794.489 260.783 833.462 285.911C870.257 309.844 907.924 310.322 949.509 311.758C989.788 312.955 1031.37 316.066 1071.22 321.571C1109.75 326.836 1145.46 338.802 1184.87 334.733C1252.15 327.554 1307.67 288.544 1376.68 289.741C1410.87 290.459 1444.4 279.21 1475.31 297.638C1517.55 322.767 1546.73 369.914 1588.09 397.197C1629.03 424.24 1683.46 422.086 1729.83 432.377C1800.59 447.933 1865.91 461.574 1938.63 459.181" stroke="#56CCF2" stroke-miterlimit="10"/>
<path d="M-0.857788 -196.802C48.3479 -211.162 79.7002 -250.889 125.205 -270.992C183.555 -296.6 219.261 -248.257 251.049 -202.068C282.402 -156.596 328.124 -121.894 366.661 -83.1241C410.423 -39.0887 453.751 -28.3192 511.447 -18.7463C528.648 -15.8744 552.815 -15.3958 568.274 -6.54083C590.264 6.14328 614.431 42.7596 630.76 61.6661C667.556 104.266 705.004 138.967 747.896 173.191C781.643 199.995 811.472 234.457 847.614 257.671C887.893 283.518 927.736 286.63 973.458 288.305C1047.48 290.937 1124.34 316.066 1197.5 311.28C1264.12 306.733 1320.73 273.467 1388.66 275.86C1423.06 277.057 1450.27 267.005 1481.84 286.151C1518.42 308.408 1546.07 346.221 1581.56 370.153C1625.98 400.069 1682.15 396.479 1732.66 406.052C1802.77 419.454 1868.96 429.505 1940.37 424.958" stroke="#56CCF2" stroke-miterlimit="10"/>
<path d="M-6.73633 -235.094C41.8162 -247.06 77.523 -281.523 123.463 -297.797C182.031 -318.618 219.479 -270.753 252.791 -226C285.885 -181.247 330.954 -146.545 370.144 -107.535C413.689 -63.9783 457.234 -49.8583 513.842 -36.6956C531.043 -32.6271 554.121 -30.7125 569.798 -21.1396C592.223 -7.73751 615.955 26.9643 633.155 46.5888C670.168 87.9916 707.835 122.454 750.726 155.959C784.909 182.524 815.826 215.79 852.839 238.047C893.989 262.937 934.268 266.526 980.426 268.202C1052.93 270.834 1126.74 293.809 1198.59 290.698C1262.81 287.826 1319.64 259.586 1384.96 262.697C1418.49 264.373 1445.92 255.996 1477.05 273.467C1513.2 293.809 1541.94 328.032 1577.64 349.332C1623.37 376.376 1679.76 372.068 1730.49 379.487C1801.9 390.017 1870.05 396.957 1942.33 390.496" stroke="#56CCF2" stroke-miterlimit="10"/>
<path d="M-11.9617 -273.625C37.4617 -283.677 81.2243 -320.054 130.648 -326.037C183.555 -332.498 216.867 -293.489 248.219 -252.565C285.232 -204.461 332.696 -166.887 374.934 -123.57C411.73 -85.7566 453.533 -69.9613 501.214 -55.3627C554.339 -39.0887 580.248 -17.789 618.786 25.2891C658.411 69.5639 698.69 107.138 744.63 143.036C821.705 203.585 875.265 248.099 973.458 250.731C1044.22 252.646 1114.98 273.946 1185.3 272.749C1247.57 271.552 1304.83 245.227 1367.76 250.731C1404.55 253.842 1434.6 245.945 1469 263.894C1504.92 282.561 1535.19 313.194 1571.76 330.665C1615.31 351.486 1664.3 346.7 1710.67 351.486C1789.49 359.862 1864.82 364.888 1943.86 355.555" stroke="#56CCF2" stroke-miterlimit="10"/>
<path d="M-16.3162 -308.088C32.0186 -316.225 78.6116 -347.097 127.164 -348.533C179.636 -349.969 212.512 -313.113 244.735 -272.668C312.23 -187.708 395.4 -106.578 493.159 -69.2434C589.175 -32.3877 649.702 66.4526 731.567 131.309C806.899 190.9 863.072 235.414 959.089 238.047C1029.63 239.962 1099.96 258.629 1169.85 258.389C1231.9 258.15 1290.47 236.372 1352.95 242.115C1389.75 245.466 1420.88 239.004 1455.94 254.8C1492.51 271.552 1524.74 298.356 1562.19 313.434C1607.47 331.862 1657.77 326.118 1705.23 329.229C1786.44 334.733 1864.6 336.169 1945.6 324.921" stroke="#56CCF2" stroke-miterlimit="10"/>
<path d="M-20.4529 -345.901C26.5756 -351.644 74.2572 -375.098 121.503 -373.183C177.458 -370.79 212.294 -328.669 246.695 -285.113C280.007 -242.753 323.116 -209.487 359.258 -169.759C393.659 -131.946 430.672 -108.492 475.305 -86.9534C570.886 -40.7641 632.72 54.0077 716.544 121.736C788.393 179.892 846.09 221.534 937.752 224.884C1010.69 227.517 1083.84 243.312 1156.35 243.312C1218.4 243.312 1277.18 227.995 1339.45 233.5C1376.47 236.85 1407.6 232.064 1443.31 246.423C1480.54 261.501 1514.72 283.758 1553.26 295.484C1600.5 309.844 1652.32 303.382 1700.88 304.579C1784.05 306.733 1865.04 304.1 1947.56 290.459" stroke="#56CCF2" stroke-miterlimit="10"/>
<path d="M-24.1542 -382.756C21.7857 -386.585 69.9027 -403.099 116.06 -397.116C169.62 -390.175 205.327 -351.644 239.292 -309.284C304.392 -228.154 382.555 -149.417 469.427 -97.9621C554.775 -47.465 610.73 40.3664 688.675 103.308C761.395 162.182 822.576 209.568 915.979 211.961C988.264 213.875 1059.68 227.038 1131.74 228.713C1192.92 230.149 1252.8 219.141 1314.2 224.406C1350.34 227.517 1384.52 224.406 1419.79 235.415C1461.38 248.338 1500.79 269.159 1543.46 278.253C1592.67 288.783 1645.79 281.843 1695.65 281.125C1781 279.929 1864.39 273.467 1948.65 257.671" stroke="#56CCF2" stroke-miterlimit="10"/>
<path d="M-26.9846 -418.176C18.9552 -420.091 67.5077 -430.142 113.012 -419.851C164.83 -408.124 200.973 -370.79 235.373 -329.387C301.561 -249.214 375.37 -169.998 458.323 -111.604C604.416 -8.69475 701.956 193.533 894.86 198.559C967.362 200.473 1038.56 210.764 1110.62 214.115C1172.24 216.987 1233.42 210.525 1295.04 216.269C1331.4 219.619 1366.89 217.944 1402.81 227.038C1445.7 237.808 1487.51 254.321 1531.27 260.783C1582.87 268.202 1636.65 261.022 1688.47 258.389C1776.64 254.082 1863.3 243.791 1950.17 226.081" stroke="#56CCF2" stroke-miterlimit="10"/>
<path d="M-29.3796 -451.681C77.9584 -452.16 153.073 -441.151 230.365 -351.644C300.69 -270.275 372.757 -188.187 455.057 -121.177C590.917 -10.3701 690.635 176.541 877.66 182.763C1012.21 187.311 1148.73 194.251 1282.84 207.892C1363.4 216.029 1442.87 236.85 1523.43 243.312C1662.99 254.082 1815.4 224.884 1951.48 194.969" stroke="#56CCF2" stroke-miterlimit="10"/>
<path d="M-30.9037 -480.161C75.128 -477.767 153.727 -452.878 230.148 -368.636C302.432 -289.181 372.104 -206.375 450.485 -134.1C577.853 -16.3531 685.845 159.788 868.515 166.011C1002.63 170.558 1136.97 183.242 1270.43 199.037C1351.21 208.61 1433.73 224.645 1514.94 227.517C1659.73 232.303 1811.48 201.191 1952.13 168.404" stroke="#56CCF2" stroke-miterlimit="10"/>
<path d="M-31.9922 -509.119C71.6446 -504.332 154.38 -466.998 230.801 -389.218C305.263 -313.592 372.757 -230.547 446.348 -153.964C568.056 -27.362 686.933 136.813 868.08 144.232C1002.42 149.737 1133.27 170.797 1266.73 189.225C1342.94 199.755 1421.1 210.046 1497.96 210.525C1650.15 211.243 1804.95 177.498 1952.78 141.361" stroke="#56CCF2" stroke-miterlimit="10"/>
<path d="M1630.11 858.85C1641 778.677 1692.17 769.343 1752.04 744.454C1799.72 724.59 1836.08 700.658 1836.95 638.913C1837.39 602.775 1829.33 565.68 1827.81 529.303C1826.28 492.208 1829.55 455.352 1829.12 418.496C1827.85 330.882 1811.36 244.161 1803.37 157.255" stroke="#56CCF2" stroke-miterlimit="10"/>
<path d="M1555.87 855.978C1561.53 775.566 1599.85 755.463 1659.51 721.958C1705.45 696.111 1749.86 661.409 1744.42 597.27C1742.02 568.312 1731.79 538.158 1728.31 509.2C1724.17 475.694 1728.74 443.625 1728.09 410.12C1726.41 330.65 1690.04 257.647 1676.74 180.348" stroke="#56CCF2" stroke-miterlimit="10"/>
<path d="M1488.59 852.628C1489.46 775.805 1516.46 748.522 1573.07 709.513C1620.54 676.725 1658.64 641.066 1653.41 573.577C1651.02 543.183 1638.61 514.465 1635.34 484.071C1631.64 451.762 1639.26 421.129 1637.08 389.06C1632.44 317.924 1584.74 261.146 1570.65 192.444" stroke="#56CCF2" stroke-miterlimit="10"/>
<path d="M1423.28 848.32C1425.02 762.164 1455.28 726.744 1514.07 677.204C1555 642.502 1606.38 588.176 1595.71 524.038C1590.92 494.601 1572.2 467.557 1567.19 437.642C1562.4 408.923 1575.25 381.162 1570.02 352.683C1558.83 291.374 1496.38 255.755 1477.17 196.843" stroke="#56CCF2" stroke-miterlimit="10"/>
<path d="M1362.75 842.816C1363.62 745.651 1393.01 694.675 1451.58 626.947C1491.86 580.039 1546.94 508.721 1535.4 437.642C1531.27 412.753 1507.75 390.735 1502.75 365.127C1498.39 342.392 1513.85 323.007 1508.41 300.989C1495.05 246.919 1412.73 248.455 1397.57 194.644" stroke="#56CCF2" stroke-miterlimit="10"/>
<path d="M1301.79 837.551C1302.66 734.163 1331.83 674.093 1389.97 597.031C1428.72 545.338 1490.77 461.575 1477.27 388.102C1472.92 364.17 1446.14 344.546 1441.78 319.656C1438.3 299.553 1456.37 285.672 1451.8 266.526C1439.72 216.92 1343.32 238.251 1326.31 188.046" stroke="#56CCF2" stroke-miterlimit="10"/>
<path d="M1242.78 833.003C1240.17 735.36 1264.99 679.597 1320.51 607.083C1357.09 559.457 1416.96 480.242 1403.25 411.556C1397.59 383.795 1372.55 358.666 1370.37 329.947C1368.63 306.493 1394.32 291.655 1390.18 269.638C1379.95 214.343 1267.88 240.479 1262.57 177.599" stroke="#56CCF2" stroke-miterlimit="10"/>
<path d="M1181.6 828.696C1174.42 741.343 1190.31 689.17 1240.17 622.16C1280.01 568.791 1322.91 509.2 1316.59 435.728C1313.98 404.855 1293.95 374.94 1294.17 344.546C1294.38 315.827 1321.6 302.425 1321.6 276.099C1321.81 216.225 1193.07 231.646 1201.5 166.052" stroke="#56CCF2" stroke-miterlimit="10"/>
<path d="M1120.64 824.627C1110.84 742.061 1127.17 699.94 1176.81 641.545C1213.39 598.706 1253.02 547.97 1249.53 484.31C1247.57 448.89 1227.32 413.231 1227.32 377.572C1227.32 337.605 1258.24 331.144 1265.64 299.074C1273.26 265.808 1241.48 251.21 1220.14 238.047C1181.59 214.483 1146.17 205.077 1145.83 155.605" stroke="#56CCF2" stroke-miterlimit="10"/>
<path d="M1054.89 821.516C1041.82 745.411 1057.94 710.709 1106.27 661.17C1143.28 623.357 1170.5 587.219 1170.5 528.824C1170.5 486.225 1145.68 434.77 1152.21 393.367C1157.87 357.708 1200.33 341.434 1206.21 307.69C1211.87 274.424 1174.64 254.8 1154.17 240.68C1112.11 211.585 1081.26 198.007 1085.68 144.058" stroke="#56CCF2" stroke-miterlimit="10"/>
<path d="M987.175 818.405C970.846 752.831 976.725 714.778 1018.75 667.632C1052.71 629.579 1078.4 596.313 1079.05 539.833C1079.49 498.43 1069.26 457.027 1068.39 415.625C1067.08 353.401 1130.22 348.375 1136.53 295.724C1140.24 266.048 1098.43 243.312 1081.89 231.825C1038.76 202.084 1013.12 186.969 1023.08 134.161" stroke="#56CCF2" stroke-miterlimit="10"/>
<path d="M913.149 816.729C893.989 757.138 890.07 716.214 925.777 665.717C957.347 620.963 976.942 588.655 978.466 530.021C979.555 485.985 964.532 429.505 973.894 387.145C984.127 339.52 1041.17 333.537 1052.06 290.698C1061.64 252.167 1031.16 239.483 1001.98 220.576C957.645 192.055 937.083 176.6 952.889 125.364" stroke="#56CCF2" stroke-miterlimit="10"/>
<path d="M834.768 815.533C810.818 752.112 805.593 711.427 840.864 654.708C865.467 615.219 878.095 581.714 880.055 532.653C881.797 487.9 865.467 412.035 881.579 370.632C896.602 332.101 952.339 324.921 968.886 289.98C989.352 246.662 947.549 233.26 917.939 215.311C871.768 187.546 856.311 170.818 877 120.056" stroke="#56CCF2" stroke-miterlimit="10"/>
<path d="M756.823 807.156C733.526 740.385 731.567 698.743 765.314 638.673C789.046 596.552 798.626 561.372 799.279 510.875C799.714 468.754 785.562 396.718 799.932 357.708C813.431 320.613 864.814 311.998 880.49 278.492C900.085 236.611 862.419 221.055 834.333 201.909C791.387 172.521 778.159 155.663 799.571 106.119" stroke="#56CCF2" stroke-miterlimit="10"/>
<path d="M683.232 782.267C667.12 712.145 670.822 664.999 706.311 604.929C737.01 552.996 757.694 511.593 756.823 447.694C756.17 407.966 741.147 357.948 747.896 319.177C755.517 275.621 806.899 269.638 815.608 230.628C823.664 194.969 794.271 182.524 767.491 165.054C726.308 138.357 706.021 124.72 723.919 74.7785" stroke="#56CCF2" stroke-miterlimit="10"/>
<path d="M616.173 745.89C602.456 666.196 611.165 610.912 646.872 541.508C677.354 482.156 699.997 431.18 696.513 361.059C694.771 325.639 679.313 281.364 684.321 246.423C689.764 207.414 735.486 201.67 742.235 166.729C756.119 95.5876 624.573 114.28 653.506 29.1415" stroke="#56CCF2" stroke-miterlimit="10"/>
<path d="M585.909 -35.7382C550.856 44.1956 674.305 28.6396 661.46 94.932C655.145 127.001 614.649 132.745 610.077 168.404C606.158 199.755 620.092 239.483 622.922 271.313C629.454 346.221 609.423 404.855 581.119 471.147C548.025 549.167 537.574 612.108 550.856 698.504" stroke="#56CCF2" stroke-miterlimit="10"/>
<path d="M520.374 -102.509C475.741 -59.6705 595.054 -33.1057 587.216 10.2118C582.208 37.4945 549.332 45.6315 543.018 74.8289C537.792 98.5219 553.904 139.207 557.17 163.857C567.62 244.269 548.896 315.109 521.463 388.82C489.24 476.173 477.483 551.081 489.675 645.614" stroke="#56CCF2" stroke-miterlimit="10"/>
<path d="M454.186 -176.699C405.634 -120.219 519.721 -78.8164 499.255 -18.2678C490.764 6.86108 463.984 21.4598 457.67 48.5032C451.356 75.786 463.984 121.975 468.338 149.497C478.789 217.226 476.176 273.706 455.928 338.084C427.841 426.394 412.383 492.925 428.277 587.697" stroke="#56CCF2" stroke-miterlimit="10"/>
<path d="M390.393 -250.411C354.468 -172.152 430.236 -125.484 411.294 -50.0976C401.279 -9.89141 370.798 12.1263 367.967 55.9223C366.008 87.0343 369.056 122.454 374.063 153.087C384.514 214.833 394.312 258.629 377.983 320.613C357.974 396.632 350.293 451.258 368.937 530.33" stroke="#56CCF2" stroke-miterlimit="10"/>
<path d="M324.205 -324.601C291.111 -248.975 353.38 -194.17 338.574 -119.023C330.954 -80.0129 305.48 -54.4054 304.392 -12.7632C303.521 17.1521 307.004 49.7001 312.883 78.6581C325.729 142.557 337.05 188.029 321.157 253.124C301.779 331.862 289.8 390.776 307 472.864" stroke="#56CCF2" stroke-miterlimit="10"/>
<path d="M258.887 -391.372C227.317 -320.293 276.305 -259.744 264.33 -187.23C258.234 -150.135 239.51 -122.134 237.768 -83.6028C236.679 -56.32 241.469 -25.9261 247.566 0.39945C263.024 67.6491 276.523 116.232 261.718 185.635C244.098 269.082 230.414 336.618 246.456 423.138" stroke="#56CCF2" stroke-miterlimit="10"/>
<path d="M189.433 -451.203C160.694 -395.44 209.246 -322.447 207.504 -263.574C206.634 -230.308 195.094 -203.025 198.578 -169.28C201.19 -144.63 209.899 -121.416 216.867 -98.2016C238.857 -26.4047 239.945 36.7764 220.568 109.052C195.747 200.952 172.356 280.718 181.5 378.841" stroke="#56CCF2" stroke-miterlimit="10"/>
<path d="M118.891 -497.153C95.1586 -429.424 132.172 -349.012 133.696 -279.848C135.22 -213.316 134.567 -164.015 156.339 -100.595C179.418 -33.5844 182.248 24.571 161.129 92.2994C134.567 177.977 109.404 252.204 115.5 345.3" stroke="#56CCF2" stroke-miterlimit="10"/>
<path d="M42.6871 -528.025C35.9377 -429.903 57.0569 -333.695 67.5077 -236.53C75.9989 -156.357 85.5788 -84.7995 114.101 -10.1308C134.567 43.4775 138.486 83.923 109.528 134.42C74.0394 196.644 42.3063 243.638 41 321.657" stroke="#56CCF2" stroke-miterlimit="10"/>
</g>
<path d="M156.085 303C163.264 303 169.085 297.18 169.085 290C169.085 282.82 163.264 277 156.085 277C148.905 277 143.085 282.82 143.085 290C143.085 297.18 148.905 303 156.085 303Z" stroke="white" stroke-miterlimit="10"/>
<path d="M1140 494C1145.52 494 1150 489.523 1150 484C1150 478.477 1145.52 474 1140 474C1134.48 474 1130 478.477 1130 484C1130 489.523 1134.48 494 1140 494Z" stroke="white" stroke-miterlimit="10"/>
<path d="M468 529H672" stroke="white" stroke-miterlimit="10"/>
<path d="M1245.61 409H1417" stroke="white" stroke-miterlimit="10"/>
<path d="M1556.31 140.5H1642H1727.69" stroke="white" stroke-miterlimit="10"/>
<path d="M1446 306C1489.08 306 1524 271.078 1524 228C1524 184.922 1489.08 150 1446 150C1402.92 150 1368 184.922 1368 228C1368 271.078 1402.92 306 1446 306Z" stroke="white" stroke-miterlimit="10"/>
<path d="M243.47 474C258.884 446.548 288.276 428 322 428C371.705 428 412 468.294 412 518C412 534.187 407.727 549.376 400.247 562.5" stroke="white" stroke-miterlimit="10"/>
<path d="M815.5 48.5001C815.5 58.165 807.665 66.0001 798 66.0001C788.335 66.0001 780.5 58.165 780.5 48.5001C780.5 38.8351 788.335 31.0001 798 31.0001C807.665 31.0001 815.5 38.8351 815.5 48.5001Z" stroke="white"/>
<path d="M1782.5 532C1782.5 541.665 1774.66 549.5 1765 549.5C1755.34 549.5 1747.5 541.665 1747.5 532C1747.5 522.335 1755.34 514.5 1765 514.5C1774.66 514.5 1782.5 522.335 1782.5 532Z" stroke="white"/>
<defs>
<linearGradient id="paint0_linear" x1="1928.39" y1="19.87" x2="10.1686" y2="107.097" gradientUnits="userSpaceOnUse">
<stop offset="0.317708" stop-color="#86F5FC"/>
<stop offset="1" stop-color="#005B8E"/>
</linearGradient>
<linearGradient id="paint1_linear" x1="1919.11" y1="0.526177" x2="-24.9744" y2="17.9285" gradientUnits="userSpaceOnUse">
<stop offset="0.369792" stop-color="#005B8E"/>
<stop offset="0.932292" stop-color="#86F5FC" stop-opacity="0.6"/>
</linearGradient>
<linearGradient id="paint2_linear" x1="1902.76" y1="140.772" x2="-23.8141" y2="152.527" gradientUnits="userSpaceOnUse">
<stop stop-color="#86F5FC" stop-opacity="0.11"/>
<stop offset="1" stop-color="#005B8E"/>
</linearGradient>
</defs>
</svg>
