<svg width="1920" height="991" viewBox="0 0 1920 991" fill="none" xmlns="http://www.w3.org/2000/svg">
<path opacity="0.9" d="M1171.56 784.06C944.952 766.998 656.311 895.374 415.019 895.374C173.727 895.374 -0.242932 767.085 -0.242932 767.085L-0.24388 990.026L1919.59 990.807L1919.59 821.387C1604.82 983.361 1398.16 801.122 1171.56 784.06Z" fill="url(#paint0_linear)" fill-opacity="0.9"/>
<path opacity="0.9" d="M1919.43 713.56C1564.56 937.162 1203.92 680.746 890.271 680.746C576.627 680.746 351.696 939.216 -0.244158 762.732L-0.243888 989.746L1919.59 990.027L1919.43 713.56Z" fill="url(#paint1_linear)" fill-opacity="0.8"/>
<path opacity="0.9" d="M-0.242268 762.219L-0.244237 989.248L1919.43 990.027L1919.43 778.882C1424.18 992.026 1349.53 610.091 642.898 794.344C227.134 902.754 -0.242268 762.219 -0.242268 762.219Z" fill="url(#paint2_linear)"/>
<g opacity="0.7">
<mask id="mask0" mask-type="alpha" maskUnits="userSpaceOnUse" x="-1" y="680" width="1921" height="311">
<path d="M1919.43 713.561C1564.56 937.163 1203.92 680.747 890.271 680.747C576.626 680.747 351.695 939.217 -0.245087 762.733L-0.244843 989.747L1919.59 990.028L1919.43 713.561Z" fill="url(#paint3_linear)" fill-opacity="0.8"/>
</mask>
<g mask="url(#mask0)">
<path d="M1926.48 1792.75C1634.7 1778.83 1488.73 1483.39 1303.09 1317.03C1174.53 1218.99 1194.54 1223.49 1010.95 1207.48C827.368 1191.47 756.966 1166.9 625.879 1144.95C394.007 1106.11 168.168 1154.96 -64.9401 1204.98C-64.0618 1111.06 -58.2148 1006.97 -53.1646 913.047C-49.2122 840.413 -52.0665 765.804 -44.8205 693.609C-32.0851 566.554 156.311 636.993 176.293 511.036C469.647 512.352 761.903 544.171 1055.26 550.754C1220.76 554.454 1343.3 644.6 1461.75 746.267C1606.28 870.325 1721.78 1000.38 1934.88 1018.82C1936.88 1109.94 1911.37 1114.44 1871.85 1149.95C1831.33 1181.97 1829.46 1217.99 1848.84 1253C1931.88 1403.07 1922.75 1613.69 1926.48 1792.75Z" stroke="#56CCF2" stroke-miterlimit="10"/>
<path d="M1949.52 1043.17C1853.79 1040.97 1772.1 1021.22 1695.03 962.412C1625.87 909.746 1563.29 849.84 1495.22 795.858C1369.18 696.013 1253.25 581.685 1082.41 578.394C944.96 575.76 807.066 576.638 669.831 568.958C509.54 559.961 351.884 536.262 190.715 534.725" stroke="#56CCF2" stroke-miterlimit="10"/>
<path d="M1945.13 1061.38C1850.27 1061.82 1772.54 1054.14 1697.89 990.718C1632.01 934.761 1569.44 873.977 1498.73 824.384C1367.21 731.781 1262.91 602.97 1089.44 599.459C949.352 596.606 808.603 602.751 668.733 597.265C599.127 594.631 535.889 582.343 467.162 571.151C375.379 556.23 277.448 552.719 184.567 551.183" stroke="#56CCF2" stroke-miterlimit="10"/>
<path d="M1939.42 1075.86C1845.22 1078.93 1771.45 1082.23 1698.55 1013.98C1635.97 955.39 1572.51 893.289 1499.83 847.426C1363.69 761.845 1269.05 619.43 1093.39 615.919C1017.42 614.383 940.349 609.994 864.376 611.749C797.844 613.285 732.191 621.624 665.439 620.088C592.979 618.113 533.255 603.191 462.551 588.708C371.427 569.836 269.324 565.448 176.443 563.253" stroke="#56CCF2" stroke-miterlimit="10"/>
<path d="M1931.08 1090.34C1837.76 1096.27 1768.15 1112.51 1697.23 1038.12C1638.6 976.894 1573.39 912.598 1498.95 871.563C1425.39 830.967 1375.77 765.136 1307.26 717.078C1239.41 669.68 1180.57 634.131 1095.59 632.156C1018.08 630.4 939.031 624.695 861.74 628.206C793.672 631.278 727.579 644.005 659.511 643.128C625.696 642.689 592.759 646.2 559.384 638.519C523.812 630.4 490.217 614.82 455.085 605.384C365.278 581.685 257.466 576.638 165.244 574.004" stroke="#56CCF2" stroke-miterlimit="10"/>
<path d="M1921.2 1103.51C1831.39 1112.07 1764.2 1142.35 1696.13 1063.57C1637.72 995.985 1570.31 930.154 1489.51 891.094C1414.41 854.886 1366.55 784.008 1299.8 734.634C1234.36 686.138 1178.59 648.175 1094.49 646.858C1016.54 645.542 936.177 637.862 858.666 642.689C790.597 647.078 724.725 666.608 656.217 665.072C617.791 664.194 582.22 670.119 544.452 659.366C508.881 649.272 476.384 630.401 440.812 619.868C400.849 607.798 358.691 608.018 317.41 601.874C261.638 593.535 206.524 585.416 150.093 583.221" stroke="#56CCF2" stroke-miterlimit="10"/>
<path d="M1910.87 1115.44C1871.34 1120.49 1833.15 1139.28 1793.62 1141.69C1749.27 1144.33 1717.43 1118.43 1691.74 1085.08C1637.06 1014.64 1567.9 946.832 1485.12 912.6C1406.95 880.342 1360.84 804.197 1294.53 752.848C1229.53 702.597 1178.15 661.342 1092.52 659.587C1013.47 658.051 930.468 649.273 851.86 655.418C782.474 660.904 716.381 685.481 646.336 684.603C607.032 683.945 571.461 691.844 533.254 679.336C497.244 667.487 465.186 645.543 429.395 633.035C389.432 619.21 346.175 619.43 304.456 612.408C247.805 602.752 192.252 592.877 134.723 590.464" stroke="#56CCF2" stroke-miterlimit="10"/>
<path d="M117.596 596.388C176.223 599.241 232.215 610.652 289.524 621.624C331.683 629.523 375.598 628.865 415.78 644.884C452.01 659.148 483.41 683.944 519.86 697.769C558.505 712.471 594.076 702.377 634.259 702.816C706.06 703.694 772.153 673.85 842.856 667.047C922.782 659.367 1007.98 669.461 1088.34 671.217C1175.3 672.972 1222.72 717.738 1287.28 769.745C1353.37 823.068 1397.95 904.261 1479.19 932.568C1564.16 962.192 1635.09 1031.97 1686.25 1105.27C1710.18 1139.72 1741.36 1167.81 1785.94 1161.22C1824.69 1155.53 1860.63 1133.08 1899.52 1126.5" stroke="#56CCF2" stroke-miterlimit="10"/>
<path d="M1888.86 1135.45C1848.68 1143.13 1817.12 1169.56 1778.47 1178.34C1733.9 1188.43 1702.94 1158.15 1680.76 1123.04C1652.65 1078.71 1612.91 1046.9 1577.78 1008.05C1547.7 974.7 1515.86 962.85 1472.82 950.123C1389.38 925.765 1345.47 839.306 1279.59 784.447C1215.48 730.903 1171.56 683.066 1083.29 681.091C1001.83 679.335 914.438 667.925 833.634 676.922C761.613 684.821 695.741 719.273 622.402 718.834C581.341 718.615 545.989 730.465 506.685 714.226C469.796 698.865 438.836 671.435 402.386 655.197C362.424 637.422 317.63 638.3 274.813 629.523C216.844 617.454 160.413 604.507 100.908 601.215" stroke="#56CCF2" stroke-miterlimit="10"/>
<path d="M82.4641 605.824C142.189 609.554 198.181 623.598 256.149 636.984C303.139 647.956 353.202 646.2 395.8 670.339C430.493 690.307 461.014 719.273 498.342 734.415C533.694 748.678 565.093 735.512 601.762 735.731C680.81 735.951 748.659 696.232 825.95 687.235C906.095 677.8 995.682 689.21 1076.93 691.624C1167.61 694.257 1203.18 743.192 1267.74 798.271C1302.87 828.334 1333.39 859.275 1362.81 895.263C1377.09 912.379 1390.04 937.395 1408.05 951.001C1425.61 964.386 1452.18 965.922 1472.6 970.75C1516.08 981.064 1546.6 993.352 1576.24 1028.24C1606.98 1064.45 1644.31 1092.32 1669.34 1132.48C1690.2 1166.05 1714.79 1208.4 1761.34 1200.94C1802.05 1194.38 1835.47 1154.87 1877.44 1145.05" stroke="#56CCF2" stroke-miterlimit="10"/>
<path d="M63.8003 610.432C124.403 614.602 180.835 630.182 239.461 644.884C286.89 656.734 337.832 654.759 380.21 681.311C415.123 703.255 444.985 735.074 482.972 751.751C518.543 767.551 549.942 752.629 587.27 752.629C668.514 752.409 735.704 707.863 814.532 697.33C856.91 691.625 897.093 699.086 939.032 699.964C982.508 701.061 1026.2 700.402 1069.9 701.719C1162.56 704.791 1194.18 757.018 1258.52 813.852C1294.31 845.232 1325.05 877.27 1354.47 914.794C1368.3 932.349 1381.04 958.682 1399.26 972.287C1416.83 985.453 1444.94 985.453 1465.58 989.184C1510.37 997.522 1541.11 1007.84 1570.97 1044.04C1601.71 1081.13 1640.14 1109.22 1663.85 1151.13C1682.96 1184.92 1706.67 1231.22 1753.88 1220.25C1795 1210.85 1822.61 1166.61 1865.8 1154.99" stroke="#56CCF2" stroke-miterlimit="10"/>
<path d="M45.795 615.479C106.837 620.087 162.61 636.765 221.237 652.564C267.567 665.072 321.803 663.536 362.424 690.527C397.776 714.007 426.54 746.923 464.088 767.331C502.953 788.397 537.866 771.061 580.024 769.525C661.268 766.453 726.921 717.957 806.188 706.985C848.347 701.06 889.407 708.74 931.566 710.277C975.042 711.813 1018.74 710.715 1062.43 711.813C1154.44 714.226 1184.96 768.647 1246.88 826.798C1286.18 863.884 1319.78 899.213 1352.49 942.882C1363.69 958.023 1374.23 977.333 1388.72 989.402C1406.95 1004.76 1428.25 1004.1 1451.74 1006.96C1505.1 1013.32 1536.72 1022.1 1570.31 1064.45C1600.83 1102.63 1639.04 1129.62 1660.78 1173.51C1678.13 1208.4 1702.72 1254.26 1748.83 1239.12C1790.1 1225.81 1810.96 1178.86 1855.9 1164.96" stroke="#56CCF2" stroke-miterlimit="10"/>
<path d="M1848.3 1175.05C1800.87 1190.85 1785.5 1242.42 1743.34 1259.09C1696.79 1277.53 1672.64 1228.59 1656.61 1193.04C1635.97 1147.4 1596.88 1120.41 1566.14 1080.91C1532.11 1037.24 1500.05 1030.22 1445.16 1026.49C1421.22 1024.73 1399.04 1026.93 1380.38 1011.13C1365.67 998.839 1355.35 978.651 1344.15 963.29C1311.21 918.086 1277.18 881.44 1237.22 842.818C1175.3 782.912 1148.51 724.98 1054.31 722.566C1010.17 721.469 965.82 722.785 921.685 721.03C878.648 719.494 837.148 711.155 794.111 717.738C713.307 730.246 648.752 783.57 565.532 787.3C522.715 789.275 487.802 808.586 448.718 785.764C410.731 763.601 382.625 728.271 347.274 702.378C307.311 673.192 251.977 675.167 205.208 661.562C146.142 644.446 89.93 626.232 28.2291 621.405" stroke="#56CCF2" stroke-miterlimit="10"/>
<path d="M1842.59 1185.14C1792.52 1203.57 1783.08 1254.92 1740.05 1277.74C1694.37 1302.1 1668.68 1245.49 1654.41 1211.26C1634.65 1163.86 1594.91 1137.08 1563.73 1096.49C1529.25 1051.28 1496.76 1046.24 1440.32 1044.7C1415.73 1044.04 1393.12 1047.33 1374.01 1031.53C1359.08 1019.25 1348.76 998.18 1337.78 982.6C1304.63 935.86 1269.93 898.116 1229.75 858.178C1167.83 796.736 1144.12 735.732 1047.94 733.098C1003.37 731.782 958.574 733.318 913.78 731.562C870.084 729.807 828.145 721.029 784.45 728.271C702.109 742.095 638.871 799.808 553.894 804.416C510.638 806.61 475.506 827.676 436.421 803.319C397.995 779.619 370.548 741.876 335.196 714.227C295.673 683.286 239.461 685.261 192.252 670.778C132.747 652.564 76.5354 633.034 13.9562 627.987" stroke="#56CCF2" stroke-miterlimit="10"/>
<path d="M1838.42 1196.99C1786.6 1217.84 1781.98 1270.5 1739.61 1298.37C1695.25 1327.34 1668.46 1271.16 1655.07 1236.49C1635.53 1185.8 1593.37 1149.15 1557.8 1107.24C1526.18 1069.94 1491.92 1065.33 1444.28 1065.77C1419.03 1065.99 1395.97 1070.82 1374.23 1058.75C1353.37 1046.9 1341.73 1018.81 1328.12 999.498C1294.74 951.879 1258.73 913.697 1218.33 872.662C1156.63 809.903 1139.28 749.118 1041.57 745.607C996.78 744.071 951.986 744.949 907.193 744.29C858.008 743.632 813.434 732.221 764.029 743.193C681.029 761.845 621.743 818.899 534.132 824.605C496.804 827.019 464.966 848.085 430.053 829.213C386.577 805.733 357.373 757.237 319.606 726.296C281.839 695.356 222.553 696.672 176.662 681.97C117.376 662.879 61.8236 642.251 -0.755653 636.985" stroke="#56CCF2" stroke-miterlimit="10"/>
<path d="M1836.88 1210.38C1783.3 1234.08 1782.86 1289.81 1740.05 1321.19C1695.47 1353.89 1668.68 1294.64 1656.17 1259.09C1637.72 1206.65 1594.69 1169.56 1558.46 1126.55C1526.18 1088.15 1490.61 1085.52 1442.08 1087.93C1416.39 1089.25 1392.24 1095.61 1369.84 1083.54C1348.54 1071.91 1336.9 1042.51 1323.51 1022.76C1289.7 973.384 1252.81 934.324 1211.97 891.753C1184.74 863.445 1166.73 828.335 1140.82 799.369C1111.4 766.673 1078.68 761.187 1035.65 759.651C990.413 758.115 945.18 758.993 899.947 758.334C849.884 757.676 805.09 745.607 755.027 757.676C670.709 778.303 613.18 839.746 523.593 846.329C485.826 849.182 453.987 872.003 419.294 852.034C375.379 826.799 347.054 775.231 309.506 742.535C272.398 710.058 212.014 711.374 166.123 695.575C106.618 675.167 50.8451 653.443 -12.3929 647.737" stroke="#56CCF2" stroke-miterlimit="10"/>
<path d="M1838.42 1225.3C1784.18 1250.97 1786.38 1308.25 1744.66 1344.45C1692.84 1389.22 1668.02 1306.71 1657.27 1270.94C1643.21 1223.98 1595.56 1190.63 1565.04 1152.66C1526.84 1105.05 1492.8 1108.12 1433.96 1113.17C1411.34 1115.14 1379.5 1124.36 1359.74 1108.12C1346.78 1097.59 1336.68 1072.13 1327.46 1058.31C1294.31 1008.49 1259.39 964.386 1216.58 922.912C1183.64 890.874 1166.07 849.4 1135.77 815.826C1106.35 783.13 1073.19 776.985 1030.38 775.888C985.582 774.791 940.568 776.327 895.775 775.01C845.711 773.694 800.698 761.625 750.855 774.572C668.953 795.857 610.106 868.052 522.495 871.563C481.215 873.099 442.35 898.993 406.339 875.074C363.083 846.108 336.953 794.102 298.747 759.211C265.152 728.709 214.649 731.123 172.49 717.517C106.398 696.012 48.4298 668.583 -21.615 661.999" stroke="#56CCF2" stroke-miterlimit="10"/>
<path d="M1843.91 1241.98C1788.35 1270.5 1793.4 1331.07 1751.68 1370.57C1699.64 1419.72 1674.83 1333.04 1664.73 1296.62C1651.56 1248.56 1602.37 1214.55 1571.41 1175.7C1532.33 1126.77 1496.76 1132.04 1436.81 1139.28C1413.98 1142.13 1380.6 1153.1 1360.18 1136.64C1347.22 1126.11 1336.9 1099.56 1327.68 1085.74C1293.87 1034.39 1258.3 988.963 1214.6 945.953C1180.79 912.818 1164.1 870.246 1134.02 834.917C1104.81 800.684 1071.66 794.54 1027.96 793.443C982.727 792.346 937.714 794.101 892.481 793.004C841.759 791.687 796.527 778.96 746.244 793.004C663.463 816.045 606.593 893.507 517.006 897.676C475.506 899.651 436.641 927.3 400.85 902.284C357.374 871.563 332.123 816.923 294.355 780.057C261.419 748.019 210.477 750.872 168.099 736.389C101.787 713.787 44.0384 684.821 -26.6652 678.018" stroke="#56CCF2" stroke-miterlimit="10"/>
<path d="M1852.03 1258.87C1795.38 1289.81 1802.63 1353.67 1760.91 1396.02C1708.65 1449.13 1683.61 1358.72 1674.17 1321.85C1661.44 1272.7 1610.93 1238.03 1579.32 1198.53C1539.13 1148.5 1502.03 1155.74 1441.2 1164.95C1418.15 1168.47 1383.23 1181.19 1362.15 1164.52C1348.98 1153.98 1338.66 1126.55 1329.44 1112.51C1295.18 1059.62 1258.73 1013.1 1214.16 968.995C1179.47 934.763 1163.44 891.534 1133.58 854.668C1104.59 819.119 1071.22 812.975 1026.64 811.877C981.19 810.78 935.738 812.755 890.505 811.877C839.124 810.78 793.891 797.394 742.949 812.536C659.291 837.332 604.616 919.183 513.492 924.23C471.773 926.424 432.688 955.829 397.556 929.935C353.86 897.897 329.487 840.624 292.159 802.003C260.101 768.648 208.501 771.72 166.122 756.798C99.5908 733.538 42.2813 703.036 -29.081 696.014" stroke="#56CCF2" stroke-miterlimit="10"/>
<path d="M1862.79 1279.5C1807.02 1308.91 1810.31 1369.03 1769.03 1410.51C1718.97 1460.76 1690.2 1383.95 1679.22 1344.45C1665.17 1293.55 1608.3 1253.39 1574.7 1212.13C1538.91 1168.03 1487.31 1180.1 1436.15 1187.34C1420.56 1189.53 1387.63 1198.75 1372.91 1190.41C1356.45 1181.19 1339.32 1143.01 1328.56 1127.43C1293.87 1076.52 1257.86 1035.27 1214.82 992.256C1182.32 959.779 1163.22 919.841 1133.8 885.609C1105.03 852.254 1070.12 848.304 1027.52 846.768C982.947 845.232 938.373 845.671 893.798 844.793C844.613 843.915 799.6 829.871 749.976 841.501C662.145 862.129 607.691 940.907 513.053 943.321C465.625 944.638 442.13 975.578 401.289 942.663C359.13 908.65 334.977 855.765 295.673 818.68C263.175 787.739 209.599 790.153 167.879 775.889C100.689 753.068 42.2814 724.98 -29.5201 718.835" stroke="#56CCF2" stroke-miterlimit="10"/>
<path d="M1872.67 1303.2C1817.56 1330.85 1817.12 1388.34 1774.96 1427.4C1724.9 1473.7 1695.03 1403.04 1682.3 1363.33C1666.49 1313.95 1610.5 1275.11 1576.68 1235.39C1540.67 1192.82 1490.61 1202.48 1439.45 1208.4C1423.64 1210.16 1392.02 1218.06 1377.31 1209.72C1360.62 1200.5 1343.49 1164.51 1332.29 1148.72C1297.16 1099.78 1261.59 1060.28 1218.55 1019.25C1186.27 988.525 1165.85 949.684 1135.33 918.085C1105.03 886.705 1069.9 884.072 1027.96 882.755C984.044 881.219 940.129 880.342 896.214 878.806C848.127 877.05 804.211 863.006 755.465 872.661C669.831 889.778 613.399 961.534 522.056 961.753C475.066 961.973 451.352 989.841 410.73 958.023C368.572 925.107 343.321 874.197 303.358 838.868C269.323 808.805 215.747 810.999 173.368 797.174C104.641 775.011 44.0379 748.898 -29.081 743.631" stroke="#56CCF2" stroke-miterlimit="10"/>
<path d="M1882.11 1329.53C1828.32 1355.21 1823.48 1408.53 1781.55 1445.4C1734.34 1487.09 1701.18 1430.04 1686.03 1387.9C1667.59 1335.9 1616.2 1306.71 1581.29 1264.8C1545.28 1221.79 1503.56 1225.08 1450.2 1229.47C1425.39 1231.44 1399.92 1239.12 1379.06 1225.08C1359.74 1211.91 1344.59 1183.17 1331.19 1165.61C1296.28 1119.09 1259.83 1082.23 1217.45 1043.38C1186.71 1015.08 1165.85 977.114 1135.11 949.246C1103.05 920.28 1067.7 919.402 1026.42 918.305C979.433 916.988 932.005 915.013 885.235 911.502C838.904 908.21 797.404 895.044 750.415 905.358C673.124 922.255 618.23 979.089 536.108 980.186C495.048 980.845 460.135 1001.69 424.563 977.772C382.185 949.245 354.958 901.188 317.41 867.395C278.326 832.285 223.651 833.601 174.686 818.46C105.08 797.174 42.9398 773.695 -30.6183 769.745" stroke="#56CCF2" stroke-miterlimit="10"/>
<path d="M1891.11 1358.28C1838.64 1381.98 1829.85 1431.13 1787.91 1465.8C1742.24 1503.33 1706.89 1456.59 1689.98 1414.24C1669.12 1362.45 1622.57 1337.21 1587 1295.52C1551.43 1253.83 1513.66 1250.53 1460.74 1252.95C1433.74 1254.05 1399.7 1262.6 1376.65 1243.73C1363.03 1232.54 1352.05 1211.91 1341.3 1198.09C1307.48 1154.42 1273.23 1115.36 1230.41 1080.47C1197.25 1053.26 1174.2 1016.61 1142.36 988.305C1108.11 957.584 1071.88 955.828 1027.3 954.292C981.41 952.756 934.64 951.44 888.748 946.173C844.174 941.126 803.772 929.496 758.1 937.176C678.175 950.342 620.646 1001.03 536.767 1000.37C493.511 999.936 466.942 1019.47 428.736 992.475C387.675 963.509 360.228 918.304 320.704 887.364C280.522 855.764 224.31 855.984 175.784 842.159C105.3 821.971 41.8424 801.124 -32.1549 798.271" stroke="#56CCF2" stroke-miterlimit="10"/>
<path d="M1899.24 1389.22C1847.64 1410.29 1834.24 1456.81 1791.21 1487.09C1744.22 1520.23 1708.65 1475.68 1689.32 1434.21C1666.27 1383.95 1620.16 1358.28 1583.93 1317.24C1547.92 1276.43 1510.37 1270.94 1457.45 1270.5C1430 1270.28 1397.29 1276.65 1374.01 1257.78C1360.18 1246.59 1348.98 1226.62 1337.78 1212.79C1303.53 1170.22 1268.84 1132.26 1226.02 1098.24C1192.64 1071.69 1168.05 1036.14 1135.11 1009.15C1099.32 979.967 1062.65 977.992 1017.86 976.456C972.846 974.92 927.174 973.384 882.381 968.118C839.124 963.071 799.6 951.879 755.466 958.243C678.175 969.215 619.987 1014.86 539.403 1013.1C497.244 1012.22 470.456 1029.56 432.688 1004.11C392.067 976.895 363.741 934.324 323.998 905.797C282.718 876.173 226.506 876.831 177.76 864.543C106.178 846.329 40.7447 828.116 -33.9113 827.019" stroke="#56CCF2" stroke-miterlimit="10"/>
<path d="M1906.05 1418.4C1854.88 1436.62 1836.66 1479.63 1792.52 1506.62C1745.1 1535.8 1707.33 1497.62 1685.59 1456.37C1658.8 1405.46 1610.28 1371.01 1569 1330.85C1530.79 1293.54 1490.61 1289.81 1438.57 1286.74C1372.91 1283.01 1361.72 1270.5 1320 1221.57C1284.64 1180.31 1249.07 1145.42 1206.91 1111.63C1172 1083.76 1143.46 1046.24 1106.13 1021.88C1070.78 998.838 1033.89 998.399 993.047 997.302C950.449 996.205 907.192 992.255 864.814 988.305C823.534 984.575 786.206 971.847 743.827 976.894C672.465 985.233 614.058 1030.66 540.061 1026.05C502.733 1023.85 469.796 1038.56 436.201 1019.9C391.847 995.327 362.423 948.806 320.045 921.157C278.765 894.385 222.773 895.922 175.344 884.95C104.201 868.492 38.7677 853.35 -35.0099 854.009" stroke="#56CCF2" stroke-miterlimit="10"/>
<path d="M1913.07 1451.98C1862.13 1467.78 1837.54 1507.94 1791.43 1530.54C1741.8 1554.9 1702.94 1519.13 1677.91 1478.53C1647.38 1428.94 1598.2 1394.27 1555.6 1354.55C1516.3 1317.9 1475.46 1311.32 1422.76 1305.61C1400.14 1303.2 1370.94 1304.74 1350.74 1291.57C1331.41 1279.06 1316.48 1254.92 1301.11 1238.03C1264.44 1197.87 1227.77 1163.64 1184.74 1130.94C1148.51 1103.51 1117.33 1067.08 1078.02 1044.04C1040.91 1022.1 1002.93 1021.66 960.989 1020.34C920.367 1019.25 878.428 1016.39 838.246 1011.35C799.381 1006.52 763.37 995.546 723.627 999.277C655.778 1005.86 599.786 1041.63 530.18 1040.53C495.707 1039.87 461.892 1050.19 430.712 1033.29C388.114 1010.25 358.691 967.019 316.972 942.003C275.691 917.207 220.797 919.182 174.028 909.746C102.665 895.482 36.7922 882.974 -36.5463 885.169" stroke="#56CCF2" stroke-miterlimit="10"/>
<path d="M1919.44 1486.65C1869.82 1499.82 1838.2 1536.24 1792.3 1554.68C1733.46 1578.16 1697.45 1533.83 1665.39 1491.48C1633.77 1449.79 1587.66 1417.97 1548.79 1382.42C1504.66 1342.04 1460.96 1332.17 1402.78 1323.39C1385.43 1320.76 1361.06 1320.32 1345.47 1312.2C1323.29 1300.57 1298.92 1266.99 1282.45 1249.66C1245.34 1210.6 1207.57 1178.78 1164.32 1147.4C1130.28 1122.82 1100.2 1091.22 1063.75 1069.94C1023.13 1046.24 982.946 1043.38 936.835 1041.85C862.179 1039.43 784.669 1016.39 710.891 1020.78C643.701 1024.95 586.611 1055.45 518.103 1053.26C483.41 1052.16 455.963 1061.38 424.124 1043.82C387.236 1023.42 359.349 988.745 323.558 966.801C278.765 939.371 222.114 942.662 171.172 933.885C100.469 921.596 33.7175 912.38 -38.3036 916.549" stroke="#56CCF2" stroke-miterlimit="10"/>
<path d="M1925.37 1521.76C1876.4 1532.73 1840.39 1564.33 1794.06 1579.25C1735 1598.34 1697.23 1554.46 1663.63 1513.42C1630.26 1472.39 1584.81 1440.57 1545.28 1404.8C1501.37 1364.86 1457.45 1351.91 1400.36 1339.84C1383.01 1336.11 1359.74 1334.36 1343.93 1325.58C1321.31 1313.29 1297.38 1281.47 1280.03 1263.48C1242.71 1225.52 1204.72 1193.92 1161.46 1163.2C1126.99 1138.84 1095.81 1108.34 1058.48 1087.93C1016.98 1065.11 976.36 1061.82 929.809 1060.28C856.69 1057.87 782.254 1036.8 709.794 1039.65C645.019 1042.29 587.71 1068.18 521.837 1065.33C488.022 1063.79 460.355 1071.47 428.956 1055.45C392.506 1036.8 363.522 1005.42 327.512 985.89C281.401 961.094 224.53 965.044 173.369 958.241C101.348 948.586 32.6206 942.222 -40.2788 948.147" stroke="#56CCF2" stroke-miterlimit="10"/>
<path d="M1930.64 1557.09C1880.79 1566.31 1836.66 1599.66 1786.82 1605.15C1733.46 1611.07 1699.86 1575.3 1668.24 1537.78C1630.92 1493.67 1583.05 1459.22 1540.45 1419.5C1503.34 1384.83 1461.18 1370.35 1413.1 1356.96C1359.52 1342.04 1333.39 1322.51 1294.53 1283.01C1254.56 1242.42 1213.94 1207.96 1167.61 1175.05C1089.88 1119.53 1035.86 1078.71 936.836 1076.3C865.474 1074.54 794.111 1055.01 723.188 1056.11C660.389 1057.21 602.641 1081.35 539.183 1076.3C502.075 1073.45 471.773 1080.69 437.08 1064.23C400.85 1047.11 370.329 1019.03 333.44 1003.01C289.525 983.916 240.12 988.305 193.35 983.916C113.864 976.236 37.8903 971.628 -41.8159 980.186" stroke="#56CCF2" stroke-miterlimit="10"/>
<path d="M100.689 1170.44C93.0034 1087.93 75.2178 1005.64 73.9003 922.473C73.4612 888.679 76.7548 854.886 75.2178 820.873C73.6807 787.518 65.5563 753.505 65.9955 720.37C66.8738 663.755 103.543 641.811 151.63 623.597C212.014 600.776 263.615 592.218 274.594 518.706" stroke="#56CCF2" stroke-miterlimit="10"/>
<path d="M228.921 1148.5C216.845 1074.76 177.541 1005.64 175.784 930.154C175.125 899.432 179.736 870.028 175.565 839.306C172.051 812.754 161.731 785.105 159.316 758.553C153.826 699.743 198.62 667.925 244.951 644.225C305.114 613.504 343.76 595.071 349.469 521.34" stroke="#56CCF2" stroke-miterlimit="10"/>
<path d="M335.855 1135.99C323.559 1070.16 272.398 1016.83 267.567 949.465C265.371 920.06 273.056 891.972 269.324 862.347C266.03 834.479 253.514 808.146 251.099 780.277C245.829 718.396 284.255 685.699 332.122 655.636C389.212 619.868 416.44 594.852 417.318 524.412" stroke="#56CCF2" stroke-miterlimit="10"/>
<path d="M430.493 1130.72C413.366 1073.67 346.834 1040.75 335.197 982.819C329.927 956.706 342.882 931.251 338.051 904.919C333.001 877.489 314.117 852.692 309.287 825.701C298.527 766.892 350.347 717.079 391.628 685.261C450.913 639.837 481.434 607.36 483.191 528.362" stroke="#56CCF2" stroke-miterlimit="10"/>
<path d="M510.388 1132.5C498.215 1077.92 411.36 1081.81 397.527 1030.9C392.037 1010.71 407.627 992.935 403.236 972.088C398.185 948.609 374.471 928.42 370.299 905.598C358.662 840.425 414.214 775.032 454.836 732.022C513.902 669.921 543.544 623.181 544.423 534.089" stroke="#56CCF2" stroke-miterlimit="10"/>
<path d="M582.254 1138.45C569.299 1087.32 466.942 1108.56 454.427 1061.82C449.815 1044.26 468.04 1031.53 464.527 1013.1C460.135 990.28 433.128 972.286 428.736 950.342C415.122 882.975 477.702 806.171 516.786 758.772C575.413 688.113 604.836 633.034 605.715 538.236" stroke="#56CCF2" stroke-miterlimit="10"/>
<path d="M645.284 1147.95C644.625 1085.41 527.106 1110.75 516.566 1058.97C512.395 1038.78 538.304 1025.17 536.548 1003.67C534.352 977.334 509.101 954.293 503.392 928.838C489.559 865.859 549.942 793.225 586.831 749.557C642.823 683.067 667.854 631.938 665.22 542.407" stroke="#56CCF2" stroke-miterlimit="10"/>
<path d="M706.312 1159.96C723 1093.91 585.513 1109.44 585.733 1053.04C585.733 1028.9 613.18 1016.61 613.399 990.282C613.619 962.413 593.418 934.983 590.783 906.676C584.415 839.308 627.672 784.668 667.855 735.733C718.137 674.29 734.166 626.453 726.92 546.358" stroke="#56CCF2" stroke-miterlimit="10"/>
<path d="M762.712 1171.54C766.664 1119.09 729.116 1110.75 688.056 1087.93C666.537 1075.86 634.479 1062.48 642.164 1031.97C649.63 1002.57 680.81 996.644 680.81 959.997C680.81 927.301 660.389 894.605 658.413 862.128C654.9 803.757 694.862 757.236 731.751 717.957C781.815 664.414 798.283 625.792 788.402 550.086" stroke="#56CCF2" stroke-miterlimit="10"/>
<path d="M822.366 1182.97C831.807 1125.48 799.601 1113.82 754.587 1085.52C733.947 1072.57 696.4 1054.58 702.109 1024.07C708.037 993.133 750.855 978.211 756.564 945.514C763.151 907.552 738.119 860.372 738.119 821.312C738.119 767.769 765.566 734.634 802.894 699.963C851.64 654.539 867.889 622.72 854.714 552.939" stroke="#56CCF2" stroke-miterlimit="10"/>
<path d="M884.394 1192.97C900.643 1135.7 874.037 1122.82 827.487 1093.64C810.799 1083.1 768.64 1062.26 772.373 1035.05C778.741 986.77 842.418 982.162 841.1 925.108C840.222 887.145 829.902 849.182 830.341 811.219C831 759.432 856.91 728.93 891.164 694.039C933.542 650.81 939.471 615.919 923.003 555.793" stroke="#56CCF2" stroke-miterlimit="10"/>
<path d="M954.426 1201.98C976.603 1147.12 955.719 1131.82 908.071 1103.95C878.648 1086.61 847.907 1074.98 857.568 1039.65C868.547 1000.37 926.076 994.888 936.396 951.22C945.838 912.379 930.687 860.592 931.785 820.215C933.322 766.453 953.084 736.828 984.922 695.793C1020.93 649.492 1016.98 611.968 997.658 557.328" stroke="#56CCF2" stroke-miterlimit="10"/>
<path d="M1032.96 1209.48C1058.87 1157.04 1041.79 1135.55 992.828 1108.78C962.965 1092.32 920.807 1080.03 941.447 1040.31C958.135 1008.27 1014.35 1001.69 1029.5 966.362C1045.75 928.399 1029.28 858.837 1031.03 817.802C1033.01 772.817 1045.75 742.096 1070.56 705.888C1106.13 653.881 1100.86 616.577 1076.71 558.425" stroke="#56CCF2" stroke-miterlimit="10"/>
<path d="M1110.5 1216.99C1135.31 1167.83 1121.94 1148.93 1077.14 1121.07C1048.82 1103.51 1010.83 1089.25 1030.59 1050.85C1046.4 1020.12 1098.22 1012.22 1111.84 978.212C1126.33 942.443 1112.06 876.392 1112.5 837.771C1113.16 791.47 1122.82 759.212 1146.75 720.591C1180.78 665.512 1178.81 627.33 1155.31 566.106" stroke="#56CCF2" stroke-miterlimit="10"/>
<path d="M1229.53 588.927C1245.78 653.223 1242.05 696.452 1206.26 751.531C1175.3 799.15 1154.44 837.112 1155.31 895.703C1155.97 932.129 1171.12 977.992 1164.32 1013.54C1156.63 1053.48 1104.81 1058.96 1096.03 1094.73C1087.9 1127.43 1117.55 1138.84 1144.55 1154.86C1185.74 1179.13 1206.21 1191.63 1188.94 1236.49" stroke="#56CCF2" stroke-miterlimit="10"/>
<path d="M1258.07 1282.51C1272.07 1221.49 1155.75 1219.81 1170.03 1153.32C1176.83 1121.28 1222.94 1116.02 1228.43 1080.25C1233.48 1048.21 1217.89 1007.62 1216.14 975.139C1212.62 910.843 1235.46 864.103 1266.2 809.682C1302.21 746.045 1310.99 695.354 1297.16 622.281" stroke="#56CCF2" stroke-miterlimit="10"/>
<path d="M1327.6 1340.04C1362.95 1266.75 1238.53 1279.94 1251.49 1219.15C1257.86 1189.75 1298.7 1184.48 1303.31 1151.79C1307.26 1123.04 1293.21 1086.61 1290.35 1057.43C1283.77 988.744 1303.97 934.981 1332.51 874.197C1365.89 802.66 1376.43 744.948 1363.03 665.73" stroke="#56CCF2" stroke-miterlimit="10"/>
<path d="M1393.77 1400.19C1438.79 1360.91 1318.46 1336.56 1326.36 1296.84C1331.41 1271.82 1364.57 1264.36 1370.94 1237.59C1376.21 1215.86 1359.96 1178.56 1356.67 1155.96C1346.13 1082.23 1365.01 1017.27 1392.68 949.685C1425.17 869.59 1437.03 800.906 1424.73 714.227" stroke="#56CCF2" stroke-miterlimit="10"/>
<path d="M1460.52 1468.22C1509.49 1416.43 1394.43 1378.47 1415.07 1322.95C1423.64 1299.91 1450.64 1286.52 1457.01 1261.73C1463.38 1236.71 1450.64 1194.36 1446.25 1169.12C1435.71 1107.02 1438.35 1055.23 1458.77 996.205C1487.01 915.47 1502.59 854.587 1486.79 768.095" stroke="#56CCF2" stroke-miterlimit="10"/>
<path d="M1524.86 1535.8C1561.09 1464.05 1484.68 1421.26 1503.78 1352.13C1513.88 1315.27 1544.62 1295.08 1547.48 1254.92C1549.45 1226.4 1546.38 1193.92 1541.33 1165.83C1530.79 1109.22 1520.91 1069.06 1537.38 1012.22C1557.4 943.046 1565.34 893.062 1547.08 821.438" stroke="#56CCF2" stroke-miterlimit="10"/>
<path d="M1591.61 1603.83C1624.99 1534.49 1562.19 1484.24 1577.12 1415.33C1584.81 1379.56 1610.5 1356.08 1611.59 1317.9C1612.47 1290.47 1608.96 1260.63 1603.03 1234.08C1590.08 1175.49 1578.66 1133.79 1594.69 1074.11C1614.23 1001.91 1625.21 948.587 1607.86 873.32" stroke="#56CCF2" stroke-miterlimit="10"/>
<path d="M1657.48 1665.05C1689.32 1599.88 1639.92 1544.36 1652 1477.87C1658.14 1443.86 1677.03 1418.19 1678.78 1382.86C1679.88 1357.84 1675.05 1329.97 1668.9 1305.83C1653.31 1244.17 1639.7 1199.62 1654.63 1135.99C1672.26 1060.06 1685.99 998.997 1670.39 920.547" stroke="#56CCF2" stroke-miterlimit="10"/>
<path d="M1727.53 1719.91C1756.51 1668.78 1707.55 1601.86 1709.3 1547.87C1710.18 1517.37 1721.82 1492.36 1718.31 1461.42C1715.67 1438.81 1706.89 1417.53 1699.86 1396.24C1677.69 1330.41 1676.59 1272.48 1696.13 1206.21C1721.16 1121.94 1745.01 1050.34 1735.79 960.366" stroke="#56CCF2" stroke-miterlimit="10"/>
<path d="M1798.67 1762.05C1822.61 1699.95 1785.28 1626.21 1783.74 1562.8C1782.2 1501.79 1782.86 1456.59 1760.91 1398.44C1737.63 1336.99 1734.78 1283.67 1756.07 1221.57C1782.86 1143.01 1808.24 1074.95 1802.09 989.589" stroke="#56CCF2" stroke-miterlimit="10"/>
<g opacity="0.8">
<path d="M1611.48 857.534H1697.21H1782.95" stroke="white" stroke-miterlimit="10"/>
<path d="M1512.21 1046.93C1555.31 1046.93 1590.25 1012 1590.25 968.897C1590.25 925.799 1555.31 890.861 1512.21 890.861C1469.12 890.861 1434.18 925.799 1434.18 968.897C1434.18 1012 1469.12 1046.93 1512.21 1046.93Z" stroke="white" stroke-miterlimit="10"/>
<path d="M814.862 818.135C814.862 827.805 807.024 835.644 797.354 835.644C787.684 835.644 779.846 827.805 779.846 818.135C779.846 808.466 787.684 800.627 797.354 800.627C807.024 800.627 814.862 808.466 814.862 818.135Z" stroke="white"/>
</g>
</g>
</g>
<defs>
<linearGradient id="paint0_linear" x1="-39.8636" y1="1388.71" x2="1976.27" y2="1266.14" gradientUnits="userSpaceOnUse">
<stop stop-color="#86F5FC" stop-opacity="0.55"/>
<stop offset="1" stop-color="#005B8E"/>
</linearGradient>
<linearGradient id="paint1_linear" x1="1937.07" y1="1313.68" x2="878.878" y2="222.632" gradientUnits="userSpaceOnUse">
<stop stop-color="#005B8E"/>
<stop offset="1" stop-color="#86F5FC" stop-opacity="0.4"/>
</linearGradient>
<linearGradient id="paint2_linear" x1="1922.09" y1="1090.01" x2="18.5901" y2="887.691" gradientUnits="userSpaceOnUse">
<stop stop-color="#005B8E" stop-opacity="0.05"/>
<stop offset="1" stop-color="#005B8E"/>
</linearGradient>
<linearGradient id="paint3_linear" x1="1937.06" y1="1313.68" x2="878.877" y2="222.633" gradientUnits="userSpaceOnUse">
<stop stop-color="#005B8E"/>
<stop offset="1" stop-color="#86F5FC" stop-opacity="0.4"/>
</linearGradient>
</defs>
</svg>
