<svg width="1920" height="881" viewBox="0 0 1920 881" fill="none" xmlns="http://www.w3.org/2000/svg">
<path opacity="0.8" d="M449.744 15.9409C713.804 34.659 943.67 200.652 1306 200.652C1668.33 200.652 1766.5 72 1923.79 200.652L1923.79 -31.321L-1.57375 -31.3212L-1.57249 139.148C-1.57249 139.148 185.684 -2.77729 449.744 15.9409Z" fill="url(#paint0_linear)"/>
<path opacity="0.9" d="M460.44 242.561C652.3 242.563 796.03 203.112 1038.03 165.018C1280.03 126.923 1665.76 127.581 1923.74 237.207L1923.74 -31.3251L-1.57235 -31.3376L-1.57333 142.257C108.806 186.395 268.578 242.558 460.44 242.561Z" fill="url(#paint1_linear)"/>
<path d="M-2.10342 -31.3121L-2.10644 120.192C257.253 185.511 435.036 202.174 729.18 159.632C1023.32 117.09 1552.11 80.0797 1923.8 208.456L1923.8 -31.3107L-2.10342 -31.3121Z" fill="url(#paint2_linear)"/>
<g opacity="0.9">
<mask id="mask0" mask-type="alpha" maskUnits="userSpaceOnUse" x="-2" y="-32" width="1926" height="275">
<path opacity="0.9" d="M460.441 242.556C652.302 242.558 796.032 203.107 1038.03 165.013C1280.03 126.918 1665.76 127.577 1923.74 237.202L1923.74 -31.33L-1.57039 -31.3425L-1.57137 142.252C108.807 186.39 268.58 242.553 460.441 242.556Z" fill="url(#paint3_linear)"/>
</mask>
<g mask="url(#mask0)">
<path d="M-39.0205 -777.003C359.022 -756.974 478.893 -166.92 876.498 -149.884C1009.03 -144.129 1132.4 -116.042 1262.75 -93.0197C1493.32 -52.2707 1723.24 -94.6312 1948.57 -149.193C1947.7 -50.6592 1942.67 47.875 1937.65 146.409C1933.72 222.612 1936.56 300.887 1929.36 376.629C1916.69 509.927 1729.35 436.026 1709.48 568.172C1417.77 566.791 1127.16 533.409 835.449 526.502C474.308 517.984 321.903 52.2491 -39.2389 35.4431C-32.7204 -64.5377 -3.63776 -64.0087 36.9776 -107.381C72.0773 -140.703 72.3911 -169.331 52.5218 -214.224C-29.7118 -376.605 -35.3087 -589.144 -39.0205 -777.003Z" stroke="#56CCF2" stroke-miterlimit="10"/>
<path d="M-45.9438 9.89844C49.2544 12.2006 130.479 32.9204 207.118 94.6194C275.896 149.872 338.124 212.722 405.811 269.356C531.141 374.107 646.427 494.051 816.299 497.505C952.983 500.267 1090.1 499.346 1226.57 507.404C1385.96 516.843 1542.73 541.707 1703 543.318" stroke="#56CCF2" stroke-miterlimit="10"/>
<path d="M-41.577 -9.20976C52.7478 -9.6702 130.042 -1.61246 204.279 64.9211C269.782 123.627 332.011 187.398 402.317 239.428C533.106 336.581 636.819 471.72 809.312 475.403C948.615 478.396 1088.57 471.95 1227.66 477.706C1296.88 480.468 1359.76 493.361 1428.1 505.102C1519.37 520.757 1616.75 524.44 1709.11 526.052" stroke="#56CCF2" stroke-miterlimit="10"/>
<path d="M-35.9001 -24.4028C57.7697 -27.6259 131.133 -31.0792 203.624 40.5192C265.852 101.988 328.954 167.14 401.226 215.256C536.599 305.042 630.706 454.455 805.382 458.138C880.929 459.75 957.568 464.354 1033.11 462.513C1099.27 460.901 1164.56 452.153 1230.94 453.764C1302.99 455.836 1362.38 471.491 1432.69 486.686C1523.3 506.485 1624.83 511.089 1717.19 513.391" stroke="#56CCF2" stroke-miterlimit="10"/>
<path d="M-27.603 -39.5987C65.1934 -45.8146 134.409 -62.8509 204.934 15.1937C263.232 79.4251 328.08 146.88 402.099 189.931C475.244 232.521 524.59 301.588 592.714 352.006C660.182 401.733 718.699 439.029 803.198 441.101C880.274 442.943 958.878 448.928 1035.73 445.245C1103.42 442.022 1169.14 428.669 1236.83 429.59C1270.46 430.05 1303.21 426.367 1336.4 434.424C1371.77 442.943 1405.17 459.288 1440.11 469.188C1529.41 494.051 1636.62 499.347 1728.32 502.109" stroke="#56CCF2" stroke-miterlimit="10"/>
<path d="M-17.7775 -53.4113C71.5255 -62.3898 138.339 -94.1603 206.026 -11.5112C264.105 59.3965 331.137 128.463 411.488 169.442C486.162 207.428 533.761 281.789 600.138 333.589C665.204 384.467 720.664 424.295 804.29 425.677C881.802 427.058 961.716 435.116 1038.79 430.051C1106.48 425.446 1171.98 404.957 1240.11 406.569C1278.32 407.489 1313.69 401.273 1351.24 412.554C1386.61 423.144 1418.93 442.943 1454.3 453.994C1494.04 466.656 1535.96 466.426 1577.01 472.872C1632.47 481.62 1687.28 490.138 1743.39 492.441" stroke="#56CCF2" stroke-miterlimit="10"/>
<path d="M-6.64624 -66.1247C32.6558 -71.4198 69.7788 -90.9382 109.081 -93.4706C153.186 -96.2332 184.846 -69.0673 210.393 -34.0738C264.76 39.8268 333.539 110.965 415.855 146.879C493.586 180.721 539.438 260.608 605.378 314.479C670.008 367.2 721.101 410.481 806.255 412.323C884.859 413.934 967.393 423.143 1045.56 416.697C1114.56 410.941 1180.28 385.157 1249.93 386.078C1289.01 386.768 1324.39 378.48 1362.38 391.603C1398.19 404.035 1430.07 427.057 1465.66 440.179C1505.39 454.683 1548.41 454.453 1589.89 461.82C1646.23 471.95 1701.47 482.31 1758.67 484.842" stroke="#56CCF2" stroke-miterlimit="10"/>
<path d="M4.88647 -77.2312C44.4068 -83.9076 78.0758 -107.973 116.723 -113.959C161.047 -120.866 192.052 -91.3976 215.851 -55.2531C266.726 21.6404 337.251 94.8504 421.75 125.93C502.538 155.628 546.862 240.81 612.583 296.753C676.777 351.315 723.939 398.28 810.404 400.122C890.318 401.964 975.035 412.554 1054.51 404.496C1124.82 397.359 1190.54 366.05 1261.94 366.97C1301.9 367.431 1337.27 356.841 1375.7 372.265C1411.94 386.769 1443.17 412.784 1479.19 427.748C1519.15 444.554 1562.82 443.864 1604.74 452.152C1661.73 463.663 1717.41 475.634 1775.7 478.627" stroke="#56CCF2" stroke-miterlimit="10"/>
<path d="M15.4164 -86.7526C55.3734 -94.8103 85.7178 -122.708 124.146 -131.917C168.47 -142.507 199.257 -110.737 221.31 -73.9017C249.258 -27.3972 288.778 5.98473 323.713 46.7337C353.627 81.7272 385.287 94.159 428.082 107.512C511.053 133.066 554.722 223.773 620.225 281.328C683.982 337.502 727.651 387.69 815.425 389.762C896.431 391.604 983.332 403.575 1063.68 394.136C1135.3 385.848 1200.8 349.703 1273.73 350.164C1314.56 350.394 1349.71 337.962 1388.8 354.998C1425.48 371.114 1456.27 399.891 1492.51 416.928C1532.25 435.576 1576.79 434.655 1619.37 443.863C1677.01 456.526 1733.13 470.109 1792.3 473.562" stroke="#56CCF2" stroke-miterlimit="10"/>
<path d="M26.9491 -97.3315C68.8712 -107.461 100.565 -148.724 141.177 -155.63C187.466 -163.458 211.921 -119.025 232.664 -83.8015C257.555 -41.6712 294.674 -12.4333 325.242 25.553C354.718 62.158 385.068 75.0504 428.3 85.8707C448.606 90.9355 475.026 92.5471 492.494 106.591C510.398 120.864 523.28 147.109 537.473 165.066C566.731 202.822 597.081 235.284 632.016 266.824C696.209 324.609 731.581 375.948 821.757 378.711C902.545 381.243 991.629 393.214 1071.32 383.315C1148.18 373.876 1215.65 332.206 1294.25 332.436C1330.72 332.667 1361.94 318.853 1397.09 333.818C1434.21 349.703 1464.56 380.092 1499.06 401.042C1541.42 426.366 1591.2 424.524 1637.93 436.035C1695.57 450.079 1751.25 464.813 1810.64 468.727" stroke="#56CCF2" stroke-miterlimit="10"/>
<path d="M36.8087 -107.283C80.0409 -119.254 107.552 -165.989 148.601 -175.889C195.545 -187.4 219.126 -138.823 238.122 -103.369C261.704 -59.3973 299.914 -29.9291 330.482 8.97808C360.177 46.9644 390.745 57.7847 435.288 66.5331C455.812 70.4468 483.76 70.4468 501.228 84.26C519.35 98.5336 532.014 126.16 545.77 144.578C575.028 183.945 605.596 217.557 641.186 250.479C705.161 310.106 736.603 364.898 828.744 368.121C872.195 369.503 915.646 368.812 958.878 369.963C1000.58 370.884 1040.54 378.711 1082.68 372.726C1161.06 361.675 1227.88 314.941 1308.67 314.71C1345.78 314.71 1377.01 299.055 1412.38 315.631C1450.15 333.128 1479.85 366.51 1514.56 389.532C1556.71 417.388 1607.36 415.316 1654.52 427.748C1712.82 443.173 1768.94 459.519 1829.2 463.893" stroke="#56CCF2" stroke-miterlimit="10"/>
<path d="M47.0061 -117.959C92.2034 -132.233 112.356 -181.644 153.623 -195.688C199.475 -211.573 223.93 -163.457 241.179 -126.852C262.795 -80.8077 300.787 -52.4907 331.137 -12.4324C364.544 32.0001 395.985 41.2089 449.043 47.8853C472.406 50.8782 493.585 50.1875 511.708 66.3029C526.119 78.965 536.599 99.2243 547.735 115.11C580.268 160.923 613.675 197.989 652.759 236.896C714.332 297.904 744.682 354.999 836.168 357.531C879.619 358.682 923.069 357.531 966.301 359.143C1008.22 360.754 1049.05 368.812 1090.98 362.596C1169.8 351.085 1235.08 300.207 1315.87 296.983C1357.79 295.372 1392.51 277.184 1431.16 299.286C1468.49 320.696 1497.1 355.229 1532.25 379.863C1572.64 408.18 1626.58 406.568 1672.65 419.691C1730.94 436.267 1786.4 453.763 1847.1 458.598" stroke="#56CCF2" stroke-miterlimit="10"/>
<path d="M55.0288 -128.537C102.191 -145.113 117.159 -199.14 159.082 -216.637C205.371 -235.975 229.389 -184.636 245.328 -147.341C265.852 -99.455 304.717 -71.1379 335.286 -29.6983C369.129 16.1155 401.007 23.4826 455.593 27.3963C479.393 29.2381 501.446 26.9359 520.005 43.5117C534.634 56.4041 544.896 77.5843 556.032 93.6997C588.784 141.125 622.627 179.572 662.366 220.09C723.939 282.94 750.577 343.719 844.247 346.251C888.134 347.402 932.24 346.021 976.127 347.863C1018.92 349.474 1060.19 358.222 1102.99 351.316C1183.34 338.193 1247.53 282.25 1330.28 278.336C1372.86 276.264 1407.58 256.005 1446.44 279.948C1484.21 303.2 1512.16 340.265 1547.32 367.431C1587.05 398.051 1642.08 395.979 1688.59 410.252C1747.32 428.209 1803.22 447.318 1864.57 452.382" stroke="#56CCF2" stroke-miterlimit="10"/>
<path d="M60.5447 -139.117C110.327 -158.456 119.561 -212.265 162.357 -236.208C207.773 -261.762 233.319 -202.365 247.511 -166.451C267.162 -116.723 306.683 -88.6365 337.688 -46.0457C371.968 1.37961 404.283 6.67469 460.397 8.28623C484.852 8.97689 507.341 5.52359 526.337 22.0994C541.185 34.9918 551.447 57.0929 562.364 73.4386C595.334 122.475 629.833 162.073 669.79 203.973C731.363 268.435 754.944 332.436 850.579 335.199C894.903 336.58 939.445 334.969 983.987 336.81C1027.44 338.652 1069.14 347.861 1112.59 340.264C1194.47 325.76 1257.35 265.212 1341.85 260.377C1384.87 258.075 1419.8 235.974 1458.67 261.528C1496.88 286.392 1524.17 325.99 1559.33 354.998C1598.63 387.459 1654.52 385.387 1701.47 400.581C1760.64 419.69 1816.54 440.179 1878.76 445.474" stroke="#56CCF2" stroke-miterlimit="10"/>
<path d="M64.5385 -151.485C116.068 -173.356 120.653 -228.609 162.794 -257.847C206.899 -288.236 233.537 -229.3 246.856 -192.925C266.289 -139.744 308.211 -101.297 343.583 -57.3252C375.024 -18.1878 409.086 -13.3532 456.467 -13.8136C481.577 -14.0438 504.503 -19.1086 526.119 -6.44654C546.862 5.98534 558.434 35.4535 571.971 55.7129C605.16 105.671 640.968 145.729 681.144 188.78C742.498 254.623 759.748 318.394 856.911 322.077C901.453 323.689 945.995 322.768 990.538 323.459C1039.45 324.149 1083.77 336.121 1132.9 324.61C1215.43 305.041 1274.39 245.184 1361.51 239.198C1398.62 236.666 1430.28 214.565 1465 234.364C1508.23 258.997 1537.27 309.876 1574.83 342.337C1612.38 374.798 1671.34 373.417 1716.97 388.841C1775.92 408.87 1831.16 430.511 1893.39 436.036" stroke="#56CCF2" stroke-miterlimit="10"/>
<path d="M66.0669 -165.529C119.343 -190.393 119.78 -248.869 162.357 -281.79C206.681 -316.093 233.319 -253.934 245.764 -216.638C264.105 -161.615 306.901 -122.708 342.928 -77.5851C375.024 -37.2966 410.396 -34.5339 458.65 -37.0663C484.197 -38.4477 508.215 -45.124 530.486 -32.4619C551.665 -20.2603 563.237 10.5892 576.556 31.309C610.182 83.1085 646.863 124.088 687.475 168.75C714.55 198.449 732.454 235.284 758.219 265.673C787.477 299.976 820.011 305.731 862.806 307.343C907.785 308.954 952.764 308.034 997.743 308.724C1047.53 309.415 1092.07 322.077 1141.85 309.415C1225.69 287.774 1282.9 223.312 1371.99 216.406C1409.54 213.413 1441.2 189.47 1475.7 210.42C1519.37 236.896 1547.53 290.997 1584.87 325.3C1621.77 359.373 1681.82 357.991 1727.45 374.567C1786.62 395.978 1842.08 418.769 1904.96 424.755" stroke="#56CCF2" stroke-miterlimit="10"/>
<path d="M64.0546 -180.901C117.986 -207.837 116.286 -268.206 157.772 -306.193C209.301 -353.158 233.974 -266.595 244.673 -229.069C258.647 -179.802 306.028 -144.808 336.377 -104.98C374.369 -55.0225 408.213 -58.2456 466.729 -63.5407C489.219 -65.6126 520.879 -75.2819 540.53 -58.2456C553.412 -47.1951 563.456 -20.4895 572.626 -5.98565C605.596 46.2743 640.313 92.5485 682.89 136.06C715.642 169.672 733.109 213.184 763.241 248.408C792.499 282.71 825.469 289.156 868.046 290.308C912.589 291.459 957.349 289.847 1001.89 291.228C1051.67 292.61 1096.43 305.272 1146 291.689C1227.44 269.357 1285.96 193.615 1373.08 189.932C1414.13 188.32 1452.77 161.154 1488.58 186.248C1531.6 216.637 1557.58 271.199 1595.57 307.804C1628.98 339.805 1679.2 337.272 1721.12 351.546C1786.84 374.108 1844.48 402.885 1914.13 409.792" stroke="#56CCF2" stroke-miterlimit="10"/>
<path d="M59.0798 -198.68C114.321 -228.609 109.299 -292.15 150.785 -333.589C202.532 -385.159 227.205 -294.222 237.249 -256.005C250.35 -205.587 299.259 -169.903 330.045 -129.154C368.911 -77.8148 404.283 -83.3401 463.891 -90.9374C486.598 -93.9302 519.787 -105.441 540.093 -88.1747C552.975 -77.1241 563.237 -49.2675 572.408 -34.7636C606.033 19.1079 641.405 66.7634 684.855 111.887C718.48 146.65 735.075 191.312 764.988 228.378C794.028 264.292 826.998 270.738 870.448 271.89C915.427 273.041 960.188 271.199 1005.17 272.35C1055.6 273.731 1100.58 287.084 1150.58 272.35C1232.9 248.177 1289.45 166.909 1378.54 162.535C1419.8 160.463 1458.45 131.455 1494.04 157.7C1537.27 189.931 1562.38 247.256 1599.94 285.933C1632.69 319.545 1683.34 316.552 1725.49 331.747C1791.43 355.459 1848.85 385.849 1919.16 392.985" stroke="#56CCF2" stroke-miterlimit="10"/>
<path d="M51.0012 -216.407C107.334 -248.868 100.129 -315.863 141.614 -360.295C193.58 -416.008 218.472 -321.158 227.86 -282.481C240.524 -230.911 290.744 -194.537 322.185 -153.097C362.142 -100.607 399.042 -108.204 459.524 -117.873C482.45 -121.557 517.167 -134.91 538.128 -117.413C551.229 -106.362 561.491 -77.5847 570.661 -62.8506C604.723 -7.36759 640.968 41.4391 685.292 87.7133C719.791 123.628 735.73 168.981 765.425 207.658C794.246 244.954 827.435 251.4 871.759 252.551C916.956 253.702 962.153 251.63 1007.13 252.551C1058.22 253.702 1103.2 267.745 1153.86 251.86C1237.05 225.845 1291.42 139.973 1382.03 134.678C1423.52 132.376 1462.38 101.527 1497.32 128.693C1540.77 162.305 1565 222.392 1602.12 262.911C1634 297.904 1685.31 294.681 1727.45 310.336C1793.61 334.74 1850.6 366.74 1921.56 374.107" stroke="#56CCF2" stroke-miterlimit="10"/>
<path d="M40.989 -238.555C96.4485 -269.404 92.4866 -331.978 133.535 -375.489C183.318 -428.21 211.921 -347.633 222.838 -306.193C236.812 -252.782 293.364 -210.652 326.77 -167.37C362.36 -121.096 413.671 -133.758 464.546 -141.356C480.048 -143.658 512.8 -153.327 527.429 -144.579C543.805 -134.909 560.836 -94.8512 571.535 -78.5055C606.033 -25.0945 641.842 18.1869 684.637 63.31C716.952 97.3826 735.948 139.283 765.206 175.197C793.809 210.19 828.526 214.334 870.885 215.946C915.209 217.558 959.533 217.097 1003.86 218.018C1052.77 218.939 1097.53 233.673 1146.87 221.471C1234.21 199.831 1288.36 117.182 1382.47 114.649C1429.63 113.268 1452.99 80.8068 1493.6 115.34C1535.53 151.024 1559.54 206.507 1598.63 245.414C1630.94 277.875 1684.22 275.343 1725.7 290.307C1792.52 314.25 1850.6 343.718 1922 350.164" stroke="#56CCF2" stroke-miterlimit="10"/>
<path d="M30.4766 -262.912C85.281 -291.92 85.7177 -352.237 127.64 -393.216C177.422 -441.793 207.117 -367.662 219.781 -325.992C235.502 -274.193 291.18 -233.444 324.805 -191.774C360.613 -147.111 410.396 -157.241 461.27 -163.457C476.991 -165.299 508.433 -173.587 523.062 -164.838C539.656 -155.169 556.687 -117.413 567.823 -100.837C602.758 -49.498 638.129 -8.05837 680.925 34.9928C713.022 67.2236 733.328 107.973 763.678 141.124C793.809 174.046 828.744 176.808 870.448 178.19C914.117 179.801 957.786 180.722 1001.45 182.334C1049.27 184.175 1092.94 198.909 1141.41 188.78C1226.57 170.823 1282.68 95.5407 1373.51 95.3104C1420.24 95.0802 1443.82 65.8422 1484.21 99.2241C1526.14 133.757 1551.25 187.168 1590.98 224.234C1624.83 255.774 1678.1 253.472 1720.24 267.975C1788.59 291.228 1848.85 318.624 1921.56 324.149" stroke="#56CCF2" stroke-miterlimit="10"/>
<path d="M21.0879 -290.539C74.5823 -317.475 79.3859 -373.418 121.09 -412.095C168.034 -455.837 201.004 -395.98 216.07 -351.778C234.411 -297.215 285.503 -266.596 320.22 -222.624C356.028 -177.501 397.514 -180.954 450.572 -185.559C475.245 -187.631 500.573 -195.688 521.315 -180.954C540.53 -167.141 555.595 -136.982 568.914 -118.565C603.631 -69.758 639.876 -31.081 682.017 9.66799C712.585 39.3664 733.328 79.1944 763.896 108.432C795.774 138.821 830.928 139.742 871.977 140.893C918.702 142.275 965.865 144.347 1012.37 148.03C1058.44 151.484 1099.71 165.297 1146.44 154.476C1223.29 136.749 1277.88 77.1224 1359.54 75.9713C1400.37 75.2807 1435.09 53.4098 1470.46 78.5038C1512.6 108.432 1539.67 158.851 1577.01 194.304C1615.88 231.14 1670.24 229.758 1718.94 245.644C1788.15 267.975 1849.94 292.608 1923.09 296.752" stroke="#56CCF2" stroke-miterlimit="10"/>
<path d="M12.1357 -320.698C64.3201 -345.562 73.0539 -397.131 114.758 -433.506C160.173 -472.873 195.327 -423.836 212.139 -379.404C232.882 -325.072 279.171 -298.597 314.543 -254.855C349.915 -211.113 387.47 -207.66 440.091 -210.192C466.947 -211.343 500.791 -220.322 523.717 -200.523C537.254 -188.782 548.172 -167.141 558.87 -152.637C592.495 -106.823 626.557 -65.8443 669.134 -29.2393C702.104 -0.692017 725.031 37.7547 756.691 67.4531C790.752 99.6839 826.779 101.526 871.103 103.137C916.737 104.749 963.244 106.13 1008.88 111.655C1053.2 116.95 1093.38 129.152 1138.79 121.094C1218.27 107.281 1275.48 54.1004 1358.88 54.791C1401.9 55.2515 1428.32 34.7619 1466.31 63.079C1507.14 93.468 1534.43 140.893 1573.74 173.354C1613.69 206.506 1669.59 206.276 1717.84 220.78C1787.93 241.96 1851.03 263.831 1924.62 266.824" stroke="#56CCF2" stroke-miterlimit="10"/>
<path d="M4.05701 -353.159C55.368 -375.26 68.687 -424.066 111.483 -455.837C158.208 -490.6 193.58 -443.865 212.794 -400.354C235.721 -347.633 281.573 -320.698 317.6 -277.646C353.408 -234.826 390.745 -229.07 443.366 -228.61C470.659 -228.379 503.193 -235.056 526.337 -215.257C540.093 -203.516 551.228 -182.566 562.364 -168.062C596.426 -123.399 630.924 -83.571 673.501 -47.8869C706.69 -20.0302 731.144 17.2654 763.896 45.5825C799.486 76.2018 835.95 78.2737 880.492 79.8853C925.253 81.4968 970.668 83.1083 1015.21 88.6336C1058.22 93.9287 1097.53 105.67 1141.41 98.9935C1218.27 87.4825 1276.13 39.5967 1356.26 41.4385C1398.19 42.3594 1424.82 24.172 1462.38 50.8775C1502.77 79.4248 1530.94 124.087 1570.46 154.016C1611.51 185.096 1667.41 184.405 1715.88 197.297C1787.06 216.406 1852.13 235.514 1926.36 236.665" stroke="#56CCF2" stroke-miterlimit="10"/>
<path d="M-2.71155 -383.777C48.1627 -402.886 66.2853 -448.009 110.173 -476.326C157.335 -506.945 194.89 -466.887 216.506 -423.605C243.144 -370.194 291.399 -334.05 332.447 -291.92C370.439 -252.782 410.396 -248.868 462.144 -245.645C527.429 -241.732 538.565 -228.609 580.05 -177.27C615.203 -133.989 650.575 -97.3836 692.497 -61.9297C727.214 -32.6918 755.599 6.67583 792.718 32.2303C827.871 56.4034 864.553 56.8638 905.165 58.0149C947.524 59.166 990.538 63.31 1032.68 67.454C1073.73 71.3677 1110.85 84.7204 1152.99 79.4254C1223.95 70.677 1282.03 23.0215 1355.61 27.8561C1392.73 30.1583 1425.48 14.7336 1458.89 34.3023C1502.99 60.0869 1532.25 108.894 1574.39 137.901C1615.44 165.988 1671.12 164.377 1718.28 175.888C1789.02 193.154 1854.09 209.039 1927.45 208.349" stroke="#56CCF2" stroke-miterlimit="10"/>
<path d="M-9.69861 -419.002C40.9573 -435.578 65.4119 -477.708 111.264 -501.421C160.61 -526.975 199.257 -489.45 224.148 -446.859C254.498 -394.829 303.408 -358.454 345.766 -316.785C384.85 -278.338 425.462 -271.431 477.865 -265.446C500.354 -262.913 529.394 -264.525 549.482 -250.711C568.696 -237.589 583.544 -212.265 598.828 -194.538C635.291 -152.407 671.755 -116.493 714.55 -82.1904C750.577 -53.4129 781.582 -15.1963 820.666 8.97678C857.566 31.9988 895.34 32.4592 937.043 33.8405C977.437 34.9916 1019.14 37.9845 1059.1 43.2795C1097.75 48.3444 1133.55 59.8554 1173.07 55.9416C1240.54 49.035 1296.22 11.5091 1365.44 12.6602C1399.72 13.3509 1433.34 2.5306 1464.35 20.2575C1506.7 44.4306 1535.96 89.784 1577.45 116.029C1618.5 142.044 1673.08 139.972 1719.59 149.871C1790.55 164.836 1856.06 177.958 1928.98 175.656" stroke="#56CCF2" stroke-miterlimit="10"/>
<path d="M-16.0308 -455.376C33.3151 -469.189 64.7567 -507.406 110.391 -526.744C168.907 -551.378 204.716 -504.873 236.594 -460.441C268.036 -416.699 313.888 -383.317 352.535 -346.021C396.422 -303.661 439.873 -293.301 497.734 -284.092C514.983 -281.33 539.219 -280.869 554.722 -272.351C576.775 -260.149 601.011 -224.926 617.387 -206.738C654.287 -165.759 691.842 -132.377 734.856 -99.4557C768.7 -73.6711 798.613 -40.5194 834.858 -18.1881C875.252 6.67571 915.209 9.66862 961.061 11.2802C1035.3 13.8126 1112.37 37.9856 1185.74 33.3812C1252.55 29.007 1309.32 -2.99352 1377.44 -0.691315C1411.94 0.459785 1439.24 -9.20949 1470.9 9.20812C1507.58 30.6186 1535.31 66.9934 1570.9 90.0154C1615.44 118.793 1671.77 115.34 1722.43 124.548C1792.74 137.441 1859.11 147.11 1930.73 142.736" stroke="#56CCF2" stroke-miterlimit="10"/>
<path d="M-21.9259 -492.211C26.7649 -503.722 62.5734 -536.874 108.644 -552.529C167.379 -572.558 204.934 -526.514 238.341 -483.463C271.529 -440.412 316.726 -407.03 356.028 -369.504C399.697 -327.604 443.366 -314.021 500.136 -301.359C517.385 -297.445 540.53 -295.603 556.25 -286.395C578.74 -273.502 602.539 -240.12 619.789 -221.242C656.907 -181.414 694.681 -148.263 737.695 -116.032C771.975 -90.4774 802.98 -58.4767 840.098 -37.0663C881.365 -13.1234 921.759 -9.67014 968.048 -8.0586C1040.76 -5.52618 1114.78 16.575 1186.83 13.5821C1251.24 10.8195 1308.23 -16.3465 1373.73 -13.3536C1407.36 -11.7421 1434.87 -19.7998 1466.09 -2.99373C1502.34 16.575 1531.16 49.4964 1566.97 69.986C1612.82 96.0009 1669.37 91.8569 1720.24 98.9937C1791.86 109.123 1860.2 115.8 1932.69 109.584" stroke="#56CCF2" stroke-miterlimit="10"/>
<path d="M-27.1663 -529.277C22.398 -538.946 66.2852 -573.939 115.849 -579.695C168.907 -585.911 202.314 -548.385 233.756 -509.017C270.874 -462.743 318.473 -426.598 360.832 -384.929C397.732 -348.554 439.654 -333.359 487.472 -319.316C540.748 -303.661 566.731 -283.171 605.378 -241.732C645.117 -199.141 685.51 -162.996 731.581 -128.463C808.875 -70.2177 862.588 -27.3968 961.061 -24.8644C1032.02 -23.0226 1102.99 -2.533 1173.51 -3.6841C1235.96 -4.8352 1293.38 -30.1594 1356.48 -24.8644C1393.38 -21.8715 1423.52 -29.4688 1458.01 -12.2023C1494.04 5.75489 1524.39 35.223 1561.07 52.0291C1604.74 72.0583 1653.87 67.4539 1700.38 72.0583C1779.42 80.116 1854.96 84.9506 1934.22 75.972" stroke="#56CCF2" stroke-miterlimit="10"/>
<path d="M-31.5331 -562.429C16.9394 -570.256 63.6652 -599.955 112.356 -601.336C164.977 -602.717 197.947 -567.263 230.262 -528.356C297.949 -446.628 381.356 -368.583 479.393 -332.669C575.683 -297.215 636.383 -202.134 718.481 -139.745C794.028 -82.4198 850.361 -39.5989 946.651 -37.0665C1017.39 -35.2247 1087.92 -17.2675 1158.01 -17.4978C1220.24 -17.728 1278.97 -38.6781 1341.64 -33.1528C1378.54 -29.9297 1409.76 -36.1456 1444.91 -20.9511C1481.59 -4.83566 1513.91 20.949 1551.47 35.4528C1596.88 53.1798 1647.32 47.6544 1694.92 50.6473C1776.36 55.9423 1854.75 57.3237 1935.97 46.5034" stroke="#56CCF2" stroke-miterlimit="10"/>
<path d="M-35.6815 -598.803C11.4809 -604.328 59.2983 -626.89 106.679 -625.048C162.794 -622.746 197.729 -582.227 232.227 -540.327C265.634 -499.578 308.866 -467.578 345.111 -429.361C379.61 -392.986 416.728 -370.425 461.489 -349.705C557.342 -305.273 619.352 -214.105 703.415 -148.953C775.468 -93.0097 833.33 -52.9514 925.253 -49.7283C998.398 -47.1959 1071.76 -32.0014 1144.47 -32.0014C1206.7 -32.0014 1265.65 -46.7355 1328.1 -41.4405C1365.22 -38.2174 1396.44 -42.8217 1432.25 -29.0085C1469.59 -14.5046 1503.87 6.90584 1542.51 18.1866C1589.89 31.9998 1641.86 25.7839 1690.55 26.935C1773.96 29.0069 1855.18 26.4745 1937.93 13.352" stroke="#56CCF2" stroke-miterlimit="10"/>
<path d="M-39.3934 -634.257C6.67727 -637.941 54.9314 -653.826 101.22 -648.07C154.933 -641.394 190.742 -604.329 224.803 -563.58C290.089 -485.535 368.474 -409.793 455.594 -360.295C541.185 -311.719 597.299 -227.228 675.467 -166.68C748.394 -110.046 809.749 -64.4626 903.418 -62.1604C975.909 -60.3186 1047.53 -47.6566 1119.8 -46.045C1181.15 -44.6637 1241.2 -55.2538 1302.77 -50.189C1339.02 -47.1961 1373.3 -50.189 1408.67 -39.5988C1450.37 -27.1669 1489.89 -7.13782 1532.69 1.61055C1582.03 11.7402 1635.31 5.06388 1685.31 4.37322C1770.9 3.22211 1854.53 -2.99387 1939.03 -18.1884" stroke="#56CCF2" stroke-miterlimit="10"/>
<path d="M1619.59 560.124C1630.51 483.001 1681.82 474.022 1741.86 450.079C1789.68 430.971 1826.14 407.949 1827.02 348.552C1827.45 313.789 1819.37 278.105 1817.85 243.111C1816.32 207.427 1819.59 171.973 1819.16 136.519C1817.89 52.2375 1801.34 -31.1852 1793.33 -114.786" stroke="#56CCF2" stroke-miterlimit="10"/>
<path d="M1545.13 557.361C1550.81 480.007 1589.24 460.669 1649.06 428.438C1695.14 403.574 1739.68 370.192 1734.22 308.493C1731.82 280.637 1721.55 251.629 1718.06 223.772C1713.91 191.542 1718.5 160.692 1717.84 128.461C1716.16 52.014 1679.68 -18.2123 1666.35 -92.5713" stroke="#56CCF2" stroke-miterlimit="10"/>
<path d="M1477.66 554.138C1478.54 480.238 1505.61 453.993 1562.38 416.467C1609.98 384.927 1648.19 350.624 1642.95 285.702C1640.55 256.464 1628.1 228.837 1624.83 199.6C1621.12 168.52 1628.76 139.052 1626.58 108.202C1621.92 39.7723 1574.09 -14.8457 1559.95 -80.9346" stroke="#56CCF2" stroke-miterlimit="10"/>
<path d="M1412.16 549.995C1413.91 467.115 1444.26 433.043 1503.21 385.387C1544.26 352.005 1595.79 299.745 1585.09 238.046C1580.29 209.729 1561.51 183.715 1556.49 154.937C1551.68 127.311 1564.57 100.605 1559.32 73.2089C1548.1 14.232 1485.47 -20.0323 1466.2 -76.7031" stroke="#56CCF2" stroke-miterlimit="10"/>
<path d="M1351.46 544.7C1352.33 451.231 1381.81 402.194 1440.55 337.042C1480.94 291.919 1536.18 223.313 1524.61 154.938C1520.46 130.995 1496.88 109.814 1491.86 85.1808C1487.49 63.3099 1502.99 44.6621 1497.53 23.4818C1484.14 -28.5312 1401.58 -27.0544 1386.38 -78.8184" stroke="#56CCF2" stroke-miterlimit="10"/>
<path d="M1290.32 539.635C1291.2 440.18 1320.46 382.394 1378.75 308.264C1417.62 258.536 1479.85 177.959 1466.31 107.281C1461.94 84.2594 1435.09 65.3813 1430.72 41.4384C1427.23 22.1 1445.35 8.74723 1440.76 -9.67038C1428.65 -57.3897 1331.97 -36.8703 1314.91 -85.166" stroke="#56CCF2" stroke-miterlimit="10"/>
<path d="M1231.15 535.261C1228.53 441.332 1253.42 387.69 1309.1 317.934C1345.78 272.12 1405.83 195.917 1392.07 129.844C1386.4 103.138 1361.29 78.9653 1359.1 51.3389C1357.36 28.7773 1383.12 14.5036 1378.97 -6.67664C1368.71 -59.8682 1256.33 -34.7264 1251 -95.2148" stroke="#56CCF2" stroke-miterlimit="10"/>
<path d="M1169.8 531.117C1162.59 447.087 1178.53 396.899 1228.53 332.438C1268.49 281.098 1311.5 223.774 1305.17 153.096C1302.55 123.398 1282.46 94.6202 1282.68 65.3823C1282.9 37.7559 1310.19 24.8635 1310.19 -0.460666C1310.41 -58.0578 1181.3 -43.223 1189.76 -106.322" stroke="#56CCF2" stroke-miterlimit="10"/>
<path d="M1108.66 527.203C1098.84 447.777 1115.21 407.258 1164.99 351.084C1201.68 309.875 1241.42 261.068 1237.92 199.83C1235.96 165.757 1215.65 131.454 1215.65 97.1514C1215.65 58.7047 1246.66 52.4888 1254.08 21.6393C1261.72 -10.3613 1229.84 -24.4048 1208.45 -37.0669C1169.79 -59.7345 1134.27 -68.7831 1133.93 -116.373" stroke="#56CCF2" stroke-miterlimit="10"/>
<path d="M1042.72 524.209C1029.62 450.999 1045.78 417.618 1094.25 369.962C1131.37 333.587 1158.66 298.824 1158.66 242.65C1158.66 201.671 1133.77 152.174 1140.32 112.346C1146 78.0432 1188.58 62.3882 1194.47 29.9272C1200.15 -2.07341 1162.81 -20.9514 1142.29 -34.5344C1100.1 -62.5223 1069.17 -75.5843 1073.6 -127.48" stroke="#56CCF2" stroke-miterlimit="10"/>
<path d="M974.817 521.218C958.441 458.138 964.336 421.533 1006.48 376.18C1040.54 339.575 1066.3 307.574 1066.96 253.242C1067.39 213.414 1057.13 173.586 1056.26 133.758C1054.95 73.9007 1118.27 69.066 1124.6 18.4176C1128.31 -10.1297 1086.39 -32.0006 1069.8 -43.0512C1026.55 -71.6604 1000.83 -86.2006 1010.82 -137" stroke="#56CCF2" stroke-miterlimit="10"/>
<path d="M900.58 519.605C881.365 462.281 877.435 422.913 913.244 374.337C944.904 331.285 964.555 300.206 966.083 243.802C967.175 201.441 952.109 147.109 961.498 106.36C971.76 60.5467 1028.97 54.7912 1039.88 13.5819C1049.49 -23.4836 1018.92 -35.6853 989.664 -53.8726C945.203 -81.3093 924.582 -96.1768 940.433 -145.464" stroke="#56CCF2" stroke-miterlimit="10"/>
<path d="M821.976 518.455C797.958 457.447 792.718 418.309 828.089 363.747C852.762 325.761 865.426 293.53 867.391 246.335C869.138 203.284 852.762 130.304 868.92 90.4759C883.986 53.4105 939.882 46.5039 956.476 12.8917C977 -28.7781 935.078 -41.6704 905.383 -58.9369C859.081 -85.6462 843.58 -101.738 864.328 -150.569" stroke="#56CCF2" stroke-miterlimit="10"/>
<path d="M743.808 510.397C720.445 446.166 718.48 406.108 752.324 348.322C776.123 307.804 785.73 273.961 786.385 225.385C786.822 184.866 772.63 115.57 787.04 78.0441C800.578 42.36 852.107 34.0721 867.828 1.84125C887.479 -38.4473 849.705 -53.4116 821.539 -71.8292C778.471 -100.099 765.206 -116.317 786.678 -163.976" stroke="#56CCF2" stroke-miterlimit="10"/>
<path d="M670.008 486.453C653.851 418.998 657.562 373.645 693.153 315.86C723.939 265.902 744.682 226.074 743.809 164.605C743.154 126.389 728.088 78.2728 734.857 40.9772C742.499 -0.922856 794.028 -6.67837 802.762 -44.2042C810.84 -78.507 781.364 -90.4784 754.508 -107.285C713.207 -132.966 692.862 -146.084 710.811 -194.126" stroke="#56CCF2" stroke-miterlimit="10"/>
<path d="M602.758 451.461C589.002 374.798 597.736 321.617 633.544 254.853C664.113 197.759 686.821 148.722 683.327 81.2674C681.58 47.1948 666.078 4.6041 671.1 -29.008C676.558 -66.5339 722.411 -72.0592 729.179 -105.671C743.103 -174.107 611.182 -156.125 640.197 -238.025" stroke="#56CCF2" stroke-miterlimit="10"/>
<path d="M572.408 -300.438C537.254 -223.545 661.056 -238.509 648.173 -174.738C641.841 -143.889 601.229 -138.363 596.644 -104.061C592.714 -73.9018 606.688 -35.6853 609.526 -5.06602C616.077 66.9929 595.989 123.397 567.604 187.168C534.416 262.22 523.935 322.767 537.254 405.877" stroke="#56CCF2" stroke-miterlimit="10"/>
<path d="M506.686 -364.67C461.926 -323.461 581.578 -297.906 573.718 -256.236C568.696 -229.991 535.726 -222.164 529.394 -194.077C524.154 -171.285 540.311 -132.148 543.586 -108.435C554.067 -31.081 535.289 37.0642 507.778 107.972C475.463 192.002 463.672 264.061 475.9 354.998" stroke="#56CCF2" stroke-miterlimit="10"/>
<path d="M440.309 -436.037C391.619 -381.705 506.031 -341.877 485.507 -283.631C476.991 -259.458 450.135 -245.415 443.803 -219.4C437.471 -193.155 450.135 -148.723 454.502 -122.247C464.982 -57.095 462.362 -2.76308 442.056 59.1661C413.89 144.117 398.387 208.118 414.326 299.286" stroke="#56CCF2" stroke-miterlimit="10"/>
<path d="M376.334 -506.945C340.308 -431.663 416.291 -386.77 397.295 -314.251C387.252 -275.574 356.683 -254.394 353.845 -212.264C351.88 -182.335 354.937 -148.262 359.959 -118.794C370.439 -59.3974 380.265 -17.2671 363.889 42.3599C343.824 115.488 336.12 168.036 354.817 244.1" stroke="#56CCF2" stroke-miterlimit="10"/>
<path d="M309.958 -578.314C276.769 -505.565 339.216 -452.845 324.369 -380.555C316.726 -343.03 291.18 -318.396 290.089 -278.338C289.215 -249.56 292.709 -218.25 298.604 -190.394C311.486 -128.925 322.84 -85.1832 306.901 -22.5633C287.468 53.1791 275.455 109.853 292.704 188.818" stroke="#56CCF2" stroke-miterlimit="10"/>
<path d="M244.454 -642.545C212.794 -574.17 261.922 -515.924 249.913 -446.168C243.799 -410.484 225.022 -383.548 223.275 -346.482C222.183 -320.237 226.987 -290.999 233.1 -265.675C248.603 -200.983 262.14 -154.249 247.293 -87.4849C229.623 -7.21211 215.899 57.7556 231.987 140.985" stroke="#56CCF2" stroke-miterlimit="10"/>
<path d="M174.803 -700.099C145.981 -646.458 194.672 -576.241 192.925 -519.607C192.052 -487.606 180.479 -461.361 183.973 -428.9C186.593 -405.187 195.327 -382.856 202.314 -360.525C224.367 -291.459 225.458 -230.68 206.026 -161.154C181.135 -72.7495 157.676 3.98293 166.847 98.3731" stroke="#56CCF2" stroke-miterlimit="10"/>
<path d="M104.059 -744.302C80.2594 -679.149 117.378 -601.796 118.906 -535.262C120.435 -471.261 119.78 -423.835 141.614 -362.827C164.759 -298.365 167.597 -242.422 146.418 -177.27C119.78 -94.8509 94.545 -23.4473 100.659 66.1084" stroke="#56CCF2" stroke-miterlimit="10"/>
<path d="M27.6383 -774C20.8697 -679.61 42.0491 -587.062 52.5296 -493.592C61.0451 -416.469 70.6522 -347.633 99.2554 -275.804C119.78 -224.235 123.71 -185.328 94.6701 -136.751C59.08 -76.8942 27.2565 -31.6877 25.9464 43.3641" stroke="#56CCF2" stroke-miterlimit="10"/>
<g opacity="0.8">
<path d="M153.373 67.5795C160.578 67.5795 166.418 61.7392 166.418 54.5348C166.418 47.3305 160.578 41.4902 153.373 41.4902C146.169 41.4902 140.329 47.3305 140.329 54.5348C140.329 61.7392 146.169 67.5795 153.373 67.5795Z" stroke="white" stroke-miterlimit="10"/>
<path d="M1140.66 259.236C1146.21 259.236 1150.7 254.743 1150.7 249.201C1150.7 243.66 1146.21 239.167 1140.66 239.167C1135.12 239.167 1130.63 243.66 1130.63 249.201C1130.63 254.743 1135.12 259.236 1140.66 259.236Z" stroke="white" stroke-miterlimit="10"/>
<path d="M1246.64 173.943H1418.62" stroke="white" stroke-miterlimit="10"/>
<path d="M1556.15 80.0754C1593.81 80.0754 1624.34 49.5468 1624.34 11.8878C1624.34 -25.7712 1593.81 -56.2998 1556.15 -56.2998C1518.49 -56.2998 1487.96 -25.7712 1487.96 11.8878C1487.96 49.5468 1518.49 80.0754 1556.15 80.0754Z" stroke="white" stroke-miterlimit="10"/>
<path d="M392.947 336.497C402.148 322.349 407.493 305.463 407.493 287.328C407.493 237.452 367.06 197.02 317.184 197.02C280.298 197.02 248.577 219.133 234.556 250.827" stroke="white" stroke-miterlimit="10"/>
</g>
</g>
</g>
<defs>
<linearGradient id="paint0_linear" x1="1934.41" y1="-205.492" x2="9.60132" y2="-117.965" gradientUnits="userSpaceOnUse">
<stop offset="0.317708" stop-color="#86F5FC"/>
<stop offset="1" stop-color="#005B8E"/>
</linearGradient>
<linearGradient id="paint1_linear" x1="1925.09" y1="-224.901" x2="-25.6585" y2="-207.44" gradientUnits="userSpaceOnUse">
<stop offset="0.369792" stop-color="#005B8E"/>
<stop offset="0.932292" stop-color="#86F5FC" stop-opacity="0.6"/>
</linearGradient>
<linearGradient id="paint2_linear" x1="1908.7" y1="-84.168" x2="-24.4915" y2="-72.3741" gradientUnits="userSpaceOnUse">
<stop stop-color="#86F5FC" stop-opacity="0.11"/>
<stop offset="1" stop-color="#005B8E"/>
</linearGradient>
<linearGradient id="paint3_linear" x1="1925.1" y1="-224.906" x2="-25.6565" y2="-207.445" gradientUnits="userSpaceOnUse">
<stop offset="0.369792" stop-color="#005B8E"/>
<stop offset="0.932292" stop-color="#86F5FC" stop-opacity="0.6"/>
</linearGradient>
</defs>
</svg>
