<svg width="876" height="872" viewBox="0 0 876 872" fill="none" xmlns="http://www.w3.org/2000/svg">
<path opacity="0.07" d="M211.185 440.099C234.856 356.503 259.145 108.365 508.934 217.443C758.723 326.522 766.096 349.717 731.967 443.546C697.837 537.374 433.965 689.063 341.526 669.814C249.086 650.564 187.515 523.694 211.185 440.099Z" fill="url(#paint0_linear)"/>
<path d="M179.812 291.315C172.857 308.58 188.107 347.969 189.976 353.201C199.576 384.794 230.047 425.924 247.317 447.449C264.587 468.974 289.928 545.36 300.095 573.238C310.262 601.116 358.037 623.687 375.457 636.692C392.877 649.697 463.161 633.626 475.124 632.13C487.088 630.635 575.835 655.373 613.371 625.176C650.907 594.98 672.518 549.162 681.644 486.08C690.77 422.998 661.238 395.718 652.117 385.927C642.996 376.136 637.541 322.77 635.45 296.312C633.358 269.853 613.396 251.094 580.948 229.643C548.5 208.193 491.9 212.231 466.33 211.783C440.76 211.335 414.215 227.405 392.231 250.8C370.248 274.194 342.583 286.154 316.189 288.845C289.796 291.536 253.609 283.914 237.085 278.084C220.562 272.255 203.365 275.619 197.981 276.291C192.598 276.964 186.766 274.049 179.812 291.315Z" stroke="url(#paint1_linear)"/>
<path d="M352.132 458.447C348.869 477.526 364.712 478.758 372.207 476.416C375.194 475.712 379.25 473.729 384.859 469.414C390.468 465.099 395.15 468.128 398.869 463.447C404.503 456.354 400.117 448.836 392.408 446.185C384.698 443.535 354.974 441.829 352.132 458.447Z" stroke="#BDBDBD"/>
<path d="M404.197 489.802C424.792 499.3 435.245 495.579 445.4 489.481C451.824 482.642 467.279 475.278 470.788 474.236C474.297 473.194 496.476 456.539 472.384 428.766C448.291 400.993 399.838 416.103 391.252 420.194C382.665 424.285 383.414 420.57 356.163 430.615C333.55 438.951 337.929 464.282 347.178 475.198C356.427 486.114 383.601 480.304 404.197 489.802Z" stroke="url(#paint2_linear)" stroke-width="2"/>
<path d="M249.447 375.794C246.467 392.297 257.305 421.859 263.097 434.577C268.371 444.84 280.596 467.675 287.298 476.919C295.676 488.474 308.551 530.971 321.272 552.065C333.993 573.158 364.247 603.402 383.874 609.14C403.5 614.879 429.645 612.241 462.538 608.13C495.43 604.02 516.144 613.403 548.96 603.63C581.776 593.858 634.146 518.633 635.078 505.915C636.01 493.197 642.529 449.536 626.239 435.189C609.948 420.843 616.233 405.565 615.768 401.843C615.303 398.12 615.229 347.092 604.835 314.366C594.442 281.64 575.281 269.543 548.362 260.935C521.443 252.328 466.983 260.394 446.269 266.134C425.555 271.873 384.127 303.514 369.154 309.796C354.181 316.078 329.356 324.221 314.46 331.124C299.564 338.026 280.946 335.312 270.861 340.353C260.775 345.394 253.172 355.166 249.447 375.794Z" stroke="url(#paint3_linear)" stroke-width="2"/>
<defs>
<linearGradient id="paint0_linear" x1="723.755" y1="258.951" x2="184.017" y2="315.871" gradientUnits="userSpaceOnUse">
<stop stop-color="#86F5FC"/>
<stop offset="1" stop-color="#005B8E"/>
</linearGradient>
<linearGradient id="paint1_linear" x1="704.394" y1="622.964" x2="531.16" y2="126.412" gradientUnits="userSpaceOnUse">
<stop stop-color="#39D8F2"/>
<stop offset="1" stop-color="#157BD3"/>
</linearGradient>
<linearGradient id="paint2_linear" x1="488.015" y1="488.111" x2="462.024" y2="390.612" gradientUnits="userSpaceOnUse">
<stop stop-color="#39D8F2"/>
<stop offset="1" stop-color="#157BD3"/>
</linearGradient>
<linearGradient id="paint3_linear" x1="652.898" y1="592.165" x2="511.591" y2="195.56" gradientUnits="userSpaceOnUse">
<stop stop-color="#39D8F2"/>
<stop offset="1" stop-color="#157BD3"/>
</linearGradient>
</defs>
</svg>
