<svg width="80" height="80" viewBox="0 0 80 80" fill="none" xmlns="http://www.w3.org/2000/svg">
<g clip-path="url(#clip0)">
<path d="M78.9007 38.844L75.1825 43.2754L78.0328 48.4321C78.6413 49.5309 78.7665 50.8464 78.3789 52.0402C77.9895 53.2346 77.1124 54.224 75.9723 54.7588L70.647 57.2498L71.1456 63.0916C71.3428 65.405 69.7412 67.503 67.4212 67.9751L67.3163 67.997L67.0209 68.0281L60.7995 68.1528L58.8696 73.6928C58.4588 74.8775 57.561 75.8516 56.4105 76.3609C55.2594 76.8726 53.9349 76.8848 52.7752 76.3986L47.3541 74.1199L43.3325 78.3986C42.4524 79.335 41.253 79.8182 40.0366 79.8291C40.0238 79.8309 40.0097 79.8309 39.9975 79.8309C39.0234 79.8309 38.0413 79.5267 37.2015 78.9079L37.1112 78.8428L36.889 78.6432L32.6379 74.1199L27.2168 76.3986C26.0553 76.8848 24.7308 76.8726 23.5797 76.3609C22.4304 75.8516 21.5332 74.8787 21.1206 73.691L19.1925 68.1528L13.3117 68.036C12.0513 68.011 10.8459 67.461 10.0048 66.5288C9.16193 65.5948 8.74018 64.342 8.84638 63.0916L9.34503 57.2498L4.01971 54.7588C1.91156 53.7719 0.889218 51.3387 1.63995 49.1008L1.67413 48.9991L1.79437 48.7266L4.80768 43.2754L1.09063 38.844C-0.418155 37.0874 -0.355289 34.4643 1.23956 32.7278L1.31585 32.6438L1.59112 32.4053L6.33966 28.7217L4.62946 23.0934C3.94464 20.8391 5.0451 18.5075 7.24664 17.5474L7.35163 17.5023L7.633 17.4098L13.6932 15.9994L14.425 10.1808C14.5812 8.93524 15.2551 7.79742 16.275 7.05997C17.2924 6.32313 18.5858 6.03472 19.8223 6.27019L25.5999 7.37515L28.6413 2.35598C29.2932 1.28206 30.3735 0.516615 31.6058 0.254978C32.8363 -0.00544161 34.1357 0.256195 35.1678 0.973567L39.9957 4.32434L40.0366 4.29636L45.0085 0.84214C45.1416 0.750263 45.2856 0.668121 45.4358 0.599365C47.5946 -0.39668 50.1373 0.357808 51.3488 2.35598L54.3915 7.37515L60.1678 6.27019C61.4044 6.03289 62.699 6.3213 63.7182 7.05997C64.7351 7.7956 65.4101 8.93402 65.5664 10.1808L66.2982 15.9976L72.0257 17.332C73.2532 17.6173 74.3164 18.4047 74.9463 19.4908C75.5768 20.5793 75.7269 21.8917 75.3625 23.0934L73.6505 28.7235L78.2037 32.2556C79.1992 33.0144 79.8437 34.1601 79.975 35.4025C80.1062 36.645 79.7137 37.8966 78.9007 38.844Z" fill="#4EB9FF"/>
<path d="M78.9008 38.8433L75.1825 43.2747L78.0329 48.4314C78.6414 49.5302 78.7665 50.8457 78.3789 52.0395C77.9895 53.2339 77.1124 54.2233 75.9723 54.7581L70.647 57.2491L71.1456 63.0909C71.3428 65.4043 69.7412 67.5023 67.4213 67.9744L67.3163 67.9963L67.0209 68.0274L60.7996 68.1521L58.8696 73.6921C58.4589 74.8768 57.561 75.8509 56.4105 76.3602C55.2594 76.8719 53.9349 76.8841 52.7753 76.3979L47.3541 74.1192L43.3325 78.3979C42.4524 79.3343 41.2531 79.8175 40.0366 79.8284V4.29564L45.0085 0.841425C45.1416 0.749547 45.2856 0.667406 45.4358 0.59865C47.5946 -0.397396 50.1373 0.357092 51.3489 2.35527L54.3915 7.37444L60.1679 6.26948C61.4044 6.03218 62.699 6.32059 63.7183 7.05926C64.7351 7.79488 65.4102 8.93331 65.5664 10.18L66.2982 15.9969L72.0258 17.3312C73.2532 17.6166 74.3164 18.404 74.9463 19.4901C75.5768 20.5786 75.7269 21.891 75.3626 23.0927L73.6505 28.7228L78.2038 32.2549C79.1992 33.0136 79.8438 34.1594 79.975 35.4018C80.1062 36.6443 79.7138 37.8959 78.9008 38.8433Z" fill="#3292D1"/>
<path d="M59.8877 39.9928C59.8877 50.9194 50.9882 59.8139 40.0366 59.8528H39.9664C28.9819 59.8528 20.0446 50.9426 20.0446 39.9928C20.0446 29.0429 28.9819 20.1333 39.9664 20.1333H40.0366C50.9882 20.1722 59.8877 29.0661 59.8877 39.9928Z" fill="white"/>
<path d="M59.8877 39.9928C59.8877 50.9194 50.9882 59.8139 40.0366 59.8528V20.1333C50.9882 20.1722 59.8877 29.0661 59.8877 39.9928Z" fill="#E1EBF0"/>
<path d="M49.0082 37.1323L40.0367 46.0779L38.0976 48.0109C37.6398 48.4673 37.0392 48.6948 36.4387 48.6948C35.8387 48.6948 35.2381 48.4673 34.7797 48.0109L30.6116 43.854C29.6949 42.9401 29.6949 41.4609 30.6116 40.5476C31.5259 39.6343 33.0115 39.6343 33.9277 40.5476L36.4387 43.0508L45.6922 33.8266C46.6083 32.9133 48.0939 32.9133 49.0082 33.8266C49.925 34.7399 49.925 36.2209 49.0082 37.1323Z" fill="#B4D2D7"/>
<path d="M49.0082 37.1323L40.0366 46.0779V39.4645L45.6921 33.8266C46.6083 32.9133 48.0939 32.9133 49.0082 33.8266C49.9249 34.7399 49.9249 36.2209 49.0082 37.1323Z" fill="#6FA5AA"/>
</g>
<defs>
<clipPath id="clip0">
<rect width="80" height="79.7517" fill="white"/>
</clipPath>
</defs>
</svg>
