<svg width="80" height="80" viewBox="0 0 80 80" fill="none" xmlns="http://www.w3.org/2000/svg">
<path d="M49.9665 64.0671L36.8726 60.9396L40.0001 74.0335H49.9665V64.0671Z" fill="#CECECE"/>
<path d="M30.0334 64.0671V74.0335H39.9999V60.9396L30.0334 64.0671Z" fill="#E0E0E0"/>
<path d="M40.0001 64.067H80.0001V54.1004L36.8726 50.9729L40.0001 64.067Z" fill="#DBDBDB"/>
<path d="M0 54.1004V64.067H40V50.9729L0 54.1004Z" fill="#E8E8E8"/>
<path d="M40.0001 4L36.8726 29.0502L40.0001 54.1005H80.0001V4H40.0001Z" fill="#03232E"/>
<path d="M0 4H40V54.1006H0V4Z" fill="#323C3C"/>
<path d="M29.0041 40.7671L17.2871 29.0501L29.0041 17.3334L32.3187 20.6477L23.9163 29.0501L32.3187 37.4526L29.0041 40.7671Z" fill="#BEEBFA"/>
<path d="M50.9957 40.7671L47.6812 37.4526L56.0835 29.0501L47.6812 20.6477L50.9957 17.3334L62.7127 29.0501L50.9957 40.7671Z" fill="#5ECEF4"/>
<path d="M37.6562 16.4989H42.3438V41.6014H37.6562V16.4989Z" fill="#BEEBFA"/>
<path d="M62.4246 76.3772V71.6897H40L38.4363 74.0334L40 76.3772H62.4246Z" fill="#DBDBDB"/>
<path d="M17.5754 71.6897H40V76.3772H17.5754V71.6897Z" fill="#E8E8E8"/>
</svg>
