<svg width="80" height="80" viewBox="0 0 80 80" fill="none" xmlns="http://www.w3.org/2000/svg">
<path d="M40 66.2071C20.1945 66.2071 4.13794 62.1216 4.13794 57.9313V67.5809C4.14897 71.7685 20.2 75.8623 40 75.8623C59.8 75.8623 75.851 71.7685 75.8621 67.5809V57.9313C75.8621 62.1216 59.8055 66.2071 40 66.2071Z" fill="#E4AF18"/>
<path d="M35.8621 51.0348C16.0566 51.0348 0 46.9493 0 42.7589V52.4086C0.0110345 56.5961 16.0621 60.6899 35.8621 60.6899C55.6621 60.6899 71.7131 56.5961 71.7241 52.4086V42.7589C71.7241 46.9493 55.6676 51.0348 35.8621 51.0348Z" fill="#F4BF1A"/>
<path d="M44.1379 35.8623C24.3324 35.8623 8.27588 31.7768 8.27588 27.5864V37.2361C8.28691 41.4237 24.3379 45.5175 44.1379 45.5175C63.938 45.5175 79.989 41.4237 80 37.2361V27.5864C80 31.7768 63.9435 35.8623 44.1379 35.8623Z" fill="#E4AF18"/>
<path d="M71.7241 11.214C71.7241 15.403 55.6676 19.3106 35.8621 19.3106C16.0566 19.3106 0 15.403 0 11.214C0 7.0237 16.0566 4.13818 35.8621 4.13818C55.6676 4.13818 71.7241 7.0237 71.7241 11.214Z" fill="#FFD949"/>
<path d="M35.8621 19.3107C16.0566 19.3107 0 15.2251 0 11.0348V20.6844C0.0110345 24.872 16.0621 28.9658 35.8621 28.9658C55.6621 28.9658 71.7131 24.872 71.7241 20.6844V11.0348C71.7241 15.2251 55.6676 19.3107 35.8621 19.3107Z" fill="#F4BF1A"/>
<path d="M5.51721 15.2748V24.9231C6.35583 25.232 7.27445 25.53 8.27583 25.8141V16.1644C7.27445 15.8803 6.35583 15.5824 5.51721 15.2748Z" fill="#DCA815"/>
<path d="M63.4482 16.1644V25.8141C64.4496 25.53 65.3682 25.232 66.2069 24.9231V15.2748C65.3682 15.5837 64.4496 15.8803 63.4482 16.1644Z" fill="#DCA815"/>
<path d="M12.4138 17.1658V26.8168C13.2966 27.0003 14.2166 27.174 15.1724 27.3382V17.6872C14.2166 17.523 13.2966 17.3492 12.4138 17.1658Z" fill="#DCA815"/>
<path d="M56.5518 17.6872V27.3396C57.5076 27.174 58.4276 27.0003 59.3104 26.8168V17.1658C58.4276 17.3492 57.5076 17.523 56.5518 17.6872Z" fill="#DCA815"/>
<path d="M19.3103 18.3024V27.9548C20.2096 28.0706 21.1269 28.1782 22.0689 28.2748V18.6224C21.1269 18.5258 20.2096 18.4169 19.3103 18.3024Z" fill="#DCA815"/>
<path d="M49.6553 18.6237V28.2762C50.5973 28.1782 51.5146 28.0706 52.4139 27.9562V18.3024C51.5146 18.4196 50.5973 18.5272 49.6553 18.6237Z" fill="#DCA815"/>
<path d="M26.2069 18.9781V28.6319C27.1131 28.6954 28.0317 28.7519 28.9655 28.7975V19.1423C28.0317 19.0968 27.1131 19.0416 26.2069 18.9781Z" fill="#DCA815"/>
<path d="M42.7585 19.1423V28.7975C43.6923 28.7519 44.611 28.6954 45.5172 28.6319V18.9781C44.611 19.0416 43.6923 19.0968 42.7585 19.1423Z" fill="#DCA815"/>
<path d="M35.862 19.3106C35.3999 19.3106 34.9406 19.3065 34.4827 19.3024V28.9575C34.9406 28.9617 35.3999 28.9658 35.862 28.9658C36.324 28.9658 36.7834 28.9617 37.2413 28.9575V19.3024C36.7834 19.3065 36.324 19.3106 35.862 19.3106Z" fill="#DCA815"/>
<path d="M13.7931 31.8264V41.4747C14.6317 41.7837 15.5503 42.0816 16.5517 42.3657V32.7161C15.5503 32.4319 14.6317 32.134 13.7931 31.8264Z" fill="#C49214"/>
<path d="M71.7241 32.7161V42.3657C72.7255 42.0816 73.6441 41.7837 74.4827 41.4747V31.8264C73.6441 32.1354 72.7255 32.4319 71.7241 32.7161Z" fill="#C49214"/>
<path d="M20.6897 33.7175V43.3686C21.5725 43.552 22.4925 43.7258 23.4483 43.8899V34.2389C22.4925 34.0748 21.5725 33.901 20.6897 33.7175Z" fill="#C49214"/>
<path d="M64.8276 34.2389V43.8913C65.7835 43.7258 66.7035 43.552 67.5863 43.3686V33.7175C66.7035 33.901 65.7835 34.0748 64.8276 34.2389Z" fill="#C49214"/>
<path d="M27.5862 34.8555V44.5079C28.4855 44.6238 29.4027 44.7313 30.3448 44.8279V35.1755C29.4027 35.0775 28.4855 34.97 27.5862 34.8555Z" fill="#C49214"/>
<path d="M57.9312 35.1741V44.8279C58.8732 44.73 59.7905 44.6224 60.6898 44.5079V34.8555C59.7905 34.9713 58.8732 35.0789 57.9312 35.1741Z" fill="#C49214"/>
<path d="M34.4827 35.5299V45.1837C35.3889 45.2471 36.3075 45.3037 37.2413 45.3492V35.694C36.3075 35.6485 35.3889 35.5934 34.4827 35.5299Z" fill="#C49214"/>
<path d="M51.0344 35.694V45.3492C51.9682 45.3037 52.8868 45.2471 53.793 45.1837V35.5299C52.8868 35.5934 51.9682 35.6485 51.0344 35.694Z" fill="#C49214"/>
<path d="M44.1379 35.8623C43.6758 35.8623 43.2165 35.8581 42.7585 35.854V45.5092C43.2165 45.5133 43.6758 45.5175 44.1379 45.5175C44.5999 45.5175 45.0592 45.5133 45.5172 45.5092V35.854C45.0592 35.8581 44.5999 35.8623 44.1379 35.8623Z" fill="#C49214"/>
<path d="M5.51721 46.9989V56.6472C6.35583 56.9561 7.27445 57.2527 8.27583 57.5382V47.8886C7.27445 47.6044 6.35583 47.3065 5.51721 46.9989Z" fill="#DCA815"/>
<path d="M63.4482 47.8886V57.5382C64.4496 57.2541 65.3682 56.9561 66.2069 56.6472V46.9989C65.3682 47.3079 64.4496 47.6044 63.4482 47.8886Z" fill="#DCA815"/>
<path d="M12.4138 48.8899V58.5409C13.2966 58.7244 14.2166 58.8982 15.1724 59.0623V49.4113C14.2166 49.2471 13.2966 49.0733 12.4138 48.8899Z" fill="#DCA815"/>
<path d="M56.5518 49.4113V59.0637C57.5076 58.8982 58.4276 58.7244 59.3104 58.5409V48.8899C58.4276 49.0733 57.5076 49.2471 56.5518 49.4113Z" fill="#DCA815"/>
<path d="M19.3103 50.0278V59.6803C20.2096 59.7961 21.1269 59.9037 22.0689 60.0002V50.3478C21.1269 50.2499 20.2096 50.1423 19.3103 50.0278Z" fill="#DCA815"/>
<path d="M49.6553 50.3465V60.0002C50.5973 59.9023 51.5146 59.7947 52.4139 59.6803V50.0278C51.5146 50.1437 50.5973 50.2513 49.6553 50.3465Z" fill="#DCA815"/>
<path d="M26.2069 50.7024V60.3562C27.1131 60.4196 28.0317 60.4762 28.9655 60.5217V50.8665C28.0317 50.821 27.1131 50.7658 26.2069 50.7024Z" fill="#DCA815"/>
<path d="M42.7585 50.8665V60.5217C43.6923 60.4762 44.611 60.4196 45.5172 60.3562V50.7024C44.611 50.7658 43.6923 50.821 42.7585 50.8665Z" fill="#DCA815"/>
<path d="M35.862 51.0348C35.3999 51.0348 34.9406 51.0306 34.4827 51.0265V60.6817C34.9406 60.6858 35.3999 60.6899 35.862 60.6899C36.324 60.6899 36.7834 60.6858 37.2413 60.6817V51.0265C36.7834 51.0306 36.324 51.0348 35.862 51.0348Z" fill="#DCA815"/>
<path d="M9.65515 62.1713V71.8195C10.4938 72.1285 11.4124 72.425 12.4138 72.7106V63.0609C11.4124 62.7768 10.4938 62.4789 9.65515 62.1713Z" fill="#C49214"/>
<path d="M67.5862 63.0609V72.7106C68.5876 72.4264 69.5062 72.1285 70.3448 71.8195V62.1713C69.5062 62.4802 68.5876 62.7768 67.5862 63.0609Z" fill="#C49214"/>
<path d="M16.5518 64.0623V73.7133C17.4345 73.8967 18.3545 74.0705 19.3104 74.2347V64.5836C18.3545 64.4195 17.4345 64.2457 16.5518 64.0623Z" fill="#C49214"/>
<path d="M60.6897 64.5836V74.2361C61.6456 74.0705 62.5656 73.8967 63.4483 73.7133V64.0623C62.5656 64.2457 61.6456 64.4195 60.6897 64.5836Z" fill="#C49214"/>
<path d="M23.4482 65.2002V74.8526C24.3476 74.9685 25.2648 75.0761 26.2069 75.1726V65.5202C25.2648 65.4223 24.3476 65.3147 23.4482 65.2002Z" fill="#C49214"/>
<path d="M53.7932 65.5188V75.1726C54.7353 75.0747 55.6525 74.9671 56.5518 74.8526V65.2002C55.6525 65.3161 54.7353 65.4236 53.7932 65.5188Z" fill="#C49214"/>
<path d="M30.3447 65.8748V75.5286C31.2509 75.592 32.1696 75.6486 33.1033 75.6941V66.0389C32.1696 65.9934 31.2509 65.9382 30.3447 65.8748Z" fill="#C49214"/>
<path d="M46.8965 66.0389V75.6941C47.8303 75.6486 48.7489 75.592 49.6551 75.5286V65.8748C48.7489 65.9382 47.8303 65.9934 46.8965 66.0389Z" fill="#C49214"/>
<path d="M39.9999 66.2071C39.5378 66.2071 39.0785 66.203 38.6206 66.1989V75.854C39.0785 75.8582 39.5378 75.8623 39.9999 75.8623C40.462 75.8623 40.9213 75.8582 41.3792 75.854V66.1989C40.9213 66.203 40.462 66.2071 39.9999 66.2071Z" fill="#C49214"/>
<path d="M70.6373 54.3064C66.72 57.7519 52.6386 60.6898 35.8621 60.6898C22.7448 60.6898 11.2786 58.8926 5.02622 56.4623C4.45104 56.9836 4.13794 57.5354 4.13794 58.1105C4.13794 62.3009 20.1945 66.2071 40 66.2071C59.8069 66.2071 75.8621 62.3009 75.8621 58.1105C75.8621 56.6664 73.9517 55.3754 70.6373 54.3064Z" fill="#FCC62D"/>
<path d="M44.1379 45.5175C25.9131 45.5175 10.8745 42.0485 8.58759 38.2306C3.23724 39.443 0 41.0582 0 42.9382C0 47.1271 16.0566 51.0347 35.8621 51.0347C55.6676 51.0347 71.7241 47.1271 71.7241 42.9382C71.7241 42.7533 71.6828 42.5727 71.6207 42.3934C65.0428 44.2444 55.1752 45.5175 44.1379 45.5175Z" fill="#FFD949"/>
<path d="M70.3352 22.8264C66.0442 26.1643 52.24 28.9657 35.8621 28.9657C25.2855 28.9657 15.7807 27.7961 9.21657 26.0692C8.60829 26.6071 8.27588 27.1726 8.27588 27.7657C8.27588 31.9561 24.3324 35.8623 44.1379 35.8623C63.9435 35.8623 80 31.9561 80 27.7657C80 25.763 76.3269 24.0595 70.3352 22.8264Z" fill="#FCC62D"/>
</svg>
