<svg width="80" height="80" viewBox="0 0 80 80" fill="none" xmlns="http://www.w3.org/2000/svg">
<g clip-path="url(#clip0)">
<path d="M70.5131 73.3527H9.48688C6.23438 73.3527 3.59766 70.716 3.59766 67.4635V16.6479C3.59766 13.3954 6.23438 10.7587 9.48688 10.7587H70.5131C73.7656 10.7587 76.4023 13.3954 76.4023 16.6479V67.4635C76.4023 70.716 73.7656 73.3527 70.5131 73.3527Z" fill="#3292D1"/>
<path d="M69.152 71.9568H10.8477C7.74017 71.9568 5.22095 69.4376 5.22095 66.3301V17.781C5.22095 14.6735 7.74001 12.1543 10.8477 12.1543H69.1519C72.2594 12.1543 74.7786 14.6734 74.7786 17.781V66.3302C74.7788 69.4377 72.2595 71.9568 69.152 71.9568Z" fill="#4EB9FF"/>
<path d="M72.4563 27.1958L57.7774 1.7714C56.7997 0.0778028 54.634 -0.50251 52.9404 0.475459L6.65942 27.1958H72.4563Z" fill="url(#paint0_linear)"/>
<path d="M3.59766 47.6579H76.4023V28.3748C76.4023 25.9409 74.4294 23.9679 71.9955 23.9679H8.00453C5.57063 23.9679 3.59766 25.9409 3.59766 28.3748V47.6579Z" fill="url(#paint1_linear)"/>
<path d="M3.59766 40.4058V67.4636C3.59766 70.7161 6.23438 73.353 9.48703 73.353H70.5131C73.7656 73.353 76.4023 70.7163 76.4023 67.4638V40.4058C76.4023 38.3969 74.7738 36.7683 72.7648 36.7683H7.23516C5.22625 36.7683 3.59766 38.3967 3.59766 40.4058Z" fill="url(#paint2_linear)"/>
<path d="M65.4187 26.4498V73.3531H70.5132C73.7657 73.3531 76.4025 70.7164 76.4025 67.4639V37.4336L65.4187 26.4498Z" fill="#3292D1"/>
<path d="M60.4527 79.956L9.34531 74.0204C6.06906 73.6398 3.59766 70.8649 3.59766 67.5667V16.2089C3.59766 17.3126 4.42469 18.241 5.52078 18.3684L61.9516 24.9225C65.2278 25.3031 67.6992 28.0779 67.6992 31.3762V52.4393V73.5024C67.6992 77.3876 64.3119 80.4045 60.4527 79.956Z" fill="url(#paint3_linear)"/>
<path d="M53.9948 8.76093L46.4655 12.8581C45.4847 13.3917 44.257 13.0294 43.7233 12.0486C43.1897 11.0678 43.552 9.84015 44.5328 9.3064L52.0623 5.20937C53.0431 4.67577 54.2708 5.03812 54.8045 6.0189C55.3381 6.99952 54.9758 8.22734 53.9948 8.76093Z" fill="#4EB9FF"/>
<path d="M67.6992 56.8472L60.2271 49.3752C59.1729 48.2272 57.6601 47.5072 55.9787 47.5072C52.7934 47.5072 50.2112 50.0895 50.2112 53.2747C50.2112 54.9561 50.9312 56.4691 52.0792 57.5231L67.6993 73.1433V56.8472H67.6992Z" fill="url(#paint4_linear)"/>
<path d="M55.9782 59.0415C59.1635 59.0415 61.7457 56.4593 61.7457 53.274C61.7457 50.0887 59.1635 47.5065 55.9782 47.5065C52.7929 47.5065 50.2107 50.0887 50.2107 53.274C50.2107 56.4593 52.7929 59.0415 55.9782 59.0415Z" fill="#CFF6FE"/>
</g>
<defs>
<linearGradient id="paint0_linear" x1="12.9185" y1="26.8256" x2="60.7567" y2="-7.61602" gradientUnits="userSpaceOnUse">
<stop stop-color="#86F5FC"/>
<stop offset="1" stop-color="#E8F7FF"/>
</linearGradient>
<linearGradient id="paint1_linear" x1="39.9992" y1="28.2995" x2="39.9992" y2="48.71" gradientUnits="userSpaceOnUse">
<stop stop-color="#3292D1"/>
<stop offset="1" stop-color="#BE3F45"/>
</linearGradient>
<linearGradient id="paint2_linear" x1="39.9992" y1="43.4553" x2="39.9992" y2="74.9778" gradientUnits="userSpaceOnUse">
<stop stop-color="#FF4C54"/>
<stop offset="1" stop-color="#BE3F45"/>
</linearGradient>
<linearGradient id="paint3_linear" x1="9.69546" y1="79.132" x2="77.9876" y2="67.1398" gradientUnits="userSpaceOnUse">
<stop stop-color="#6BD2F2"/>
<stop offset="1" stop-color="#4FA4D3"/>
</linearGradient>
<linearGradient id="paint4_linear" x1="63.6754" y1="60.9733" x2="47.5126" y2="44.8105" gradientUnits="userSpaceOnUse">
<stop stop-opacity="0"/>
<stop offset="1"/>
</linearGradient>
<clipPath id="clip0">
<rect width="80" height="80" fill="white" transform="translate(0 0.000244141)"/>
</clipPath>
</defs>
</svg>
