<svg width="80" height="80" viewBox="0 0 80 80" fill="none" xmlns="http://www.w3.org/2000/svg">
<g clip-path="url(#clip0)">
<path d="M80 48.0098V31.9907L73.7627 30.1776C73.0458 27.7084 72.0594 25.3281 70.8186 23.0735L73.9478 17.3795L62.6208 6.05228L56.9266 9.18165C54.6719 7.94087 52.2917 6.95446 49.8225 6.23743L48.0095 0.000244141H40L21.25 40.0002L40 80.0002H48.0095L49.8227 73.7631C52.2919 73.0462 54.672 72.0596 56.9269 70.8188L62.6209 73.9479L73.948 62.6209L70.8187 56.9268C72.0595 54.6723 73.0459 52.292 73.7628 49.8227L80 48.0098Z" fill="#092A40"/>
<path d="M31.9905 0.000244141L30.1773 6.23743C27.7083 6.95431 25.3281 7.94087 23.0734 9.18165L17.3792 6.05243L6.05219 17.3796L9.18141 23.0737C7.94078 25.3284 6.95422 27.7087 6.23719 30.1777L0 31.9909V48.0098L6.23719 49.8229C6.95406 52.292 7.94063 54.6723 9.18141 56.927L6.05219 62.621L17.3792 73.9481L23.0733 70.819C25.3281 72.0598 27.7083 73.0462 30.1775 73.7632L31.9905 80.0002H40V0.000244141H31.9905Z" fill="#235C81"/>
<path d="M39.9999 11.8752L24.0444 40.0002L51.7193 65.5659C61.3929 61.1138 68.1249 51.3284 68.1249 40.0002C68.1249 24.4921 55.508 11.8752 39.9999 11.8752Z" fill="#5A7587"/>
<path d="M40 11.8752C24.4919 11.8752 11.875 24.4921 11.875 40.0002C11.875 51.3285 18.6072 61.114 28.2808 65.5659H40V11.8752Z" fill="#5A7587"/>
<path d="M61.8752 40.0002C61.8752 27.9384 52.0621 18.1252 40.0002 18.1252L27.5903 40.0002L40.0002 61.8752C52.0621 61.8752 61.8752 52.0621 61.8752 40.0002Z" fill="#FFCE47"/>
<path d="M40 18.1252C27.9381 18.1252 18.125 27.9384 18.125 40.0002C18.125 52.0621 27.9381 61.8752 40 61.8752V18.1252Z" fill="#FFE290"/>
<path d="M45.3572 33.0873L40 23.7123L35.3125 40.1185L45.3572 33.0873Z" fill="#092A40"/>
<path d="M39.9999 23.7123L34.6428 33.0873L39.9999 40.1185V23.7123Z" fill="#235C81"/>
<path d="M32.9688 51.2514L51.7188 44.22L45.3572 33.0872H40L32.9688 51.2514Z" fill="#FFF5D9"/>
<path d="M40 33.0872H34.643L28.2812 44.2201L40 51.2514V33.0872Z" fill="white"/>
<path d="M33.2537 56.1726L40.0001 68.1251C44.1801 68.1251 48.1493 67.2072 51.7188 65.5643V44.22H40.0001L33.2537 56.1726Z" fill="#3292D1"/>
<path d="M28.2812 44.2202V65.5644C31.8508 67.2072 35.82 68.1252 40 68.1252V44.2202H28.2812Z" fill="#4EB9FF"/>
</g>
<defs>
<clipPath id="clip0">
<rect width="80" height="80" fill="white" transform="translate(0 0.000244141)"/>
</clipPath>
</defs>
</svg>
