<svg width="538" height="709" viewBox="0 0 538 709" fill="none" xmlns="http://www.w3.org/2000/svg">
<path d="M279.915 301.283C284.777 305.5 289.343 310.999 293.151 317.377C298.2 325.602 314.187 354.464 307.961 374.827C305.576 382.757 299.992 388.295 291.629 391.425C285.52 393.817 278.086 393.522 271.452 392.768C263.514 391.65 255.449 389.27 247.764 386.45C240.079 383.63 232.773 380.37 225.616 376.47C223.152 375.102 220.689 373.735 218.647 372.349C216.605 370.962 214.711 368.935 212.184 369.05C209.425 368.965 206.625 368.459 204.014 367.732C201.824 366.987 199.551 365.399 197.698 363.793C194.267 361.202 191.174 357.75 189.533 354.02C188.671 351.734 188.231 349.429 188.401 346.885C188.518 328.914 211.824 307.982 224.086 299.391C242.859 286.064 263.245 286.825 279.915 301.283Z" stroke="url(#paint0_linear)" stroke-width="0.5" stroke-miterlimit="10"/>
<path d="M306.599 260.407C311.462 264.625 316.218 269.903 321.058 276.024C327.371 284.191 382.064 355.468 357.373 398.659C337.363 433.604 272.327 430.652 236.002 420.683C220.988 416.506 192.94 406.793 172.333 388.92C154.041 373.056 145.607 354.205 147.116 333.21C149.964 293.763 178.405 281.897 206.003 270.069C219.402 264.385 238.201 244.926 266.045 244.078C281.441 243.588 296.179 251.371 306.599 260.407Z" stroke="url(#paint1_linear)" stroke-width="0.5" stroke-miterlimit="10"/>
<path d="M318.423 259.656C334.388 273.503 347.825 291.69 358.717 307.67C366.896 319.76 379.112 338.425 389.306 358.027C400.048 378.872 399.027 394.128 384.769 410.199C369.794 427.57 349.94 438.403 330.387 439.507C326.178 439.699 321.927 439.47 317.907 439.442C312.814 439.252 307.489 438.861 302.29 439.732C301.259 439.991 299.996 440.048 298.965 440.306C291.892 441.474 285.01 442.422 277.224 440.665C275.729 440.522 274.425 440.159 272.93 440.015C272.089 440.054 271.205 439.672 270.363 439.71C268.869 439.567 267.69 440.466 266.279 441.164C265.248 441.422 263.943 441.059 262.68 441.117C261.186 440.974 259.692 440.831 258.198 440.688C255.209 440.401 252.41 439.895 249.422 439.609C243.403 438.616 237.764 437.184 231.893 435.55C219.92 432.083 208.432 427.115 197.702 421.267C189.434 416.786 181.503 411.445 173.951 405.663C168.902 401.669 162.276 396.69 156.029 391.272C137.287 375.017 113.879 350.102 125.157 321.071C133.59 299.563 157.084 289.196 177.947 280.006C184.431 277.176 190.726 274.565 196.136 271.572C200.747 269.038 205.737 266.064 211.148 263.071C232.518 250.478 256.478 236.289 282.13 241.244C293.852 242.188 306.16 249.02 318.423 259.656Z" stroke="url(#paint2_linear)" stroke-width="0.5" stroke-miterlimit="10"/>
<path d="M334.891 255.278C341.365 260.894 347.503 267.369 353.599 273.425C357.382 277.474 361.586 281.505 365.559 285.335C380.484 299.432 395.576 315.211 407.174 334.104C428.312 368.185 420.436 414.357 389.944 437.071C370.058 451.7 334.547 460.076 307.897 461.926C302.659 462.376 297.338 461.985 292.248 461.795C288.42 461.548 284.592 461.3 280.806 461.473C279.123 461.549 277.44 461.626 275.947 461.483C274.454 461.34 272.919 460.777 271.384 460.214C270.08 459.851 269.007 459.689 267.893 459.106C265.937 458.562 264.296 459.059 262.382 458.935C260.468 458.812 258.744 458.468 257.019 458.124C252.456 456.855 248.04 454.945 243.855 453.236C238.556 450.944 233.215 448.232 228.106 445.721C224.994 444.174 222.303 442.608 220.116 441.863C217.466 440.717 214.817 439.572 212.588 438.407C200.876 433.241 188.701 427.674 177.473 421.008C174.551 419.242 171.628 417.475 168.516 415.928C149.908 405.165 128.609 392.837 111.266 377.794C101.786 369.571 94.4083 361.252 88.4824 352.656C78.3329 337.707 76.3435 324.075 81.946 312.419C91.0448 293.426 118.205 283.953 141.153 283.117C167.236 281.927 186.236 271.138 206.457 259.871C214.452 255.284 223.058 250.458 232.358 246.233C269.514 228.915 297.678 229.53 324 247.752C327.722 249.06 331.191 252.069 334.891 255.278Z" stroke="url(#paint3_linear)" stroke-width="0.5" stroke-miterlimit="10"/>
<path d="M426.205 309.494C446.553 327.144 473.332 354.211 469.864 383.081C468.087 399.207 451.332 417.705 438.851 430.307C428.117 441.353 412.842 449.228 402.091 453.729C379.411 463.631 350.044 470.037 319.881 472.68L304.737 473.371C300.003 474.643 292.685 473.288 286.207 471.894C283.41 471.389 281.034 470.864 279.12 470.74C269.088 469.72 261.075 467.763 253.863 465.348C247.954 463.295 241.813 461.042 236.094 458.77C225.769 454.807 215.213 450.644 204.593 447.962C151.914 434.532 90.3105 397.231 65.9664 345.775C63.0049 339.365 60.6534 332.717 60.216 326.193C59.3828 313.564 65.5954 301.669 74.2456 293.041C91.3149 275.584 108.315 268.053 133.405 271.764C135.971 272.069 138.116 272.393 140.261 272.718C152.522 274.903 161.292 275.98 173.494 271.201C182.036 267.856 189.19 263.307 197.375 258.501C202.552 255.309 208.149 252.098 213.977 249.088C217.785 247.014 221.825 245.141 225.822 242.847C249.893 229.926 279.791 213.996 307.949 223.055C333.92 231.371 357.464 251.408 380.125 271.063C387.293 277.28 393.999 283.097 400.852 288.273L404.742 291.262C410.796 296.897 418.343 302.675 426.205 309.494Z" stroke="url(#paint4_linear)" stroke-miterlimit="10"/>
<path d="M359.224 500.765C368.426 498.016 377.343 494.607 387.36 493.39C393.142 492.627 403.24 492.306 407.311 487.583C411.179 483.096 422.621 480.226 427.995 477.459C434.876 473.935 441.31 470.435 448.15 466.463C459.876 459.3 468.304 448.038 477.505 437.859C487.725 426.5 507.838 407.627 507.429 390.764C506.939 373.005 491.464 346.375 482.423 331.105C456.929 288.357 412.666 271.84 375.325 242.341C359.81 230.122 347.267 215.942 334.969 201.973C328.698 194.883 322.182 187.581 315.218 180.303C312.49 177.524 309.762 174.745 307.074 172.414C290.948 158.427 276.126 153.825 260.776 158.258C242.575 163.52 233.618 178.863 224.865 193.97C221.771 199.541 218.473 205.347 214.443 210.518C195.429 236.537 171.489 260.345 137.571 263.53C118.393 265.468 98.6846 264.057 80.1175 270.24C62.2019 276.162 46.4035 280.618 37.7321 299.098C30.5263 313.896 30.8129 331.891 36.7593 347.779C43.0723 365.224 56.6733 376.195 66.3657 391.205C77.1169 407.959 95.1564 420.716 111.038 432.015C127.367 443.289 144.51 453.618 162.427 462.555C178.919 470.668 194.8 474.537 211.78 480.598C222.937 484.497 234.054 487.948 245.007 492.084C252.703 495.044 259.341 498.738 267.607 500.542C279.293 502.837 291.224 502.867 303.114 502.449C309.384 502.11 315.777 503.115 322.129 503.672C330.803 505.004 339.679 506.1 348.026 503.847C351.569 503.205 355.518 502.091 359.224 500.765Z" stroke="url(#paint5_linear)" stroke-width="0.5" stroke-miterlimit="10"/>
<path d="M295.944 491.521C381.749 491.521 451.308 421.928 451.308 336.081C451.308 250.234 381.749 180.641 295.944 180.641C210.139 180.641 140.58 250.234 140.58 336.081C140.58 421.928 210.139 491.521 295.944 491.521Z" fill="#D1E5EC"/>
<path d="M382.984 187.476C373.478 187.476 365.754 179.749 365.754 170.238C365.754 160.728 373.478 153 382.984 153C392.49 153 400.214 160.728 400.214 170.238C400.214 179.749 392.49 187.476 382.984 187.476ZM382.984 154.486C374.369 154.486 367.239 161.619 367.239 170.238C367.239 178.857 374.369 185.99 382.984 185.99C391.599 185.99 398.728 178.857 398.728 170.238C398.728 161.619 391.599 154.486 382.984 154.486Z" fill="#72B1C9"/>
<path d="M431.702 232.058C427.246 232.058 423.384 228.491 423.384 223.736C423.384 219.278 426.949 215.414 431.702 215.414C436.158 215.414 440.02 218.981 440.02 223.736C440.02 228.491 436.158 232.058 431.702 232.058ZM431.702 217.197C428.137 217.197 424.87 220.169 424.87 224.033C424.87 227.6 427.84 230.869 431.702 230.869C435.267 230.869 438.535 227.897 438.535 224.033C438.535 220.169 435.564 217.197 431.702 217.197Z" fill="#2D7BA4"/>
<path d="M224.055 204.418C218.113 204.418 213.36 199.662 213.36 193.718C213.36 187.774 218.113 183.019 224.055 183.019C229.996 183.019 234.749 187.774 234.749 193.718C234.749 199.662 229.699 204.418 224.055 204.418ZM224.055 184.802C219.005 184.802 214.846 188.963 214.846 194.015C214.846 199.068 219.005 203.229 224.055 203.229C229.105 203.229 233.264 199.068 233.264 194.015C233.264 188.963 229.105 184.802 224.055 184.802Z" fill="#2D7BA4"/>
<path d="M206.825 244.838C209.45 244.838 211.578 242.709 211.578 240.082C211.578 237.456 209.45 235.327 206.825 235.327C204.2 235.327 202.072 237.456 202.072 240.082C202.072 242.709 204.2 244.838 206.825 244.838Z" fill="#72B1C9"/>
<path d="M153.088 261.346L152.038 262.397L168.842 279.21L169.892 278.159L153.088 261.346Z" fill="#2D7BA4"/>
<path d="M183.572 312.244L175.801 320.021L176.851 321.072L184.622 313.295L183.572 312.244Z" fill="white"/>
<path d="M207.419 515H386.548C392.787 515 397.54 509.65 396.946 503.409L395.757 490.926H197.913L196.725 503.409C196.13 509.948 201.181 515 207.419 515Z" fill="#092A40"/>
<path opacity="0.86" d="M402.59 320.329C410.908 293.283 411.205 272.775 390.113 262.967C369.022 253.159 367.833 238.299 367.833 212.442C367.833 211.253 367.833 210.064 367.833 208.875C368.13 210.361 368.427 211.847 368.427 213.334C370.804 239.191 373.18 254.348 395.46 262.373L396.054 260.887C374.666 253.159 372.289 239.191 369.913 213.036C369.319 206.201 367.536 200.256 364.863 195.204C356.248 171.427 331.591 159.836 318.224 162.808C300.103 166.672 288.814 172.022 281.685 177.668C266.535 185.396 262.97 198.473 259.108 213.036C256.731 221.655 254.058 230.869 249.305 240.677C238.313 247.81 226.134 252.268 220.49 266.237C219.004 269.803 218.113 273.37 217.519 276.936C202.072 292.094 194.645 303.982 194.942 314.384C194.942 319.734 197.616 324.787 202.072 329.245C201.18 330.434 200.289 331.623 199.398 332.811C173.553 364.613 170.583 408.6 212.766 436.24C254.949 464.178 395.163 480.227 418.334 420.488C432.593 383.931 394.569 347.375 402.59 320.329ZM202.963 327.759C198.804 323.598 196.427 319.14 196.427 314.087C196.13 304.874 202.963 293.283 216.925 279.314C214.548 294.174 216.034 309.035 202.963 327.759ZM251.681 238.893C256.137 229.977 258.514 221.061 260.593 213.334C264.158 200.554 267.129 189.557 277.229 182.127C264.158 197.879 273.07 217.197 259.702 231.76C257.028 234.733 254.355 236.813 251.681 238.893Z" fill="#72B1C9"/>
<path d="M300.697 292.094C307.232 291.797 313.768 292.094 320.006 293.58C333.077 296.255 352.683 300.713 364.566 309.629C379.419 320.626 371.101 493.601 371.101 493.601H261.188C261.188 493.601 255.84 311.71 265.049 301.604C271.288 294.471 289.112 292.688 300.697 292.094Z" fill="white"/>
<path d="M290.894 291.797C300.4 284.664 307.826 251.079 309.015 232.058L329.215 255.24C320.6 287.041 327.135 285.852 340.206 298.632C353.574 311.412 336.642 334.595 303.37 326.867C273.961 320.031 281.388 298.632 290.894 291.797Z" fill="#FFE0C4"/>
<path d="M309.015 232.058L329.215 255.24C327.433 262.373 326.244 267.723 325.65 272.181C316.144 270.1 309.312 264.453 305.153 257.023C307.232 248.107 308.718 238.893 309.015 232.058Z" fill="#EECEB1"/>
<path d="M357.436 210.658C360.11 235.624 352.683 284.663 317.63 262.373C269.802 232.355 349.416 138.734 357.436 210.658Z" fill="#FFE0C4"/>
<path d="M290.893 291.797C290.893 291.797 284.655 387.201 283.764 495.087H195.833C195.833 495.087 201.774 379.176 222.866 318.843C229.104 300.118 261.781 293.58 290.893 291.797Z" fill="#2D7BA4"/>
<path d="M377.933 322.409C387.142 338.161 431.405 381.554 432.89 410.086C435.267 458.233 399.619 488.251 388.331 474.283C377.042 460.314 334.562 378.879 352.98 323.895C360.407 301.605 368.724 306.657 377.933 322.409Z" fill="#2D7BA4"/>
<path d="M352.683 474.58C343.474 458.828 342.286 408.6 340.8 380.068C338.424 331.92 355.356 303.388 366.645 317.357C377.933 331.325 421.602 408.302 403.184 463.286C396.054 485.577 362.189 490.332 352.683 474.58Z" fill="#27698D"/>
<path d="M396.054 403.25C394.272 398.197 396.054 392.55 400.807 389.578C403.778 387.498 406.452 384.823 408.531 381.554C412.096 375.907 411.502 372.043 418.631 374.421C425.761 376.798 436.752 373.232 430.217 389.875C425.761 401.764 418.631 407.411 412.393 410.086C405.56 413.058 398.134 409.788 396.054 403.25Z" fill="#FFE0C4"/>
<path d="M336.938 295.363C336.938 295.363 338.721 386.903 336.938 494.79H399.025C399.025 494.79 387.736 353.616 375.26 322.112C368.724 305.468 355.059 298.93 336.938 295.363Z" fill="#2D7BA4"/>
<path d="M358.624 201.148C357.436 202.04 356.248 202.634 355.357 203.526C358.624 201.148 359.813 197.284 356.545 190.449C356.545 190.449 330.106 173.805 309.906 174.696C289.706 175.588 264.752 223.141 275.744 240.677C287.032 258.212 305.747 228.788 315.253 214.82C315.847 214.225 316.441 213.334 317.036 212.739C319.709 212.739 322.086 213.036 324.462 213.334C332.186 214.522 340.207 215.711 359.813 202.04L358.624 201.148ZM324.165 212.145C322.383 211.848 320.6 211.55 318.521 211.55C328.027 206.201 346.445 208.578 354.466 203.823C338.424 214.225 331.592 213.334 324.165 212.145Z" fill="#72B1C9"/>
<path d="M366.051 401.169C337.533 405.925 306.341 424.352 284.953 411.869C267.129 401.467 257.326 349.752 232.372 348.861C200.29 347.969 225.243 478.444 262.376 486.171C279.903 489.738 334.265 467.15 353.575 453.181C376.746 436.834 414.77 393.145 366.051 401.169Z" fill="#27698D"/>
<path d="M388.925 378.879C390.707 375.907 395.757 371.746 398.431 368.476C401.104 365.504 401.401 373.529 397.242 379.176C393.381 384.823 388.925 378.879 388.925 378.879Z" fill="#FFE0C4"/>
<path d="M411.799 415.733H382.983L403.778 349.752H432.593L411.799 415.733Z" fill="#2D7BA4"/>
<path d="M414.769 415.733H385.954L406.749 349.752H435.564L414.769 415.733Z" fill="#092A40"/>
<path d="M369.913 395.225C377.339 394.928 382.092 390.173 385.954 384.526C389.519 378.879 388.925 375.015 396.054 377.393C403.184 379.77 416.849 372.637 410.314 389.578C400.807 414.247 376.745 415.733 376.745 415.733L369.913 395.225Z" fill="#FFE0C4"/>
<path d="M368.427 388.092C355.951 389.281 317.926 397.009 292.379 403.844C279.011 377.096 254.058 334 247.522 322.706C238.313 306.954 229.996 301.902 222.569 324.193C204.745 377.393 243.958 455.559 256.731 473.094C257.028 473.688 257.325 473.986 257.623 474.283C257.623 474.283 257.623 474.283 257.623 474.58C259.702 476.958 262.078 477.255 265.049 476.363C288.22 473.094 374.369 431.782 380.31 421.38C386.251 411.869 382.389 386.904 368.427 388.092Z" fill="#2D7BA4"/>
<path d="M356.248 217.792C355.654 217.494 355.06 217.494 354.466 217.494C352.386 217.494 350.307 218.683 348.822 220.466C347.633 221.953 346.445 224.33 346.148 226.708C345.257 232.949 347.93 238.893 352.386 240.082C352.981 240.082 353.575 240.379 353.872 240.379C355.357 240.379 356.842 239.785 358.328 238.893C360.11 237.407 361.595 235.03 362.19 232.355C362.19 232.058 362.487 231.76 362.487 231.166C363.378 224.925 360.704 218.98 356.248 217.792ZM352.683 239.488C348.525 238.299 346.148 232.652 347.039 226.708C347.336 224.33 348.228 222.547 349.416 221.061L358.031 238.299C356.248 239.785 354.466 240.082 352.683 239.488ZM361.595 231.166C361.595 231.463 361.595 231.76 361.595 232.058L354.763 218.386C355.06 218.386 355.654 218.386 355.951 218.683C360.11 219.575 362.784 225.222 361.595 231.166Z" fill="white"/>
<path d="M337.533 212.442C335.454 211.847 333.374 212.442 331.592 213.928C329.809 215.414 328.324 217.494 327.73 220.169C327.73 220.467 327.433 221.061 327.433 221.655C326.245 227.897 329.215 233.841 333.671 235.03C334.265 235.03 334.562 235.327 335.157 235.327C335.157 235.327 335.157 235.327 335.454 235.327C337.533 235.327 339.613 234.138 341.098 232.058C342.286 230.274 343.177 228.194 343.771 225.816C344.663 219.872 341.989 213.928 337.533 212.442ZM328.324 221.953C328.324 221.655 328.324 221.358 328.621 221.061L335.454 234.733C334.86 234.733 334.562 234.733 333.968 234.435C329.809 233.246 327.136 227.6 328.324 221.953ZM342.88 225.816C342.583 227.897 341.692 229.977 340.504 231.463L331.889 214.522C333.077 213.631 334.265 213.036 335.751 213.036C336.345 213.036 336.642 213.036 337.236 213.334C341.395 214.522 343.771 220.169 342.88 225.816Z" fill="white"/>
<path d="M310.203 232.355C310.797 226.41 309.015 214.522 300.697 219.872C289.111 227.302 308.421 249.593 310.203 232.355Z" fill="#FFE0C4"/>
<path d="M466.756 254.349L421.305 260.293C419.82 260.59 418.631 262.076 418.928 263.562L421.008 279.611C421.305 281.097 422.79 282.286 424.276 281.989L426.949 281.692L430.514 285.556C431.405 286.447 432.89 285.853 432.89 284.664L433.485 280.8L469.429 276.045C470.915 275.748 472.103 274.262 471.806 272.776L469.726 256.726C469.726 255.24 468.241 254.349 466.756 254.349Z" fill="#A4CCDB"/>
<path d="M456.061 327.759L428.137 318.545C426.949 318.248 425.464 318.843 425.167 320.032L421.008 333.109C420.711 334.298 421.305 335.784 422.493 336.081L424.573 336.675L426.058 340.836C426.355 341.728 427.543 342.025 428.137 341.133L429.92 338.458L450.417 344.997C451.605 345.294 453.091 344.7 453.388 343.511L457.547 330.434C458.141 329.542 457.25 328.353 456.061 327.759Z" fill="#A4CCDB"/>
<path d="M446.852 293.283L482.5 296.552C483.688 296.552 484.877 297.741 484.579 299.227L483.391 312.899C483.391 314.088 482.203 315.277 480.718 314.979L478.341 314.682L475.37 317.952C474.776 318.546 473.588 318.249 473.291 317.357L472.697 314.088L445.07 311.413C443.882 311.413 442.693 310.224 442.991 308.738L444.179 295.066C444.179 294.175 445.367 293.283 446.852 293.283Z" fill="#2D7BA4"/>
<defs>
<linearGradient id="paint0_linear" x1="333.875" y1="348.082" x2="206.993" y2="288.201" gradientUnits="userSpaceOnUse">
<stop stop-color="#39D8F2"/>
<stop offset="1" stop-color="#157BD3"/>
</linearGradient>
<linearGradient id="paint1_linear" x1="404.431" y1="345.256" x2="174.099" y2="236.022" gradientUnits="userSpaceOnUse">
<stop stop-color="#39D8F2"/>
<stop offset="1" stop-color="#157BD3"/>
</linearGradient>
<linearGradient id="paint2_linear" x1="430.648" y1="356.992" x2="154.714" y2="232.408" gradientUnits="userSpaceOnUse">
<stop stop-color="#39D8F2"/>
<stop offset="1" stop-color="#157BD3"/>
</linearGradient>
<linearGradient id="paint3_linear" x1="457.283" y1="361.435" x2="116.171" y2="214.251" gradientUnits="userSpaceOnUse">
<stop stop-color="#39D8F2"/>
<stop offset="1" stop-color="#157BD3"/>
</linearGradient>
<linearGradient id="paint4_linear" x1="493.552" y1="367.908" x2="99.6185" y2="198.152" gradientUnits="userSpaceOnUse">
<stop stop-color="#39D8F2"/>
<stop offset="1" stop-color="#157BD3"/>
</linearGradient>
<linearGradient id="paint5_linear" x1="537.022" y1="369.693" x2="79.7594" y2="168.84" gradientUnits="userSpaceOnUse">
<stop stop-color="#39D8F2"/>
<stop offset="1" stop-color="#157BD3"/>
</linearGradient>
</defs>
</svg>
