<svg width="499" height="451" viewBox="0 0 499 451" fill="none" xmlns="http://www.w3.org/2000/svg">
<path opacity="0.03" d="M51.8541 204.116C78.0058 156.374 127.556 8.22836 264.848 109.793C402.14 211.357 403.397 226.554 369.426 279.083C335.455 331.611 153.079 387.334 99.3174 362.645C45.5553 337.956 25.7024 251.858 51.8541 204.116Z" fill="url(#paint0_linear)"/>
<g clip-path="url(#clip0)">
<path d="M332.748 329.837H72.748V331.443H332.748V329.837Z" fill="#A1E6EF"/>
<path d="M332.748 286.477H72.748V288.083H332.748V286.477Z" fill="#A1E6EF"/>
<path d="M332.748 243.117H72.748V244.723H332.748V243.117Z" fill="#A1E6EF"/>
<path d="M332.748 199.917H72.748V201.523H332.748V199.917Z" fill="#A1E6EF"/>
<path d="M332.748 156.557H72.748V158.163H332.748V156.557Z" fill="#A1E6EF"/>
<path d="M290.191 114H288.585V374H290.191V114Z" fill="#A1E6EF"/>
<path d="M246.831 114H245.225V374H246.831V114Z" fill="#A1E6EF"/>
<path d="M203.471 114H201.865V374H203.471V114Z" fill="#A1E6EF"/>
<path d="M160.271 114H158.665V374H160.271V114Z" fill="#A1E6EF"/>
<path d="M116.911 114H115.305V374H116.911V114Z" fill="#A1E6EF"/>
<path d="M97.5893 211.327C94.3728 208.404 89.4018 208.697 86.7701 211.911C83.846 215.126 84.1384 220.094 87.3549 222.724C90.5715 225.646 95.2501 225.354 98.1742 222.139C101.098 218.925 100.806 213.957 97.5893 211.327Z" fill="#A4CCDB"/>
<path d="M133.849 209.281C131.802 207.528 128.585 207.528 126.538 209.574C124.784 211.619 124.784 214.834 126.831 216.879C128.878 218.633 132.094 218.633 134.141 216.587C135.895 214.249 135.895 211.035 133.849 209.281Z" fill="#A4CCDB"/>
<path d="M147.007 176.843C145.545 175.674 143.498 175.674 142.036 177.135C140.866 178.597 140.866 180.642 142.329 181.811C143.791 182.98 145.837 182.98 147.007 181.519C148.762 180.35 148.469 178.304 147.007 176.843Z" fill="#A4CCDB"/>
<path d="M92.0334 214.541L130.047 211.911L129.17 212.496L144.96 179.473L131.217 213.372V213.957L130.34 214.249L92.6183 219.217L92.0334 214.541Z" fill="#A4CCDB"/>
</g>
<g clip-path="url(#clip1)">
<path d="M90.6434 88.1755L89.4359 105.16C91.1636 105.16 91.9118 104.418 92.8091 103.527L100.909 95.7857L117.693 108.077C120.771 109.793 122.94 108.889 123.77 105.245L134.787 53.6221L134.79 53.6191C135.767 49.0688 133.145 47.2894 130.146 48.4057L65.3885 73.1983C60.9689 74.9138 61.0358 77.3776 64.6372 78.4938L81.193 83.6434L119.649 59.5808C121.459 58.3823 123.104 59.0454 121.751 60.2438L90.6434 88.1755Z" fill="#A1E6EF"/>
</g>
<g clip-path="url(#clip2)">
<path d="M334.839 71.8049C334.839 85.6571 316.725 96.6823 294.648 96.6823C288.988 96.6823 283.327 95.8342 278.516 94.7034C277.1 94.4207 266.062 96.6823 266.062 96.6823C266.062 96.6823 270.591 91.8764 269.175 91.0283C260.118 86.5051 254.458 79.4377 254.458 71.8049C254.458 57.9527 272.572 46.9275 294.648 46.9275C316.725 46.9275 334.839 57.9527 334.839 71.8049Z" fill="#A4CCDB"/>
<path d="M283.044 72.3703C283.044 74.3492 281.629 75.7627 279.648 75.7627C277.666 75.7627 276.251 74.3492 276.251 72.3703C276.251 70.3914 277.666 68.978 279.648 68.978C281.629 68.6953 283.044 70.3914 283.044 72.3703Z" fill="white"/>
<path d="M298.611 72.3703C298.611 74.3492 297.196 75.7627 295.214 75.7627C293.233 75.7627 291.818 74.3492 291.818 72.3703C291.818 70.3914 293.233 68.978 295.214 68.978C296.913 68.6953 298.611 70.3914 298.611 72.3703Z" fill="white"/>
<path d="M313.895 72.3703C313.895 74.3492 312.48 75.7627 310.499 75.7627C308.517 75.7627 307.102 74.3492 307.102 72.3703C307.102 70.3914 308.517 68.978 310.499 68.978C312.48 68.6953 313.895 70.3914 313.895 72.3703Z" fill="white"/>
<path d="M441.261 413.303C430.505 416.696 408.712 414.151 397.39 413.021C377.295 410.759 357.199 408.497 337.104 406.236C327.198 405.105 318.423 407.084 309.366 408.78C304.272 409.911 298.894 411.042 293.233 411.607C284.459 412.455 275.402 413.021 266.062 413.021H264.647C255.307 412.738 245.967 411.89 236.626 409.911C222.192 406.801 208.606 401.43 196.435 392.101C189.36 386.73 182.85 379.945 179.17 371.747C170.396 353.371 175.774 333.017 183.982 315.773C190.775 301.072 201.813 289.199 198.417 271.106C195.586 256.689 185.397 241.989 191.624 228.985C195.869 220.504 205.21 217.677 213.984 216.263C232.947 213.719 252.193 215.415 270.591 210.044C294.082 203.259 300.592 186.863 311.914 165.943C322.386 146.72 339.651 129.758 358.331 121.559C385.503 109.403 417.203 115.34 444.374 127.213C481.735 143.327 501.264 196.757 489.943 238.879C484.282 260.364 481.735 282.98 493.056 307.009C510.604 343.477 488.244 398.886 441.261 413.303Z" fill="#D1E5EC"/>
<path d="M348.142 396.624C398.806 409.911 454.563 429.7 478.338 376.27C492.49 344.608 476.923 317.469 471.546 296.267C458.243 248.208 455.413 189.69 407.58 171.032C351.539 147.002 335.406 208.348 295.498 232.377C268.893 245.664 223.324 197.322 199.266 229.267C184.265 253.579 214.833 267.997 216.248 290.047C218.795 329.342 179.737 333.3 195.303 372.595C206.059 388.709 234.362 387.013 253.043 392.384C261.817 396.907 266.345 403.126 271.723 409.628C279.365 409.628 272.006 410.476 279.648 409.911L286.158 409.346C286.724 409.346 287.007 409.346 287.29 409.063C300.875 390.405 324.084 389.84 348.142 396.624Z" fill="#B8D7E3"/>
<path d="M346.161 376.27C380.974 384.186 410.127 413.586 444.94 392.384C455.695 381.641 471.545 368.355 466.168 352.524C460.79 344.608 444.94 347.152 444.94 344.608C439.562 312.663 442.393 277.891 423.712 248.491C410.41 227.289 378.427 208.631 359.746 227.289C327.763 256.689 290.403 229.833 263.515 253.862C244.834 272.52 258.137 301.921 239.457 328.494C234.079 333.866 234.079 347.152 239.457 355.068C259.269 369.768 283.61 382.49 280.78 409.628L285.874 409.346C286.44 409.346 286.723 409.346 287.006 409.063C287.573 408.498 287.856 407.932 288.422 407.367C301.441 388.426 320.405 372.03 346.161 376.27Z" fill="#9FCBDB"/>
<path d="M335.972 193.364C342.482 174.141 333.707 191.385 331.443 195.626C332.292 192.516 330.594 191.385 329.745 191.951C325.216 201.28 324.933 208.63 324.933 208.63C324.933 208.63 323.801 212.588 310.499 230.963C307.385 234.921 304.838 238.596 302.857 241.423C298.611 226.44 292.95 208.913 292.95 208.913C292.95 208.913 284.742 204.955 277.1 213.719C284.459 245.098 288.988 254.144 294.083 264.039C294.932 265.735 296.064 267.148 297.479 268.279C298.611 269.41 300.026 269.975 301.724 270.258H302.008C302.857 270.258 303.706 270.258 304.838 269.975C305.404 269.41 307.951 267.996 308.517 267.431C316.725 258.95 328.047 223.048 332.009 215.132C335.972 207.216 341.915 208.347 341.349 201.845C341.066 195.06 339.651 194.778 335.972 193.364Z" fill="#FFE0C4"/>
<path d="M293.234 409.345C293.234 409.628 293.234 410.193 293.234 410.759C285.309 411.607 278.799 413.02 270.591 413.303C267.477 413.303 264.647 410.759 264.93 407.932C265.213 405.953 265.496 403.691 265.779 401.712C265.779 401.43 265.779 401.147 265.779 400.864C264.364 379.945 262.666 358.742 262.1 350.544C261.817 348.283 261.817 347.152 261.817 347.152L288.988 349.979C291.818 350.261 301.159 338.105 301.442 340.65C304.272 367.223 295.781 398.32 293.234 409.345Z" fill="#EECEB1"/>
<path opacity="0.2" d="M270.591 318.6L263.798 318.034C263.798 318.034 265.779 357.612 267.477 374.856C266.062 380.51 266.062 386.447 266.628 392.949C277.384 358.743 270.308 343.194 270.591 318.6Z" fill="#EF9D78"/>
<path d="M268.043 402.844C267.76 404.257 267.194 405.953 266.628 407.649C265.779 410.476 262.949 412.173 260.118 411.89C252.193 411.042 245.4 409.911 238.891 408.78C236.06 408.215 218.795 339.519 218.795 339.519L264.081 349.979L269.458 351.958C269.175 351.958 271.723 369.203 268.043 402.844Z" fill="#FFE0C4"/>
<path d="M292.101 168.204C291.252 167.639 290.686 166.791 290.12 165.943C278.516 151.808 292.384 132.302 281.063 117.602C272.855 107.707 258.986 100.922 248.231 108.555C247.382 109.121 243.419 108.555 242.287 108.838C237.759 109.403 233.23 110.817 229.268 113.361C220.21 119.015 216.531 128.91 215.116 138.804C213.135 150.112 211.153 160.572 203.228 169.618C200.964 172.162 198.417 174.424 196.435 177.251C194.454 180.078 193.322 183.47 193.888 186.863C194.737 190.538 197.851 193.647 198.417 197.322C199.266 202.976 194.454 207.499 192.473 212.588C190.209 218.242 190.209 223.896 192.756 229.55C195.02 234.638 198.983 238.879 203.228 242.554C207.474 246.229 212.002 249.621 217.097 252.166C222.192 254.427 227.852 255.558 233.513 254.427C237.476 253.579 241.155 251.6 244.834 249.621C246.25 248.773 247.665 247.36 247.099 246.229C251.627 247.36 255.873 249.339 260.401 250.752C264.93 252.166 269.458 253.014 273.987 252.166C279.931 250.752 284.459 246.229 287.856 241.423C291.252 236.617 294.083 231.246 298.045 226.723C301.724 222.482 306.536 218.807 310.216 214.284C313.895 209.761 315.027 203.542 315.31 197.888C315.593 191.386 313.329 184.884 309.083 180.078C303.706 175.272 297.196 172.728 292.101 168.204Z" fill="#092A40"/>
<path d="M302.007 177.251C311.065 180.643 313.046 190.82 314.461 201.28C314.461 200.149 314.744 199.019 314.744 197.888C315.027 191.386 312.763 184.884 308.517 180.078C303.989 175.272 297.196 172.445 292.384 168.205C291.535 167.639 290.969 166.791 290.403 165.943C278.799 151.808 292.667 132.302 281.346 117.602C279.365 115.34 277.1 113.078 274.836 111.1C280.78 134.846 272.006 165.943 302.007 177.251Z" fill="#0E3D5C"/>
<path d="M281.629 189.69C281.629 189.69 273.704 186.863 270.874 196.474C267.76 206.369 284.459 237.465 284.459 237.465C284.459 237.465 300.026 234.921 305.97 228.985C298.328 213.719 296.347 195.626 281.629 189.69Z" fill="white"/>
<path d="M244.551 173.01C244.551 173.01 244.551 182.905 242.287 186.862C242.287 186.862 247.665 195.343 261.25 194.213C269.175 193.082 273.138 187.428 273.138 187.428C273.138 187.428 268.892 179.512 269.741 172.445C268.043 173.576 253.891 176.968 244.551 173.01Z" fill="#FFE0C4"/>
<path d="M269.742 174.707C269.742 174.141 269.742 173.293 269.742 172.728C267.76 173.859 253.609 176.968 244.269 173.01C244.269 173.01 244.269 182.905 242.004 186.863C242.004 186.863 243.136 188.842 245.967 190.538C256.156 188.276 264.081 182.34 269.742 174.707Z" fill="#EECEB1"/>
<path d="M288.139 282.132C286.441 275.912 286.158 261.778 287.573 244.816C295.498 237.466 295.781 231.529 294.366 225.027C291.535 209.761 282.761 212.588 280.214 189.407C273.138 187.145 277.667 189.407 260.119 193.93C241.155 197.04 236.627 189.124 236.627 189.124C236.627 189.124 217.663 188.842 213.418 211.175C212.569 215.981 216.531 222.483 218.512 226.44C222.192 234.921 225.588 243.685 227.57 253.014C228.702 258.103 229.551 263.191 229.551 268.28C229.551 273.934 227.287 277.609 225.588 282.697C221.343 294.288 217.38 300.79 214.55 312.946C210.021 332.452 209.738 348.283 210.587 368.072C211.154 381.924 211.437 393.515 210.587 395.776C216.248 398.32 223.041 391.253 228.985 393.515C229.834 393.797 230.683 394.363 231.815 394.645C233.23 394.928 234.928 394.363 236.344 393.515C239.457 392.101 242.853 390.688 246.25 390.97C248.797 391.253 251.344 392.384 253.892 393.232C263.232 396.059 272.855 391.536 281.629 388.709C286.158 387.295 290.969 385.882 295.781 386.165C298.328 386.447 311.914 387.578 312.763 382.772C319.273 346.587 304.555 307.009 288.139 282.132Z" fill="#2D7BA4"/>
<path d="M255.024 248.491C231.532 244.816 238.891 213.153 219.078 198.453C216.814 201.563 214.833 205.803 213.701 211.175C212.852 215.98 216.814 222.482 218.795 226.44C222.475 234.921 225.871 243.685 227.853 253.014C228.985 258.102 229.834 263.191 229.834 268.279C229.834 273.933 227.57 277.608 225.871 282.697C223.041 290.047 220.494 295.418 218.229 301.638C230.4 285.524 238.608 272.803 248.514 253.296C248.231 252.448 253.609 249.056 255.024 248.491Z" fill="#27698D"/>
<path d="M260.402 193.648C260.402 193.648 249.929 192.234 243.42 183.47C242.57 182.057 235.778 184.036 236.061 189.972C236.344 196.192 252.194 211.175 260.402 193.648Z" fill="white"/>
<path d="M260.401 193.647C260.401 193.647 267.194 188.559 270.874 181.209C272.572 180.078 278.233 183.188 278.799 187.993C279.082 192.799 273.138 207.5 260.401 193.647Z" fill="white"/>
<path d="M277.95 145.306C277.95 145.306 282.478 160.289 270.591 172.445C267.76 175.272 268.327 177.534 262.383 178.664C232.664 179.513 227.853 149.547 227.569 139.652C227.003 129.758 281.063 97.2476 277.95 145.306Z" fill="#FFE0C4"/>
<path d="M262.383 126.365C262.383 126.365 260.967 140.5 243.136 145.023C234.928 147.002 231.815 154.635 230.4 165.943C225.871 159.441 214.833 140.218 227.003 124.104C234.362 117.602 255.307 108.555 262.383 126.365Z" fill="#EECEB1"/>
<path d="M260.118 127.496C260.118 127.496 261.251 133.433 270.308 136.26C274.27 137.673 283.893 139.652 285.309 145.024C288.139 139.087 285.309 119.298 269.742 112.231C253.892 105.163 249.646 115.058 249.646 115.058L260.118 127.496Z" fill="#EECEB1"/>
<path d="M259.552 125.8C259.552 125.8 260.684 132.019 270.308 135.412C274.27 136.825 284.459 139.087 285.874 145.023C288.988 138.521 286.157 117.036 269.741 109.404C253.325 101.771 248.797 112.513 248.797 112.513L259.552 125.8Z" fill="#092A40"/>
<path d="M231.249 217.394C231.249 217.394 234.362 256.406 233.513 268.844C232.664 281.283 237.192 284.393 232.947 309.553C230.117 331.886 230.966 336.126 230.966 336.126C230.966 336.126 236.909 341.498 234.645 353.088C234.079 354.219 231.532 353.654 231.249 346.869C230.117 351.675 231.815 353.371 234.079 359.59C236.343 366.092 224.173 361.569 220.776 356.198C217.38 350.544 220.776 340.932 220.493 332.169C220.21 323.405 214.267 288.068 216.531 274.216C218.229 262.625 213.984 261.212 213.984 225.026C223.324 217.959 231.249 217.394 231.249 217.394Z" fill="#FFE0C4"/>
<path d="M224.739 201.845C224.739 201.845 217.946 197.04 212.569 205.803C207.191 214.567 212.852 249.056 212.852 249.056C212.852 249.056 230.966 250.187 238.042 245.946C234.645 229.55 237.476 211.457 224.739 201.845Z" fill="white"/>
<path d="M261.816 124.104C262.099 124.952 261.25 126.931 260.967 127.779C259.835 130.606 258.137 133.433 256.156 135.412C252.759 138.804 249.08 140.5 244.834 141.914C240.306 143.61 236.343 147.285 234.079 151.525C231.532 156.614 231.249 162.551 233.513 167.922C236.06 174.141 248.797 187.993 245.967 195.343C244.834 198.453 241.155 194.213 240.023 197.322C238.891 200.715 236.909 203.542 234.645 206.369C231.532 210.892 227.852 214.567 223.041 217.677C215.965 221.917 207.474 223.613 199.266 222.765C201.813 220.504 204.077 217.677 204.643 214.567C205.493 210.044 203.794 205.521 202.662 201.28C201.247 196.474 200.964 191.386 201.813 186.297C202.662 180.36 207.474 176.12 210.304 171.031C215.116 162.268 213.984 152.091 214.267 142.479C214.55 133.433 217.663 124.104 224.456 117.602C231.532 111.1 253.608 98.9436 261.816 124.104Z" fill="#0E3D5C"/>
<path d="M435.883 400.299L359.464 377.684C352.671 375.705 348.142 369.485 348.142 362.701V89.332C348.142 82.2646 352.671 76.3279 359.464 74.3491L435.883 51.7333C446.072 48.6236 468.998 56.2564 468.998 66.7162V385.034C468.998 395.776 446.072 403.409 435.883 400.299Z" fill="#72B1C9"/>
<path d="M435.883 400.299L359.464 377.684C352.671 375.705 348.142 369.485 348.142 362.701V89.332C348.142 82.2646 352.671 76.3279 359.464 74.3491L435.883 51.7333C446.072 48.6236 456.262 56.2564 456.262 66.7162V385.034C456.262 395.776 446.072 403.409 435.883 400.299Z" fill="#A1E6EF"/>
<path d="M448.054 375.705L352.954 349.414V104.88L448.054 78.5896V375.705Z" fill="white"/>
<path d="M433.902 124.104L371.351 141.348C365.124 143.045 358.898 137.391 358.898 129.758V127.779C358.898 122.408 362.011 117.602 366.54 116.188L429.373 98.9438C435.6 97.2476 441.827 102.902 441.827 110.534V112.513C441.544 117.884 438.431 122.69 433.902 124.104Z" fill="#2D7BA4"/>
<path d="M372.766 122.69C374.464 124.669 374.464 128.061 372.766 130.04C371.068 132.019 367.955 132.019 366.256 130.04C364.558 128.061 364.558 124.669 366.256 122.69C367.955 120.711 370.785 120.711 372.766 122.69Z" stroke="white" stroke-width="0.4864" stroke-miterlimit="10"/>
<path d="M378.144 135.977C378.427 135.411 378.427 134.846 378.144 134.281L373.898 129.475C373.615 128.909 372.766 128.909 372.483 129.475C372.2 130.04 371.917 130.606 372.483 131.171L376.728 135.977C377.011 136.542 377.861 136.542 378.144 135.977Z" fill="white"/>
<path d="M438.714 205.238L360.313 216.829V204.955L438.714 188.842V205.238Z" fill="#D1E4EC"/>
<path d="M438.714 234.638L360.313 240.01V228.136L438.714 218.242V234.638Z" fill="#D1E4EC"/>
<path d="M438.714 265.453L360.313 263.191V251.318L438.714 249.056V265.453Z" fill="#D1E4EC"/>
<path d="M245.401 12.7213V13.004C245.401 13.2867 245.684 13.5694 245.967 13.8521C245.967 14.1348 246.25 14.1348 246.533 14.1348C247.099 14.1348 247.665 13.5694 248.231 12.7213C248.797 12.1559 249.08 11.3078 249.08 10.177C249.08 9.0462 249.08 7.91541 249.08 7.06732C248.797 5.93653 248.514 4.80574 247.665 4.24035C246.816 3.39225 245.967 2.82686 244.835 2.54416C243.702 2.26146 242.57 2.26146 241.155 2.54416C238.891 2.82686 237.193 3.67495 235.494 4.80574C233.796 5.93653 232.664 7.63272 232.098 9.3289C231.532 11.0251 231.249 13.004 231.815 15.2655C232.098 16.679 232.664 17.8098 233.23 18.6579C234.079 19.7887 234.928 20.3541 236.061 20.9195C237.193 21.4849 238.891 21.4849 240.306 21.2022C241.721 20.9195 242.57 20.6368 243.419 20.3541C244.269 20.0714 244.835 19.506 245.684 18.6579C245.967 18.6579 245.967 18.3752 246.25 18.3752C246.533 18.3752 246.816 18.3752 247.099 18.9406V19.2233C247.099 19.506 246.816 20.0714 246.25 20.3541C245.401 21.2022 244.552 21.7676 243.702 22.0503C242.853 22.6157 241.721 22.8984 240.589 23.1811C238.325 23.4638 236.627 23.4638 234.928 22.8984C233.23 22.333 232.098 21.4849 231.249 20.0714C230.4 18.6579 229.834 17.2444 229.268 15.8309C229.268 13.004 229.268 10.4597 230.117 8.48081C230.966 6.21923 232.381 4.52304 234.079 3.10956C236.061 1.69607 238.042 0.847975 240.589 0.28258C242.57 -0.000117742 244.269 -0.000117742 245.684 0.28258C247.099 0.847975 248.231 1.41337 249.363 2.54416C250.212 3.67495 250.778 4.80574 251.061 6.21923C251.344 7.63272 251.344 9.0462 251.061 10.4597C250.778 11.8732 250.212 13.004 249.363 14.1348C248.514 15.2655 247.382 15.8309 245.967 16.1136C245.401 16.1136 244.552 16.1136 243.986 15.8309C243.419 15.5482 242.853 14.9829 242.57 14.4175C242.004 15.8309 240.872 16.9617 239.174 17.2444C238.608 17.2444 237.759 17.2444 237.193 16.9617C236.627 16.679 236.061 16.3963 235.494 15.8309C235.211 15.5482 234.928 14.9829 234.928 14.1348C234.645 13.004 234.928 11.8732 235.211 10.7424C235.494 9.6116 236.061 8.48081 236.91 7.35002C237.759 6.50192 238.608 5.93653 239.74 5.65383C240.306 5.65383 240.872 5.65383 241.438 5.93653C242.004 6.21923 242.287 6.50193 242.853 7.06732V6.50192C242.853 6.21923 242.853 5.93653 243.136 5.65383C243.419 5.37114 243.702 5.37114 243.986 5.08844C244.835 4.80574 245.401 5.08844 245.684 5.93653C245.684 6.21923 245.684 6.21923 245.684 6.21923L245.401 12.7213ZM242.287 9.6116C242.287 9.0462 242.004 8.48081 241.438 8.19811C240.872 7.91541 240.589 7.91541 240.023 7.91541C239.457 7.91541 238.891 8.48081 238.325 9.0462C238.042 9.6116 237.759 10.4597 237.476 11.3078C237.476 12.1559 237.476 13.004 237.476 13.5694C237.476 14.1348 237.759 14.7002 238.325 14.9829C238.608 15.2655 239.174 15.2655 239.74 15.2655C240.306 15.2655 240.872 14.9829 241.155 14.4175C241.438 14.1348 241.721 13.5694 242.004 13.004C242.287 12.4386 242.287 12.1559 242.287 11.5905C242.57 10.7424 242.57 9.8943 242.287 9.6116Z" fill="#A4CCDB"/>
<path d="M197.568 56.2566C191.058 56.2566 185.963 61.6278 185.963 67.8472C185.963 75.48 197.568 89.0495 197.568 89.0495C197.568 89.0495 209.172 75.7627 209.172 67.8472C209.172 61.3451 203.794 56.2566 197.568 56.2566ZM197.568 74.3492C194.171 74.3492 191.058 71.5223 191.058 67.8472C191.058 64.1721 193.888 61.3452 197.568 61.3452C201.247 61.3452 204.077 64.1721 204.077 67.8472C203.794 71.5223 200.964 74.3492 197.568 74.3492Z" fill="#A4CCDB"/>
<path d="M181.152 131.454C174.925 131.454 169.83 136.543 169.83 142.762C169.83 148.982 174.925 154.07 181.152 154.07C187.378 154.07 192.473 148.982 192.473 142.762C192.473 136.543 187.378 131.454 181.152 131.454ZM185.397 148.134C184.831 148.982 183.699 149.264 182.85 149.547V150.678C182.85 150.96 182.85 151.243 182.567 151.526C182.284 151.809 182.001 151.809 181.718 151.809C181.435 151.809 181.152 151.809 180.869 151.526C180.586 151.243 180.586 150.96 180.586 150.678V149.547C179.737 149.547 179.17 149.264 178.604 148.982C178.038 148.699 177.472 148.416 176.906 147.851C176.623 147.568 176.34 147.285 176.34 146.72C176.34 146.437 176.34 146.155 176.623 145.872C176.906 145.589 177.189 145.589 177.472 145.589C177.755 145.589 178.038 145.589 178.038 145.872C178.321 146.437 178.604 146.72 179.17 147.003C179.454 147.285 180.02 147.285 180.303 147.285V143.328C177.472 142.762 176.34 141.349 176.34 139.37C176.34 138.239 176.623 137.391 177.472 136.543C178.321 135.695 179.17 135.412 180.303 135.129V134.564C180.303 134.281 180.303 133.999 180.586 133.716C180.869 133.433 181.152 133.433 181.435 133.433C181.718 133.433 182.001 133.433 182.284 133.716C182.567 133.999 182.567 134.281 182.567 134.564V135.412C183.699 135.695 184.548 135.978 185.397 136.543C185.68 136.826 185.963 137.108 185.963 137.674C185.963 137.956 185.963 138.239 185.68 138.522C185.397 138.804 185.114 138.804 184.831 138.804C184.548 138.804 184.548 138.804 184.265 138.522C183.982 138.239 183.416 137.956 182.567 137.674V141.349C183.982 141.631 184.831 142.197 185.397 142.762C185.963 143.328 186.246 144.176 186.246 145.307C186.529 146.437 186.246 147.285 185.397 148.134ZM182.85 143.893V147.003C183.133 146.72 183.416 146.72 183.699 146.437C183.982 146.155 183.982 145.872 183.982 145.589C183.982 145.307 183.982 145.024 183.699 144.741C183.416 144.458 183.133 144.176 182.85 143.893ZM178.604 139.087C178.604 139.653 178.887 139.935 178.887 140.218C179.17 140.501 179.454 140.783 180.02 140.783V137.391C179.454 137.391 179.17 137.674 178.887 137.956C178.887 138.522 178.604 138.804 178.604 139.087Z" fill="#A4CCDB"/>
<path d="M322.952 115.623H317.009V109.687C317.009 107.99 315.594 106.577 313.895 106.577C312.197 106.577 310.782 107.99 310.782 109.687V115.623H304.838C303.14 115.623 301.725 117.037 301.725 118.733C301.725 120.429 303.14 121.843 304.838 121.843H310.782V127.779C310.782 129.475 312.197 130.889 313.895 130.889C315.594 130.889 317.009 129.475 317.009 127.779V121.843H322.952C324.651 121.843 326.066 120.429 326.066 118.733C326.349 117.319 324.934 115.623 322.952 115.623Z" fill="#A4CCDB"/>
<path d="M188.794 277.043H182.85V271.106C182.85 269.41 181.435 267.997 179.737 267.997C178.038 267.997 176.623 269.41 176.623 271.106V277.043H170.113C168.415 277.043 167 278.457 167 280.153C167 281.849 168.415 283.262 170.113 283.262H176.057V289.199C176.057 290.895 177.472 292.309 179.171 292.309C180.869 292.309 182.284 290.895 182.284 289.199V283.262H188.228C189.926 283.262 191.341 281.849 191.341 280.153C191.907 278.457 190.492 277.043 188.794 277.043Z" fill="#A4CCDB"/>
</g>
<defs>
<linearGradient id="paint0_linear" x1="419.936" y1="174.091" x2="41.5617" y2="105.173" gradientUnits="userSpaceOnUse">
<stop stop-color="#39D8F2"/>
<stop offset="1" stop-color="#007CC2"/>
</linearGradient>
<clipPath id="clip0">
<rect width="260" height="260" fill="white" transform="translate(72.748 114)"/>
</clipPath>
<clipPath id="clip1">
<rect width="73" height="73" fill="white" transform="translate(62 42)"/>
</clipPath>
<clipPath id="clip2">
<rect width="332" height="415" fill="white" transform="translate(167)"/>
</clipPath>
</defs>
</svg>
