<svg width="690" height="686" viewBox="0 0 690 686" fill="none" xmlns="http://www.w3.org/2000/svg">
<path d="M182.833 276.245C174.772 290.208 178.107 312.861 180.783 322.442C183.671 340.839 207.978 382.758 221.884 399.063C235.789 415.368 230.826 413.633 235.529 431.373C240.233 449.114 262.834 468.918 284.027 480.754C305.22 492.59 336.75 498.657 391.332 489.444C445.913 480.231 476.95 436.466 484.156 428.306C491.361 420.146 504.788 387.234 490.677 361.702C476.567 336.171 481.707 290.521 480.477 262.857C479.246 235.194 467.733 215.758 439.827 206.533C411.921 197.308 359.171 205.865 345.813 214.162C332.454 222.459 272.554 241.636 243.677 244.124C214.8 246.612 192.91 258.791 182.833 276.245Z" stroke="url(#paint0_linear)" stroke-width="0.5"/>
<path d="M152.994 256.259C148.25 272.71 156.182 303.861 160.74 317.381C165.03 328.352 175.069 352.817 180.914 362.903C188.22 375.51 196.874 420.011 207.6 442.758C218.325 465.504 245.904 499.369 265.24 507.239C284.576 515.109 311.404 515.151 345.238 514.399C379.073 513.646 399.133 525.331 433.479 518.821C467.825 512.311 528.841 441.36 531.111 428.54C533.38 415.72 544.545 372.055 529.493 355.79C514.441 339.524 522.413 324.662 522.328 320.833C522.243 317.004 527.478 265.171 520.327 230.852C513.177 196.533 494.976 182.253 468.532 170.71C442.088 159.167 385.937 161.692 364.303 165.366C342.668 169.039 297.299 196.864 281.439 201.686C265.578 206.508 239.518 212.196 223.671 217.656C207.824 223.116 189.198 218.422 178.43 222.493C167.663 226.563 158.924 235.696 152.994 256.259Z" stroke="url(#paint1_linear)"/>
<g clip-path="url(#clip0)">
<path d="M315.907 468.892C305.667 466.791 296.029 464.991 284.585 466.191C261.997 468.592 239.107 470.692 216.519 473.093C203.87 474.293 179.174 476.694 167.127 473.393C114.12 458.389 137.009 401.073 133.094 358.761C130.685 335.655 118.939 314.649 112.614 292.143C99.9648 248.331 121.95 193.115 164.115 176.311C194.835 164.007 230.373 158.006 261.093 170.609C282.175 179.011 301.451 197.016 313.196 216.822C325.846 238.428 333.375 255.533 359.878 262.735C380.659 268.436 402.645 266.636 423.727 269.036C433.365 270.237 444.207 273.237 449.026 282.24C455.953 295.744 444.508 311.048 441.497 325.752C437.581 344.657 449.93 356.961 457.76 372.265C466.795 389.97 472.819 411.276 463.181 430.181C458.664 438.883 451.737 445.785 443.605 451.487C411.68 473.693 371.323 475.193 334.279 471.592C327.954 470.992 321.93 469.792 315.907 468.892Z" fill="#E9F3F6"/>
<path d="M434.57 401.973C430.052 385.168 423.426 368.064 423.727 354.26C424.029 338.655 435.473 321.251 426.137 306.547C419.812 296.944 407.163 293.943 396.32 293.043C381.262 291.542 365.299 292.443 351.144 286.441C344.518 283.74 338.495 279.539 334.279 273.537C329.761 266.936 328.857 258.533 325.243 251.331C316.81 233.026 297.535 225.524 278.26 226.724C260.792 227.625 242.721 233.626 225.856 226.124C198.75 214.121 168.633 199.117 141.527 214.121C120.143 226.124 116.529 254.332 123.456 275.638C127.372 287.941 134.901 299.345 143.936 308.647C154.477 319.15 167.428 324.852 169.837 340.756C173.753 368.664 153.875 393.571 144.84 418.177C132.793 451.187 165.922 469.192 193.028 454.187C214.11 445.185 232.18 421.178 259.286 436.182C267.719 442.784 272.237 450.586 277.658 459.589C278.561 460.789 279.164 462.29 280.368 463.19C282.477 464.99 285.488 465.29 288.199 465.591C304.763 467.091 321.93 469.792 338.495 470.392C353.855 470.992 369.516 467.991 384.575 465.29C397.826 462.89 414.692 465.29 425.836 456.288C442.701 442.484 440.292 422.379 434.57 401.973Z" fill="#B8D8E3" fill-opacity="0.4"/>
<path d="M420.113 408.275C415.897 392.971 409.873 377.667 410.175 365.063C410.476 350.959 421.017 335.055 412.283 321.851C406.56 313.149 395.116 310.448 385.177 309.548C371.624 308.347 357.168 308.947 344.217 303.546C338.194 301.145 332.773 297.244 329.159 291.843C324.942 285.841 324.039 278.339 321.027 271.737C313.196 255.233 296.029 248.331 278.561 249.531C262.599 250.431 246.637 255.833 231.277 248.931C206.581 238.128 179.475 224.324 154.779 238.128C135.202 249.231 131.889 275.038 138.214 294.243C141.828 305.346 148.454 315.549 156.887 323.952C166.223 333.554 178.27 338.656 180.378 353.06C183.992 378.267 165.922 400.773 157.79 423.279C146.948 453.287 176.764 469.492 201.461 455.988C220.435 447.886 236.999 425.98 261.394 439.784C268.924 445.785 273.14 452.987 278.26 461.09C278.862 462.29 279.766 463.49 280.67 464.391C282.477 465.891 285.187 466.191 287.898 466.491C302.956 467.992 318.316 470.392 333.375 470.692C347.229 470.992 361.384 468.592 374.937 465.891C386.984 463.79 402.043 465.891 412.283 457.789C427.341 445.185 424.932 426.88 420.113 408.275Z" fill="#B8D8E3" fill-opacity="0.71"/>
<path d="M263.502 265.135C263.502 265.135 149.357 295.143 146.346 299.345C143.334 303.546 129.179 314.649 140.021 358.161C150.863 401.973 158.694 460.789 189.715 453.287C221.037 445.785 268.924 439.183 269.526 432.882C270.43 426.28 293.018 257.333 263.502 265.135Z" fill="#9FCBDB"/>
<path d="M263.503 265.135C263.503 265.135 159.898 292.443 147.55 298.444C143.033 309.848 161.404 309.848 164.115 315.249C173.15 332.954 169.837 350.659 156.284 363.863C165.32 363.563 172.849 368.364 177.367 377.066C183.39 395.071 177.969 403.174 170.741 408.875C176.463 412.476 182.185 415.477 186.703 424.479C190.317 434.982 196.943 445.785 189.414 452.987H189.715C221.037 445.485 293.018 430.181 290.006 424.479C277.658 403.174 299.342 272.037 263.503 265.135Z" fill="#9FCBDB"/>
<path d="M387.285 402.873L208.086 473.092L232.481 483.895C289.403 509.403 355.361 505.802 408.97 473.993L454.146 447.585C469.807 438.283 464.988 414.876 446.918 412.476L387.285 402.873Z" fill="#D2E5EC"/>
<path d="M260.491 319.45C260.491 319.45 286.091 301.745 292.717 339.556C295.728 355.76 296.331 359.661 296.331 359.661C318.015 362.962 320.726 370.765 348.133 374.065C368.914 374.065 379.756 385.169 379.756 385.169C379.756 385.169 383.069 393.571 381.563 397.472C380.057 401.373 375.54 402.273 375.54 402.273C375.54 402.273 375.54 405.574 374.335 406.775C373.13 407.975 371.323 396.272 367.709 393.871C363.794 391.47 366.504 398.072 365.3 398.972C364.095 399.573 359.276 394.771 355.662 388.77C352.048 382.768 338.796 392.971 282.778 383.068C265.611 365.363 260.491 319.45 260.491 319.45Z" fill="#FFE0C4"/>
<path d="M299.342 341.357C297.836 338.056 296.029 332.354 294.523 328.153C279.465 287.342 260.792 293.643 260.792 293.643C260.792 293.643 265.309 326.652 273.742 352.16C280.067 350.359 293.62 344.657 299.342 341.357Z" fill="#2D7BA4"/>
<path d="M284.585 435.882C273.743 446.385 247.841 453.287 228.265 452.987C219.23 452.987 214.712 451.487 203.87 449.986C180.378 407.975 179.475 367.463 179.475 367.463L173.753 368.964C173.753 368.964 161.404 350.359 161.103 326.652C160.802 302.945 198.449 290.042 201.762 289.142C228.868 279.839 252.058 287.341 269.526 294.243C288.199 334.754 272.237 391.17 284.585 435.882Z" fill="#2D7BA4"/>
<path d="M219.531 419.978C230.675 446.386 228.867 452.387 228.265 452.987C219.23 452.987 211.399 451.187 207.484 447.586C187.305 422.679 179.475 367.464 179.475 367.464L181.583 366.864C181.583 366.864 189.414 365.663 195.738 357.261C202.364 348.859 207.484 350.059 207.484 350.059C207.484 350.059 203.268 338.056 198.148 330.253C207.183 336.555 216.82 357.261 217.423 367.464C217.724 377.967 246.938 378.567 246.938 378.567C246.938 378.567 207.484 391.77 219.531 419.978Z" fill="#133F5A" fill-opacity="0.3"/>
<path d="M202.665 281.039C202.665 281.039 194.232 289.141 193.028 293.342C195.136 302.645 212.905 319.15 218.929 317.349C224.651 306.246 228.566 305.646 228.566 305.646L229.169 290.642L202.665 281.039Z" fill="white"/>
<path d="M228.265 305.646C228.265 305.646 237.602 307.447 239.409 315.549C246.035 315.549 255.672 300.545 252.359 286.741C247.54 278.939 235.795 276.238 235.795 276.238L228.265 305.646Z" fill="white"/>
<path d="M243.023 287.041C241.216 291.543 235.794 297.544 228.265 305.647C226.458 298.745 210.195 294.844 202.966 289.142C201.762 288.242 200.858 287.342 200.557 286.441C200.557 286.141 200.256 286.141 200.256 285.841C199.352 283.44 201.461 281.64 204.171 280.44C204.171 280.44 204.472 280.44 204.773 280.14C211.7 277.439 223.446 277.139 223.446 277.139C223.446 277.139 230.976 275.038 236.999 277.139C237.3 277.139 237.601 277.439 237.903 277.439C239.107 277.739 240.011 278.339 240.914 278.939C242.119 279.839 242.721 280.74 243.023 281.64C243.926 283.14 243.926 284.941 243.023 287.041Z" fill="#85C5D1"/>
<path d="M243.023 287.041C241.216 291.542 235.794 297.544 228.265 305.646C226.458 298.744 210.195 294.843 202.966 289.142C203.569 288.242 203.87 287.341 204.171 285.841C204.472 284.34 204.774 282.24 204.774 279.839C204.774 279.539 204.774 278.939 204.774 278.639C204.171 267.536 195.437 255.232 208.388 255.232C221.338 255.232 236.999 261.234 236.999 261.834C236.999 262.134 236.397 270.537 236.999 277.138C237.3 279.539 237.3 281.64 237.903 283.14C238.204 284.34 238.505 284.941 239.107 285.541C240.312 286.141 241.818 286.741 243.023 287.041Z" fill="#EECEB1"/>
<g opacity="0.3">
<g opacity="0.3">
<g opacity="0.3">
<path opacity="0.3" d="M237.3 295.444C240.011 292.143 241.818 289.442 242.721 287.041C241.517 286.741 240.312 285.841 239.107 284.941C238.505 284.641 238.204 283.74 237.903 282.54C237.601 281.04 237.3 278.939 236.999 276.538C236.397 269.937 236.999 261.534 236.999 261.234C236.999 260.934 221.037 254.632 208.388 254.632C205.376 254.632 203.569 255.533 202.364 256.733C205.376 276.538 220.736 287.641 237.3 295.444Z" fill="#EF9D78"/>
</g>
</g>
</g>
<path d="M257.178 240.828C257.178 240.828 263.201 258.833 247.841 273.537C244.227 277.138 246.335 279.239 238.806 280.739C200.557 281.939 193.63 243.229 193.329 230.925C193.028 218.922 261.394 182.312 257.178 240.828Z" fill="#FFE0C4"/>
<path d="M191.823 260.934C193.931 262.734 196.642 264.535 199.352 265.735C201.46 266.635 203.87 267.536 206.279 266.936C202.966 261.834 200.858 255.832 199.955 249.531C199.653 248.03 199.955 245.93 201.46 245.33C202.665 245.029 203.569 245.63 204.472 246.53C206.882 248.63 208.689 251.631 209.291 254.932C208.99 249.531 210.496 244.129 213.809 240.228C216.82 236.327 221.94 234.226 226.759 233.326C232.18 232.426 236.397 234.527 241.517 234.226C249.347 233.926 256.877 233.026 261.695 226.124C265.309 220.723 265.912 213.221 263.804 206.919C259.888 209.32 255.07 208.119 251.154 205.719C247.54 203.318 244.528 199.717 240.914 197.316C234.59 192.515 226.458 190.414 218.627 190.114C213.507 190.114 208.086 190.714 203.268 191.615C198.75 192.515 193.931 193.115 190.618 197.016C190.317 197.316 187.908 201.818 188.209 201.818C180.981 201.818 170.741 209.32 174.054 224.024C177.065 237.227 181.583 251.931 191.823 260.934Z" fill="#092A40"/>
<path d="M209.893 284.34L197.244 265.435C196.642 264.535 196.642 263.334 197.244 262.434L202.665 254.032C203.87 252.231 206.279 252.531 207.183 254.032L221.037 277.738C221.639 278.939 221.338 280.739 220.133 281.339L212.303 285.841L209.893 284.34Z" fill="#092A40"/>
<path d="M209.291 283.74L197.244 266.035C196.642 265.135 196.642 264.235 197.244 263.334L202.063 256.432C202.966 254.932 205.376 254.932 206.279 256.432L219.23 278.639C219.832 279.839 219.531 281.339 218.326 281.94L211.399 285.24L209.291 283.74Z" fill="#2D7BA4"/>
<path d="M203.569 267.235C204.567 267.235 205.376 266.161 205.376 264.835C205.376 263.509 204.567 262.434 203.569 262.434C202.571 262.434 201.762 263.509 201.762 264.835C201.762 266.161 202.571 267.235 203.569 267.235Z" fill="white"/>
<path d="M181.583 367.163C198.449 362.962 194.835 350.959 207.484 350.358L208.388 352.159C208.388 352.159 209.291 338.655 218.627 308.947C218.627 308.947 208.99 292.142 208.388 287.941C207.785 283.74 211.399 269.936 215.616 270.236C219.832 270.536 220.435 274.437 220.435 274.437C220.435 274.437 223.145 274.738 223.747 278.939C223.747 278.939 227.964 277.738 227.964 284.64C229.771 284.94 233.084 287.641 231.277 293.943C229.47 300.245 236.397 308.347 231.879 311.648C230.976 323.051 237.601 368.363 218.326 388.469C204.472 393.57 188.51 376.166 181.583 367.163Z" fill="#FFE0C4"/>
<path d="M426.739 426.28C426.438 427.781 425.835 428.981 424.329 429.881L351.746 472.193C350.542 472.793 349.036 473.093 347.831 472.793L296.33 457.789C291.813 456.589 291.512 450.287 295.728 448.486L362.288 420.278L378.25 413.377C379.153 413.076 380.057 412.776 381.262 413.076L422.824 420.879C425.534 420.879 427.04 423.579 426.739 426.28Z" fill="#2E3152"/>
<path d="M426.739 426.28C426.438 427.78 425.836 428.981 424.33 429.881L351.747 472.193C350.542 472.793 351.144 470.992 349.638 470.392L298.138 455.388C293.62 454.188 291.211 449.986 295.728 448.186L362.288 419.978L378.25 413.076C379.154 412.776 380.057 412.476 381.262 412.776L422.824 420.578C425.534 420.878 427.04 423.579 426.739 426.28Z" fill="#9FCBDB"/>
<path d="M438.184 362.362C440.292 361.162 443.003 363.263 442.4 365.663L426.739 426.28C426.438 427.78 425.836 428.981 424.33 429.881L351.747 472.193C350.542 472.793 349.036 473.093 347.831 472.793L362.589 419.978L367.709 401.973C368.311 400.173 369.516 398.672 371.022 397.772L438.184 362.362Z" fill="#2D7BA4"/>
<path d="M243.625 462.29L251.456 485.097C251.456 485.097 271.032 496.2 284.585 484.196C292.416 464.391 292.416 460.49 292.416 460.49L243.625 462.29Z" fill="#092A40"/>
<path d="M241.216 458.089C241.216 458.089 243.625 465.891 245.733 469.492C247.842 473.093 282.477 474.293 291.211 467.991C295.126 458.389 295.126 457.188 295.126 457.188L241.216 458.089Z" fill="#2D7BA4"/>
<path d="M240.614 456.288L241.216 457.788C241.216 457.788 244.83 461.99 259.889 461.69C274.947 461.389 293.319 461.69 295.126 456.888C296.933 452.087 250.552 451.487 240.614 456.288Z" fill="#092A40"/>
<path d="M245.432 456.288L246.035 457.189C246.035 457.189 249.047 459.889 261.395 459.589C273.743 459.289 288.802 459.589 290.308 456.589C291.813 453.888 253.564 453.288 245.432 456.288Z" fill="#9FCBDB"/>
<path d="M266.213 457.189C261.696 444.285 252.962 432.882 241.517 425.38C235.493 421.479 228.566 418.478 221.338 419.379C219.23 419.679 217.122 420.279 215.616 422.079C213.508 424.48 214.11 428.081 215.616 430.782C217.423 433.482 220.134 434.983 222.844 436.483C235.795 443.085 252.66 444.285 259.587 456.889C260.19 457.789 265.008 454.488 265.611 455.689" fill="#092A40"/>
<path d="M289.103 447.586C285.79 449.086 282.477 451.187 280.369 454.188C278.26 456.889 275.249 457.789 271.936 458.689C271.635 458.689 271.333 458.689 271.032 458.689C270.731 458.689 270.731 458.389 270.731 458.089C269.827 455.688 269.526 452.988 268.623 450.587C267.117 446.986 265.31 443.985 262.9 440.684C259.889 436.483 258.082 431.082 258.383 425.98C259.889 431.382 265.009 432.582 269.526 434.082C270.731 434.382 271.333 434.983 271.635 433.482C271.936 431.682 270.43 428.981 270.129 427.18C269.526 425.38 269.225 423.579 268.623 421.779C268.322 419.978 268.02 418.178 268.02 416.678C268.02 414.877 268.02 413.077 268.322 411.276C268.623 409.776 269.526 408.575 270.129 407.375C271.936 404.674 274.646 402.274 277.357 400.773C276.754 402.274 277.658 404.074 278.562 405.574C279.766 407.075 280.369 409.476 281.874 410.676C282.477 411.276 283.079 411.576 283.983 411.276C284.585 410.976 284.886 410.676 285.187 410.376C286.392 408.875 286.994 407.075 287.597 405.274C288.5 403.474 289.404 402.274 290.91 400.773C293.921 397.472 297.536 395.072 302.053 394.771C302.656 394.771 302.957 394.771 303.559 395.072C304.161 395.372 304.764 395.972 305.065 396.572C307.173 399.873 307.775 404.374 306.571 407.975C305.968 409.776 305.366 411.876 304.161 413.077C302.656 414.577 300.848 415.477 299.644 417.578C298.138 420.279 304.463 418.778 305.366 418.478C306.872 417.878 308.378 417.578 309.583 416.678C310.787 415.777 311.992 414.277 311.992 412.776C314.401 415.177 315.907 418.478 315.907 421.779C315.907 430.481 306.571 430.781 300.547 433.182C302.053 434.682 303.258 435.883 305.366 435.883C306.872 435.883 308.378 435.583 309.884 434.682C309.884 434.682 309.884 437.383 309.884 437.683C309.583 438.884 308.98 439.784 308.378 440.684C306.571 442.785 304.463 443.685 301.752 444.285C297.536 445.185 293.018 445.786 289.103 447.586Z" fill="#092A40"/>
<path d="M267.79 459.048C263.272 456.647 261.164 451.546 260.561 446.444C259.959 441.343 260.863 436.542 260.863 431.44C260.863 426.339 260.26 421.237 258.152 416.436C256.646 413.135 254.538 410.434 252.43 407.434C250.623 404.433 248.816 401.432 248.213 397.831C247.611 394.23 248.213 390.629 250.924 387.928C252.731 386.128 255.442 385.227 257.851 384.627C260.561 384.027 263.272 383.727 265.681 384.327C266.284 384.627 267.187 384.627 267.79 385.227C268.392 385.828 268.693 386.428 268.994 387.028C271.103 392.129 269.296 397.831 268.091 403.232C267.489 405.933 267.187 408.934 268.392 411.635C269.597 414.335 272.307 415.836 274.717 417.336C277.126 418.837 279.535 420.937 280.138 423.638C280.439 425.739 279.837 427.839 278.632 429.64C277.427 431.44 276.223 432.941 274.717 434.741C269.597 441.643 268.091 451.246 270.5 459.348" fill="#092A40"/>
<path d="M426.739 202.718C426.739 219.523 404.452 233.326 377.045 233.326C369.817 233.326 363.191 232.426 356.867 230.626C355.06 230.025 341.507 233.326 341.507 233.326C341.507 233.326 347.229 227.325 345.422 226.424C334.278 220.723 327.351 212.321 327.351 202.718C327.351 185.913 349.638 172.109 377.045 172.109C404.452 172.109 426.739 185.913 426.739 202.718Z" fill="#A7CDDB"/>
<path d="M362.89 203.318C362.89 205.719 361.083 207.519 358.674 207.519C356.264 207.519 354.457 205.719 354.457 203.318C354.457 200.917 356.264 199.117 358.674 199.117C360.782 199.117 362.89 200.917 362.89 203.318Z" fill="white"/>
<path d="M381.864 203.318C381.864 205.719 380.057 207.519 377.648 207.519C375.238 207.519 373.431 205.719 373.431 203.318C373.431 200.917 375.238 199.117 377.648 199.117C380.057 199.117 381.864 200.917 381.864 203.318Z" fill="white"/>
<path d="M396.622 207.519C398.95 207.519 400.838 205.638 400.838 203.318C400.838 200.998 398.95 199.117 396.622 199.117C394.293 199.117 392.405 200.998 392.405 203.318C392.405 205.638 394.293 207.519 396.622 207.519Z" fill="white"/>
<path d="M330.357 338.528C330.357 338.701 330.531 338.701 330.531 338.874C330.705 339.221 331.053 339.394 331.401 339.568C331.749 339.568 331.923 339.568 332.271 339.394C332.793 339.048 333.315 338.354 333.315 337.487C333.489 336.62 333.315 335.58 333.141 334.366C332.793 333.153 332.445 332.112 331.749 331.246C331.053 330.205 330.183 329.338 329.139 328.818C328.095 328.298 327.051 328.125 325.833 328.298C324.615 328.472 323.397 328.992 322.178 329.685C320.264 330.899 318.698 332.459 317.654 334.193C316.61 335.927 316.088 337.834 316.088 339.915C316.088 341.995 316.784 344.076 318.002 345.983C318.698 347.197 319.742 348.063 320.786 348.757C321.83 349.45 323.223 349.797 324.615 349.797C326.007 349.797 327.573 349.277 328.965 348.237C330.183 347.543 331.053 346.85 331.575 346.156C332.097 345.463 332.793 344.596 333.315 343.729C333.489 343.556 333.489 343.382 333.663 343.382C334.011 343.209 334.359 343.209 334.707 343.556C334.881 343.556 334.881 343.729 334.881 343.729C335.055 344.076 335.055 344.596 334.707 345.289C334.011 346.33 333.489 347.197 332.793 348.063C332.097 348.757 331.227 349.624 330.183 350.317C328.269 351.531 326.355 352.225 324.615 352.225C322.875 352.225 321.134 351.878 319.742 350.838C318.35 349.971 317.132 348.757 316.262 347.197C314.696 344.943 314 342.515 314 340.088C314 337.661 314.522 335.407 315.914 333.153C317.132 331.072 319.046 329.165 321.308 327.778C323.049 326.738 324.615 326.044 326.355 326.044C327.921 325.871 329.487 326.218 330.705 326.911C332.097 327.605 333.141 328.645 334.011 330.032C334.881 331.246 335.403 332.806 335.577 334.193C335.751 335.753 335.751 337.141 335.229 338.528C334.707 339.915 334.011 340.955 332.793 341.822C332.097 342.169 331.401 342.342 330.705 342.342C330.009 342.342 329.313 341.995 328.965 341.648C328.965 343.382 328.269 344.769 326.703 345.636C326.181 345.983 325.485 346.156 324.789 346.156C324.093 346.156 323.397 345.983 322.701 345.636C322.004 345.289 321.482 344.769 320.96 343.902C320.264 342.862 319.916 341.822 319.742 340.435C319.568 339.048 319.742 337.834 320.09 336.62C320.438 335.407 321.134 334.54 322.178 333.846C322.701 333.5 323.223 333.326 323.919 333.326C324.441 333.326 325.137 333.5 325.659 333.846L325.311 333.153C324.789 332.979 324.789 332.633 324.789 332.286C324.963 331.939 325.137 331.766 325.485 331.419C326.355 330.899 326.877 330.899 327.399 331.592C327.573 331.766 327.573 331.939 327.573 331.939L330.357 338.528ZM326.181 336.447C325.833 335.753 325.311 335.407 324.789 335.407C324.267 335.407 323.745 335.407 323.223 335.753C322.701 336.1 322.178 336.62 322.178 337.487C322.004 338.181 322.004 339.048 322.178 339.915C322.353 340.781 322.701 341.475 323.049 342.169C323.397 342.689 323.919 343.035 324.267 343.209C324.789 343.382 325.137 343.209 325.659 342.862C326.181 342.515 326.529 342.169 326.703 341.475C326.877 340.955 327.051 340.261 327.051 339.741C327.051 339.221 327.051 338.701 326.877 338.181C326.703 337.661 326.529 336.967 326.181 336.447Z" fill="#2D7BA4"/>
<path d="M452.339 240.228L445.412 240.828L444.809 233.926C444.508 231.826 442.701 230.625 440.894 230.625C438.786 230.926 437.581 232.726 437.581 234.527L438.184 241.428L431.558 242.029C429.45 242.329 428.245 244.129 428.245 245.93C428.546 248.03 430.353 249.231 432.16 249.231L439.087 248.63L439.69 255.232C439.991 257.333 441.798 258.533 443.605 258.533C445.713 258.233 446.918 256.433 446.918 254.632L446.315 248.03L453.242 247.43C455.351 247.13 456.555 245.33 456.555 243.529C456.254 241.428 454.447 239.928 452.339 240.228Z" fill="#A7CDDB"/>
<path d="M163.814 276.538L160.501 276.838L160.2 273.537C160.2 272.637 159.296 271.737 158.091 272.037C157.188 272.037 156.284 272.937 156.585 274.137L156.887 277.438L153.574 277.738C152.67 277.738 151.767 278.639 152.068 279.839C152.068 280.739 152.971 281.64 154.176 281.339L157.489 281.039L157.79 284.34C157.79 285.241 158.694 286.141 159.898 285.841C160.802 285.841 161.705 284.94 161.404 283.74L161.103 280.439L164.416 280.139C165.32 280.139 166.223 279.239 165.922 278.039C165.922 277.138 165.018 276.238 163.814 276.538Z" fill="#2D7BA4"/>
<path d="M186.48 158.603C186.48 155.602 187.383 153.201 188.889 151.401C190.395 149.6 192.503 149 195.214 149C196.419 149 197.924 149.3 199.129 149.9C200.635 150.5 201.539 151.401 202.442 152.601C203.346 153.801 203.948 154.702 203.948 156.202C203.948 157.102 203.647 158.002 203.346 158.303C203.044 158.903 202.442 159.203 201.539 159.503C200.936 159.203 200.033 158.903 198.828 158.903C197.924 158.903 197.021 159.203 196.419 159.803C195.816 160.403 195.515 161.003 195.515 161.603C195.515 163.104 196.419 164.304 198.226 165.204C198.527 165.204 198.828 165.505 199.43 165.805C200.033 166.105 200.635 166.405 200.936 166.705C201.539 167.005 201.539 167.905 201.539 168.805C201.539 170.006 201.237 170.906 200.334 171.506C199.43 172.106 198.527 172.406 197.021 172.406C195.214 172.406 193.407 171.506 191.901 170.006C190.094 168.505 188.889 166.405 187.685 164.304C187.082 161.904 186.48 160.103 186.48 158.603ZM166 158.603C166 155.602 166.904 153.201 168.409 151.401C169.915 149.6 172.023 149 174.734 149C175.939 149 177.445 149.3 178.649 149.9C180.155 150.5 181.36 151.401 182.263 152.301C183.167 153.501 183.769 154.401 183.769 155.902C183.769 156.802 183.468 157.702 183.167 158.002C182.565 158.603 181.962 158.903 181.36 159.203C180.758 158.903 179.854 158.603 178.649 158.603C177.746 158.603 176.842 158.903 176.24 159.503C175.638 159.803 175.035 160.403 175.035 161.303C175.035 162.804 175.939 164.004 177.746 164.904C178.047 164.904 178.348 165.204 178.951 165.505C179.553 165.805 180.155 166.105 180.456 166.405C181.059 166.705 181.059 167.605 181.059 168.505C181.059 169.706 180.758 170.606 179.854 171.206C179.252 171.806 178.348 172.106 176.842 172.106C175.035 172.106 173.228 171.206 171.722 169.706C170.216 167.905 168.711 166.105 167.807 164.004C166.602 161.904 166 160.103 166 158.603Z" fill="#A7CDDB"/>
<path d="M434.686 151.389C429.566 149.888 424.446 152.889 423.242 157.69C421.736 163.692 427.759 176.296 427.759 176.296C427.759 176.296 439.505 168.493 441.312 162.792C442.517 157.69 439.505 152.589 434.686 151.389ZM430.771 165.192C428.06 164.592 426.555 161.591 427.157 158.891C428.06 156.19 430.771 154.69 433.482 155.29C436.192 156.19 437.698 158.891 437.096 161.591C436.192 164.292 433.482 165.793 430.771 165.192Z" fill="#2D7BA4"/>
</g>
<defs>
<linearGradient id="paint0_linear" x1="499.181" y1="490.507" x2="418.095" y2="152.197" gradientUnits="userSpaceOnUse">
<stop stop-color="#39D8F2"/>
<stop offset="1" stop-color="#157BD3"/>
</linearGradient>
<linearGradient id="paint1_linear" x1="540.235" y1="517.993" x2="437.988" y2="100.487" gradientUnits="userSpaceOnUse">
<stop stop-color="#39D8F2"/>
<stop offset="1" stop-color="#157BD3"/>
</linearGradient>
<clipPath id="clip0">
<rect width="359" height="361" fill="white" transform="translate(109 140)"/>
</clipPath>
</defs>
</svg>
