<svg width="446" height="422" viewBox="0 0 446 422" fill="none" xmlns="http://www.w3.org/2000/svg">
<path d="M382.7 128.896C376.138 118.461 349.087 111.349 345.554 110.32C324.879 103.204 290.984 103.581 272.732 104.488C254.479 105.395 203.663 89.3322 184.76 83.962C165.858 78.5918 135.2 95.4575 121.46 99.7533C107.72 104.049 89.0532 147.993 85.2103 154.991C81.3674 161.989 33.6397 199.993 35.265 231.854C36.8903 263.714 53.0783 293.096 83.3756 322.484C113.673 351.872 139.773 346.622 148.567 345.53C157.361 344.439 188.107 362.232 203.112 371.383C218.118 380.534 235.932 377.109 260.038 368.03C284.143 358.952 303.953 327.021 314.121 313.478C324.289 299.935 325.975 279.455 321.96 258.579C317.945 237.702 322.271 218.218 331.074 203.014C339.878 187.811 358.018 171.358 367.56 164.757C377.103 158.156 381.975 147.625 383.704 144.476C385.434 141.327 389.262 139.33 382.7 128.896Z" stroke="url(#paint0_linear)"/>
<path d="M226.136 156.445C217.168 147.287 210.356 155.308 208.702 160.238C207.92 162.113 207.409 165.059 207.546 169.744C207.683 174.428 204.24 175.764 205.308 179.576C206.925 185.353 212.661 185.918 217.076 182.812C221.491 179.705 233.947 164.422 226.136 156.445Z" stroke="#BDBDBD"/>
<path d="M189.101 172.202C176.009 179.563 173.947 186.614 173.275 194.43C174.45 200.531 172.4 211.681 171.596 213.968C170.793 216.255 171.116 234.62 195.369 232.479C219.622 230.337 230.329 198.478 231.468 192.283C232.607 186.089 234.31 187.933 239.501 169.414C243.809 154.047 228.52 146.561 219.073 147.284C209.626 148.007 202.193 164.841 189.101 172.202Z" stroke="url(#paint1_linear)" stroke-width="2"/>
<path d="M310.344 133.451C302.648 125.445 282.581 119.781 273.51 117.95C265.957 116.795 248.96 114.487 241.399 114.493C231.948 114.501 204.151 104.908 187.896 103.543C171.641 102.177 143.671 106.664 132.972 114.965C122.274 123.266 113.538 138.315 102.972 157.557C92.4061 176.798 79.3304 184.267 71.8314 205.665C64.3325 227.063 84.3537 284.365 90.8147 289.802C97.2757 295.24 118.166 315.69 132.188 312.521C146.209 309.352 151.964 318.655 154.142 319.851C156.319 321.046 183.722 340.819 205.313 347.95C226.905 355.08 240.834 349.499 255.903 338.4C270.972 327.301 287.789 294.954 292.753 281.613C297.716 268.273 296.827 233.764 299.271 223.292C301.714 212.821 306.984 196.342 309.065 185.671C311.146 175 319.83 166.066 321.042 158.699C322.253 151.331 319.964 143.458 310.344 133.451Z" stroke="url(#paint2_linear)" stroke-width="2"/>
<path d="M294 329.693C377.947 329.693 446 261.537 446 177.461C446 93.3849 377.947 25.228 294 25.228C210.053 25.228 142 93.3849 142 177.461C142 261.537 210.053 329.693 294 329.693Z" fill="#D1E5EC"/>
<path d="M385.445 66.2697C376.145 66.2697 368.589 58.7017 368.589 49.3873C368.589 40.0729 376.145 32.5049 385.445 32.5049C394.745 32.5049 402.302 40.0729 402.302 49.3873C402.302 58.7017 394.745 66.2697 385.445 66.2697ZM385.445 33.9603C377.017 33.9603 370.042 40.9461 370.042 49.3873C370.042 57.8285 377.017 64.8143 385.445 64.8143C393.873 64.8143 400.849 57.8285 400.849 49.3873C400.558 40.9461 393.873 33.9603 385.445 33.9603Z" fill="#80B8CE"/>
<path d="M354.348 19.6977C349.988 19.6977 346.21 16.2047 346.21 11.5475C346.501 7.18139 349.988 3.68848 354.348 3.68848C358.707 3.68848 362.486 7.18139 362.486 11.8386C362.486 16.2047 358.998 19.6977 354.348 19.6977ZM354.348 5.14386C350.86 5.14386 347.663 8.05462 347.663 11.8386C347.663 15.6226 350.86 18.2423 354.348 18.2423C357.835 18.2423 361.032 15.3315 361.032 11.5475C361.032 7.76354 358.126 5.14386 354.348 5.14386Z" fill="#2D7BA4"/>
<path d="M159.044 129.433C153.231 129.433 148.581 124.776 148.581 118.954C148.581 113.133 153.231 108.476 159.044 108.476C164.856 108.476 169.506 113.133 169.506 118.954C169.506 124.776 164.856 129.433 159.044 129.433ZM159.044 110.222C154.103 110.222 150.034 114.297 150.034 119.245C150.034 124.194 154.103 128.269 159.044 128.269C163.984 128.269 168.053 124.194 168.053 119.245C168.053 114.297 163.984 110.222 159.044 110.222Z" fill="#2D7BA4"/>
<path d="M177.063 51.7158C179.631 51.7158 181.713 49.6307 181.713 47.0586C181.713 44.4865 179.631 42.4014 177.063 42.4014C174.495 42.4014 172.413 44.4865 172.413 47.0586C172.413 49.6307 174.495 51.7158 177.063 51.7158Z" fill="#80B8CE"/>
<path d="M172.207 70.9655L171.179 71.9946L187.62 88.4602L188.647 87.4311L172.207 70.9655Z" fill="#80B8CE"/>
<path d="M408.005 114.775L400.401 122.39L401.429 123.419L409.032 115.804L408.005 114.775Z" fill="white"/>
<path d="M383.455 173.968C375.898 164.944 372.12 156.503 370.086 148.644C378.223 155.921 385.489 163.78 388.977 177.752L390.43 177.461C386.652 162.325 378.514 154.175 369.505 146.316C366.308 133.217 367.761 121.283 362.82 109.058C357.589 95.9594 346.545 91.3022 336.082 84.8986C334.048 68.3072 331.141 51.7159 311.378 32.796C306.438 22.6083 295.103 13.585 267.202 7.47236C251.218 4.27053 218.376 22.0262 218.376 56.3731C218.376 81.9878 217.505 96.2505 196.579 105.856C175.654 115.462 176.235 135.546 184.373 162.034C192.51 188.522 155.309 224.324 168.969 259.835C191.638 318.633 328.816 302.623 370.086 275.262C411.646 248.192 409.03 205.113 383.455 173.968ZM324.457 75.5841C313.994 64.2322 317.482 49.6784 312.541 36.2889C329.397 53.1713 332.304 68.5983 334.048 83.7343C330.851 81.4056 327.654 78.786 324.457 75.5841Z" fill="#80B8CE"/>
<path d="M222.155 148.644C201.811 161.451 169.841 245.572 168.969 263.037C166.644 281.083 162.285 325.036 166.935 352.688H201.52C206.17 341.336 218.667 278.464 222.736 261.581C228.839 245.281 240.465 178.625 242.499 162.324C244.533 144.86 241.627 136.71 222.155 148.644Z" fill="#2D7BA4"/>
<path d="M212.273 188.521C200.648 195.798 190.476 233.056 187.86 251.103C185.245 269.149 179.723 309.609 181.466 328.529C183.21 348.613 204.717 350.36 205.879 348.031C208.495 341.627 214.017 270.023 216.342 260.126C219.83 250.812 226.224 212.681 227.386 203.366C228.549 193.47 223.317 181.535 212.273 188.521Z" fill="#27698D"/>
<path d="M375.608 352.689H200.358C194.254 352.689 189.604 347.45 190.186 341.337L191.348 329.112H385.199L386.361 341.337C386.652 347.741 381.711 352.689 375.608 352.689Z" fill="#092A40"/>
<path d="M284.35 134.382C277.956 134.091 271.562 134.382 265.459 135.837C252.671 138.457 233.489 142.823 221.864 151.555C207.333 162.325 215.47 331.731 215.47 331.731H323.004C323.004 331.731 328.235 153.593 319.225 143.696C313.122 136.71 295.684 134.964 284.35 134.382Z" fill="white"/>
<path d="M293.941 134.091C284.641 127.105 277.375 94.2133 276.212 75.5845L256.159 98.2884C264.587 129.434 258.193 128.269 245.405 140.785C232.327 153.302 248.893 176.006 281.444 168.438C310.507 161.743 303.241 140.785 293.941 134.091Z" fill="#FFE0C4"/>
<path d="M276.212 75.5845L256.159 98.2884C257.902 105.274 259.065 110.514 259.646 114.88C268.946 112.842 275.631 107.312 279.7 100.035C277.956 91.3026 276.503 82.2792 276.212 75.5845Z" fill="#EECEB1"/>
<path d="M245.696 39.4911C232.908 60.4485 219.249 107.021 259.646 102.072C314.285 95.0865 282.316 -21.0527 245.696 39.4911Z" fill="#FFE0C4"/>
<path d="M293.941 134.091C293.941 134.091 300.044 227.526 300.916 333.187H386.943C386.943 333.187 381.13 219.667 360.495 160.579C354.392 142.241 322.423 135.837 293.941 134.091Z" fill="#2D7BA4"/>
<path d="M378.514 244.7C378.224 244.7 377.933 244.7 377.643 244.7C370.086 244.7 326.782 264.202 299.753 277.591C300.044 292.145 300.335 307.572 300.625 322.999C318.063 322.126 355.845 314.849 385.199 307.281C384.036 290.981 381.711 268.568 378.514 244.7Z" fill="#27698D"/>
<path d="M248.893 137.583C248.893 137.583 247.149 227.234 248.893 332.895H188.151C188.151 332.895 199.195 194.634 211.402 163.78C217.795 147.48 231.165 141.076 248.893 137.583Z" fill="#2D7BA4"/>
<path d="M275.631 19.1152C255.868 18.242 244.243 22.026 244.243 22.026C241.918 40.3637 261.39 45.021 270.69 58.7015C271.853 60.448 273.306 62.4855 274.759 64.523C259.355 56.3729 246.858 40.9459 245.115 35.7065L243.661 36.2887C245.696 41.8191 259.646 58.9926 276.503 66.8517C286.384 80.8233 300.334 97.7057 309.344 83.734C320.097 66.8516 295.394 19.9884 275.631 19.1152Z" fill="#72B1C9"/>
<path d="M328.817 163.489C334.048 180.663 364.855 263.619 371.83 270.314C378.805 277.009 432.281 289.234 429.665 271.769C427.05 254.305 368.633 155.339 346.254 146.316C325.038 137.875 323.585 146.316 328.817 163.489Z" fill="#2D7BA4"/>
<path d="M276.212 82.2788C276.794 76.4573 280.572 65.3964 287.547 72.0911C297.428 81.1145 274.759 99.1612 276.212 82.2788Z" fill="#FFE0C4"/>
<path d="M241.046 219.667C239.302 218.212 237.849 216.756 236.687 215.01C234.362 212.099 230.293 211.226 227.677 213.845L212.564 229.272C209.949 231.892 210.239 235.967 212.855 238.587L228.84 254.887C231.165 257.216 230.874 261.291 228.258 263.037C226.805 263.91 225.643 265.075 224.48 266.239C216.633 274.68 216.924 288.652 225.061 297.384C234.071 306.99 249.184 307.572 257.903 298.549C259.065 297.675 259.937 296.511 260.518 295.347C262.262 292.727 266.331 292.436 268.656 294.765L284.641 311.065C287.256 313.684 291.325 313.684 293.941 311.356L309.054 296.22C311.669 293.6 311.088 289.525 308.182 287.197C307.019 286.323 306.147 285.45 304.985 284.577C295.685 275.262 295.685 260.127 305.275 251.394C313.994 243.535 327.654 244.117 336.664 252.559C337.826 253.723 338.698 254.887 339.57 256.051C341.604 258.962 345.964 259.544 348.289 257.216L363.692 242.08C366.308 239.46 366.017 235.385 363.402 232.765L347.417 216.174C345.092 213.845 345.383 209.77 347.998 208.024C349.451 207.151 350.614 205.986 351.776 204.822C359.623 196.381 359.333 182.409 351.195 173.677C342.186 164.071 327.073 163.489 318.354 172.513C317.191 173.386 316.319 174.55 315.738 175.715C313.994 178.334 309.926 178.625 307.601 176.297L291.616 159.996C289 157.377 284.931 157.377 282.316 159.705L267.203 174.841C264.587 177.461 265.168 181.536 268.075 183.865C269.237 184.738 270.109 185.611 271.272 186.484C280.862 196.09 280.572 212.099 270.109 220.54C261.681 226.944 249.474 226.653 241.046 219.667Z" fill="#D1E5EC"/>
<path d="M369.214 242.079L353.23 257.215C350.614 259.835 346.545 259.253 344.511 256.051C343.639 254.887 342.767 253.722 341.604 252.558C333.176 244.117 319.226 243.535 310.507 251.394C300.626 260.126 300.044 275.262 309.054 284.577C309.926 285.45 311.088 286.614 311.96 287.196C314.866 289.234 315.157 293.6 312.541 296.22L296.847 311.355C294.232 313.684 290.163 313.684 287.547 311.064L285.222 308.736L271.853 294.764C271.853 294.473 271.562 294.473 271.562 294.473C270.4 293.6 268.947 293.018 267.494 293.309C266.04 293.6 264.878 294.182 264.006 295.637C263.134 296.802 262.262 297.966 261.1 298.839C254.415 305.243 244.824 306.698 236.977 303.496C233.78 302.332 230.874 300.295 228.258 297.384C220.411 288.652 220.702 274.68 228.84 266.239C230.002 265.074 231.455 263.91 232.618 263.037C235.524 261.29 235.815 257.215 233.49 254.887L218.377 238.878C215.761 236.258 216.052 232.183 218.668 229.563L234.362 214.427C236.977 211.808 241.337 212.39 243.371 215.592C244.534 217.338 245.987 218.793 247.44 220.249C251.799 224.033 257.321 225.779 262.553 225.779C267.494 225.779 272.144 224.033 276.212 221.122C287.256 212.681 288.128 196.672 278.828 187.066C277.956 186.193 277.084 185.32 276.212 184.738L275.922 184.446C273.016 182.409 272.725 178.043 275.341 175.423L281.153 169.893L291.035 160.578C293.65 157.959 297.719 158.25 300.335 160.869L308.763 169.602L312.251 173.094L316.029 176.878C318.354 179.207 322.132 178.916 324.167 176.296C325.039 175.132 325.91 173.968 327.073 173.094C328.526 171.639 330.27 170.475 332.014 169.602C341.023 164.653 352.939 166.109 360.205 174.259C368.052 182.991 367.761 196.963 359.624 205.404C358.461 206.568 357.008 207.732 355.845 208.606C352.939 210.352 352.648 214.427 354.973 216.756L370.377 233.056C371.83 235.676 371.83 239.751 369.214 242.079Z" fill="#092A40"/>
<path d="M308.472 169.31L267.784 293.6C266.331 293.891 265.168 294.473 264.296 295.929C263.424 297.093 262.552 298.257 261.39 299.13C254.705 305.534 245.115 306.989 237.268 303.788L262.843 225.779C267.784 225.779 272.434 224.033 276.503 221.122C287.547 212.681 288.419 196.672 279.118 187.066C278.247 186.193 277.375 185.32 276.503 184.738L281.443 169.893L291.325 160.578C293.941 157.959 298.009 158.25 300.625 160.869L308.472 169.31Z" fill="#2D7BA4" fill-opacity="0.26"/>
<path d="M331.432 169.31L285.512 309.026L272.143 295.055C272.143 294.764 271.853 294.764 271.853 294.764L311.96 172.803L315.738 176.587C318.063 178.916 321.841 178.624 323.875 176.005C324.747 174.84 325.619 173.676 326.782 172.803C327.944 171.639 329.688 170.474 331.432 169.31Z" fill="#2D7BA4" fill-opacity="0.26"/>
<path d="M295.103 289.816C289.291 294.474 282.897 294.183 276.503 292.436C273.887 291.854 271.853 290.69 270.4 290.399H270.109C266.912 289.525 261.39 290.69 257.321 290.107C253.834 289.816 257.902 294.474 263.424 295.638C258.774 300.877 248.021 304.661 261.971 312.229C284.931 324.163 303.241 309.61 303.241 309.61L295.103 289.816Z" fill="#FFE0C4"/>
<path d="M292.487 281.084C306.728 270.605 371.539 234.512 381.13 233.639C390.721 232.765 440.419 264.784 427.34 277.009C414.262 288.943 316.9 316.886 305.275 313.393C294.813 309.9 281.443 289.234 292.487 281.084Z" fill="#2D7BA4"/>
<path d="M249.474 50.8427C248.602 48.8052 246.858 47.3498 244.533 46.7676C243.952 46.4766 243.371 46.4766 242.79 46.4766C238.14 46.4766 233.78 51.1338 232.908 56.9553C232.908 57.2464 232.908 57.8285 232.908 58.1196C232.908 60.7393 233.489 63.0679 234.943 64.8143C236.396 66.5608 238.43 67.434 240.465 67.434C245.115 67.434 249.765 62.7768 250.346 56.9553C250.927 54.6267 250.637 52.5892 249.474 50.8427ZM234.071 56.9553C234.652 51.4248 238.721 47.0587 243.08 47.0587C243.662 47.0587 243.952 47.0587 244.243 47.3498L233.78 57.8285C233.78 57.5374 234.071 57.2464 234.071 56.9553ZM249.765 56.9553C249.184 62.4857 245.115 66.8519 240.755 66.8519C238.721 66.8519 237.268 65.9786 235.815 64.5233L248.893 51.4249C249.765 52.8802 250.055 54.9178 249.765 56.9553Z" fill="white"/>
<path d="M268.656 49.0962C267.203 47.3498 265.459 46.4766 263.134 46.4766C258.484 46.4766 254.124 51.1338 253.252 56.9553C252.962 59.2839 253.252 61.3214 254.124 63.0679C254.996 65.1054 256.74 66.8519 258.774 67.1429C259.356 67.434 259.937 67.434 260.518 67.434C265.168 67.434 269.818 62.7768 270.4 56.9553C270.4 56.3731 270.4 56.0821 270.4 55.4999C270.981 53.1713 270.109 50.8427 268.656 49.0962ZM254.124 56.9553C254.705 51.4248 258.774 47.0587 263.134 47.0587C265.168 47.0587 266.621 47.9319 268.074 49.3873L254.996 62.4857C254.124 61.0304 253.834 58.9928 254.124 56.9553ZM261.099 66.8519C260.518 66.8519 260.227 66.8519 259.646 66.5608L270.109 56.0821C270.109 56.3731 270.109 56.6642 270.109 56.9553C269.528 62.4857 265.459 66.8519 261.099 66.8519Z" fill="white"/>
<defs>
<linearGradient id="paint0_linear" x1="1.11087" y1="281.542" x2="334.747" y2="381.402" gradientUnits="userSpaceOnUse">
<stop stop-color="#39D8F2"/>
<stop offset="1" stop-color="#157BD3"/>
</linearGradient>
<linearGradient id="paint1_linear" x1="157.464" y1="217.823" x2="219.859" y2="241.735" gradientUnits="userSpaceOnUse">
<stop stop-color="#39D8F2"/>
<stop offset="1" stop-color="#157BD3"/>
</linearGradient>
<linearGradient id="paint2_linear" x1="37.6266" y1="265.875" x2="305.25" y2="344.056" gradientUnits="userSpaceOnUse">
<stop stop-color="#39D8F2"/>
<stop offset="1" stop-color="#157BD3"/>
</linearGradient>
</defs>
</svg>
