<svg width="505" height="485" viewBox="0 0 505 485" fill="none" xmlns="http://www.w3.org/2000/svg">
<path opacity="0.04" d="M67.7157 189.857C99.346 133.05 236.294 21.8885 337.67 84.3529C439.047 146.817 468.613 218.126 445.275 289.678C421.937 361.231 205.566 416.272 135.395 384.088C65.223 351.905 36.0853 246.664 67.7157 189.857Z" fill="url(#paint0_linear)"/>
<path d="M288.738 92.9172C277.939 85.3579 253.271 83.3632 242.287 83.3107C233.225 83.6975 212.902 84.9065 204.097 86.6475C193.092 88.8238 158.52 84.025 139.277 86.162C120.033 88.299 88.4872 99.9382 77.9309 112.058C67.3746 124.178 60.6511 143.708 52.7581 168.539C44.8651 193.371 31.3494 205.067 27.5225 231.707C23.6956 258.347 60.1512 320.49 68.9225 325.342C77.6939 330.193 106.712 349.218 122.315 342.313C137.917 335.408 146.753 344.923 149.563 345.816C152.374 346.709 188.821 363.453 215.601 366.807C242.382 370.161 257.324 360.466 272.328 344.085C287.333 327.704 299.502 286.176 302.224 269.502C304.946 252.828 295.998 212.842 296.442 200.086C296.887 187.331 299.246 166.931 299.223 154.026C299.199 141.122 307.265 128.726 306.986 119.868C306.708 111.01 302.236 102.366 288.738 92.9172Z" stroke="#BDBDBD"/>
<path d="M332.882 74.4429C322.016 66.8804 297.236 64.824 286.204 64.7411C277.104 65.1013 256.696 66.2493 247.859 67.9597C236.812 70.0975 202.077 65.2195 182.757 67.2952C163.436 69.3709 131.786 80.8808 121.218 92.9282C110.649 104.976 103.951 124.417 96.0933 149.138C88.2354 173.859 74.6939 185.476 70.9247 212.011C67.1555 238.546 103.942 300.569 112.765 305.427C121.587 310.286 150.784 329.325 166.435 322.487C182.086 315.65 190.986 325.156 193.811 326.054C196.636 326.951 233.287 343.737 260.193 347.154C287.098 350.571 302.078 340.952 317.102 324.671C332.126 308.39 344.232 267.044 346.919 250.437C349.606 233.83 340.508 193.961 340.919 181.252C341.33 168.543 343.642 148.223 343.583 135.364C343.523 122.505 351.589 110.176 351.285 101.349C350.98 92.5214 346.465 83.8961 332.882 74.4429Z" stroke="url(#paint1_linear)" stroke-width="2"/>
<g clip-path="url(#clip0)">
<g opacity="0.6">
<path d="M423.918 139.414C423.918 154.585 404.26 166.771 379.873 166.771C373.652 166.771 367.431 166.025 362.205 164.533C360.712 164.035 348.518 166.771 348.518 166.771C348.518 166.771 353.495 161.548 351.753 160.554C342.049 155.58 335.827 147.87 335.827 139.414C335.827 124.243 355.486 112.057 379.873 112.057C404.26 112.057 423.918 124.492 423.918 139.414Z" fill="#72B1C9"/>
<path d="M367.182 139.911C367.182 141.901 365.44 143.642 363.449 143.642C361.458 143.642 359.717 141.901 359.717 139.911C359.717 137.922 361.458 136.181 363.449 136.181C365.44 136.181 367.182 137.922 367.182 139.911Z" fill="white"/>
<path d="M384.103 139.911C384.103 141.901 382.361 143.642 380.37 143.642C378.38 143.642 376.638 141.901 376.638 139.911C376.638 137.922 378.38 136.181 380.37 136.181C382.361 136.181 384.103 137.922 384.103 139.911Z" fill="white"/>
<path d="M401.025 139.911C401.025 141.901 399.283 143.642 397.292 143.642C395.301 143.642 393.56 141.901 393.56 139.911C393.56 137.922 395.301 136.181 397.292 136.181C399.283 136.181 401.025 137.922 401.025 139.911Z" fill="white"/>
</g>
<path d="M321.892 384.633C313.431 382.892 305.468 381.151 296.012 382.146C277.349 384.135 258.437 386.374 239.773 388.363C229.322 389.607 208.917 391.596 198.963 388.612C155.415 375.182 134.512 323.701 150.936 289.38C161.636 266.997 159.397 245.858 153.922 225.713C143.471 186.418 161.636 136.678 196.474 121.507C221.857 110.565 251.469 105.093 276.602 116.285C294.021 123.994 309.947 139.911 319.652 157.818C330.104 177.465 336.325 192.636 358.223 199.102C375.394 204.076 393.559 202.584 410.978 204.822C418.941 205.817 427.9 208.553 431.881 216.511C437.605 228.449 428.149 242.376 425.66 255.806C422.425 272.717 432.628 283.909 439.098 297.588C446.563 313.753 451.54 332.654 443.577 349.815C439.844 357.524 434.121 363.742 427.402 368.965C401.024 388.861 367.679 390.104 337.072 387.12C331.846 386.622 326.869 385.628 321.892 384.633Z" fill="#9FCBDB" fill-opacity="0.36"/>
<path d="M424.416 346.333C421.678 335.888 392.813 335.888 390.075 317.235C384.85 293.36 411.227 280.179 416.453 256.552C420.185 242.127 422.176 215.516 401.522 214.024C384.601 212.781 369.919 226.459 353.246 228.946C342.795 230.438 332.094 226.957 324.131 220.242C315.173 212.781 312.933 204.076 310.943 192.885C308.952 181.444 306.712 166.025 295.763 159.31C291.782 156.823 287.551 155.331 283.072 154.087C255.202 145.631 226.336 143.393 202.944 164.284C194.732 171.745 188.262 182.19 188.511 193.133C189.009 208.553 202.198 221.236 204.188 236.656C205.433 247.101 201.451 257.547 194.981 265.754C184.281 279.184 169.599 288.634 161.636 304.551C147.701 332.654 161.885 365.483 183.783 384.882C186.769 386.374 190.004 387.617 193.488 388.612C204.189 391.845 225.838 389.607 236.787 388.363C256.695 386.125 276.602 383.887 296.51 381.649C306.464 380.654 314.924 382.395 323.883 384.136C329.108 385.13 334.334 386.374 339.809 386.871C362.951 389.11 387.338 389.11 409.734 381.4C422.923 374.187 429.89 363.493 424.416 346.333Z" fill="#9FCBDB" fill-opacity="0.5"/>
<path d="M413.964 349.815C411.475 340.115 384.849 340.115 382.361 322.955C377.384 301.069 401.77 288.883 406.747 266.997C409.982 253.568 411.973 229.195 393.061 227.703C377.384 226.708 363.946 239.392 348.269 241.63C338.564 242.873 328.859 239.64 321.394 233.672C312.933 226.708 310.942 218.749 309.2 208.553C307.458 197.859 305.219 183.931 295.265 177.465C291.781 175.227 287.551 173.983 283.569 172.74C257.938 164.781 231.312 162.792 209.663 181.942C201.948 188.905 195.976 198.356 196.474 208.553C196.971 222.977 208.916 234.418 210.907 248.594C212.151 258.044 208.418 267.744 202.446 275.453C192.741 287.888 179.055 296.593 171.589 311.266C158.649 337.131 171.838 367.473 191.995 385.379C194.732 386.623 197.718 387.866 200.953 388.861C210.907 391.845 230.814 389.856 241.017 388.612C259.431 386.623 277.597 384.384 296.012 382.395C305.219 381.4 313.182 383.141 321.394 384.882C326.122 385.876 330.85 386.871 336.075 387.369C357.227 389.607 379.872 389.358 400.526 382.395C412.471 375.431 418.941 365.732 413.964 349.815Z" fill="#9FCBDB"/>
<path d="M201.446 118.026L201.197 264.759L151.926 288.386C145.456 291.37 137.742 286.645 137.742 279.432V227.454C136.747 187.662 149.438 150.357 170.59 131.704L177.806 125.487C187.013 117.279 201.446 105.839 201.446 118.026Z" fill="#2D7BA4"/>
<g opacity="0.5">
<g opacity="0.5">
<path opacity="0.5" d="M191.243 250.086C191.793 250.086 192.239 249.084 192.239 247.848C192.239 246.612 191.793 245.609 191.243 245.609C190.693 245.609 190.248 246.612 190.248 247.848C190.248 249.084 190.693 250.086 191.243 250.086Z" fill="white"/>
<g opacity="0.5">
<path opacity="0.5" d="M191.243 248.096L182.036 239.64H182.783L174.322 247.35L173.575 247.848L172.829 247.101L167.603 240.138C165.861 237.9 164.119 235.413 162.377 232.926C160.635 230.439 159.142 227.952 157.649 225.465C156.156 222.978 154.663 220.491 153.17 217.755L153.419 217.506C155.41 219.744 157.401 221.983 159.142 224.221C160.884 226.459 162.875 228.946 164.368 231.185C166.11 233.672 167.603 236.159 169.345 238.397L174.322 245.858L173.078 245.609L182.036 238.397L182.534 238.148L182.783 238.397L191.243 248.096Z" fill="white"/>
</g>
<path opacity="0.5" d="M155.659 218.501L153.17 217.506V220.988" fill="white"/>
</g>
<path opacity="0.5" d="M193.732 203.081V251.081L149.438 269.236" stroke="white" stroke-width="0.25" stroke-miterlimit="10"/>
</g>
<g opacity="0.5">
<path opacity="0.5" d="M169.594 170.253C169.594 181.693 174.073 190.895 179.299 190.895C184.525 190.895 189.004 181.693 189.004 170.253C189.004 158.813 184.774 149.611 179.299 149.611C173.824 149.611 169.594 158.813 169.594 170.253Z" stroke="white" stroke-width="2" stroke-miterlimit="10"/>
<path opacity="0.5" d="M169.594 170.253C169.594 181.693 174.073 190.895 179.299 190.895C184.525 190.895 189.004 181.693 189.004 170.253C189.004 158.813 184.774 149.611 179.299 149.611" stroke="white" stroke-miterlimit="10"/>
</g>
<g opacity="0.5">
<path opacity="0.5" d="M136 174.232C136 187.662 141.226 198.605 147.447 198.605C153.917 198.605 158.894 187.662 158.894 174.232C158.894 160.802 153.917 149.611 147.447 149.611" stroke="white" stroke-miterlimit="10"/>
</g>
<path d="M290.537 397.565C290.04 397.814 298.252 378.664 298.252 378.664H298.998L317.413 384.633C317.164 384.633 317.164 384.882 316.915 384.882C317.164 384.633 317.164 384.633 317.413 384.633L318.159 384.882C318.159 384.882 318.906 384.882 320.399 384.882C322.141 385.628 323.882 387.369 323.882 387.369C325.376 395.327 319.403 399.804 312.684 402.042C311.689 401.544 310.943 401.296 310.943 401.296C310.943 401.296 291.035 397.565 290.537 397.565Z" fill="white"/>
<path d="M323.883 386.871C323.883 386.871 322.142 385.13 320.4 384.384C328.114 384.135 353.496 383.638 358.473 386.622C364.445 390.104 367.182 393.337 367.182 396.57C366.934 399.804 363.45 410.995 343.293 408.508C327.367 406.767 310.944 404.031 312.934 401.296C319.404 399.306 325.377 394.581 323.883 386.871Z" fill="#27698D"/>
<path d="M312.685 402.042C315.92 401.047 318.906 399.555 321.145 397.317C330.602 400.55 338.565 400.052 348.021 400.052C349.016 398.809 350.26 392.591 348.518 391.348C343.541 387.866 329.855 388.861 324.132 387.617C324.132 387.617 322.39 385.876 320.648 385.13C328.362 384.881 353.744 384.384 358.721 387.369C364.693 390.85 367.43 394.083 367.43 397.317C367.182 400.55 363.698 411.741 343.541 409.254C327.118 407.265 310.694 404.778 312.685 402.042Z" fill="#2D7BA4"/>
<path d="M357.477 386.622C357.725 386.622 357.974 386.871 358.223 386.871C364.195 390.353 366.933 393.586 366.933 396.819C366.933 399.306 364.942 405.772 355.984 408.259C355.486 401.296 354.49 393.835 357.477 386.622Z" fill="#F1F2F2"/>
<path d="M326.123 386.622L332.344 400.798" stroke="white" stroke-width="0.4936" stroke-miterlimit="10" stroke-linecap="round" stroke-linejoin="round"/>
<path d="M331.597 387.617L337.57 400.55" stroke="white" stroke-width="0.4936" stroke-miterlimit="10" stroke-linecap="round" stroke-linejoin="round"/>
<path d="M338.067 388.363L342.795 400.798" stroke="white" stroke-width="0.4936" stroke-miterlimit="10" stroke-linecap="round" stroke-linejoin="round"/>
<path d="M345.035 388.363L348.768 400.798" stroke="white" stroke-width="0.4936" stroke-miterlimit="10" stroke-linecap="round" stroke-linejoin="round"/>
<path d="M323.634 400.301L332.344 387.369" stroke="white" stroke-width="0.4936" stroke-miterlimit="10" stroke-linecap="round" stroke-linejoin="round"/>
<path d="M329.109 400.301L337.321 388.612" stroke="white" stroke-width="0.4936" stroke-miterlimit="10" stroke-linecap="round" stroke-linejoin="round"/>
<path d="M335.578 400.55L342.795 388.861" stroke="white" stroke-width="0.4936" stroke-miterlimit="10" stroke-linecap="round" stroke-linejoin="round"/>
<path d="M342.298 401.545L348.519 389.607" stroke="white" stroke-width="0.4936" stroke-miterlimit="10" stroke-linecap="round" stroke-linejoin="round"/>
<path d="M242.759 345.587C242.759 345.587 226.833 359.265 231.81 363.742C234.547 365.98 260.676 386.871 260.676 386.871C260.676 386.871 280.832 378.415 294.27 386.871C306.214 388.115 325.375 375.431 331.845 363.991C334.583 359.265 326.122 349.317 321.643 346.333L314.675 345.09L243.506 344.841L242.759 345.587Z" fill="#031827"/>
<path d="M266.648 226.459C266.897 226.211 267.146 225.962 267.146 225.713C267.146 225.464 267.394 225.216 267.394 224.967C267.394 224.718 267.643 224.47 267.643 224.221C268.887 219.496 268.639 210.542 268.887 208.055C268.887 208.055 275.109 208.304 281.578 208.553C288.048 208.304 294.27 208.055 294.27 208.055C294.518 210.542 294.27 219.496 295.514 224.221C295.514 224.47 295.763 224.718 295.763 224.967C295.763 225.216 296.011 225.464 296.011 225.713C296.26 225.962 296.26 226.211 296.509 226.459C298.749 228.946 324.131 235.412 327.366 241.381C324.629 251.578 239.275 251.827 236.289 241.381C239.524 235.412 264.408 228.946 266.648 226.459Z" fill="#FFE0C4"/>
<path d="M236.289 241.63C239.275 235.661 264.408 229.195 266.648 226.708C266.897 226.459 266.897 226.21 267.146 225.962C267.146 225.713 267.394 225.464 267.394 225.216C267.394 224.967 267.643 224.718 267.643 224.47C268.887 219.744 268.639 211.04 268.887 208.304C268.887 208.304 275.109 208.553 281.33 208.801C287.551 208.553 293.772 208.304 293.772 208.304C294.021 210.791 294.021 217.506 294.767 222.48C285.809 233.423 257.938 238.397 239.026 244.366C237.782 243.371 236.538 242.625 236.289 241.63Z" fill="#EECEB1"/>
<path d="M280.832 262.024C294.27 262.024 305.965 247.35 305.965 234.418C305.965 232.677 305.716 230.687 305.219 228.946C303.477 228.698 301.735 228.449 299.744 228.2C294.021 234.169 288.049 236.407 283.072 237.153C282.574 237.153 281.579 240.635 281.579 245.112C280.832 242.376 279.837 237.402 279.339 237.402C268.639 237.153 262.169 228.2 262.169 228.2C262.169 228.2 260.178 228.698 256.943 229.444C256.694 230.936 256.445 232.677 256.445 234.418C256.943 247.599 267.146 262.024 280.832 262.024Z" fill="#F1F1F2"/>
<path d="M355.486 291.619C354.241 287.142 340.057 247.848 329.606 238.148C329.108 237.651 323.136 234.915 322.14 234.418C321.892 234.418 321.643 234.169 321.394 233.92C318.905 232.677 314.924 230.936 309.201 229.692C307.956 229.444 306.712 229.195 305.468 228.946C305.966 230.687 295.265 247.101 281.579 247.101C268.141 247.101 257.192 230.936 257.69 229.444C256.694 229.692 255.699 229.941 254.704 230.19C250.473 231.433 245.496 232.925 241.764 234.418C240.768 234.915 239.773 235.413 238.778 235.661C236.787 236.656 234.547 237.651 234.05 238.148C223.349 247.848 213.395 276.697 213.395 276.697C207.672 289.381 209.414 303.308 213.644 305.795C231.561 316.489 240.768 290.624 240.768 290.624C240.519 293.111 240.271 315.743 241.017 328.675C241.764 341.608 243.754 344.592 243.506 344.592C243.506 344.592 299.247 344.841 314.924 344.841C320.399 341.359 321.892 288.883 319.901 273.464C326.122 285.899 332.592 298.831 332.592 298.831L332.094 338.375C336.076 342.603 345.283 340.862 351.753 341.359C354.739 314.748 356.232 294.355 355.486 291.619Z" fill="#2D7BA4"/>
<path d="M252.464 295.847C246.492 291.619 247.487 270.977 247.487 258.542C242.759 275.454 237.782 301.567 217.128 307.785C232.805 313.505 240.768 290.873 240.768 290.873C240.52 293.36 241.017 315.992 241.764 328.924C242.51 341.857 244.003 344.841 243.755 344.841C243.755 344.841 244.999 344.841 246.99 344.841C244.501 327.929 252.464 312.261 252.464 295.847Z" fill="#27698D"/>
<path d="M296.261 222.978C296.261 222.978 297.007 232.926 283.321 237.153C288.796 239.392 295.017 252.076 295.017 252.076C295.017 252.076 304.971 239.64 303.477 228.449C301.238 226.459 296.261 222.978 296.261 222.978Z" fill="white"/>
<path d="M267.146 222.978C267.146 222.978 265.902 233.174 279.588 237.402C274.114 239.64 272.87 253.816 272.87 253.816C272.87 253.816 256.446 240.387 260.676 228.449C262.916 226.459 267.146 222.978 267.146 222.978Z" fill="white"/>
<path d="M281.33 359.763C281.33 359.763 217.875 339.369 197.221 345.587C176.567 351.556 171.839 386.125 243.257 395.327C314.675 404.529 311.689 403.783 311.689 403.783C311.689 403.783 323.634 381.151 313.182 369.462C295.763 363.245 281.33 359.763 281.33 359.763Z" fill="#092A40"/>
<path d="M307.956 183.434C307.956 198.356 302.482 207.807 297.754 214.77C292.777 222.231 288.298 223.723 281.081 226.21C263.413 231.931 258.436 230.19 254.206 222.977C252.215 219.744 247.736 208.055 248.731 200.594C249.229 197.361 248.482 191.641 249.229 179.206C249.975 159.31 266.399 154.087 281.33 154.087C295.763 154.336 307.956 163.538 307.956 183.434Z" fill="#FFE0C4"/>
<path d="M309.698 209.05C306.712 214.024 303.228 217.755 298.003 217.257C298.251 212.283 298.252 207.558 298.5 202.584C298.5 200.097 298.749 197.361 297.505 194.874C296.51 192.636 294.021 190.646 291.284 191.144C289.293 191.641 288.049 193.382 287.053 195.123C286.058 196.864 285.312 198.853 283.819 200.097C283.819 196.864 282.325 193.631 279.837 191.392C277.597 189.403 273.118 190.398 270.132 190.149C264.906 189.651 259.432 190.149 254.206 189.154C249.478 188.159 244.75 186.418 242.51 182.19C240.271 178.46 239.524 177.216 241.515 173.237C243.506 169.258 247.985 168.263 251.469 165.527C255.45 162.294 260.676 155.082 264.658 151.849C276.104 143.144 287.054 146.875 291.284 147.87C293.026 148.367 295.017 149.113 296.51 150.108C297.007 150.357 299.993 153.839 299.745 153.839C306.712 152.098 317.91 157.072 318.159 170.999C318.159 177.962 318.906 194.128 309.698 209.05Z" fill="#092A40"/>
<path d="M257.441 397.565C257.939 397.814 249.727 378.664 249.727 378.664H248.98L230.566 384.633C230.815 384.633 230.815 384.882 231.064 384.882C230.815 384.633 230.815 384.633 230.566 384.633L229.819 384.882C229.819 384.882 229.073 384.882 227.58 384.882C225.838 385.628 224.096 387.369 224.096 387.369C222.603 395.327 228.575 399.804 235.294 402.042C236.289 401.544 237.036 401.296 237.036 401.296C237.036 401.296 256.943 397.565 257.441 397.565Z" fill="white"/>
<path d="M224.096 386.871C224.096 386.871 225.838 385.13 227.58 384.384C219.865 384.135 194.483 383.638 189.506 386.622C183.534 390.104 180.797 393.337 180.797 396.57C181.046 399.804 184.53 410.995 204.686 408.508C220.612 406.767 237.036 404.031 235.045 401.296C228.575 399.306 222.603 394.581 224.096 386.871Z" fill="#27698D"/>
<path d="M235.543 402.042C232.308 401.047 229.322 399.555 227.082 397.317C217.626 400.55 209.663 400.052 200.207 400.052C199.211 398.809 197.967 392.591 199.709 391.348C204.686 387.866 218.372 388.861 224.096 387.617C224.096 387.617 225.838 385.876 227.58 385.13C219.865 384.881 194.483 384.384 189.506 387.369C183.534 390.85 180.797 394.083 180.797 397.317C181.046 400.55 184.53 411.741 204.686 409.254C220.861 407.265 237.533 404.778 235.543 402.042Z" fill="#2D7BA4"/>
<path d="M190.502 386.622C190.253 386.622 190.004 386.871 189.755 386.871C183.783 390.353 181.046 393.586 181.046 396.819C181.046 399.306 183.037 405.772 191.995 408.259C192.493 401.296 193.488 393.835 190.502 386.622Z" fill="#F1F2F2"/>
<path d="M221.856 386.622L215.635 400.798" stroke="white" stroke-width="0.4936" stroke-miterlimit="10" stroke-linecap="round" stroke-linejoin="round"/>
<path d="M216.381 387.617L210.409 400.55" stroke="white" stroke-width="0.4936" stroke-miterlimit="10" stroke-linecap="round" stroke-linejoin="round"/>
<path d="M209.911 388.363L205.183 400.798" stroke="white" stroke-width="0.4936" stroke-miterlimit="10" stroke-linecap="round" stroke-linejoin="round"/>
<path d="M202.944 388.363L199.211 400.798" stroke="white" stroke-width="0.4936" stroke-miterlimit="10" stroke-linecap="round" stroke-linejoin="round"/>
<path d="M224.593 400.301L215.635 387.369" stroke="white" stroke-width="0.4936" stroke-miterlimit="10" stroke-linecap="round" stroke-linejoin="round"/>
<path d="M218.87 400.301L210.658 388.612" stroke="white" stroke-width="0.4936" stroke-miterlimit="10" stroke-linecap="round" stroke-linejoin="round"/>
<path d="M212.4 400.55L205.432 388.861" stroke="white" stroke-width="0.4936" stroke-miterlimit="10" stroke-linecap="round" stroke-linejoin="round"/>
<path d="M205.681 401.545L199.46 389.607" stroke="white" stroke-width="0.4936" stroke-miterlimit="10" stroke-linecap="round" stroke-linejoin="round"/>
<path d="M278.344 359.266C278.344 359.266 341.799 338.872 362.454 345.09C383.108 351.058 387.836 385.628 316.417 394.83C244.999 404.032 247.985 403.286 247.985 403.286C247.985 403.286 236.041 380.654 246.492 368.965C263.911 362.747 278.344 359.266 278.344 359.266Z" fill="#092A40"/>
<path d="M350.011 341.359C349.513 344.592 348.269 348.82 345.532 350.064C341.55 352.053 335.827 353.048 332.343 356.032C330.85 357.525 329.606 359.265 328.61 361.255C328.362 361.752 328.113 362.25 327.615 362.499C327.117 362.747 326.62 362.996 326.122 362.996C325.375 362.747 325.127 361.504 325.127 360.509C325.127 360.758 322.389 362.25 321.892 362.499C320.647 363.245 319.652 364.239 318.159 364.737C317.661 364.737 317.412 364.737 316.915 364.488C316.666 364.239 316.666 363.991 316.666 363.742C316.417 362.001 316.417 360.26 316.417 358.519C316.417 356.53 316.417 354.789 317.412 353.048C319.154 349.566 322.887 347.825 326.122 346.084C333.587 342.354 332.094 339.121 332.343 339.369C336.822 342.105 344.288 341.11 350.011 341.359Z" fill="#FFE0C4"/>
<path d="M238.529 240.138C238.529 240.138 238.529 224.469 243.755 227.951L244.75 227.205C245.248 226.956 245.497 226.708 245.994 226.459C246.741 225.962 247.487 225.216 248.234 224.469C249.727 222.977 250.971 221.485 252.215 219.744C252.713 219.247 253.211 218.501 253.957 218.749C254.455 218.749 254.704 219.247 254.953 219.495C255.202 219.993 255.202 220.242 254.953 220.739C254.455 222.729 252.962 224.469 251.967 226.21C252.713 226.459 253.709 226.459 254.455 227.205C255.202 227.703 255.45 228.697 255.202 229.443C256.197 229.692 257.192 229.941 257.69 230.687C258.437 231.433 258.437 232.677 257.939 233.671C258.934 233.671 259.681 234.666 259.93 235.412C260.179 236.407 259.681 237.402 259.432 238.148C258.934 239.391 257.939 240.635 257.192 241.879C256.446 242.873 255.45 243.868 254.455 244.614C252.962 245.858 251.469 247.35 249.727 248.593C248.981 249.091 248.234 249.588 247.487 250.086L238.529 240.138Z" fill="#FFE0C4"/>
<path d="M210.16 288.385C214.142 273.712 221.856 260.282 234.049 238.148C246.741 237.651 254.206 248.345 254.206 248.345C254.206 248.345 242.51 281.919 236.289 296.344C230.068 310.769 220.363 309.028 219.119 308.779C218.123 308.282 205.432 306.541 210.16 288.385Z" fill="#458FB6"/>
<path d="M403.591 180.572C401.293 178.484 397.533 178.693 395.444 180.989C393.356 183.286 393.565 187.043 395.862 189.131C398.16 191.218 401.92 191.01 404.008 188.713C406.097 186.417 405.888 182.66 403.591 180.572Z" fill="#9FCBDB"/>
<path d="M430.952 179.11C429.281 177.648 426.984 177.857 425.521 179.318C424.059 180.989 424.268 183.285 425.73 184.746C427.401 186.207 429.699 185.999 431.161 184.537C432.623 182.867 432.623 180.571 430.952 179.11Z" fill="#9FCBDB"/>
<path d="M441.187 154.686C440.142 153.642 438.471 153.851 437.636 154.895C436.591 155.939 436.8 157.609 437.845 158.444C438.889 159.488 440.56 159.279 441.396 158.235C442.231 157.191 442.231 155.521 441.187 154.686Z" fill="#9FCBDB"/>
<path d="M399.413 183.285L428.237 181.197L427.61 181.615L439.307 156.565L429.072 182.241V182.659L428.445 182.867L399.831 186.625L399.413 183.285Z" fill="#9FCBDB"/>
<path d="M238.031 114.295C229.57 117.777 225.34 127.227 228.575 135.683C231.81 144.139 241.515 148.367 249.975 145.134C258.436 141.901 262.667 132.201 259.432 123.745C256.197 115.041 246.492 111.062 238.031 114.295ZM252.713 134.937C252.215 136.18 251.22 137.424 249.727 138.419L250.473 140.16C250.722 140.657 250.722 141.154 250.473 141.652C250.224 142.149 249.975 142.398 249.478 142.647C248.98 142.895 248.482 142.895 248.234 142.647C247.736 142.398 247.487 142.149 247.238 141.652L246.492 139.662C245.496 139.911 244.501 140.16 243.506 140.16C242.51 140.16 241.515 139.911 240.519 139.662C239.773 139.414 239.524 138.916 239.275 138.419C239.026 137.921 239.026 137.673 239.275 137.175C239.524 136.678 239.773 136.429 240.271 136.18C240.519 135.932 241.017 135.932 241.266 136.18C242.012 136.429 242.759 136.678 243.257 136.678C243.754 136.678 244.501 136.678 245.247 136.429L243.008 130.958C239.026 131.704 236.538 130.709 235.294 127.476C234.796 125.984 234.796 124.491 235.294 122.999C236.04 121.507 237.036 120.512 238.529 119.517L238.28 118.523C238.031 118.025 238.031 117.528 238.28 117.03C238.529 116.533 238.777 116.284 239.275 116.036C239.773 115.787 240.271 115.787 240.519 116.036C241.017 116.284 241.266 116.533 241.515 117.03L242.012 118.025C243.754 117.777 245.247 117.777 246.492 118.274C247.238 118.523 247.736 118.771 247.985 119.517C248.234 120.015 248.234 120.264 247.985 120.761C247.736 121.258 247.487 121.507 246.989 121.756C246.741 121.756 246.492 121.756 246.243 121.756C245.496 121.507 244.501 121.507 243.506 121.507L245.496 126.73C247.487 126.481 248.98 126.481 250.224 126.978C251.469 127.476 252.215 128.471 252.962 130.212C253.21 132.201 253.21 133.445 252.713 134.937ZM246.741 130.709L248.482 134.937C248.98 134.44 249.229 133.942 249.478 133.445C249.727 132.947 249.727 132.45 249.478 132.201C249.229 131.704 248.98 131.206 248.482 130.958C247.985 130.709 247.487 130.709 246.741 130.709ZM238.529 126.232C238.777 126.73 239.275 127.227 239.773 127.476C240.271 127.725 241.017 127.725 241.764 127.725L240.022 122.999C239.275 123.497 238.777 123.994 238.529 124.491C238.529 125.238 238.529 125.735 238.529 126.232Z" fill="white"/>
<path d="M187.336 309.852H181.612V304.132C181.612 302.391 180.368 301.147 178.626 301.147C176.884 301.147 175.64 302.391 175.64 304.132V309.852H169.917C168.175 309.852 166.931 311.095 166.931 312.836C166.931 314.577 168.175 315.821 169.917 315.821H175.64V321.541C175.64 323.282 176.884 324.525 178.626 324.525C180.368 324.525 181.612 323.282 181.612 321.541V315.821H187.336C189.078 315.821 190.322 314.577 190.322 312.836C190.322 311.095 188.829 309.852 187.336 309.852Z" fill="white"/>
<path opacity="0.6" d="M429.438 91.6837C428.691 93.4246 427.447 94.9169 425.954 96.4091C424.461 97.6526 423.216 98.3987 421.723 98.3987C420.479 98.3987 419.733 98.15 418.986 97.6526C418.24 97.1552 417.991 96.4091 417.991 95.4143C417.991 94.6682 418.24 93.9221 418.488 93.6733C418.986 93.4246 419.235 93.1759 419.733 92.9272C420.23 92.6785 420.479 92.6785 420.728 92.4298C422.221 91.6837 422.968 90.6889 422.968 89.4454C422.968 88.948 422.719 88.4506 422.221 87.9532C421.723 87.4558 420.977 87.2071 420.23 87.2071C419.484 87.2071 418.737 87.4558 417.991 87.7045C417.493 87.4558 416.995 87.2071 416.498 86.7097C416.249 86.2123 416 85.7149 416 84.9688C416 83.974 416.498 82.9792 417.244 81.9844C417.991 80.9896 418.986 80.4922 419.982 79.7461C421.226 79.2487 422.221 79 423.216 79C425.456 79 427.198 79.7461 428.442 80.9896C429.686 82.4818 430.433 84.4714 430.433 86.9584C430.682 88.4506 430.433 89.9428 429.438 91.6837ZM446.359 91.6837C445.612 93.4246 444.368 94.9169 442.875 96.4091C441.382 97.6526 440.138 98.3987 438.645 98.3987C437.401 98.3987 436.654 98.15 435.908 97.6526C435.161 97.1552 434.912 96.4091 434.912 95.4143C434.912 94.6682 435.161 93.9221 435.41 93.6733C435.908 93.4246 436.156 93.1759 436.654 92.9272C437.152 92.6785 437.401 92.6785 437.649 92.4298C439.143 91.6837 439.889 90.6889 439.889 89.4454C439.889 88.948 439.64 88.4506 439.143 87.9532C438.645 87.4558 437.898 87.2071 437.152 87.2071C436.405 87.2071 435.659 87.4558 434.912 87.7045C434.414 87.4558 433.917 87.2071 433.419 86.7097C433.419 86.2123 433.17 85.7149 433.17 84.9688C433.17 83.974 433.668 82.9792 434.414 81.9844C435.161 80.9896 436.156 80.4922 437.152 79.7461C438.396 79.2487 439.391 79 440.387 79C442.626 79 444.368 79.7461 445.612 80.9896C446.857 82.4818 447.603 84.4714 447.603 86.9584C447.603 88.4506 447.106 89.9428 446.359 91.6837Z" fill="#72B1C9"/>
</g>
<defs>
<linearGradient id="paint0_linear" x1="505" y1="158.933" x2="53.2746" y2="78.3438" gradientUnits="userSpaceOnUse">
<stop stop-color="#39D8F2"/>
<stop offset="1" stop-color="#157BD3"/>
</linearGradient>
<linearGradient id="paint1_linear" x1="44.9998" y1="289.624" x2="376.229" y2="318.775" gradientUnits="userSpaceOnUse">
<stop stop-color="#39D8F2"/>
<stop offset="1" stop-color="#157BD3"/>
</linearGradient>
<clipPath id="clip0">
<rect width="323" height="335" fill="white" transform="translate(137 75)"/>
</clipPath>
</defs>
</svg>
