<svg width="352" height="456" viewBox="0 0 352 456" fill="none" xmlns="http://www.w3.org/2000/svg">
<g filter="url(#filter0_d)">
<rect x="14" y="14" width="324" height="428" rx="16" fill="white"/>
</g>
<mask id="mask0" mask-type="alpha" maskUnits="userSpaceOnUse" x="14" y="14" width="324" height="428">
<rect x="14" y="14" width="324" height="428" rx="16" fill="white"/>
</mask>
<g mask="url(#mask0)">
<path opacity="0.07" d="M101.446 55.4731C115.817 43.6306 121.648 8.00734 107.052 -5.07874C92.4558 -18.1648 64.1016 -17.649 48.5953 -2.9253C33.0889 11.7984 34.4017 35.2193 45.8024 51.0251C57.203 66.8308 87.0736 67.3156 101.446 55.4731Z" fill="url(#paint0_linear)"/>
</g>
<path opacity="0.07" d="M300 356.579C314.993 344.224 320.227 313.947 305 300.295C289.773 286.643 261.966 284.934 245.789 300.295C229.612 315.655 231.106 334.011 243 350.5C254.894 366.989 285.006 368.933 300 356.579Z" fill="url(#paint1_linear)"/>
<path opacity="0.07" d="M313.696 370.691C322.216 363.671 327.897 345.754 317.809 336.074C307.721 326.394 291.56 327.346 282.368 336.074C273.176 344.802 273.954 358.685 280.712 368.055C287.47 377.424 305.177 377.711 313.696 370.691Z" fill="url(#paint2_linear)"/>
<defs>
<filter id="filter0_d" x="0" y="0" width="352" height="456" filterUnits="userSpaceOnUse" color-interpolation-filters="sRGB">
<feFlood flood-opacity="0" result="BackgroundImageFix"/>
<feColorMatrix in="SourceAlpha" type="matrix" values="0 0 0 0 0 0 0 0 0 0 0 0 0 0 0 0 0 0 127 0"/>
<feOffset/>
<feGaussianBlur stdDeviation="7"/>
<feColorMatrix type="matrix" values="0 0 0 0 0 0 0 0 0 0 0 0 0 0 0 0 0 0 0.1 0"/>
<feBlend mode="normal" in2="BackgroundImageFix" result="effect1_dropShadow"/>
<feBlend mode="normal" in="SourceGraphic" in2="effect1_dropShadow" result="shape"/>
</filter>
<linearGradient id="paint0_linear" x1="92.0352" y1="-25.0412" x2="120.074" y2="53.639" gradientUnits="userSpaceOnUse">
<stop stop-color="#86F5FC"/>
<stop offset="1" stop-color="#005B8E"/>
</linearGradient>
<linearGradient id="paint1_linear" x1="288.779" y1="278.388" x2="316.008" y2="356.162" gradientUnits="userSpaceOnUse">
<stop stop-color="#86F5FC"/>
<stop offset="1" stop-color="#005B8E"/>
</linearGradient>
<linearGradient id="paint2_linear" x1="308.04" y1="323" x2="324.639" y2="369.659" gradientUnits="userSpaceOnUse">
<stop stop-color="#86F5FC"/>
<stop offset="1" stop-color="#005B8E"/>
</linearGradient>
</defs>
</svg>
