<svg width="320" height="506" viewBox="0 0 320 506" fill="none" xmlns="http://www.w3.org/2000/svg">
<path opacity="0.8" d="M79.4873 351.092C178.034 375.624 257.451 348.372 319.651 316.853L319.651 -0.500001L-0.349146 -0.500095L-0.349158 318.815C23.1686 332.12 49.2679 343.569 79.4873 351.092Z" fill="url(#paint0_linear)"/>
<path opacity="0.9" d="M319.652 -0.499942L0.151374 -0.499949L0.151598 376C25.5031 392.001 73.0029 387.334 154.503 333.001C236.002 278.668 319.652 274.001 319.652 274.001L319.652 -0.499942Z" fill="url(#paint1_linear)"/>
<path d="M88.9999 404.5C146 384.489 192.999 308.499 319.652 290L319.651 -0.500054L-0.348353 -0.500859L-0.348118 404.501C-0.348118 404.501 31.9997 424.511 88.9999 404.5Z" fill="url(#paint2_linear)"/>
<g opacity="0.8">
<mask id="mask0" mask-type="alpha" maskUnits="userSpaceOnUse" x="0" y="-1" width="320" height="362">
<path opacity="0.9" d="M0.499655 319.501C81.4999 366.501 157.5 360.001 157.5 360.001C157.5 360.001 243.851 359.499 319.999 316.5L320 -0.499891L-0.000113117 -0.500002L0.499655 319.501Z" fill="#EB5757"/>
</mask>
<g mask="url(#mask0)">
<path d="M-142.728 -280.548C32.4802 -266.78 85.2444 138.813 260.26 150.523C318.599 154.479 372.901 173.786 430.279 189.61C531.771 217.621 632.975 188.503 732.16 150.998C731.775 218.728 729.565 286.459 727.354 354.19C725.624 406.57 726.874 460.375 723.702 512.439C718.128 604.065 635.666 553.267 626.92 644.102C498.517 643.152 370.595 620.206 242.192 615.459C83.2262 609.604 16.1415 289.466 -142.824 277.913C-139.955 209.189 -127.153 209.552 -109.276 179.739C-93.8256 156.834 -93.6875 137.155 -102.433 106.297C-138.631 -5.321 -141.094 -151.416 -142.728 -280.548Z" stroke="#56CCF2" stroke-miterlimit="10"/>
<path d="M-147.774 260.355C-105.871 261.938 -70.1176 276.18 -36.383 318.591C-6.10843 356.571 21.2829 399.773 51.077 438.702C106.244 510.705 156.99 593.153 231.764 595.527C291.928 597.426 352.285 596.793 412.354 602.331C482.514 608.82 551.521 625.911 622.066 627.018" stroke="#56CCF2" stroke-miterlimit="10"/>
<path d="M-145.855 247.221C-104.336 246.904 -70.3131 252.443 -37.6358 298.177C-8.80282 338.531 18.5885 382.365 49.5359 418.13C107.106 484.911 152.758 577.803 228.685 580.335C290.003 582.392 351.609 577.961 412.831 581.918C443.298 583.817 470.978 592.679 501.06 600.749C541.234 611.51 584.099 614.042 624.753 615.15" stroke="#56CCF2" stroke-miterlimit="10"/>
<path d="M-143.356 236.776C-102.125 234.56 -69.8324 232.187 -37.9239 281.402C-10.5326 323.655 17.2431 368.439 49.0555 401.513C108.644 463.23 150.067 565.934 226.955 568.466C260.209 569.574 293.943 572.739 327.197 571.473C356.319 570.365 385.056 564.351 414.273 565.459C445.989 566.883 472.131 577.644 503.078 588.089C542.964 601.698 587.655 604.863 628.31 606.446" stroke="#56CCF2" stroke-miterlimit="10"/>
<path d="M-139.704 226.332C-98.8574 222.059 -68.3906 210.348 -37.3471 263.995C-11.6858 308.146 16.8588 354.513 49.4401 384.106C81.6369 413.382 103.358 460.857 133.344 495.514C163.042 529.695 188.799 555.332 225.994 556.756C259.921 558.022 294.52 562.136 328.351 559.604C358.145 557.389 387.074 548.21 416.868 548.843C431.669 549.16 446.085 546.628 460.694 552.167C476.264 558.022 490.969 569.258 506.346 576.062C545.655 593.153 592.845 596.793 633.211 598.692" stroke="#56CCF2" stroke-miterlimit="10"/>
<path d="M-135.379 216.837C-96.07 210.665 -66.6604 188.827 -36.8663 245.638C-11.3011 294.379 18.2046 341.854 53.5731 370.022C86.4426 396.133 107.395 447.247 136.612 482.854C165.253 517.827 189.665 545.204 226.475 546.153C260.594 547.103 295.77 552.641 329.697 549.16C359.491 545.995 388.324 531.911 418.31 533.019C435.129 533.651 450.699 529.379 467.23 537.133C482.8 544.412 497.024 558.022 512.594 565.618C530.086 574.321 548.539 574.163 566.608 578.594C591.019 584.608 615.143 590.463 639.843 592.045" stroke="#56CCF2" stroke-miterlimit="10"/>
<path d="M-130.479 208.098C-113.18 204.459 -96.8391 191.042 -79.5393 189.301C-60.1251 187.402 -46.1892 206.076 -34.9444 230.13C-11.013 280.927 19.2616 329.826 55.495 354.513C89.7101 377.776 109.893 432.688 138.918 469.719C167.367 505.958 189.857 535.708 227.339 536.974C261.939 538.082 298.268 544.412 332.676 539.981C363.046 536.025 391.976 518.301 422.635 518.934C439.838 519.409 455.408 513.712 472.131 522.732C487.893 531.277 501.925 547.102 517.591 556.123C535.083 566.092 554.017 565.934 572.278 570.998C597.074 577.961 621.39 585.082 646.57 586.823" stroke="#56CCF2" stroke-miterlimit="10"/>
<path d="M-125.403 200.464C-108.007 195.874 -93.1872 179.332 -76.1757 175.217C-56.6654 170.47 -43.0178 190.726 -32.5418 215.571C-10.1482 268.426 20.8953 318.749 58.0898 340.113C93.6504 360.527 113.161 419.079 142.09 457.534C170.346 495.039 191.106 527.322 229.165 528.588C264.342 529.854 301.632 537.133 336.616 531.594C367.564 526.689 396.493 505.167 427.921 505.8C445.509 506.116 461.078 498.837 477.994 509.44C493.948 519.409 507.692 537.291 523.55 547.578C541.138 559.13 560.36 558.655 578.813 564.352C603.898 572.264 628.406 580.493 654.067 582.551" stroke="#56CCF2" stroke-miterlimit="10"/>
<path d="M-120.766 193.919C-103.178 188.38 -89.8207 169.204 -72.9053 162.874C-53.395 155.594 -39.8435 177.433 -30.1364 202.753C-17.8344 234.719 -0.438475 257.665 14.9391 285.675C28.1062 309.729 42.0421 318.275 60.8796 327.453C97.4014 345.019 116.623 407.369 145.456 446.931C173.52 485.544 192.742 520.042 231.379 521.467C267.035 522.733 305.287 530.961 340.656 524.473C372.18 518.776 401.013 493.931 433.113 494.248C451.086 494.406 466.559 485.86 483.763 497.571C499.91 508.648 513.461 528.43 529.415 540.14C546.907 552.958 566.514 552.325 585.255 558.655C610.628 567.359 635.328 576.695 661.374 579.069" stroke="#56CCF2" stroke-miterlimit="10"/>
<path d="M-115.691 186.648C-97.2383 179.685 -83.2874 151.322 -65.411 146.574C-45.0357 141.194 -34.2714 171.736 -25.1409 195.948C-14.1844 224.907 2.15425 245.005 15.6096 271.116C28.5845 296.278 41.9437 305.14 60.9735 312.577C69.9117 316.059 81.541 317.167 89.2298 326.82C97.1108 336.631 102.781 354.672 109.028 367.015C121.907 392.968 135.266 415.281 150.644 436.961C178.9 476.682 194.47 511.971 234.163 513.87C269.724 515.611 308.937 523.84 344.017 517.035C377.848 510.547 407.546 481.904 442.145 482.062C458.195 482.22 471.939 472.725 487.413 483.012C503.751 493.931 517.111 514.82 532.296 529.22C550.941 546.628 572.854 545.362 593.422 553.274C618.795 562.928 643.303 573.056 669.445 575.746" stroke="#56CCF2" stroke-miterlimit="10"/>
<path d="M-111.349 179.807C-92.3189 171.578 -80.209 139.453 -62.1404 132.648C-41.4768 124.736 -31.0969 158.126 -22.7353 182.497C-12.3555 212.722 4.46374 232.978 17.9191 259.722C30.9901 285.834 44.4454 293.271 64.0519 299.285C73.0862 301.975 85.3882 301.975 93.077 311.47C101.054 321.281 106.629 340.271 112.683 352.931C125.562 379.992 139.018 403.096 154.683 425.726C182.844 466.712 196.683 504.376 237.242 506.591C256.368 507.541 275.494 507.066 294.523 507.857C312.88 508.49 330.468 513.871 349.018 509.756C383.521 502.16 412.931 470.036 448.491 469.877C464.83 469.877 478.574 459.116 494.143 470.51C510.77 482.537 523.841 505.483 539.123 521.308C557.672 540.456 579.97 539.032 600.729 547.578C626.391 558.18 651.091 569.416 677.617 572.423" stroke="#56CCF2" stroke-miterlimit="10"/>
<path d="M-106.862 172.468C-86.9676 162.656 -78.097 128.692 -59.9322 119.039C-39.7491 108.12 -28.9848 141.194 -21.3921 166.355C-11.8773 198.005 4.84585 217.47 18.2051 245.005C32.9099 275.547 46.7498 281.877 70.1044 286.466C80.3882 288.524 89.7108 288.049 97.688 299.126C104.031 307.83 108.644 321.756 113.546 332.675C127.866 364.167 142.571 389.645 159.775 416.389C186.878 458.325 200.237 497.571 240.507 499.311C259.633 500.103 278.759 499.311 297.789 500.419C316.242 501.527 334.214 507.066 352.667 502.793C387.363 494.88 416.1 459.907 451.661 457.692C470.114 456.584 485.395 444.082 502.407 459.274C518.841 473.992 531.432 497.729 546.905 514.662C564.686 534.126 588.425 533.018 608.704 542.039C634.365 553.433 658.777 565.46 685.496 568.783" stroke="#56CCF2" stroke-miterlimit="10"/>
<path d="M-103.331 165.196C-82.5713 153.802 -75.9827 116.664 -57.5296 104.637C-37.1543 91.3445 -26.5823 126.634 -19.5662 152.27C-10.5319 185.186 6.57564 204.651 20.031 233.136C34.928 264.627 48.9601 269.691 72.9876 272.382C83.4635 273.648 93.1706 272.065 101.34 283.459C107.779 292.321 112.296 306.88 117.198 317.957C131.615 350.557 146.512 376.984 164.004 404.836C191.107 448.038 202.832 489.816 244.063 491.556C263.381 492.348 282.795 491.398 302.113 492.664C320.951 493.772 339.116 499.785 357.953 495.038C393.322 486.018 421.578 447.563 458.004 444.873C476.745 443.449 492.027 429.523 509.134 445.981C525.761 461.964 538.063 487.442 553.537 506.115C571.029 527.162 595.248 525.738 615.72 535.55C641.573 547.893 666.178 561.028 693.184 564.509" stroke="#56CCF2" stroke-miterlimit="10"/>
<path d="M-100.901 157.925C-78.9883 144.632 -74.9237 107.644 -56.0862 91.1865C-36.0953 73.6209 -24.8505 114.449 -18.6033 139.136C-9.95343 173.318 7.44247 192.624 21.0901 221.9C36.1793 254.5 50.4036 258.139 75.1038 259.247C85.8681 259.722 95.7674 257.348 104.129 268.742C110.664 277.604 115.182 292.796 119.987 304.032C134.5 337.739 149.685 364.958 167.273 393.759C194.376 438.069 204.756 482.062 246.852 483.961C266.362 484.911 285.969 483.803 305.575 485.069C324.701 486.335 343.058 492.665 362.184 487.442C398.225 477.473 425.905 435.853 463.099 432.53C482.033 430.948 497.411 415.756 514.518 433.321C531.337 450.412 543.351 477.631 558.825 497.57C576.125 519.884 600.729 518.459 621.392 528.904C647.438 542.038 672.042 556.123 699.434 559.762" stroke="#56CCF2" stroke-miterlimit="10"/>
<path d="M-99.1455 149.422C-76.4636 134.389 -74.4453 96.4088 -55.8961 76.3112C-36.4819 55.4223 -24.7565 95.9341 -18.8938 120.937C-10.34 157.493 8.11311 183.921 23.6829 214.146C37.5227 241.048 52.5159 244.372 73.3717 244.055C84.4243 243.897 94.5159 240.415 104.031 249.119C113.161 257.665 118.255 277.921 124.214 291.846C138.823 326.186 154.585 353.722 172.269 383.314C199.276 428.574 206.868 472.409 249.637 474.941C269.244 476.048 288.85 475.415 308.456 475.89C329.985 476.365 349.495 484.594 371.12 476.681C407.45 463.23 433.399 422.085 471.747 417.971C488.086 416.23 502.022 401.038 517.303 414.648C536.333 431.58 549.116 466.553 565.646 488.867C582.177 511.18 608.127 510.23 628.214 520.833C654.164 534.601 678.479 549.476 705.871 553.274" stroke="#56CCF2" stroke-miterlimit="10"/>
<path d="M-98.4717 139.766C-75.0209 122.675 -74.8286 82.4798 -56.0872 59.8502C-36.5769 36.2711 -24.8515 78.9984 -19.3733 104.635C-11.3 142.456 7.53751 169.2 23.3956 200.217C37.5238 227.911 53.0936 229.81 74.3339 228.069C85.5787 227.12 96.1508 222.53 105.954 231.234C115.277 239.621 120.371 260.827 126.233 275.069C141.034 310.675 157.181 338.844 175.057 369.544C186.975 389.958 194.856 415.278 206.197 436.167C219.075 459.746 233.396 463.702 252.233 464.81C272.032 465.918 291.83 465.285 311.629 465.759C333.542 466.234 353.149 474.938 375.062 466.234C411.968 451.359 437.149 407.049 476.361 402.301C492.892 400.244 506.828 383.786 522.014 398.187C541.236 416.386 553.634 453.574 570.069 477.153C586.311 500.574 612.741 499.625 632.828 511.019C658.874 525.736 683.286 541.402 710.966 545.517" stroke="#56CCF2" stroke-miterlimit="10"/>
<path d="M-99.3564 129.202C-75.6173 110.687 -76.3654 69.1898 -58.1045 43.0787C-35.4226 10.7958 -24.5622 70.2975 -19.8528 96.0921C-13.7018 129.957 7.15405 154.011 20.5133 181.388C37.2364 215.728 52.1335 213.513 77.8909 209.873C87.7902 208.449 101.726 201.803 110.376 213.513C116.047 221.109 120.468 239.466 124.504 249.436C139.017 285.358 154.298 317.166 173.04 347.075C187.456 370.18 195.145 400.089 208.408 424.301C221.287 447.88 235.799 452.311 254.541 453.102C274.147 453.893 293.85 452.786 313.456 453.735C335.369 454.685 355.072 463.388 376.889 454.052C412.738 438.701 438.495 386.637 476.843 384.105C494.912 382.998 511.923 364.324 527.685 381.574C546.619 402.462 558.056 439.967 574.779 465.129C589.484 487.126 611.589 485.385 630.042 495.196C658.971 510.705 684.344 530.486 715.003 535.233" stroke="#56CCF2" stroke-miterlimit="10"/>
<path d="M-101.547 116.981C-77.2311 96.4082 -79.4416 52.7314 -61.1807 24.2466C-38.4027 -11.2012 -27.5423 51.3072 -23.1212 77.5766C-17.3546 112.233 4.17396 136.762 17.7254 164.772C34.833 200.061 50.4028 196.263 76.6408 191.041C86.6362 188.984 101.245 181.072 110.183 192.94C115.854 200.536 120.371 219.684 124.407 229.654C139.208 266.684 154.778 299.442 173.904 330.459C188.705 354.354 196.009 385.055 209.176 410.533C221.959 435.22 236.471 439.651 255.597 440.442C275.396 441.233 295.098 439.967 314.897 440.759C337.098 441.708 356.897 450.886 378.906 440.759C415.14 424.142 440.032 368.28 479.245 365.274C497.41 363.849 514.421 343.91 530.087 361.95C549.117 384.105 560.169 423.509 576.7 450.095C591.117 473.2 613.414 471.142 631.963 481.587C660.989 497.886 686.266 518.775 717.213 523.681" stroke="#56CCF2" stroke-miterlimit="10"/>
<path d="M-105.105 104.79C-80.3091 82.4768 -83.4807 36.4263 -65.2199 5.88417C-42.3457 -32.4121 -31.3892 32.7865 -27.2565 59.3724C-21.6821 94.8202 0.423163 119.824 14.263 148.308C31.8511 184.389 48.0936 179.167 74.7161 172.521C84.8076 169.989 100.089 160.81 109.316 172.837C115.082 180.433 119.599 200.214 123.636 210.342C138.629 248.48 154.583 282.029 174.094 313.837C189.279 338.524 196.295 369.699 209.366 396.285C222.053 421.921 236.661 426.352 256.172 427.143C276.066 427.935 295.961 426.51 315.76 427.143C338.249 427.935 358.048 437.588 380.346 426.669C416.963 408.786 440.895 349.76 480.78 346.12C499.041 344.537 516.149 323.332 531.526 342.005C550.652 365.11 561.32 406.413 577.659 434.265C591.691 458.318 614.277 456.103 632.826 466.864C661.947 483.638 687.032 505.635 718.268 510.699" stroke="#56CCF2" stroke-miterlimit="10"/>
<path d="M-109.51 89.572C-85.0979 68.3666 -86.8418 25.3545 -68.7732 -4.55461C-46.8601 -40.7937 -34.2697 14.5936 -29.4642 43.0784C-23.3132 79.7922 1.57925 108.752 16.2841 138.503C31.95 170.311 54.5358 161.607 76.9294 156.385C83.7532 154.802 98.1696 148.156 104.609 154.169C111.817 160.816 119.314 188.351 124.023 199.587C139.209 236.301 154.971 266.051 173.808 297.068C188.032 320.489 196.394 349.291 209.273 373.977C221.863 398.031 237.144 400.88 255.79 401.988C275.3 403.095 294.81 402.779 314.321 403.412C335.849 404.045 355.552 414.173 377.273 405.786C415.717 390.91 439.552 334.099 480.975 332.358C501.735 331.408 512.019 309.095 529.895 332.833C548.348 357.361 558.92 395.499 576.124 422.243C590.348 444.557 613.799 442.816 632.06 453.102C661.469 469.56 687.035 489.816 718.463 494.247" stroke="#56CCF2" stroke-miterlimit="10"/>
<path d="M-114.137 72.8293C-90.0131 52.8899 -89.8209 11.4287 -71.3678 -16.7396C-49.4548 -50.1302 -36.3839 0.825996 -30.8095 29.4691C-23.8896 65.0751 0.618423 93.0852 15.4193 121.728C31.1814 152.429 53.0944 145.466 75.488 141.193C82.4079 139.927 96.2477 134.23 102.687 140.243C109.991 146.89 117.488 172.843 122.39 184.237C137.767 219.526 153.337 248.011 172.174 277.604C186.303 299.758 195.241 327.769 208.6 350.556C221.863 373.186 237.241 375.085 255.598 376.034C274.82 377.142 294.042 377.775 313.264 378.883C334.312 380.149 353.534 390.277 374.87 383.314C412.353 370.97 437.053 319.223 477.035 319.065C497.602 318.907 507.982 298.809 525.763 321.755C544.216 345.492 555.268 382.206 572.76 407.684C587.657 429.364 611.108 427.782 629.657 437.752C659.74 453.735 686.266 472.566 718.271 476.364" stroke="#56CCF2" stroke-miterlimit="10"/>
<path d="M-118.271 53.8395C-94.7246 35.3244 -92.6101 -3.13015 -74.2532 -29.716C-53.5895 -59.7833 -39.077 -18.6386 -32.4454 11.7453C-24.3721 49.2503 -1.88243 70.2974 13.399 100.523C29.1611 131.54 47.4219 129.166 70.7766 126.001C81.6371 124.577 92.7858 119.038 101.916 129.166C110.374 138.661 117.005 159.392 122.868 172.052C138.15 205.6 154.104 232.186 172.653 260.196C186.108 280.61 195.239 307.988 208.694 328.085C222.726 348.974 238.2 349.607 256.269 350.398C276.836 351.348 297.596 352.772 318.067 355.304C338.346 357.678 356.511 367.173 377.079 359.735C410.909 347.55 434.937 306.563 470.882 305.772C488.855 305.297 504.136 290.264 519.706 307.513C538.255 328.085 550.173 362.742 566.607 387.112C583.715 412.432 607.646 411.482 629.079 422.402C659.546 437.752 686.745 454.684 718.942 457.533" stroke="#56CCF2" stroke-miterlimit="10"/>
<path d="M-122.211 33.109C-99.2407 16.0181 -95.3963 -19.4297 -77.0393 -44.4331C-57.0485 -71.4937 -41.5748 -37.7866 -34.1743 -7.24451C-25.0439 30.1023 -4.66861 48.3009 10.9012 78.3683C26.471 108.436 43.0019 110.809 66.1643 109.069C77.9859 108.277 92.8829 102.106 102.974 115.715C108.933 123.786 113.739 138.661 118.448 148.631C133.249 180.122 148.242 208.291 166.984 233.452C181.496 253.075 191.588 279.503 205.524 299.917C220.517 322.072 236.375 323.338 255.885 324.446C275.972 325.553 296.444 326.503 316.53 330.301C336.041 333.941 353.725 342.328 373.716 336.789C408.7 327.294 433.881 290.739 470.595 291.213C489.528 291.53 501.157 277.446 517.881 296.91C535.853 317.799 547.867 350.399 565.167 372.712C582.755 395.5 607.359 395.341 628.599 405.311C659.45 419.87 687.226 434.904 719.615 436.961" stroke="#56CCF2" stroke-miterlimit="10"/>
<path d="M-125.768 10.7958C-103.182 -4.3961 -97.3191 -37.9449 -78.4815 -59.7833C-57.914 -83.6789 -42.3442 -51.5543 -33.8866 -21.6453C-23.795 14.5938 -3.612 33.1089 12.2461 62.7015C28.0081 92.1358 44.4429 96.0921 67.6054 96.4086C79.6191 96.5668 93.9395 91.9776 104.127 105.587C110.182 113.658 115.084 128.058 119.985 138.028C134.978 168.728 150.164 196.106 168.905 220.634C183.514 239.782 194.278 265.419 208.695 284.883C224.361 305.93 240.411 307.355 260.017 308.462C279.72 309.57 299.711 310.678 319.317 314.476C338.251 318.116 355.55 326.186 374.869 321.597C408.699 313.685 434.168 280.769 469.441 282.035C487.894 282.668 499.619 270.166 516.15 288.523C533.93 308.146 546.328 338.846 563.724 359.419C581.793 380.782 606.397 380.307 627.733 389.169C659.065 402.304 687.706 415.439 720.383 416.23" stroke="#56CCF2" stroke-miterlimit="10"/>
<path d="M-128.748 -10.2513C-106.354 -23.386 -98.3773 -54.4029 -79.0593 -73.8675C-58.2995 -94.9146 -41.7686 -67.3793 -32.2538 -37.6284C-20.5284 -0.914652 0.711905 23.9305 18.7806 52.89C35.5037 79.7924 53.0918 82.4826 75.8698 84.6981C104.607 87.3883 109.508 96.4085 127.769 131.698C143.243 161.449 158.813 186.611 177.266 210.981C192.547 231.079 205.041 258.139 221.38 275.705C236.854 292.321 253 292.637 270.877 293.429C289.522 294.22 308.456 297.068 327.005 299.917C345.073 302.607 361.412 311.786 379.961 308.146C411.197 302.132 436.762 269.375 469.151 272.698C485.49 274.281 499.906 263.678 514.611 277.129C534.025 294.853 546.904 328.402 565.453 348.341C583.522 367.648 608.03 366.54 628.79 374.452C659.929 386.321 688.57 397.24 720.863 396.765" stroke="#56CCF2" stroke-miterlimit="10"/>
<path d="M-131.822 -34.4634C-109.525 -45.8574 -98.7605 -74.8169 -78.5774 -91.1166C-56.8565 -108.682 -39.8451 -82.8877 -28.8886 -53.6116C-15.5293 -17.8473 5.99932 7.15608 24.6446 35.7992C41.8483 62.2268 59.7247 66.9742 82.7911 71.0887C92.6904 72.8295 105.473 71.7217 114.315 81.2166C122.773 90.2368 129.308 107.644 136.036 119.829C152.086 148.789 168.137 173.476 186.974 197.055C202.832 216.836 216.48 243.105 233.684 259.722C249.926 275.547 266.553 275.863 284.91 276.813C302.691 277.604 321.048 279.661 338.636 283.301C355.647 286.782 371.409 294.695 388.805 292.004C418.503 287.257 443.011 261.462 473.478 262.254C488.567 262.728 503.368 255.291 517.016 267.476C535.661 284.092 548.54 315.267 566.801 333.308C584.869 351.19 608.897 349.765 629.368 356.57C660.604 366.856 689.437 375.876 721.537 374.294" stroke="#56CCF2" stroke-miterlimit="10"/>
<path d="M-134.61 -59.4669C-112.89 -68.9618 -99.0497 -95.2312 -78.9627 -108.524C-53.2053 -125.457 -37.4433 -93.4904 -23.4112 -62.9483C-9.5714 -32.881 10.6117 -9.93491 27.6231 15.7014C46.9412 44.8193 66.0671 51.9405 91.5362 58.2704C99.1288 60.1694 109.797 60.4859 116.621 66.3412C126.328 74.7284 136.996 98.9405 144.204 111.442C160.447 139.61 176.978 162.557 195.911 185.186C210.809 202.91 223.976 225.698 239.93 241.048C257.71 258.139 275.298 260.196 295.481 261.304C328.159 263.045 362.085 279.661 394.378 276.496C423.788 273.489 448.777 251.493 478.763 253.075C493.948 253.866 505.962 247.22 519.898 259.88C536.044 274.597 548.25 299.6 563.916 315.425C583.523 335.206 608.319 332.833 630.616 339.163C661.564 348.025 690.781 354.671 722.305 351.664" stroke="#56CCF2" stroke-miterlimit="10"/>
<path d="M-137.202 -84.7868C-115.77 -92.6993 -100.008 -115.487 -79.7285 -126.248C-53.8749 -140.016 -37.344 -108.366 -22.6392 -78.7734C-8.03051 -49.1808 11.8642 -26.2346 29.164 -0.440007C48.386 28.3613 67.6079 37.698 92.5965 46.4017C100.189 49.092 110.377 50.358 117.297 56.6879C127.196 65.5499 137.672 88.496 145.265 101.472C161.603 128.85 178.23 151.637 197.164 173.792C212.253 191.358 225.901 213.355 242.24 228.072C260.404 244.53 278.185 246.903 298.56 248.011C330.564 249.752 363.146 264.944 394.862 262.887C423.214 260.988 448.299 242.314 477.132 244.371C491.933 245.479 504.043 239.941 517.786 251.493C533.741 264.944 546.427 287.574 562.189 301.658C582.372 319.54 607.265 316.691 629.658 321.597C661.182 328.56 691.265 333.149 723.173 328.877" stroke="#56CCF2" stroke-miterlimit="10"/>
<path d="M-139.51 -110.265C-117.693 -116.911 -98.3747 -140.965 -76.5578 -144.921C-53.2031 -149.194 -38.4983 -123.4 -24.6585 -96.3389C-8.31981 -64.5309 12.6321 -39.6858 31.2775 -11.0427C47.52 13.9607 65.9731 24.4051 87.0212 34.0583C110.472 44.8193 121.909 58.9034 138.921 87.3883C156.413 116.664 174.193 141.509 194.472 165.247C228.495 205.284 252.138 234.718 295.483 236.459C326.719 237.725 357.955 251.809 388.998 251.018C416.486 250.227 441.763 232.819 469.538 236.459C485.781 238.516 499.044 233.294 514.23 245.163C530.088 257.506 543.447 277.762 559.593 289.314C578.815 303.082 600.44 299.917 620.911 303.082C655.703 308.621 688.957 311.944 723.845 305.772" stroke="#56CCF2" stroke-miterlimit="10"/>
<path d="M-141.434 -133.053C-120.097 -138.433 -99.5297 -158.847 -78.0972 -159.797C-54.9347 -160.746 -40.4221 -136.376 -26.1979 -109.632C3.59617 -53.4535 40.3101 0.193008 83.4635 24.8799C125.848 49.2502 152.566 114.607 188.704 157.493C221.958 196.897 246.754 226.331 289.139 228.072C320.278 229.338 351.322 241.681 382.173 241.523C409.564 241.365 435.418 226.964 463.001 230.762C479.244 232.977 492.988 228.705 508.461 239.149C524.608 250.227 538.832 267.951 555.363 277.92C575.354 290.105 597.555 286.307 618.507 288.365C654.356 292.004 688.859 292.954 724.612 285.516" stroke="#56CCF2" stroke-miterlimit="10"/>
<path d="M-143.258 -158.056C-122.498 -161.854 -101.45 -177.362 -80.5942 -176.096C-55.894 -174.514 -40.5164 -146.662 -25.331 -117.861C-10.6262 -89.8506 8.4035 -67.854 24.3577 -41.5846C39.5431 -16.5813 55.8818 -1.07288 75.5843 13.1695C117.777 43.7116 145.072 106.378 182.074 151.163C213.79 189.617 239.259 217.153 279.722 219.368C311.918 221.109 344.211 231.553 376.216 231.553C403.607 231.553 429.557 221.425 457.044 225.065C473.383 227.281 487.127 224.116 502.889 233.611C519.323 243.58 534.413 258.297 551.424 266.052C572.28 275.547 595.154 271.274 616.587 272.065C653.301 273.489 689.053 271.749 725.479 262.728" stroke="#56CCF2" stroke-miterlimit="10"/>
<path d="M-144.893 -182.426C-124.613 -184.958 -103.373 -195.878 -82.9978 -191.921C-59.3548 -187.332 -43.5928 -161.854 -28.5996 -133.844C0.13722 -80.1975 34.6407 -28.1336 72.9885 5.88998C110.664 39.2805 135.364 97.3579 169.771 138.977C201.872 177.907 228.879 209.24 270.11 210.823C302.018 212.089 333.542 220.792 365.355 221.9C392.362 222.849 418.792 215.57 445.895 219.051C461.849 221.109 476.938 219.051 492.508 226.331C510.865 234.876 528.261 248.644 547.099 254.658C568.819 261.62 592.27 257.031 614.279 256.557C651.954 255.765 688.764 251.493 725.959 241.048" stroke="#56CCF2" stroke-miterlimit="10"/>
<path d="M-146.144 -205.847C-125.864 -207.113 -104.432 -213.76 -84.3449 -206.955C-61.4708 -199.201 -45.5165 -174.514 -30.3312 -147.137C-1.11378 -94.1232 31.4675 -41.7428 68.0853 -3.12998C132.575 64.9171 175.632 198.638 260.786 201.961C292.79 203.227 324.218 210.032 356.03 212.247C383.23 214.146 410.236 209.873 437.435 213.671C453.486 215.887 469.152 214.779 485.01 220.793C503.944 227.914 522.397 238.833 541.715 243.106C564.493 248.011 588.232 243.264 611.106 241.523C650.031 238.675 688.282 231.87 726.63 220.16" stroke="#56CCF2" stroke-miterlimit="10"/>
<path d="M-147.198 -228.002C-99.8161 -228.319 -66.6582 -221.039 -32.5391 -161.854C-1.49565 -108.049 30.3167 -53.7699 66.6463 -9.46014C126.619 63.8092 170.637 187.402 253.196 191.516C312.591 194.523 372.852 199.112 432.056 208.132C467.617 213.513 502.697 227.28 538.257 231.553C599.864 238.674 667.141 219.368 727.209 199.587" stroke="#56CCF2" stroke-miterlimit="10"/>
<path d="M-147.873 -246.834C-101.068 -245.251 -66.3719 -228.793 -32.6373 -173.09C-0.728855 -120.551 30.0263 -65.7967 64.6258 -18.0054C120.85 59.8531 168.521 176.324 249.157 180.439C308.36 183.446 367.66 191.833 426.576 202.277C462.232 208.607 498.658 219.21 534.507 221.109C598.42 224.274 665.409 203.702 727.496 182.021" stroke="#56CCF2" stroke-miterlimit="10"/>
<path d="M-148.352 -265.982C-102.603 -262.817 -66.0815 -238.13 -32.3469 -186.699C0.522638 -136.692 30.3167 -81.7799 62.8018 -31.1402C116.527 52.5736 169.003 161.133 248.967 166.038C308.266 169.678 366.029 183.604 424.944 195.789C458.582 202.752 493.086 209.557 527.013 209.873C594.193 210.348 662.528 188.035 727.786 164.139" stroke="#56CCF2" stroke-miterlimit="10"/>
<path d="M301.537 611.827C294.329 568.467 296.924 543.305 315.473 512.13C330.466 486.968 341.807 464.972 342.095 427.625C342.287 400.248 337.77 372.871 337.386 345.494C336.809 304.349 364.681 301.026 367.468 266.211C369.102 246.588 350.649 231.554 343.345 223.958C324.307 204.293 312.989 194.298 317.386 159.379" stroke="#56CCF2" stroke-miterlimit="10"/>
<path d="M268.86 610.719C260.402 571.315 258.672 544.254 274.434 510.864C288.37 481.271 297.02 459.907 297.693 421.136C298.173 392.019 291.542 354.672 295.675 326.662C300.192 295.17 325.373 291.214 330.178 262.887C334.407 237.409 320.952 229.022 308.073 216.52C288.502 197.661 279.425 187.441 286.402 153.562" stroke="#56CCF2" stroke-miterlimit="10"/>
<path d="M234.259 609.927C223.687 567.991 221.38 541.089 236.95 503.584C247.81 477.473 253.385 455.318 254.25 422.877C255.019 393.284 247.81 343.119 254.923 315.742C261.554 290.264 286.158 285.517 293.463 262.412C302.497 233.769 284.044 224.907 270.973 213.039C250.592 194.679 243.769 183.618 252.901 150.052" stroke="#56CCF2" stroke-miterlimit="10"/>
<path d="M199.853 604.389C189.569 560.237 188.704 532.702 203.601 492.981C214.077 465.13 218.306 441.867 218.594 408.476C218.786 380.625 212.539 332.992 218.882 307.197C224.841 282.668 247.523 276.972 254.443 254.817C263.093 227.123 246.466 216.837 234.068 204.177C215.11 184.744 209.271 173.597 218.723 140.837" stroke="#56CCF2" stroke-miterlimit="10"/>
<path d="M167.368 587.931C160.256 541.564 161.89 510.389 177.556 470.669C191.107 436.329 200.238 408.951 199.853 366.699C199.565 340.429 192.933 307.355 195.913 281.719C199.277 252.918 221.959 248.961 225.803 223.167C229.359 199.588 216.384 191.359 204.563 179.807C186.383 162.154 177.428 153.137 185.329 120.113" stroke="#56CCF2" stroke-miterlimit="10"/>
<path d="M137.766 563.877C131.711 511.18 135.556 474.624 151.318 428.732C164.773 389.486 174.769 355.779 173.231 309.412C172.462 285.991 165.638 256.715 167.849 233.611C170.252 207.816 190.435 204.018 193.414 180.914C199.543 133.873 141.474 146.233 154.246 89.936" stroke="#56CCF2" stroke-miterlimit="10"/>
<path d="M124.407 47.0348C108.933 99.89 163.428 89.6038 157.757 133.439C154.97 154.644 137.093 158.442 135.075 182.021C133.345 202.752 139.496 229.021 140.746 250.068C143.629 299.6 134.787 338.372 122.293 382.207C107.684 433.796 103.071 475.415 108.933 532.543" stroke="#56CCF2" stroke-miterlimit="10"/>
<path d="M95.4773 2.88751C75.7748 31.2141 128.443 48.7798 124.983 77.4229C122.773 95.4633 108.26 100.844 105.473 120.15C103.166 135.817 110.278 162.719 111.72 179.019C116.333 232.191 108.068 279.032 95.9579 327.773C81.7336 385.534 76.5437 435.066 81.9258 497.574" stroke="#56CCF2" stroke-miterlimit="10"/>
<path d="M66.2593 -46.1738C44.8268 -8.82701 95.1883 18.5501 86.154 58.5871C82.4057 75.2033 70.5842 84.8565 67.797 102.739C65.0098 120.779 70.5842 151.321 72.5064 169.52C77.1197 214.304 75.9663 251.651 67.0281 294.22C54.63 352.614 47.8062 396.607 54.8222 459.274" stroke="#56CCF2" stroke-miterlimit="10"/>
<path d="M38.0998 -94.9146C22.2417 -43.1671 55.6879 -12.3085 47.3263 37.54C42.9053 64.1258 29.4499 78.6848 28.2005 107.644C27.3355 128.217 28.681 151.638 30.8916 171.893C35.5048 212.722 39.8298 241.681 32.6215 282.668C23.7894 332.935 20.3986 369.055 28.6285 421.34" stroke="#56CCF2" stroke-miterlimit="10"/>
<path d="M8.88212 -143.972C-5.72655 -93.9652 21.7608 -57.7261 15.2254 -8.03593C11.8615 17.7587 0.616693 34.6913 0.136145 62.2266C-0.248294 82.0077 1.28946 103.53 3.88442 122.678C9.55489 164.93 14.5526 194.998 7.53659 238.041C-1.01717 290.105 -6.30519 329.062 1.28747 383.341" stroke="#56CCF2" stroke-miterlimit="10"/>
<g opacity="0.8">
<path d="M254.402 64.9503C254.402 69.0651 251.066 72.4007 246.951 72.4007C242.837 72.4007 239.501 69.0651 239.501 64.9503C239.501 60.8356 242.837 57.5 246.951 57.5C251.066 57.5 254.402 60.8356 254.402 64.9503Z" stroke="white"/>
<path d="M240.35 43H178" stroke="white" stroke-miterlimit="10"/>
<path d="M65.0155 304.029C81.592 304.029 95.03 290.591 95.03 274.014C95.03 257.438 81.592 244 65.0155 244C48.4389 244 35.001 257.438 35.001 274.014C35.001 290.591 48.4389 304.029 65.0155 304.029Z" stroke="white" stroke-miterlimit="10"/>
</g>
</g>
</g>
<defs>
<linearGradient id="paint0_linear" x1="744.384" y1="28.7756" x2="-306.825" y2="76.5771" gradientUnits="userSpaceOnUse">
<stop offset="0.317708" stop-color="#86F5FC"/>
<stop offset="1" stop-color="#005B8E"/>
</linearGradient>
<linearGradient id="paint1_linear" x1="738.818" y1="18.1746" x2="-326.559" y2="27.7111" gradientUnits="userSpaceOnUse">
<stop offset="0.369792" stop-color="#005B8E"/>
<stop offset="0.932292" stop-color="#86F5FC" stop-opacity="0.6"/>
</linearGradient>
<linearGradient id="paint2_linear" x1="730.34" y1="95.0311" x2="-325.447" y2="101.473" gradientUnits="userSpaceOnUse">
<stop stop-color="#86F5FC" stop-opacity="0.11"/>
<stop offset="1" stop-color="#005B8E"/>
</linearGradient>
</defs>
</svg>
