<svg width="320" height="191" viewBox="0 0 320 191" fill="none" xmlns="http://www.w3.org/2000/svg">
<path opacity="0.8" d="M91.5005 89.5034C132 88.0081 212.001 50.499 319.651 69.9989L319.652 -252.919L-0.348442 -252.919L-0.348569 69.4981C23.1691 82.8026 51.0009 90.9988 91.5005 89.5034Z" fill="url(#paint0_linear)"/>
<path opacity="0.9" d="M319.653 -252.919L0.15194 -252.919L0.151697 43.5023C24.5001 68.0028 56.4999 78.0024 141 58.0033C225.5 38.0043 319.653 58.0028 319.653 58.0028L319.653 -252.919Z" fill="url(#paint1_linear)"/>
<path d="M116.001 74.5048C183.501 55.5045 245.5 49.0047 319.652 64.5041L319.652 -252.918L-0.347202 -252.918L-0.346596 69.5035C-0.346596 69.5035 48.5002 93.505 116.001 74.5048Z" fill="url(#paint2_linear)"/>
<g opacity="0.6">
<mask id="mask0" mask-type="alpha" maskUnits="userSpaceOnUse" x="-1" y="-253" width="321" height="343">
<path opacity="0.8" d="M91.4995 89.5034C131.999 88.0081 212 50.499 319.65 69.9989L319.651 -252.919L-0.349419 -252.919L-0.349546 69.4981C23.1682 82.8026 50.9999 90.9988 91.4995 89.5034Z" fill="url(#paint3_linear)"/>
</mask>
<g mask="url(#mask0)">
<path d="M-142.728 -532.968C32.4802 -519.2 85.2444 -113.608 260.26 -101.897C318.599 -97.941 372.901 -78.6346 430.279 -62.8097C531.771 -34.7996 632.975 -63.9174 732.16 -101.422C731.775 -33.6919 729.565 34.0387 727.354 101.769C725.624 154.15 726.874 207.954 723.702 260.018C718.128 351.645 635.666 300.847 626.92 391.682C498.517 390.732 370.595 367.786 242.192 363.039C83.2262 357.183 16.1415 37.0455 -142.824 25.4933C-139.955 -43.2317 -127.153 -42.8681 -109.276 -72.6813C-93.8256 -95.5866 -93.6875 -115.265 -102.433 -146.124C-138.631 -257.741 -141.094 -403.837 -142.728 -532.968Z" stroke="#56CCF2" stroke-miterlimit="10"/>
<path d="M-147.774 7.93457C-105.871 9.51706 -70.1176 23.7595 -36.383 66.1702C-6.10843 104.15 21.2829 147.352 51.077 186.281C106.244 258.285 156.99 340.733 231.764 343.106C291.928 345.005 352.285 344.372 412.354 349.911C482.514 356.399 551.521 373.49 622.066 374.598" stroke="#56CCF2" stroke-miterlimit="10"/>
<path d="M-145.854 -5.19969C-104.335 -5.51619 -70.3121 0.0225526 -37.6348 45.7566C-8.80184 86.1101 18.5895 129.945 49.5368 165.709C107.107 232.491 152.759 325.383 228.686 327.915C290.004 329.972 351.61 325.541 412.832 329.497C443.299 331.396 470.979 340.258 501.061 348.329C541.235 359.09 584.1 361.622 624.754 362.73" stroke="#56CCF2" stroke-miterlimit="10"/>
<path d="M-143.355 -15.6446C-102.124 -17.8601 -69.8314 -20.2338 -37.9229 28.9817C-10.5316 71.2342 17.2441 116.019 49.0565 149.093C108.645 210.81 150.068 313.514 226.956 316.046C260.21 317.153 293.944 320.318 327.198 319.052C356.32 317.945 385.057 311.931 414.274 313.039C445.99 314.463 472.132 325.224 503.079 335.668C542.965 349.278 587.656 352.443 628.311 354.025" stroke="#56CCF2" stroke-miterlimit="10"/>
<path d="M-139.704 -26.0887C-98.8574 -30.3614 -68.3906 -42.0719 -37.3471 11.5746C-11.6858 55.7261 16.8588 102.093 49.4401 131.686C81.6369 160.962 103.358 208.437 133.344 243.093C163.042 277.275 188.799 302.911 225.994 304.336C259.921 305.602 294.52 309.716 328.351 307.184C358.145 304.969 387.074 295.79 416.868 296.423C431.669 296.74 446.085 294.208 460.694 299.746C476.264 305.602 490.969 316.837 506.346 323.642C545.655 340.733 592.845 344.373 633.211 346.272" stroke="#56CCF2" stroke-miterlimit="10"/>
<path d="M-135.378 -35.5837C-96.069 -41.7554 -66.6594 -63.5938 -36.8653 -6.78235C-11.3001 41.9584 18.2056 89.4331 53.574 117.601C86.4436 143.713 107.396 194.827 136.613 230.433C165.254 265.406 189.666 292.783 226.476 293.733C260.595 294.682 295.771 300.221 329.698 296.739C359.492 293.574 388.325 279.49 418.311 280.598C435.13 281.231 450.7 276.958 467.231 284.713C482.801 291.992 497.025 305.601 512.595 313.197C530.087 321.901 548.54 321.743 566.609 326.174C591.02 332.187 615.144 338.043 639.844 339.625" stroke="#56CCF2" stroke-miterlimit="10"/>
<path d="M-130.479 -44.3219C-113.179 -47.9616 -96.8381 -61.3782 -79.5384 -63.119C-60.1242 -65.0179 -46.1882 -46.3446 -34.9434 -22.2907C-11.012 28.5072 19.2625 77.4062 55.496 102.093C89.7111 125.356 109.894 180.268 138.919 217.298C167.368 253.537 189.858 283.288 227.34 284.554C261.94 285.662 298.269 291.992 332.677 287.561C363.047 283.605 391.977 265.881 422.636 266.514C439.839 266.989 455.409 261.292 472.132 270.312C487.894 278.857 501.926 294.682 517.592 303.702C535.084 313.672 554.018 313.514 572.279 318.578C597.075 325.541 621.391 332.662 646.571 334.403" stroke="#56CCF2" stroke-miterlimit="10"/>
<path d="M-125.402 -51.9576C-108.006 -56.5469 -93.1862 -73.0893 -76.1748 -77.2038C-56.6644 -81.9513 -43.0168 -61.6954 -32.5409 -36.8503C-10.1473 16.0049 20.8962 66.3281 58.0908 87.6918C93.6514 108.106 113.162 166.658 142.091 205.113C170.347 242.618 191.107 274.9 229.166 276.166C264.343 277.432 301.633 284.712 336.617 279.173C367.565 274.267 396.494 252.746 427.922 253.379C445.51 253.695 461.079 246.416 477.995 257.018C493.949 266.988 507.693 284.87 523.551 295.156C541.139 306.708 560.361 306.234 578.814 311.931C603.899 319.843 628.407 328.072 654.068 330.129" stroke="#56CCF2" stroke-miterlimit="10"/>
<path d="M-120.766 -58.5019C-103.178 -64.0406 -89.8207 -83.2172 -72.9053 -89.5472C-53.395 -96.8266 -39.8435 -74.9882 -30.1364 -49.6684C-17.8344 -17.702 -0.438475 5.24409 14.9391 33.2542C28.1062 57.3081 42.0421 65.8535 60.8796 75.032C97.4014 92.5976 116.623 154.948 145.456 194.51C173.52 233.123 192.742 267.621 231.379 269.045C267.035 270.311 305.287 278.54 340.656 272.052C372.18 266.355 401.013 241.51 433.113 241.827C451.086 241.985 466.559 233.439 483.763 245.15C499.91 256.227 513.461 276.008 529.415 287.719C546.907 300.537 566.514 299.904 585.255 306.234C610.628 314.938 635.328 324.274 661.374 326.648" stroke="#56CCF2" stroke-miterlimit="10"/>
<path d="M-115.691 -65.7729C-97.2383 -72.7358 -83.2874 -101.099 -65.411 -105.846C-45.0357 -111.227 -34.2714 -80.6847 -25.1409 -56.4726C-14.1844 -27.513 2.15425 -7.41536 15.6096 18.6957C28.5845 43.8573 41.9437 52.7193 60.9735 60.157C69.9117 63.6385 81.541 64.7462 89.2298 74.3994C97.1108 84.2109 102.781 102.251 109.028 114.595C121.907 140.548 135.266 162.861 150.644 184.541C178.9 224.261 194.47 259.551 234.163 261.45C269.724 263.191 308.937 271.42 344.017 264.615C377.848 258.127 407.546 229.484 442.145 229.642C458.195 229.8 471.939 220.305 487.413 230.591C503.751 241.51 517.111 262.399 532.296 276.8C550.941 294.207 572.854 292.941 593.422 300.854C618.795 310.507 643.303 320.635 669.445 323.325" stroke="#56CCF2" stroke-miterlimit="10"/>
<path d="M-111.349 -72.6143C-92.3189 -80.8432 -80.209 -112.968 -62.1404 -119.773C-41.4768 -127.685 -31.0969 -94.2944 -22.7353 -69.9241C-12.3555 -39.6985 4.46374 -19.4426 17.9191 7.30154C30.9901 33.4126 44.4454 40.8504 64.0519 46.8638C73.0862 49.5541 85.3882 49.554 93.077 59.049C101.054 68.8604 106.629 87.8503 112.683 100.51C125.562 127.571 139.018 150.675 154.683 173.305C182.844 214.291 196.683 251.955 237.242 254.17C256.368 255.12 275.494 254.645 294.523 255.436C312.88 256.069 330.468 261.45 349.018 257.335C383.521 249.739 412.931 217.615 448.491 217.456C464.83 217.456 478.574 206.695 494.143 218.089C510.77 230.116 523.841 253.062 539.123 268.887C557.672 288.035 579.97 286.611 600.729 295.157C626.391 305.759 651.091 316.995 677.617 320.002" stroke="#56CCF2" stroke-miterlimit="10"/>
<path d="M-106.862 -79.9525C-86.9676 -89.7639 -78.097 -123.729 -59.9322 -133.382C-39.7491 -144.301 -28.9848 -111.227 -21.3921 -86.0652C-11.8773 -54.4154 4.84585 -34.9507 18.2051 -7.41538C32.9099 23.1267 46.7498 29.4567 70.1044 34.0459C80.3882 36.1032 89.7108 35.6284 97.688 46.7059C104.031 55.4096 108.644 69.3355 113.546 80.2546C127.866 111.746 142.571 137.224 159.775 163.969C186.878 205.905 200.237 245.15 240.507 246.891C259.633 247.682 278.759 246.891 297.789 247.999C316.242 249.107 334.214 254.645 352.667 250.373C387.363 242.46 416.1 207.487 451.661 205.272C470.114 204.164 485.395 191.662 502.407 206.854C518.841 221.571 531.432 245.309 546.905 262.241C564.686 281.706 588.425 280.598 608.704 289.618C634.365 301.012 658.777 313.039 685.496 316.362" stroke="#56CCF2" stroke-miterlimit="10"/>
<path d="M-103.33 -87.2251C-82.5704 -98.6191 -75.9817 -135.757 -57.5286 -147.784C-37.1534 -161.076 -26.5813 -125.787 -19.5653 -100.151C-10.5309 -67.2348 6.57662 -47.7701 20.032 -19.2853C34.929 12.2062 48.9611 17.2703 72.9885 19.9605C83.4645 21.2265 93.1716 19.644 101.341 31.0379C107.78 39.8999 112.297 54.4588 117.199 65.5362C131.616 98.1355 146.513 124.563 164.005 152.415C191.108 195.617 202.833 237.395 244.064 239.135C263.382 239.927 282.796 238.977 302.114 240.243C320.952 241.351 339.117 247.364 357.954 242.617C393.323 233.597 421.579 195.142 458.005 192.452C476.746 191.028 492.027 177.102 509.135 193.56C525.762 209.543 538.064 235.021 553.538 253.694C571.03 274.741 595.249 273.317 615.721 283.129C641.574 295.472 666.179 308.607 693.185 312.088" stroke="#56CCF2" stroke-miterlimit="10"/>
<path d="M-100.901 -94.4958C-78.9883 -107.789 -74.9237 -144.776 -56.0862 -161.234C-36.0953 -178.8 -24.8505 -137.971 -18.6033 -113.284C-9.95343 -79.1025 7.44247 -59.7962 21.0901 -30.5201C36.1793 2.07926 50.4036 5.719 75.1038 6.82675C85.8681 7.30149 95.7674 4.92776 104.129 16.3217C110.664 25.1837 115.182 40.3756 119.987 51.6113C134.5 85.3184 149.685 112.537 167.273 141.339C194.376 185.648 204.756 229.642 246.852 231.541C266.362 232.49 285.969 231.382 305.575 232.648C324.701 233.914 343.058 240.244 362.184 235.022C398.225 225.052 425.905 183.433 463.099 180.11C482.033 178.527 497.411 163.335 514.518 180.901C531.337 197.992 543.351 225.211 558.825 245.15C576.125 267.463 600.729 266.039 621.392 276.483C647.438 289.618 672.042 303.702 699.434 307.342" stroke="#56CCF2" stroke-miterlimit="10"/>
<path d="M-99.1445 -102.998C-76.4626 -118.032 -74.4443 -156.012 -55.8951 -176.109C-36.4809 -196.998 -24.7555 -156.486 -18.8928 -131.483C-10.339 -94.9275 8.11408 -68.4999 23.6839 -38.2743C37.5237 -11.3719 52.5168 -8.04872 73.3727 -8.36522C84.4253 -8.52347 94.5168 -12.0049 104.032 -3.30123C113.162 5.24422 118.256 25.5001 124.215 39.426C138.823 73.7661 154.586 101.301 172.27 130.894C199.277 176.153 206.869 219.988 249.638 222.52C269.245 223.628 288.851 222.995 308.457 223.47C329.986 223.944 349.496 232.173 371.121 224.261C407.451 210.81 433.4 169.665 471.748 165.551C488.087 163.81 502.023 148.618 517.304 162.227C536.334 179.16 549.117 214.133 565.647 236.446C582.178 258.759 608.128 257.81 628.215 268.413C654.165 282.18 678.48 297.056 705.872 300.854" stroke="#56CCF2" stroke-miterlimit="10"/>
<path d="M-98.4707 -112.655C-75.0199 -129.746 -74.8277 -169.941 -56.0862 -192.57C-36.5759 -216.15 -24.8505 -173.422 -19.3723 -147.786C-11.299 -109.964 7.53849 -83.2202 23.3966 -52.2034C37.5248 -24.5098 53.0946 -22.6108 74.3349 -24.3515C85.5797 -25.301 96.1518 -29.8902 105.955 -21.1865C115.278 -12.7993 120.371 8.40601 126.234 22.6484C141.035 58.2545 157.182 86.4229 175.058 117.123C186.976 137.537 194.857 162.857 206.198 183.746C219.076 207.325 233.397 211.281 252.234 212.389C272.033 213.497 291.831 212.864 311.63 213.339C333.543 213.813 353.15 222.517 375.063 213.814C411.969 198.938 437.15 154.628 476.362 149.881C492.893 147.824 506.829 131.366 522.015 145.766C541.237 163.965 553.635 201.154 570.07 224.733C586.312 248.154 612.742 247.204 632.829 258.598C658.875 273.315 683.287 288.982 710.967 293.096" stroke="#56CCF2" stroke-miterlimit="10"/>
<path d="M-99.3564 -123.218C-75.6173 -141.734 -76.3654 -183.231 -58.1045 -209.342C-35.4226 -241.625 -24.5622 -182.123 -19.8528 -156.328C-13.7018 -122.463 7.15405 -98.409 20.5133 -71.0319C37.2364 -36.6919 52.1335 -38.9074 77.8909 -42.5471C87.7902 -43.9713 101.726 -50.6178 110.376 -38.9074C116.047 -31.3114 120.468 -12.9545 124.504 -2.98481C139.017 32.9377 154.298 64.7458 173.04 94.6549C187.456 117.759 195.145 147.668 208.408 171.88C221.287 195.46 235.799 199.891 254.541 200.682C274.147 201.473 293.85 200.365 313.456 201.315C335.369 202.264 355.072 210.968 376.889 201.631C412.738 186.281 438.495 134.217 476.843 131.685C494.912 130.577 511.923 111.904 527.685 129.153C546.619 150.042 558.056 187.547 574.779 212.709C589.484 234.705 611.589 232.965 630.042 242.776C658.971 258.284 684.344 278.066 715.003 282.813" stroke="#56CCF2" stroke-miterlimit="10"/>
<path d="M-101.547 -135.44C-77.2311 -156.013 -79.4416 -199.689 -61.1807 -228.174C-38.4027 -263.622 -27.5423 -201.114 -23.1212 -174.844C-17.3546 -140.188 4.17396 -115.659 17.7254 -87.6489C34.833 -52.3593 50.4028 -56.1573 76.6408 -61.3796C86.6362 -63.4368 101.245 -71.3492 110.183 -59.4805C115.854 -51.8846 120.371 -32.7364 124.407 -22.7667C139.208 14.2636 154.778 47.0211 173.904 78.038C188.705 101.934 196.009 132.634 209.176 158.112C221.959 182.799 236.471 187.23 255.597 188.021C275.396 188.812 295.098 187.546 314.897 188.338C337.098 189.287 356.897 198.466 378.906 188.338C415.14 171.722 440.032 115.86 479.245 112.853C497.41 111.429 514.421 91.4892 530.087 109.53C549.117 131.684 560.169 171.089 576.7 197.674C591.117 220.779 613.414 218.722 631.963 229.166C660.989 245.466 686.266 266.355 717.213 271.26" stroke="#56CCF2" stroke-miterlimit="10"/>
<path d="M-105.104 -147.63C-80.3081 -169.944 -83.4798 -215.994 -65.2189 -246.536C-42.3447 -284.833 -31.3882 -219.634 -27.2555 -193.048C-21.6811 -157.6 0.424139 -132.597 14.264 -104.112C31.8521 -68.0312 48.0946 -73.2534 74.7171 -79.8999C84.8086 -82.4318 100.09 -91.6103 109.317 -79.5834C115.083 -71.9874 119.6 -52.2063 123.637 -42.0783C138.63 -3.94029 154.584 29.6085 174.095 61.4166C189.28 86.1035 196.296 117.279 209.367 143.864C222.054 169.501 236.662 173.932 256.173 174.723C276.067 175.514 295.962 174.09 315.761 174.723C338.25 175.514 358.049 185.167 380.346 174.248C416.964 156.366 440.896 97.3391 480.781 93.6994C499.042 92.1169 516.15 70.9116 531.527 89.585C550.653 112.689 561.321 153.992 577.66 181.844C591.692 205.898 614.278 203.683 632.827 214.444C661.948 231.218 687.033 253.215 718.269 258.279" stroke="#56CCF2" stroke-miterlimit="10"/>
<path d="M-109.51 -162.849C-85.0979 -184.054 -86.8418 -227.066 -68.7732 -256.975C-46.8601 -293.214 -34.2697 -237.827 -29.4642 -209.342C-23.3132 -172.628 1.57925 -143.669 16.2841 -113.918C31.95 -82.1099 54.5358 -90.8137 76.9294 -96.0359C83.7532 -97.6184 98.1696 -104.265 104.609 -98.2514C111.817 -91.6049 119.314 -64.0695 124.023 -52.8338C139.209 -16.12 154.971 13.6308 173.808 44.6476C188.032 68.0685 196.394 96.8699 209.273 121.557C221.863 145.611 237.144 148.459 255.79 149.567C275.3 150.675 294.81 150.358 314.321 150.991C335.849 151.624 355.552 161.752 377.273 153.365C415.717 138.489 439.552 81.678 480.975 79.9372C501.735 78.9877 512.019 56.6746 529.895 80.4119C548.348 104.941 558.92 143.079 576.124 169.823C590.348 192.136 613.799 190.395 632.06 200.681C661.469 217.139 687.035 237.395 718.463 241.826" stroke="#56CCF2" stroke-miterlimit="10"/>
<path d="M-114.137 -179.591C-90.0131 -199.531 -89.8209 -240.992 -71.3678 -269.16C-49.4548 -302.551 -36.3839 -251.595 -30.8095 -222.952C-23.8896 -187.345 0.618423 -159.335 15.4193 -130.692C31.1814 -99.992 53.0944 -106.955 75.488 -111.228C82.4079 -112.494 96.2477 -118.191 102.687 -112.177C109.991 -105.531 117.488 -79.5779 122.39 -68.184C137.767 -32.8944 153.337 -4.40959 172.174 25.183C186.303 47.3378 195.241 75.3479 208.6 98.1358C221.863 120.765 237.241 122.664 255.598 123.614C274.82 124.722 294.042 125.355 313.264 126.462C334.312 127.728 353.534 137.856 374.87 130.893C412.353 118.55 437.053 66.8025 477.035 66.6442C497.602 66.486 507.982 46.3883 525.763 69.3345C544.216 93.0718 555.268 129.786 572.76 155.264C587.657 176.944 611.108 175.361 629.657 185.331C659.74 201.314 686.266 220.146 718.271 223.944" stroke="#56CCF2" stroke-miterlimit="10"/>
<path d="M-118.271 -198.581C-94.7236 -217.096 -92.6092 -255.551 -74.2522 -282.137C-53.5886 -312.204 -39.076 -271.059 -32.4444 -240.675C-24.3712 -203.17 -1.88146 -182.123 13.4 -151.898C29.162 -120.881 47.4229 -123.254 70.7776 -126.419C81.638 -127.844 92.7868 -133.382 101.917 -123.254C110.375 -113.76 117.006 -93.0289 122.869 -80.369C138.151 -46.8202 154.105 -20.2343 172.654 7.77578C186.109 28.1899 195.24 55.567 208.695 75.6646C222.727 96.5535 238.201 97.1865 256.27 97.9778C276.837 98.9273 297.597 100.352 318.068 102.883C338.347 105.257 356.512 114.752 377.08 107.314C410.91 95.1293 434.938 54.1427 470.883 53.3515C488.856 52.8768 504.137 37.8431 519.707 55.0922C538.256 75.6646 550.174 110.321 566.608 134.692C583.716 160.011 607.647 159.062 629.08 169.981C659.547 185.331 686.746 202.264 718.943 205.112" stroke="#56CCF2" stroke-miterlimit="10"/>
<path d="M-122.21 -219.312C-99.2397 -236.402 -95.3953 -271.85 -77.0383 -296.854C-57.0475 -323.914 -41.5738 -290.207 -34.1734 -259.665C-25.0429 -222.318 -4.66763 -204.12 10.9022 -174.052C26.472 -143.985 43.0028 -141.611 66.1653 -143.352C77.9868 -144.143 92.8838 -150.315 102.975 -136.706C108.934 -128.635 113.74 -113.759 118.449 -103.79C133.25 -72.2981 148.243 -44.1298 166.985 -18.9682C181.497 0.654727 191.589 27.0823 205.525 47.4965C220.518 69.6514 236.376 70.9173 255.886 72.0251C275.973 73.1328 296.444 74.0823 316.531 77.8803C336.042 81.52 353.726 89.9072 373.717 84.3685C408.701 74.8736 433.882 38.318 470.596 38.7928C489.529 39.1093 501.158 25.0251 517.882 44.4897C535.854 65.3786 547.868 97.9779 565.168 120.291C582.756 143.079 607.36 142.921 628.6 152.89C659.451 167.449 687.227 182.483 719.616 184.54" stroke="#56CCF2" stroke-miterlimit="10"/>
<path d="M-125.768 -241.625C-103.182 -256.817 -97.3191 -290.366 -78.4815 -312.204C-57.914 -336.1 -42.3442 -303.975 -33.8866 -274.066C-23.795 -237.827 -3.612 -219.312 12.2461 -189.719C28.0081 -160.285 44.4429 -156.329 67.6054 -156.012C79.6191 -155.854 93.9395 -160.443 104.127 -146.834C110.182 -138.763 115.084 -124.363 119.985 -114.393C134.978 -83.6925 150.164 -56.3154 168.905 -31.7868C183.514 -12.6386 194.278 12.9977 208.695 32.4624C224.361 53.5095 240.411 54.9337 260.017 56.0415C279.72 57.1492 299.711 58.2569 319.317 62.0549C338.251 65.6946 355.55 73.7653 374.869 69.1761C408.699 61.2637 434.168 28.3478 469.441 29.6138C487.894 30.2468 499.619 17.7452 516.15 36.1021C533.93 55.725 546.328 86.4253 563.724 106.998C581.793 128.361 606.397 127.887 627.733 136.748C659.065 149.883 687.706 163.018 720.383 163.809" stroke="#56CCF2" stroke-miterlimit="10"/>
<path d="M-128.747 -262.672C-106.353 -275.807 -98.3764 -306.824 -79.0583 -326.288C-58.2986 -347.335 -41.7677 -319.8 -32.2528 -290.049C-20.5274 -253.336 0.712881 -228.49 18.7815 -199.531C35.5046 -172.628 53.0927 -169.938 75.8708 -167.723C104.608 -165.033 109.509 -156.012 127.77 -120.723C143.244 -90.972 158.814 -65.8103 177.267 -41.44C192.548 -21.3424 205.042 5.71823 221.381 23.2839C236.855 39.9 253.001 40.2166 270.878 41.0078C289.523 41.799 308.457 44.6475 327.006 47.496C345.074 50.1863 361.413 59.3647 379.962 55.7249C411.198 49.7115 436.763 16.9539 469.152 20.2772C485.491 21.8596 499.907 11.257 514.612 24.7082C534.026 42.4321 546.905 75.9809 565.454 95.9203C583.523 115.227 608.031 114.119 628.791 122.031C659.93 133.9 688.571 144.819 720.864 144.344" stroke="#56CCF2" stroke-miterlimit="10"/>
<path d="M-131.822 -286.884C-109.525 -298.278 -98.7605 -327.237 -78.5774 -343.537C-56.8565 -361.103 -39.8451 -335.308 -28.8886 -306.032C-15.5293 -270.268 5.99932 -245.264 24.6446 -216.621C41.8483 -190.193 59.7247 -185.446 82.7911 -181.332C92.6904 -179.591 105.473 -180.699 114.315 -171.204C122.773 -162.183 129.308 -144.776 136.036 -132.591C152.086 -103.631 168.137 -78.9444 186.974 -55.3653C202.832 -35.5841 216.48 -9.31476 233.684 7.30139C249.926 23.1263 266.553 23.4428 284.91 24.3923C302.691 25.1835 321.048 27.2408 338.636 30.8805C355.647 34.362 371.409 42.2744 388.805 39.5842C418.503 34.8367 443.011 9.0421 473.478 9.83334C488.567 10.3081 503.368 2.87041 517.016 15.0556C535.661 31.6717 548.54 62.8468 566.801 80.8872C584.869 98.7694 608.897 97.3451 629.368 104.15C660.604 114.436 689.437 123.456 721.537 121.874" stroke="#56CCF2" stroke-miterlimit="10"/>
<path d="M-134.61 -311.888C-112.89 -321.383 -99.0497 -347.652 -78.9627 -360.945C-53.2053 -377.878 -37.4433 -345.911 -23.4112 -315.369C-9.5714 -285.302 10.6117 -262.356 27.6231 -236.719C46.9412 -207.602 66.0671 -200.48 91.5362 -194.15C99.1288 -192.251 109.797 -191.935 116.621 -186.08C126.328 -177.692 136.996 -153.48 144.204 -140.979C160.447 -112.81 176.978 -89.8642 195.911 -67.2346C210.809 -49.5107 223.976 -26.7229 239.93 -11.3727C257.71 5.7182 275.298 7.77546 295.481 8.88321C328.159 10.6239 362.085 27.2401 394.378 24.0751C423.788 21.0684 448.777 -0.928254 478.763 0.654236C493.948 1.44548 505.962 -5.201 519.898 7.45893C536.044 22.1761 548.25 47.1795 563.916 63.0044C583.523 82.7855 608.319 80.4118 630.616 86.7417C661.564 95.6037 690.781 102.25 722.305 99.2434" stroke="#56CCF2" stroke-miterlimit="10"/>
<path d="M-137.202 -337.207C-115.77 -345.12 -100.008 -367.907 -79.7285 -378.668C-53.8749 -392.436 -37.344 -360.786 -22.6392 -331.194C-8.03051 -301.601 11.8642 -278.655 29.164 -252.86C48.386 -224.059 67.6079 -214.722 92.5965 -206.019C100.189 -203.328 110.377 -202.062 117.297 -195.732C127.196 -186.87 137.672 -163.924 145.265 -150.948C161.603 -123.571 178.23 -100.783 197.164 -78.6279C212.253 -61.0623 225.901 -39.0656 242.24 -24.3484C260.404 -7.89052 278.185 -5.51682 298.56 -4.40908C330.564 -2.66833 363.146 12.5236 394.862 10.4664C423.214 8.5674 448.299 -10.106 477.132 -8.04879C491.933 -6.94104 504.043 -12.4798 517.786 -0.927574C533.741 12.5236 546.427 35.1532 562.189 49.2374C582.372 67.1196 607.265 64.2711 629.658 69.1768C661.182 76.1397 691.265 80.729 723.173 76.4563" stroke="#56CCF2" stroke-miterlimit="10"/>
<path d="M-139.51 -362.686C-117.693 -369.332 -98.3747 -393.386 -76.5578 -397.342C-53.2031 -401.615 -38.4983 -375.82 -24.6585 -348.76C-8.31981 -316.952 12.6321 -292.107 31.2775 -263.464C47.52 -238.46 65.9731 -228.016 87.0212 -218.363C110.472 -207.602 121.909 -193.517 138.921 -165.033C156.413 -135.757 174.193 -110.911 194.472 -87.1741C228.495 -47.1371 252.138 -17.7027 295.483 -15.962C326.719 -14.696 357.955 -0.611794 388.998 -1.40304C416.486 -2.19429 441.763 -19.6017 469.538 -15.962C485.781 -13.9047 499.044 -19.127 514.23 -7.25828C530.088 5.08515 543.447 25.341 559.593 36.8932C578.815 50.6609 600.44 47.4959 620.911 50.6609C655.703 56.1996 688.957 59.5228 723.845 53.3511" stroke="#56CCF2" stroke-miterlimit="10"/>
<path d="M-141.434 -385.473C-120.097 -390.854 -99.5297 -411.268 -78.0972 -412.217C-54.9347 -413.167 -40.4221 -388.796 -26.1979 -362.052C3.59617 -305.874 40.3101 -252.227 83.4635 -227.541C125.848 -203.17 152.566 -137.813 188.704 -94.9278C221.958 -55.5237 246.754 -26.0894 289.139 -24.3486C320.278 -23.0827 351.322 -10.7392 382.173 -10.8975C409.564 -11.0557 435.418 -25.4564 463.001 -21.6584C479.244 -19.4429 492.988 -23.7156 508.461 -13.2712C524.608 -2.19377 538.832 15.5301 555.363 25.4998C575.354 37.685 597.555 33.887 618.507 35.9442C654.356 39.5839 688.859 40.5335 724.612 33.0957" stroke="#56CCF2" stroke-miterlimit="10"/>
<path d="M-143.258 -410.477C-122.498 -414.275 -101.45 -429.784 -80.5942 -428.518C-55.894 -426.935 -40.5164 -399.083 -25.331 -370.282C-10.6262 -342.272 8.4035 -320.275 24.3577 -294.006C39.5431 -269.002 55.8818 -253.494 75.5843 -239.252C117.777 -208.71 145.072 -146.043 182.074 -101.258C213.79 -62.8039 239.259 -35.2685 279.722 -33.053C311.918 -31.3123 344.211 -20.8679 376.216 -20.8679C403.607 -20.8679 429.557 -30.9958 457.044 -27.3561C473.383 -25.1406 487.127 -28.3055 502.889 -18.8106C519.323 -8.8409 534.413 5.87627 551.424 13.6305C572.28 23.1254 595.154 18.8527 616.587 19.6439C653.301 21.0682 689.053 19.3274 725.479 10.3072" stroke="#56CCF2" stroke-miterlimit="10"/>
<path d="M-144.893 -434.848C-124.613 -437.38 -103.373 -448.299 -82.9978 -444.343C-59.3548 -439.753 -43.5928 -414.275 -28.5996 -386.265C0.13722 -332.619 34.6407 -280.555 72.9885 -246.531C110.664 -213.141 135.364 -155.063 169.771 -113.444C201.872 -74.5144 228.879 -43.1811 270.11 -41.5986C302.018 -40.3326 333.542 -31.629 365.355 -30.5212C392.362 -29.5717 418.792 -36.8512 445.895 -33.3697C461.849 -31.3124 476.938 -33.3697 492.508 -26.0902C510.865 -17.5448 528.261 -3.7771 547.099 2.23636C568.819 9.19932 592.27 4.61012 614.279 4.13537C651.954 3.34412 688.764 -0.92863 725.959 -11.3731" stroke="#56CCF2" stroke-miterlimit="10"/>
<path d="M301.537 359.407C294.329 316.046 296.924 290.885 315.473 259.71C330.466 234.548 341.807 212.551 342.095 175.204C342.287 147.827 337.77 120.45 337.386 93.0731C336.809 51.9283 364.681 48.6051 367.468 13.7902C369.102 -5.83266 350.649 -20.8663 343.345 -28.4623C324.307 -48.1277 312.989 -58.1224 317.386 -93.041" stroke="#56CCF2" stroke-miterlimit="10"/>
<path d="M268.861 358.298C260.403 318.894 258.673 291.834 274.435 258.443C288.371 228.85 297.021 207.487 297.694 168.716C298.174 139.598 291.543 102.251 295.676 74.2411C300.193 42.7495 325.374 38.7933 330.179 10.4667C334.408 -15.0113 320.953 -23.3986 308.074 -35.9003C288.503 -54.7597 279.426 -64.9794 286.403 -98.8584" stroke="#56CCF2" stroke-miterlimit="10"/>
<path d="M234.259 357.507C223.687 315.571 221.38 288.669 236.95 251.164C247.81 225.053 253.385 202.898 254.25 170.457C255.019 140.864 247.81 90.6991 254.923 63.322C261.554 37.8439 286.158 33.0964 293.463 9.99201C302.497 -18.6511 284.044 -27.513 270.973 -39.3817C250.592 -57.7412 243.769 -68.8022 252.901 -102.368" stroke="#56CCF2" stroke-miterlimit="10"/>
<path d="M199.854 351.968C189.57 307.816 188.705 280.281 203.602 240.56C214.078 212.709 218.307 189.446 218.595 156.055C218.787 128.204 212.54 80.5705 218.883 54.7759C224.842 30.2473 247.524 24.5504 254.444 2.39549C263.094 -25.2981 246.467 -35.5843 234.069 -48.2442C215.111 -67.6767 209.272 -78.8241 218.724 -111.584" stroke="#56CCF2" stroke-miterlimit="10"/>
<path d="M167.369 335.51C160.257 289.143 161.891 257.968 177.557 218.248C191.108 183.908 200.239 156.531 199.854 114.278C199.566 88.0086 192.934 54.9345 195.914 29.2982C199.278 0.496805 221.96 -3.45944 225.804 -29.2541C229.36 -52.8332 216.385 -61.0621 204.564 -72.6143C186.384 -90.2674 177.429 -99.2841 185.33 -132.308" stroke="#56CCF2" stroke-miterlimit="10"/>
<path d="M137.766 311.456C131.711 258.759 135.556 222.204 151.318 176.312C164.773 137.066 174.769 103.359 173.231 56.9917C172.462 33.5709 165.638 4.2948 167.849 -18.8096C170.252 -44.6042 190.435 -48.4022 193.414 -71.5066C199.543 -118.548 141.474 -106.188 154.246 -162.484" stroke="#56CCF2" stroke-miterlimit="10"/>
<path d="M124.408 -205.386C108.934 -152.531 163.429 -162.817 157.758 -118.982C154.971 -97.7763 137.094 -93.9783 135.076 -70.3992C133.346 -49.6686 139.497 -23.3992 140.747 -2.35206C143.63 47.1799 134.788 85.951 122.294 129.786C107.685 181.375 103.072 222.995 108.934 280.123" stroke="#56CCF2" stroke-miterlimit="10"/>
<path d="M95.4783 -249.533C75.7758 -221.207 128.444 -203.641 124.984 -174.998C122.773 -156.957 108.261 -151.577 105.474 -132.271C103.167 -116.604 110.279 -89.7016 111.721 -73.4019C116.334 -20.2302 108.069 26.6116 95.9588 75.3523C81.7346 133.113 76.5446 182.645 81.9268 245.154" stroke="#56CCF2" stroke-miterlimit="10"/>
<path d="M66.2593 -298.595C44.8268 -261.248 95.1883 -233.871 86.154 -193.834C82.4057 -177.218 70.5842 -167.564 67.797 -149.682C65.0098 -131.642 70.5842 -101.1 72.5064 -82.9012C77.1197 -38.1167 75.9663 -0.769947 67.0281 41.7991C54.63 100.193 47.8062 144.186 54.8222 206.853" stroke="#56CCF2" stroke-miterlimit="10"/>
<path d="M38.1008 -347.335C22.2427 -295.587 55.6889 -264.729 47.3273 -214.88C42.9063 -188.295 29.4509 -173.736 28.2015 -144.776C27.3365 -124.204 28.682 -100.783 30.8925 -80.5269C35.5058 -39.6986 39.8307 -10.739 32.6225 30.2475C23.7904 80.5141 20.3995 116.635 28.6295 168.92" stroke="#56CCF2" stroke-miterlimit="10"/>
<path d="M8.88212 -396.393C-5.72655 -346.386 21.7608 -310.147 15.2254 -260.457C11.8615 -234.662 0.616693 -217.729 0.136145 -190.194C-0.248294 -170.413 1.28946 -148.891 3.88442 -129.743C9.55489 -87.4904 14.5526 -57.4232 7.53659 -14.3794C-1.01717 37.6845 -6.30519 76.6408 1.28747 130.92" stroke="#56CCF2" stroke-miterlimit="10"/>
<g opacity="0.8">
<path d="M65.0155 51.6081C81.592 51.6081 95.03 38.1702 95.03 21.5936C95.03 5.01705 81.592 -8.4209 65.0155 -8.4209C48.4389 -8.4209 35.001 5.01705 35.001 21.5936C35.001 38.1702 48.4389 51.6081 65.0155 51.6081Z" stroke="white" stroke-miterlimit="10"/>
</g>
</g>
</g>
<defs>
<linearGradient id="paint0_linear" x1="744.369" y1="-223.643" x2="-306.84" y2="-175.842" gradientUnits="userSpaceOnUse">
<stop offset="0.317708" stop-color="#86F5FC"/>
<stop offset="1" stop-color="#005B8E"/>
</linearGradient>
<linearGradient id="paint1_linear" x1="0.999996" y1="-3.5" x2="483.98" y2="23.3386" gradientUnits="userSpaceOnUse">
<stop offset="0.272319" stop-color="#005B8E"/>
<stop offset="1" stop-color="#86F5FC" stop-opacity="0.6"/>
</linearGradient>
<linearGradient id="paint2_linear" x1="730.373" y1="-157.388" x2="-325.413" y2="-150.946" gradientUnits="userSpaceOnUse">
<stop stop-color="#86F5FC" stop-opacity="0.11"/>
<stop offset="1" stop-color="#005B8E"/>
</linearGradient>
<linearGradient id="paint3_linear" x1="744.368" y1="-223.643" x2="-306.841" y2="-175.842" gradientUnits="userSpaceOnUse">
<stop offset="0.317708" stop-color="#86F5FC"/>
<stop offset="1" stop-color="#005B8E"/>
</linearGradient>
</defs>
</svg>
