<svg width="97" height="96" viewBox="0 0 97 96" fill="none" xmlns="http://www.w3.org/2000/svg">
<path opacity="0.07" d="M92.9175 40.5968C91.3981 62.8558 86.2005 86 57.4019 86C28.6033 86 0 73.3088 0 50.9687C0 20.7055 24.7512 2.22094 49.7604 0.146565C74.7696 -1.92781 94.437 18.3379 92.9175 40.5968Z" fill="url(#paint0_linear)"/>
<path opacity="0.1" d="M94.881 53.1519C92.405 73.7583 86.4539 95.0115 59.5752 93.6364C32.6964 92.2613 6.60319 79.1052 7.66497 58.3508C9.10332 30.2357 33.083 14.2451 56.5235 13.5122C79.964 12.7792 97.3571 32.5455 94.881 53.1519Z" fill="url(#paint1_linear)"/>
<path d="M43.76 59V54.2H48.624V44.664L48.656 42.904H48.592C48.4 43.3307 48.1013 43.736 47.696 44.12L46.32 45.368L43.088 41.912L49.264 36.12H54.096V54.2H58.992V59H43.76Z" fill="black"/>
<defs>
<linearGradient id="paint0_linear" x1="8.84684" y1="84.8294" x2="101.878" y2="54.8921" gradientUnits="userSpaceOnUse">
<stop stop-color="#86F5FC"/>
<stop offset="1" stop-color="#005B8E"/>
</linearGradient>
<linearGradient id="paint1_linear" x1="14.3127" y1="90.2304" x2="102.501" y2="66.6219" gradientUnits="userSpaceOnUse">
<stop stop-color="#86F5FC"/>
<stop offset="1" stop-color="#005B8E"/>
</linearGradient>
</defs>
</svg>
