<svg width="118" height="125" viewBox="0 0 118 125" fill="none" xmlns="http://www.w3.org/2000/svg">
<path opacity="0.07" d="M114.901 48.6218C113.071 75.2808 106.811 103 72.1292 103C37.447 103 3 87.8001 3 61.0439C3 24.7984 32.8079 2.65996 62.9265 0.175537C93.0451 -2.30889 116.731 21.9628 114.901 48.6218Z" fill="url(#paint0_linear)"/>
<path opacity="0.1" d="M21.7062 43.6554C34.7366 27.501 51.0558 12.6418 73.1112 28.0662C95.1666 43.4907 110.307 68.4852 98.3966 85.5152C82.2626 108.585 53.4524 109.419 33.1932 97.6059C12.934 85.7923 8.67582 59.8098 21.7062 43.6554Z" fill="url(#paint1_linear)"/>
<path d="M52.96 64.376L55.648 60.056C57.056 61.4213 58.624 62.104 60.352 62.104C61.3547 62.104 62.144 61.8907 62.72 61.464C63.3173 61.016 63.616 60.472 63.616 59.832C63.616 58.1467 62.1973 57.304 59.36 57.304H57.76L56.576 54.584L59.584 50.968C59.904 50.584 60.224 50.2107 60.544 49.848C60.8853 49.4853 61.1413 49.2293 61.312 49.08L61.568 48.824V48.76C61.0773 48.8667 60.352 48.92 59.392 48.92H53.92V44.12H68.352V47.608L63.712 52.952C65.3973 53.3147 66.7413 54.104 67.744 55.32C68.7467 56.536 69.248 57.9547 69.248 59.576C69.248 61.7093 68.5013 63.544 67.008 65.08C65.536 66.616 63.456 67.384 60.768 67.384C57.5467 67.384 54.944 66.3813 52.96 64.376Z" fill="black"/>
<defs>
<linearGradient id="paint0_linear" x1="13.6543" y1="101.598" x2="125.575" y2="65.3827" gradientUnits="userSpaceOnUse">
<stop stop-color="#86F5FC"/>
<stop offset="1" stop-color="#005B8E"/>
</linearGradient>
<linearGradient id="paint1_linear" x1="109.673" y1="54.9646" x2="22.3925" y2="28.1947" gradientUnits="userSpaceOnUse">
<stop stop-color="#86F5FC"/>
<stop offset="1" stop-color="#005B8E"/>
</linearGradient>
</defs>
</svg>
