<svg width="96" height="96" viewBox="0 0 96 96" fill="none" xmlns="http://www.w3.org/2000/svg">
<path opacity="0.07" d="M95.9149 41.541C94.3464 64.3176 88.9812 88 59.2536 88C29.526 88 0 75.0136 0 52.154C0 21.187 25.5497 2.27259 51.3656 0.149973C77.1815 -1.97264 97.4833 18.7644 95.9149 41.541Z" fill="url(#paint0_linear)"/>
<path opacity="0.1" d="M93.881 53.1519C91.405 73.7583 85.4539 95.0115 58.5752 93.6364C31.6964 92.2613 5.60319 79.1052 6.66497 58.3508C8.10332 30.2357 32.083 14.2451 55.5235 13.5122C78.964 12.7792 96.3571 32.5455 93.881 53.1519Z" fill="url(#paint1_linear)"/>
<path d="M40.76 60C40.5893 59.04 40.504 58.2187 40.504 57.536C40.504 56.2133 40.7493 54.9867 41.24 53.856C41.7307 52.7253 42.3387 51.7973 43.064 51.072C43.7893 50.3467 44.5787 49.6533 45.432 48.992C46.3067 48.3307 47.1067 47.776 47.832 47.328C48.5573 46.8587 49.1653 46.368 49.656 45.856C50.1467 45.3227 50.392 44.8 50.392 44.288C50.392 43.5413 50.1467 42.976 49.656 42.592C49.1653 42.208 48.5893 42.016 47.928 42.016C47.224 42.016 46.5733 42.2507 45.976 42.72C45.3787 43.1893 44.8987 43.7653 44.536 44.448L40.376 41.664C41.1227 40.2133 42.168 39.0293 43.512 38.112C44.8773 37.1947 46.52 36.736 48.44 36.736C50.5307 36.736 52.3547 37.344 53.912 38.56C55.4693 39.7547 56.248 41.4827 56.248 43.744C56.248 45.0667 55.928 46.272 55.288 47.36C54.648 48.448 53.8693 49.344 52.952 50.048C52.0347 50.7307 51.1173 51.36 50.2 51.936C49.2827 52.4907 48.4827 53.0453 47.8 53.6C47.1173 54.1333 46.7547 54.6667 46.712 55.2H56.6V60H40.76Z" fill="black"/>
<defs>
<linearGradient id="paint0_linear" x1="9.13222" y1="86.8022" x2="105.005" y2="55.6789" gradientUnits="userSpaceOnUse">
<stop stop-color="#86F5FC"/>
<stop offset="1" stop-color="#005B8E"/>
</linearGradient>
<linearGradient id="paint1_linear" x1="13.3127" y1="90.2304" x2="101.501" y2="66.6219" gradientUnits="userSpaceOnUse">
<stop stop-color="#86F5FC"/>
<stop offset="1" stop-color="#005B8E"/>
</linearGradient>
</defs>
</svg>
